<svg xmlns="http://www.w3.org/2000/svg" width="900" height="432" viewBox="0 0 900 432" font-family="system-ui,Segoe UI,Helvetica,Arial,sans-serif">
<rect width="900" height="432" fill="#ffffff"/>
<text x="459" y="26" text-anchor="middle" font-size="16" font-weight="600" fill="#111">Per-benchmark spend by source — classic-graph-bash</text>
<text x="459" y="44" text-anchor="middle" font-size="11" fill="#666">$ per run by source, over the 26 benchmarks classic resolves (sorted by cost)</text><line x1="168.0" y1="64" x2="168.0" y2="416" stroke="#eee"/><text x="168.0" y="60" text-anchor="middle" font-size="10" fill="#999">$0.0</text><line x1="459.0" y1="64" x2="459.0" y2="416" stroke="#eee"/><text x="459.0" y="60" text-anchor="middle" font-size="10" fill="#999">$0.6</text><line x1="750.0" y1="64" x2="750.0" y2="416" stroke="#eee"/><text x="750.0" y="60" text-anchor="middle" font-size="10" fill="#999">$1.1</text><rect x="766" y="70" width="11" height="11" fill="#BAB0AC"/><text x="781" y="80" font-size="10.5" fill="#333">system+prompt</text><rect x="766" y="88" width="11" height="11" fill="#F28E2B"/><text x="781" y="98" font-size="10.5" fill="#333">bash:read</text><rect x="766" y="106" width="11" height="11" fill="#9D5C0E"/><text x="781" y="116" font-size="10.5" fill="#333">bash:build/test</text><rect x="766" y="124" width="11" height="11" fill="#FBC79A"/><text x="781" y="134" font-size="10.5" fill="#333">bash:other</text><rect x="766" y="142" width="11" height="11" fill="#4E79A7"/><text x="781" y="152" font-size="10.5" fill="#333">explore/graph</text><rect x="766" y="160" width="11" height="11" fill="#E15759"/><text x="781" y="170" font-size="10.5" fill="#333">edit</text><rect x="766" y="178" width="11" height="11" fill="#B07AA1"/><text x="781" y="188" font-size="10.5" fill="#333">thinking</text><rect x="766" y="196" width="11" height="11" fill="#59A14F"/><text x="781" y="206" font-size="10.5" fill="#333">output</text><text x="162" y="78" text-anchor="end" font-size="9" fill="#444">simdjson-2178</text><rect x="168.0" y="70" width="57.4" height="9" fill="#BAB0AC"/><rect x="225.4" y="70" width="30.3" height="9" fill="#F28E2B"/><rect x="255.7" y="70" width="1.4" height="9" fill="#FBC79A"/><rect x="257.1" y="70" width="400.1" height="9" fill="#4E79A7"/><rect x="657.2" y="70" width="10.5" height="9" fill="#E15759"/><rect x="667.7" y="70" width="42.6" height="9" fill="#B07AA1"/><rect x="710.3" y="70" width="1.5" height="9" fill="#59A14F"/><text x="715.8" y="78" font-size="8.5" fill="#666">$1.03</text><text x="162" y="91" text-anchor="end" font-size="9" fill="#444">svelte-15115</text><rect x="168.0" y="83" width="56.0" height="9" fill="#BAB0AC"/><rect x="224.0" y="83" width="6.5" height="9" fill="#F28E2B"/><rect x="230.5" y="83" width="0.8" height="9" fill="#9D5C0E"/><rect x="231.3" y="83" width="14.2" height="9" fill="#FBC79A"/><rect x="245.5" y="83" width="171.8" height="9" fill="#4E79A7"/><rect x="417.3" y="83" width="87.0" height="9" fill="#E15759"/><rect x="504.3" y="83" width="24.9" height="9" fill="#B07AA1"/><rect x="529.2" y="83" width="2.6" height="9" fill="#59A14F"/><text x="535.8" y="91" font-size="8.5" fill="#666">$0.69</text><text x="162" y="104" text-anchor="end" font-size="9" fill="#444">grpc-go-3258</text><rect x="168.0" y="96" width="49.0" height="9" fill="#BAB0AC"/><rect x="217.0" y="96" width="2.3" height="9" fill="#F28E2B"/><rect x="219.3" y="96" width="0.8" height="9" fill="#9D5C0E"/><rect x="220.1" y="96" width="0.4" height="9" fill="#FBC79A"/><rect x="220.4" y="96" width="244.0" height="9" fill="#4E79A7"/><rect x="464.4" y="96" width="30.6" height="9" fill="#E15759"/><rect x="495.0" y="96" width="24.3" height="9" fill="#B07AA1"/><rect x="519.3" y="96" width="3.6" height="9" fill="#59A14F"/><text x="526.9" y="104" font-size="8.5" fill="#666">$0.67</text><text x="162" y="117" text-anchor="end" font-size="9" fill="#444">zstd-3438</text><rect x="168.0" y="109" width="38.3" height="9" fill="#BAB0AC"/><rect x="206.3" y="109" width="4.3" height="9" fill="#F28E2B"/><rect x="210.7" y="109" width="2.4" height="9" fill="#9D5C0E"/><rect x="213.1" y="109" width="9.4" height="9" fill="#FBC79A"/><rect x="222.5" y="109" width="234.5" height="9" fill="#4E79A7"/><rect x="457.0" y="109" width="13.1" height="9" fill="#E15759"/><rect x="470.0" y="109" width="11.3" height="9" fill="#B07AA1"/><rect x="481.4" y="109" width="10.6" height="9" fill="#59A14F"/><text x="495.9" y="117" font-size="8.5" fill="#666">$0.61</text><text x="162" y="130" text-anchor="end" font-size="9" fill="#444">jq-3238</text><rect x="168.0" y="122" width="71.0" height="9" fill="#BAB0AC"/><rect x="239.0" y="122" width="65.0" height="9" fill="#F28E2B"/><rect x="303.9" y="122" width="21.6" height="9" fill="#9D5C0E"/><rect x="325.5" y="122" width="31.2" height="9" fill="#FBC79A"/><rect x="356.7" y="122" width="47.7" height="9" fill="#4E79A7"/><rect x="404.4" y="122" width="34.9" height="9" fill="#E15759"/><rect x="439.3" y="122" width="40.0" height="9" fill="#B07AA1"/><rect x="479.3" y="122" width="10.1" height="9" fill="#59A14F"/><text x="493.4" y="130" font-size="8.5" fill="#666">$0.61</text><text x="162" y="143" text-anchor="end" font-size="9" fill="#444">dayjs-2399</text><rect x="168.0" y="135" width="66.8" height="9" fill="#BAB0AC"/><rect x="234.8" y="135" width="7.9" height="9" fill="#F28E2B"/><rect x="242.7" y="135" width="30.1" height="9" fill="#9D5C0E"/><rect x="272.8" y="135" width="5.2" height="9" fill="#FBC79A"/><rect x="278.1" y="135" width="141.4" height="9" fill="#4E79A7"/><rect x="419.5" y="135" width="13.4" height="9" fill="#E15759"/><rect x="432.9" y="135" width="48.8" height="9" fill="#B07AA1"/><rect x="481.7" y="135" width="3.8" height="9" fill="#59A14F"/><text x="489.5" y="143" font-size="8.5" fill="#666">$0.60</text><text x="162" y="156" text-anchor="end" font-size="9" fill="#444">dayjs-2532</text><rect x="168.0" y="148" width="48.4" height="9" fill="#BAB0AC"/><rect x="216.4" y="148" width="1.1" height="9" fill="#F28E2B"/><rect x="217.5" y="148" width="17.6" height="9" fill="#9D5C0E"/><rect x="235.0" y="148" width="36.1" height="9" fill="#FBC79A"/><rect x="271.1" y="148" width="143.3" height="9" fill="#4E79A7"/><rect x="414.4" y="148" width="14.5" height="9" fill="#E15759"/><rect x="429.0" y="148" width="47.5" height="9" fill="#B07AA1"/><rect x="476.5" y="148" width="3.8" height="9" fill="#59A14F"/><text x="484.2" y="156" font-size="8.5" fill="#666">$0.59</text><text x="162" y="169" text-anchor="end" font-size="9" fill="#444">logstash-17021</text><rect x="168.0" y="161" width="76.8" height="9" fill="#BAB0AC"/><rect x="244.8" y="161" width="61.7" height="9" fill="#F28E2B"/><rect x="306.6" y="161" width="10.4" height="9" fill="#9D5C0E"/><rect x="317.0" y="161" width="11.1" height="9" fill="#FBC79A"/><rect x="328.1" y="161" width="62.7" height="9" fill="#4E79A7"/><rect x="390.8" y="161" width="16.9" height="9" fill="#E15759"/><rect x="407.7" y="161" width="48.1" height="9" fill="#B07AA1"/><rect x="455.8" y="161" width="5.5" height="9" fill="#59A14F"/><text x="465.3" y="169" font-size="8.5" fill="#666">$0.55</text><text x="162" y="182" text-anchor="end" font-size="9" fill="#444">clap-5873</text><rect x="168.0" y="174" width="83.9" height="9" fill="#BAB0AC"/><rect x="251.9" y="174" width="1.1" height="9" fill="#F28E2B"/><rect x="253.0" y="174" width="12.8" height="9" fill="#9D5C0E"/><rect x="265.8" y="174" width="106.3" height="9" fill="#4E79A7"/><rect x="372.1" y="174" width="11.2" height="9" fill="#E15759"/><rect x="383.3" y="174" width="9.2" height="9" fill="#B07AA1"/><rect x="392.6" y="174" width="4.4" height="9" fill="#59A14F"/><text x="401.0" y="182" font-size="8.5" fill="#666">$0.43</text><text x="162" y="195" text-anchor="end" font-size="9" fill="#444">tracing-2897</text><rect x="168.0" y="187" width="38.8" height="9" fill="#BAB0AC"/><rect x="206.8" y="187" width="2.2" height="9" fill="#F28E2B"/><rect x="209.0" y="187" width="45.2" height="9" fill="#9D5C0E"/><rect x="254.2" y="187" width="24.8" height="9" fill="#FBC79A"/><rect x="278.9" y="187" width="50.4" height="9" fill="#4E79A7"/><rect x="329.3" y="187" width="35.0" height="9" fill="#E15759"/><rect x="364.3" y="187" width="14.5" height="9" fill="#B07AA1"/><rect x="378.9" y="187" width="2.5" height="9" fill="#59A14F"/><text x="385.4" y="195" font-size="8.5" fill="#666">$0.40</text><text x="162" y="208" text-anchor="end" font-size="9" fill="#444">ponyc-4593</text><rect x="168.0" y="200" width="47.1" height="9" fill="#BAB0AC"/><rect x="215.1" y="200" width="1.0" height="9" fill="#F28E2B"/><rect x="216.1" y="200" width="2.0" height="9" fill="#9D5C0E"/><rect x="218.1" y="200" width="0.4" height="9" fill="#FBC79A"/><rect x="218.3" y="200" width="108.2" height="9" fill="#4E79A7"/><rect x="326.5" y="200" width="26.6" height="9" fill="#E15759"/><rect x="353.2" y="200" width="13.7" height="9" fill="#B07AA1"/><rect x="366.8" y="200" width="13.4" height="9" fill="#59A14F"/><text x="384.2" y="208" font-size="8.5" fill="#666">$0.40</text><text x="162" y="221" text-anchor="end" font-size="9" fill="#444">grpc-go-3351</text><rect x="168.0" y="213" width="45.3" height="9" fill="#BAB0AC"/><rect x="213.3" y="213" width="16.7" height="9" fill="#F28E2B"/><rect x="230.0" y="213" width="1.6" height="9" fill="#9D5C0E"/><rect x="231.6" y="213" width="10.2" height="9" fill="#FBC79A"/><rect x="241.8" y="213" width="85.9" height="9" fill="#4E79A7"/><rect x="327.8" y="213" width="17.5" height="9" fill="#E15759"/><rect x="345.3" y="213" width="6.5" height="9" fill="#B07AA1"/><rect x="351.8" y="213" width="2.3" height="9" fill="#59A14F"/><text x="358.1" y="221" font-size="8.5" fill="#666">$0.35</text><text x="162" y="234" text-anchor="end" font-size="9" fill="#444">jq-2919</text><rect x="168.0" y="226" width="37.3" height="9" fill="#BAB0AC"/><rect x="205.3" y="226" width="0.4" height="9" fill="#F28E2B"/><rect x="205.7" y="226" width="77.6" height="9" fill="#9D5C0E"/><rect x="283.3" y="226" width="2.0" height="9" fill="#FBC79A"/><rect x="285.3" y="226" width="37.8" height="9" fill="#4E79A7"/><rect x="323.0" y="226" width="5.6" height="9" fill="#E15759"/><rect x="328.7" y="226" width="19.2" height="9" fill="#B07AA1"/><rect x="347.8" y="226" width="1.7" height="9" fill="#59A14F"/><text x="353.5" y="234" font-size="8.5" fill="#666">$0.34</text><text x="162" y="247" text-anchor="end" font-size="9" fill="#444">core-11694</text><rect x="168.0" y="239" width="40.9" height="9" fill="#BAB0AC"/><rect x="208.9" y="239" width="11.4" height="9" fill="#F28E2B"/><rect x="220.3" y="239" width="2.1" height="9" fill="#9D5C0E"/><rect x="222.3" y="239" width="16.7" height="9" fill="#FBC79A"/><rect x="239.0" y="239" width="72.7" height="9" fill="#4E79A7"/><rect x="311.7" y="239" width="4.1" height="9" fill="#E15759"/><rect x="315.8" y="239" width="17.4" height="9" fill="#B07AA1"/><rect x="333.1" y="239" width="4.5" height="9" fill="#59A14F"/><text x="341.6" y="247" font-size="8.5" fill="#666">$0.32</text><text x="162" y="260" text-anchor="end" font-size="9" fill="#444">github-readme-stats-2844</text><rect x="168.0" y="252" width="30.9" height="9" fill="#BAB0AC"/><rect x="198.9" y="252" width="1.8" height="9" fill="#F28E2B"/><rect x="200.7" y="252" width="4.0" height="9" fill="#9D5C0E"/><rect x="204.7" y="252" width="77.5" height="9" fill="#4E79A7"/><rect x="282.2" y="252" width="13.5" height="9" fill="#E15759"/><rect x="295.7" y="252" width="19.4" height="9" fill="#B07AA1"/><rect x="315.1" y="252" width="7.5" height="9" fill="#59A14F"/><text x="326.6" y="260" font-size="8.5" fill="#666">$0.29</text><text x="162" y="273" text-anchor="end" font-size="9" fill="#444">core-11680</text><rect x="168.0" y="265" width="41.1" height="9" fill="#BAB0AC"/><rect x="209.1" y="265" width="0.4" height="9" fill="#F28E2B"/><rect x="209.5" y="265" width="0.4" height="9" fill="#9D5C0E"/><rect x="209.7" y="265" width="14.6" height="9" fill="#FBC79A"/><rect x="224.3" y="265" width="54.2" height="9" fill="#4E79A7"/><rect x="278.5" y="265" width="11.7" height="9" fill="#E15759"/><rect x="290.2" y="265" width="27.8" height="9" fill="#B07AA1"/><rect x="318.0" y="265" width="4.4" height="9" fill="#59A14F"/><text x="326.4" y="273" font-size="8.5" fill="#666">$0.29</text><text x="162" y="286" text-anchor="end" font-size="9" fill="#444">core-11761</text><rect x="168.0" y="278" width="40.4" height="9" fill="#BAB0AC"/><rect x="208.4" y="278" width="2.1" height="9" fill="#F28E2B"/><rect x="210.5" y="278" width="0.6" height="9" fill="#9D5C0E"/><rect x="211.1" y="278" width="64.0" height="9" fill="#4E79A7"/><rect x="275.1" y="278" width="5.9" height="9" fill="#E15759"/><rect x="281.0" y="278" width="34.3" height="9" fill="#B07AA1"/><rect x="315.3" y="278" width="3.7" height="9" fill="#59A14F"/><text x="323.1" y="286" font-size="8.5" fill="#666">$0.29</text><text x="162" y="299" text-anchor="end" font-size="9" fill="#444">zstd-3942</text><rect x="168.0" y="291" width="37.6" height="9" fill="#BAB0AC"/><rect x="205.6" y="291" width="1.0" height="9" fill="#F28E2B"/><rect x="206.7" y="291" width="0.4" height="9" fill="#9D5C0E"/><rect x="206.9" y="291" width="5.4" height="9" fill="#FBC79A"/><rect x="212.3" y="291" width="65.6" height="9" fill="#4E79A7"/><rect x="278.0" y="291" width="3.9" height="9" fill="#E15759"/><rect x="281.9" y="291" width="17.3" height="9" fill="#B07AA1"/><rect x="299.2" y="291" width="3.7" height="9" fill="#59A14F"/><text x="306.9" y="299" font-size="8.5" fill="#666">$0.26</text><text x="162" y="312" text-anchor="end" font-size="9" fill="#444">darkreader-7241</text><rect x="168.0" y="304" width="49.4" height="9" fill="#BAB0AC"/><rect x="217.4" y="304" width="0.4" height="9" fill="#F28E2B"/><rect x="217.8" y="304" width="0.5" height="9" fill="#9D5C0E"/><rect x="218.3" y="304" width="39.4" height="9" fill="#4E79A7"/><rect x="257.7" y="304" width="23.9" height="9" fill="#E15759"/><rect x="281.7" y="304" width="9.1" height="9" fill="#B07AA1"/><rect x="290.8" y="304" width="8.5" height="9" fill="#59A14F"/><text x="303.2" y="312" font-size="8.5" fill="#666">$0.25</text><text x="162" y="325" text-anchor="end" font-size="9" fill="#444">bytes-732</text><rect x="168.0" y="317" width="42.9" height="9" fill="#BAB0AC"/><rect x="210.9" y="317" width="9.5" height="9" fill="#9D5C0E"/><rect x="220.4" y="317" width="41.7" height="9" fill="#4E79A7"/><rect x="262.1" y="317" width="14.6" height="9" fill="#E15759"/><rect x="276.8" y="317" width="4.3" height="9" fill="#B07AA1"/><rect x="281.1" y="317" width="4.4" height="9" fill="#59A14F"/><text x="289.5" y="325" font-size="8.5" fill="#666">$0.22</text><text x="162" y="338" text-anchor="end" font-size="9" fill="#444">bat-3189</text><rect x="168.0" y="330" width="39.7" height="9" fill="#BAB0AC"/><rect x="207.7" y="330" width="9.0" height="9" fill="#9D5C0E"/><rect x="216.7" y="330" width="5.9" height="9" fill="#FBC79A"/><rect x="222.6" y="330" width="39.6" height="9" fill="#4E79A7"/><rect x="262.2" y="330" width="4.7" height="9" fill="#E15759"/><rect x="266.8" y="330" width="3.8" height="9" fill="#B07AA1"/><rect x="270.6" y="330" width="2.7" height="9" fill="#59A14F"/><text x="277.3" y="338" font-size="8.5" fill="#666">$0.20</text><text x="162" y="351" text-anchor="end" font-size="9" fill="#444">go-zero-2787</text><rect x="168.0" y="343" width="25.2" height="9" fill="#BAB0AC"/><rect x="193.2" y="343" width="0.4" height="9" fill="#9D5C0E"/><rect x="193.4" y="343" width="0.4" height="9" fill="#FBC79A"/><rect x="193.5" y="343" width="31.5" height="9" fill="#4E79A7"/><rect x="225.0" y="343" width="16.8" height="9" fill="#E15759"/><rect x="241.7" y="343" width="9.1" height="9" fill="#B07AA1"/><rect x="250.9" y="343" width="1.0" height="9" fill="#59A14F"/><text x="255.9" y="351" font-size="8.5" fill="#666">$0.16</text><text x="162" y="364" text-anchor="end" font-size="9" fill="#444">fd-1394</text><rect x="168.0" y="356" width="25.2" height="9" fill="#BAB0AC"/><rect x="193.2" y="356" width="17.6" height="9" fill="#9D5C0E"/><rect x="210.9" y="356" width="18.0" height="9" fill="#4E79A7"/><rect x="228.9" y="356" width="9.5" height="9" fill="#E15759"/><rect x="238.4" y="356" width="11.3" height="9" fill="#B07AA1"/><rect x="249.6" y="356" width="0.7" height="9" fill="#59A14F"/><text x="254.3" y="364" font-size="8.5" fill="#666">$0.16</text><text x="162" y="377" text-anchor="end" font-size="9" fill="#444">rayon-986</text><rect x="168.0" y="369" width="16.6" height="9" fill="#BAB0AC"/><rect x="184.6" y="369" width="23.1" height="9" fill="#9D5C0E"/><rect x="207.7" y="369" width="8.0" height="9" fill="#4E79A7"/><rect x="215.7" y="369" width="13.4" height="9" fill="#E15759"/><rect x="229.1" y="369" width="3.2" height="9" fill="#B07AA1"/><rect x="232.3" y="369" width="1.9" height="9" fill="#59A14F"/><text x="238.3" y="377" font-size="8.5" fill="#666">$0.13</text><text x="162" y="390" text-anchor="end" font-size="9" fill="#444">express-5555</text><rect x="168.0" y="382" width="17.1" height="9" fill="#BAB0AC"/><rect x="185.1" y="382" width="0.4" height="9" fill="#9D5C0E"/><rect x="185.4" y="382" width="4.1" height="9" fill="#FBC79A"/><rect x="189.6" y="382" width="20.8" height="9" fill="#4E79A7"/><rect x="210.4" y="382" width="1.5" height="9" fill="#E15759"/><rect x="211.9" y="382" width="3.3" height="9" fill="#B07AA1"/><rect x="215.2" y="382" width="1.4" height="9" fill="#59A14F"/><text x="220.6" y="390" font-size="8.5" fill="#666">$0.09</text><text x="162" y="403" text-anchor="end" font-size="9" fill="#444">core-11813</text><rect x="168.0" y="395" width="19.4" height="9" fill="#BAB0AC"/><rect x="187.4" y="395" width="0.4" height="9" fill="#9D5C0E"/><rect x="187.8" y="395" width="11.2" height="9" fill="#4E79A7"/><rect x="199.0" y="395" width="1.5" height="9" fill="#E15759"/><rect x="200.5" y="395" width="8.8" height="9" fill="#B07AA1"/><rect x="209.2" y="395" width="5.7" height="9" fill="#59A14F"/><text x="218.9" y="403" font-size="8.5" fill="#666">$0.09</text></svg>
