<svg xmlns="http://www.w3.org/2000/svg" width="900" height="406" viewBox="0 0 900 406" font-family="system-ui,Segoe UI,Helvetica,Arial,sans-serif">
<rect width="900" height="406" fill="#ffffff"/>
<text x="459" y="26" text-anchor="middle" font-size="16" font-weight="600" fill="#111">Per-benchmark spend by source — classic-graphify</text>
<text x="459" y="44" text-anchor="middle" font-size="11" fill="#666">$ per run by source, over the 24 benchmarks classic resolves (sorted by cost)</text><line x1="168.0" y1="64" x2="168.0" y2="390" stroke="#eee"/><text x="168.0" y="60" text-anchor="middle" font-size="10" fill="#999">$0.0</text><line x1="362.0" y1="64" x2="362.0" y2="390" stroke="#eee"/><text x="362.0" y="60" text-anchor="middle" font-size="10" fill="#999">$0.5</text><line x1="556.0" y1="64" x2="556.0" y2="390" stroke="#eee"/><text x="556.0" y="60" text-anchor="middle" font-size="10" fill="#999">$0.9</text><line x1="750.0" y1="64" x2="750.0" y2="390" stroke="#eee"/><text x="750.0" y="60" text-anchor="middle" font-size="10" fill="#999">$1.4</text><rect x="766" y="70" width="11" height="11" fill="#BAB0AC"/><text x="781" y="80" font-size="10.5" fill="#333">system+prompt</text><rect x="766" y="88" width="11" height="11" fill="#F28E2B"/><text x="781" y="98" font-size="10.5" fill="#333">bash:read</text><rect x="766" y="106" width="11" height="11" fill="#9D5C0E"/><text x="781" y="116" font-size="10.5" fill="#333">bash:build/test</text><rect x="766" y="124" width="11" height="11" fill="#FBC79A"/><text x="781" y="134" font-size="10.5" fill="#333">bash:other</text><rect x="766" y="142" width="11" height="11" fill="#4E79A7"/><text x="781" y="152" font-size="10.5" fill="#333">explore/graph</text><rect x="766" y="160" width="11" height="11" fill="#E15759"/><text x="781" y="170" font-size="10.5" fill="#333">edit</text><rect x="766" y="178" width="11" height="11" fill="#B07AA1"/><text x="781" y="188" font-size="10.5" fill="#333">thinking</text><rect x="766" y="196" width="11" height="11" fill="#59A14F"/><text x="781" y="206" font-size="10.5" fill="#333">output</text><text x="162" y="78" text-anchor="end" font-size="9" fill="#444">simdjson-2178</text><rect x="168.0" y="70" width="29.5" height="9" fill="#BAB0AC"/><rect x="197.5" y="70" width="438.6" height="9" fill="#F28E2B"/><rect x="636.1" y="70" width="4.2" height="9" fill="#9D5C0E"/><rect x="640.3" y="70" width="3.1" height="9" fill="#FBC79A"/><rect x="643.4" y="70" width="53.8" height="9" fill="#4E79A7"/><rect x="697.2" y="70" width="16.5" height="9" fill="#E15759"/><rect x="713.6" y="70" width="30.4" height="9" fill="#B07AA1"/><rect x="744.0" y="70" width="2.0" height="9" fill="#59A14F"/><text x="750.0" y="78" font-size="8.5" fill="#666">$1.39</text><text x="162" y="91" text-anchor="end" font-size="9" fill="#444">zstd-3438</text><rect x="168.0" y="83" width="34.3" height="9" fill="#BAB0AC"/><rect x="202.3" y="83" width="351.6" height="9" fill="#F28E2B"/><rect x="553.9" y="83" width="6.0" height="9" fill="#9D5C0E"/><rect x="559.9" y="83" width="66.1" height="9" fill="#4E79A7"/><rect x="626.0" y="83" width="19.5" height="9" fill="#E15759"/><rect x="645.5" y="83" width="39.3" height="9" fill="#B07AA1"/><rect x="684.8" y="83" width="1.5" height="9" fill="#59A14F"/><text x="690.3" y="91" font-size="8.5" fill="#666">$1.25</text><text x="162" y="104" text-anchor="end" font-size="9" fill="#444">dayjs-2399</text><rect x="168.0" y="96" width="43.8" height="9" fill="#BAB0AC"/><rect x="211.8" y="96" width="215.8" height="9" fill="#F28E2B"/><rect x="427.7" y="96" width="10.5" height="9" fill="#9D5C0E"/><rect x="438.2" y="96" width="19.9" height="9" fill="#FBC79A"/><rect x="458.1" y="96" width="54.8" height="9" fill="#4E79A7"/><rect x="512.9" y="96" width="15.9" height="9" fill="#E15759"/><rect x="528.8" y="96" width="79.9" height="9" fill="#B07AA1"/><rect x="608.7" y="96" width="5.7" height="9" fill="#59A14F"/><text x="618.4" y="104" font-size="8.5" fill="#666">$1.07</text><text x="162" y="117" text-anchor="end" font-size="9" fill="#444">logstash-17021</text><rect x="168.0" y="109" width="53.0" height="9" fill="#BAB0AC"/><rect x="221.0" y="109" width="97.6" height="9" fill="#F28E2B"/><rect x="318.7" y="109" width="60.3" height="9" fill="#9D5C0E"/><rect x="379.0" y="109" width="68.9" height="9" fill="#4E79A7"/><rect x="447.9" y="109" width="4.0" height="9" fill="#E15759"/><rect x="451.9" y="109" width="61.5" height="9" fill="#B07AA1"/><rect x="513.4" y="109" width="1.5" height="9" fill="#59A14F"/><text x="519.0" y="117" font-size="8.5" fill="#666">$0.83</text><text x="162" y="130" text-anchor="end" font-size="9" fill="#444">core-11694</text><rect x="168.0" y="122" width="33.0" height="9" fill="#BAB0AC"/><rect x="201.0" y="122" width="132.5" height="9" fill="#F28E2B"/><rect x="333.5" y="122" width="40.3" height="9" fill="#9D5C0E"/><rect x="373.8" y="122" width="21.5" height="9" fill="#FBC79A"/><rect x="395.2" y="122" width="40.8" height="9" fill="#4E79A7"/><rect x="436.0" y="122" width="22.0" height="9" fill="#E15759"/><rect x="458.0" y="122" width="53.7" height="9" fill="#B07AA1"/><rect x="511.7" y="122" width="1.5" height="9" fill="#59A14F"/><text x="517.1" y="130" font-size="8.5" fill="#666">$0.83</text><text x="162" y="143" text-anchor="end" font-size="9" fill="#444">grpc-go-3258</text><rect x="168.0" y="135" width="39.2" height="9" fill="#BAB0AC"/><rect x="207.2" y="135" width="161.5" height="9" fill="#F28E2B"/><rect x="368.6" y="135" width="0.8" height="9" fill="#9D5C0E"/><rect x="369.4" y="135" width="44.9" height="9" fill="#4E79A7"/><rect x="414.3" y="135" width="49.5" height="9" fill="#E15759"/><rect x="463.8" y="135" width="32.9" height="9" fill="#B07AA1"/><rect x="496.7" y="135" width="4.2" height="9" fill="#59A14F"/><text x="505.0" y="143" font-size="8.5" fill="#666">$0.80</text><text x="162" y="156" text-anchor="end" font-size="9" fill="#444">dayjs-2532</text><rect x="168.0" y="148" width="41.2" height="9" fill="#BAB0AC"/><rect x="209.2" y="148" width="135.5" height="9" fill="#F28E2B"/><rect x="344.8" y="148" width="6.5" height="9" fill="#9D5C0E"/><rect x="351.3" y="148" width="4.6" height="9" fill="#FBC79A"/><rect x="355.9" y="148" width="13.0" height="9" fill="#4E79A7"/><rect x="368.9" y="148" width="16.1" height="9" fill="#E15759"/><rect x="385.0" y="148" width="61.8" height="9" fill="#B07AA1"/><rect x="446.7" y="148" width="12.0" height="9" fill="#59A14F"/><text x="462.7" y="156" font-size="8.5" fill="#666">$0.70</text><text x="162" y="169" text-anchor="end" font-size="9" fill="#444">tracing-2897</text><rect x="168.0" y="161" width="21.2" height="9" fill="#BAB0AC"/><rect x="189.2" y="161" width="104.1" height="9" fill="#F28E2B"/><rect x="293.2" y="161" width="49.3" height="9" fill="#9D5C0E"/><rect x="342.5" y="161" width="0.4" height="9" fill="#FBC79A"/><rect x="342.6" y="161" width="43.9" height="9" fill="#4E79A7"/><rect x="386.5" y="161" width="10.8" height="9" fill="#E15759"/><rect x="397.4" y="161" width="17.7" height="9" fill="#B07AA1"/><rect x="415.1" y="161" width="2.1" height="9" fill="#59A14F"/><text x="421.2" y="169" font-size="8.5" fill="#666">$0.60</text><text x="162" y="182" text-anchor="end" font-size="9" fill="#444">clap-5873</text><rect x="168.0" y="174" width="65.0" height="9" fill="#BAB0AC"/><rect x="233.0" y="174" width="83.0" height="9" fill="#F28E2B"/><rect x="316.0" y="174" width="1.6" height="9" fill="#9D5C0E"/><rect x="317.6" y="174" width="61.7" height="9" fill="#4E79A7"/><rect x="379.3" y="174" width="9.5" height="9" fill="#E15759"/><rect x="388.8" y="174" width="9.5" height="9" fill="#B07AA1"/><rect x="398.3" y="174" width="3.3" height="9" fill="#59A14F"/><text x="405.6" y="182" font-size="8.5" fill="#666">$0.56</text><text x="162" y="195" text-anchor="end" font-size="9" fill="#444">jq-3238</text><rect x="168.0" y="187" width="25.7" height="9" fill="#BAB0AC"/><rect x="193.7" y="187" width="48.8" height="9" fill="#F28E2B"/><rect x="242.5" y="187" width="28.3" height="9" fill="#9D5C0E"/><rect x="270.7" y="187" width="2.5" height="9" fill="#FBC79A"/><rect x="273.2" y="187" width="62.0" height="9" fill="#4E79A7"/><rect x="335.2" y="187" width="25.4" height="9" fill="#E15759"/><rect x="360.6" y="187" width="34.1" height="9" fill="#B07AA1"/><rect x="394.8" y="187" width="5.4" height="9" fill="#59A14F"/><text x="404.2" y="195" font-size="8.5" fill="#666">$0.56</text><text x="162" y="208" text-anchor="end" font-size="9" fill="#444">core-11761</text><rect x="168.0" y="200" width="45.8" height="9" fill="#BAB0AC"/><rect x="213.8" y="200" width="90.4" height="9" fill="#F28E2B"/><rect x="304.1" y="200" width="2.1" height="9" fill="#9D5C0E"/><rect x="306.2" y="200" width="23.1" height="9" fill="#4E79A7"/><rect x="329.3" y="200" width="8.4" height="9" fill="#E15759"/><rect x="337.6" y="200" width="48.0" height="9" fill="#B07AA1"/><rect x="385.6" y="200" width="4.4" height="9" fill="#59A14F"/><text x="394.0" y="208" font-size="8.5" fill="#666">$0.53</text><text x="162" y="221" text-anchor="end" font-size="9" fill="#444">jq-2919</text><rect x="168.0" y="213" width="26.3" height="9" fill="#BAB0AC"/><rect x="194.3" y="213" width="56.3" height="9" fill="#F28E2B"/><rect x="250.6" y="213" width="20.7" height="9" fill="#9D5C0E"/><rect x="271.3" y="213" width="43.5" height="9" fill="#4E79A7"/><rect x="314.7" y="213" width="19.1" height="9" fill="#E15759"/><rect x="333.8" y="213" width="26.1" height="9" fill="#B07AA1"/><rect x="359.9" y="213" width="3.9" height="9" fill="#59A14F"/><text x="367.8" y="221" font-size="8.5" fill="#666">$0.47</text><text x="162" y="234" text-anchor="end" font-size="9" fill="#444">grpc-go-3351</text><rect x="168.0" y="226" width="21.0" height="9" fill="#BAB0AC"/><rect x="189.0" y="226" width="110.1" height="9" fill="#F28E2B"/><rect x="299.0" y="226" width="0.4" height="9" fill="#9D5C0E"/><rect x="299.3" y="226" width="0.8" height="9" fill="#FBC79A"/><rect x="300.1" y="226" width="34.5" height="9" fill="#4E79A7"/><rect x="334.7" y="226" width="2.0" height="9" fill="#E15759"/><rect x="336.7" y="226" width="10.6" height="9" fill="#B07AA1"/><rect x="347.3" y="226" width="3.9" height="9" fill="#59A14F"/><text x="355.2" y="234" font-size="8.5" fill="#666">$0.44</text><text x="162" y="247" text-anchor="end" font-size="9" fill="#444">github-readme-stats-2844</text><rect x="168.0" y="239" width="28.2" height="9" fill="#BAB0AC"/><rect x="196.2" y="239" width="63.5" height="9" fill="#F28E2B"/><rect x="259.8" y="239" width="4.6" height="9" fill="#9D5C0E"/><rect x="264.4" y="239" width="4.5" height="9" fill="#FBC79A"/><rect x="268.9" y="239" width="31.9" height="9" fill="#4E79A7"/><rect x="300.8" y="239" width="9.8" height="9" fill="#E15759"/><rect x="310.6" y="239" width="30.1" height="9" fill="#B07AA1"/><rect x="340.7" y="239" width="3.1" height="9" fill="#59A14F"/><text x="347.7" y="247" font-size="8.5" fill="#666">$0.42</text><text x="162" y="260" text-anchor="end" font-size="9" fill="#444">darkreader-7241</text><rect x="168.0" y="252" width="36.0" height="9" fill="#BAB0AC"/><rect x="204.0" y="252" width="64.1" height="9" fill="#F28E2B"/><rect x="268.0" y="252" width="1.6" height="9" fill="#9D5C0E"/><rect x="269.6" y="252" width="3.3" height="9" fill="#FBC79A"/><rect x="272.9" y="252" width="26.6" height="9" fill="#4E79A7"/><rect x="299.5" y="252" width="16.1" height="9" fill="#E15759"/><rect x="315.6" y="252" width="16.5" height="9" fill="#B07AA1"/><rect x="332.1" y="252" width="1.7" height="9" fill="#59A14F"/><text x="337.8" y="260" font-size="8.5" fill="#666">$0.40</text><text x="162" y="273" text-anchor="end" font-size="9" fill="#444">core-11680</text><rect x="168.0" y="265" width="32.9" height="9" fill="#BAB0AC"/><rect x="200.9" y="265" width="58.6" height="9" fill="#F28E2B"/><rect x="259.5" y="265" width="0.8" height="9" fill="#9D5C0E"/><rect x="260.3" y="265" width="11.0" height="9" fill="#4E79A7"/><rect x="271.3" y="265" width="18.9" height="9" fill="#E15759"/><rect x="290.2" y="265" width="41.4" height="9" fill="#B07AA1"/><rect x="331.6" y="265" width="1.3" height="9" fill="#59A14F"/><text x="336.9" y="273" font-size="8.5" fill="#666">$0.40</text><text x="162" y="286" text-anchor="end" font-size="9" fill="#444">fd-1394</text><rect x="168.0" y="278" width="31.7" height="9" fill="#BAB0AC"/><rect x="199.7" y="278" width="43.1" height="9" fill="#F28E2B"/><rect x="242.8" y="278" width="17.3" height="9" fill="#9D5C0E"/><rect x="260.0" y="278" width="31.0" height="9" fill="#4E79A7"/><rect x="291.0" y="278" width="18.1" height="9" fill="#E15759"/><rect x="309.1" y="278" width="13.9" height="9" fill="#B07AA1"/><rect x="323.0" y="278" width="1.3" height="9" fill="#59A14F"/><text x="328.3" y="286" font-size="8.5" fill="#666">$0.38</text><text x="162" y="299" text-anchor="end" font-size="9" fill="#444">bytes-732</text><rect x="168.0" y="291" width="22.3" height="9" fill="#BAB0AC"/><rect x="190.3" y="291" width="40.9" height="9" fill="#F28E2B"/><rect x="231.2" y="291" width="2.9" height="9" fill="#9D5C0E"/><rect x="234.1" y="291" width="35.5" height="9" fill="#4E79A7"/><rect x="269.7" y="291" width="5.7" height="9" fill="#E15759"/><rect x="275.4" y="291" width="17.2" height="9" fill="#B07AA1"/><rect x="292.6" y="291" width="9.6" height="9" fill="#59A14F"/><text x="306.2" y="299" font-size="8.5" fill="#666">$0.32</text><text x="162" y="312" text-anchor="end" font-size="9" fill="#444">zstd-3942</text><rect x="168.0" y="304" width="16.5" height="9" fill="#BAB0AC"/><rect x="184.5" y="304" width="62.0" height="9" fill="#F28E2B"/><rect x="246.4" y="304" width="0.4" height="9" fill="#9D5C0E"/><rect x="246.6" y="304" width="4.0" height="9" fill="#FBC79A"/><rect x="250.6" y="304" width="40.3" height="9" fill="#4E79A7"/><rect x="290.9" y="304" width="1.7" height="9" fill="#E15759"/><rect x="292.7" y="304" width="5.2" height="9" fill="#B07AA1"/><rect x="297.9" y="304" width="1.7" height="9" fill="#59A14F"/><text x="303.6" y="312" font-size="8.5" fill="#666">$0.32</text><text x="162" y="325" text-anchor="end" font-size="9" fill="#444">go-zero-2787</text><rect x="168.0" y="317" width="21.1" height="9" fill="#BAB0AC"/><rect x="189.1" y="317" width="23.9" height="9" fill="#F28E2B"/><rect x="213.0" y="317" width="0.4" height="9" fill="#9D5C0E"/><rect x="213.4" y="317" width="0.9" height="9" fill="#FBC79A"/><rect x="214.3" y="317" width="24.0" height="9" fill="#4E79A7"/><rect x="238.2" y="317" width="6.4" height="9" fill="#E15759"/><rect x="244.7" y="317" width="14.2" height="9" fill="#B07AA1"/><rect x="258.9" y="317" width="0.9" height="9" fill="#59A14F"/><text x="263.7" y="325" font-size="8.5" fill="#666">$0.22</text><text x="162" y="338" text-anchor="end" font-size="9" fill="#444">express-5555</text><rect x="168.0" y="330" width="22.3" height="9" fill="#BAB0AC"/><rect x="190.3" y="330" width="30.6" height="9" fill="#F28E2B"/><rect x="220.9" y="330" width="6.3" height="9" fill="#FBC79A"/><rect x="227.2" y="330" width="10.0" height="9" fill="#4E79A7"/><rect x="237.2" y="330" width="9.5" height="9" fill="#E15759"/><rect x="246.7" y="330" width="7.8" height="9" fill="#B07AA1"/><rect x="254.5" y="330" width="5.2" height="9" fill="#59A14F"/><text x="263.6" y="338" font-size="8.5" fill="#666">$0.22</text><text x="162" y="351" text-anchor="end" font-size="9" fill="#444">core-11813</text><rect x="168.0" y="343" width="24.6" height="9" fill="#BAB0AC"/><rect x="192.6" y="343" width="28.6" height="9" fill="#F28E2B"/><rect x="221.2" y="343" width="0.5" height="9" fill="#9D5C0E"/><rect x="221.7" y="343" width="19.9" height="9" fill="#4E79A7"/><rect x="241.6" y="343" width="2.7" height="9" fill="#E15759"/><rect x="244.3" y="343" width="10.9" height="9" fill="#B07AA1"/><rect x="255.2" y="343" width="2.8" height="9" fill="#59A14F"/><text x="262.0" y="351" font-size="8.5" fill="#666">$0.22</text><text x="162" y="364" text-anchor="end" font-size="9" fill="#444">rayon-986</text><rect x="168.0" y="356" width="11.8" height="9" fill="#BAB0AC"/><rect x="179.8" y="356" width="23.6" height="9" fill="#F28E2B"/><rect x="203.4" y="356" width="1.0" height="9" fill="#9D5C0E"/><rect x="204.4" y="356" width="18.6" height="9" fill="#4E79A7"/><rect x="223.0" y="356" width="10.6" height="9" fill="#E15759"/><rect x="233.6" y="356" width="10.9" height="9" fill="#B07AA1"/><rect x="244.5" y="356" width="6.3" height="9" fill="#59A14F"/><text x="254.9" y="364" font-size="8.5" fill="#666">$0.20</text><text x="162" y="377" text-anchor="end" font-size="9" fill="#444">bat-3189</text><rect x="168.0" y="369" width="23.3" height="9" fill="#BAB0AC"/><rect x="191.3" y="369" width="28.7" height="9" fill="#F28E2B"/><rect x="219.9" y="369" width="4.4" height="9" fill="#9D5C0E"/><rect x="224.3" y="369" width="13.4" height="9" fill="#4E79A7"/><rect x="237.7" y="369" width="7.6" height="9" fill="#E15759"/><rect x="245.3" y="369" width="2.6" height="9" fill="#B07AA1"/><rect x="248.0" y="369" width="1.8" height="9" fill="#59A14F"/><text x="253.8" y="377" font-size="8.5" fill="#666">$0.20</text></svg>
