<svg xmlns="http://www.w3.org/2000/svg" width="760" height="500" viewBox="0 0 760 500" font-family="system-ui,Segoe UI,Helvetica,Arial,sans-serif">
<rect width="760" height="500" fill="#ffffff"/>
<text x="315" y="26" text-anchor="middle" font-size="16" font-weight="600" fill="#111">Where the $ goes — full spend by source</text>
<text x="315" y="44" text-anchor="middle" font-size="11" fill="#666">input+cached+output attributed to what produced it, summed over classic's 24 wins</text><line x1="60" y1="430.0" x2="610" y2="430.0" stroke="#eee"/><text x="52" y="434.0" text-anchor="end" font-size="10" fill="#999">$0</text><line x1="60" y1="363.2" x2="610" y2="363.2" stroke="#eee"/><text x="52" y="367.2" text-anchor="end" font-size="10" fill="#999">$6</text><line x1="60" y1="296.4" x2="610" y2="296.4" stroke="#eee"/><text x="52" y="300.4" text-anchor="end" font-size="10" fill="#999">$12</text><line x1="60" y1="229.6" x2="610" y2="229.6" stroke="#eee"/><text x="52" y="233.6" text-anchor="end" font-size="10" fill="#999">$18</text><line x1="60" y1="162.8" x2="610" y2="162.8" stroke="#eee"/><text x="52" y="166.8" text-anchor="end" font-size="10" fill="#999">$24</text><line x1="60" y1="96.0" x2="610" y2="96.0" stroke="#eee"/><text x="52" y="100.0" text-anchor="end" font-size="10" fill="#999">$30</text><rect x="626" y="96" width="12" height="12" fill="#BAB0AC"/><text x="643" y="107" font-size="11" fill="#333">system+prompt</text><rect x="626" y="116" width="12" height="12" fill="#F28E2B"/><text x="643" y="127" font-size="11" fill="#333">bash:read</text><rect x="626" y="136" width="12" height="12" fill="#9D5C0E"/><text x="643" y="147" font-size="11" fill="#333">bash:build/test</text><rect x="626" y="156" width="12" height="12" fill="#FBC79A"/><text x="643" y="167" font-size="11" fill="#333">bash:other</text><rect x="626" y="176" width="12" height="12" fill="#4E79A7"/><text x="643" y="187" font-size="11" fill="#333">explore/graph</text><rect x="626" y="196" width="12" height="12" fill="#E15759"/><text x="643" y="207" font-size="11" fill="#333">edit</text><rect x="626" y="216" width="12" height="12" fill="#B07AA1"/><text x="643" y="227" font-size="11" fill="#333">thinking</text><rect x="626" y="236" width="12" height="12" fill="#59A14F"/><text x="643" y="247" font-size="11" fill="#333">output</text><rect x="94.83333333333334" y="394.3" width="113.66666666666667" height="35.7" fill="#BAB0AC"/><text x="151.66666666666669" y="415.1" text-anchor="middle" font-size="9.5" fill="#fff">$3.20</text><rect x="94.83333333333334" y="252.8" width="113.66666666666667" height="141.4" fill="#F28E2B"/><text x="151.66666666666669" y="326.6" text-anchor="middle" font-size="9.5" fill="#fff">$12.66</text><rect x="94.83333333333334" y="240.7" width="113.66666666666667" height="12.1" fill="#9D5C0E"/><text x="151.66666666666669" y="249.8" text-anchor="middle" font-size="9.5" fill="#fff">$1.08</text><rect x="94.83333333333334" y="237.5" width="113.66666666666667" height="3.2" fill="#FBC79A"/><rect x="94.83333333333334" y="221.8" width="113.66666666666667" height="15.7" fill="#E15759"/><text x="151.66666666666669" y="232.7" text-anchor="middle" font-size="9.5" fill="#fff">$1.41</text><rect x="94.83333333333334" y="190.7" width="113.66666666666667" height="31.2" fill="#B07AA1"/><text x="151.66666666666669" y="209.2" text-anchor="middle" font-size="9.5" fill="#fff">$2.79</text><rect x="94.83333333333334" y="186.2" width="113.66666666666667" height="4.5" fill="#59A14F"/><text x="151.66666666666669" y="178.2" text-anchor="middle" font-size="15" font-weight="700" fill="#222">$21.83</text><text x="151.66666666666669" y="452" text-anchor="middle" font-size="12" font-weight="600" fill="#333">classic</text><text x="151.66666666666669" y="468" text-anchor="middle" font-size="9.5" fill="#888">24 sessions</text><rect x="278.1666666666667" y="390.3" width="113.66666666666667" height="39.7" fill="#BAB0AC"/><text x="335" y="413.2" text-anchor="middle" font-size="9.5" fill="#fff">$3.55</text><rect x="278.1666666666667" y="256.2" width="113.66666666666667" height="134.1" fill="#F28E2B"/><text x="335" y="326.3" text-anchor="middle" font-size="9.5" fill="#fff">$12.01</text><rect x="278.1666666666667" y="241.2" width="113.66666666666667" height="15.0" fill="#9D5C0E"/><text x="335" y="251.7" text-anchor="middle" font-size="9.5" fill="#fff">$1.35</text><rect x="278.1666666666667" y="237.2" width="113.66666666666667" height="4.0" fill="#FBC79A"/><rect x="278.1666666666667" y="190.2" width="113.66666666666667" height="47.0" fill="#4E79A7"/><text x="335" y="216.7" text-anchor="middle" font-size="9.5" fill="#fff">$4.21</text><rect x="278.1666666666667" y="172.8" width="113.66666666666667" height="17.4" fill="#E15759"/><text x="335" y="184.5" text-anchor="middle" font-size="9.5" fill="#fff">$1.56</text><rect x="278.1666666666667" y="136.7" width="113.66666666666667" height="36.1" fill="#B07AA1"/><text x="335" y="157.8" text-anchor="middle" font-size="9.5" fill="#fff">$3.23</text><rect x="278.1666666666667" y="132.2" width="113.66666666666667" height="4.5" fill="#59A14F"/><text x="335" y="124.2" text-anchor="middle" font-size="15" font-weight="700" fill="#222">$26.66</text><text x="335" y="452" text-anchor="middle" font-size="12" font-weight="600" fill="#333">classic-graphify</text><text x="335" y="468" text-anchor="middle" font-size="9.5" fill="#888">24 sessions</text><rect x="461.50000000000006" y="388.5" width="113.66666666666667" height="41.5" fill="#BAB0AC"/><text x="518.3333333333334" y="412.3" text-anchor="middle" font-size="9.5" fill="#fff">$3.71</text><rect x="461.50000000000006" y="385.8" width="113.66666666666667" height="2.7" fill="#F28E2B"/><rect x="461.50000000000006" y="375.9" width="113.66666666666667" height="9.8" fill="#9D5C0E"/><rect x="461.50000000000006" y="370.6" width="113.66666666666667" height="5.3" fill="#FBC79A"/><rect x="461.50000000000006" y="285.7" width="113.66666666666667" height="84.9" fill="#4E79A7"/><text x="518.3333333333334" y="331.1" text-anchor="middle" font-size="9.5" fill="#fff">$7.60</text><rect x="461.50000000000006" y="265.9" width="113.66666666666667" height="19.8" fill="#E15759"/><text x="518.3333333333334" y="278.8" text-anchor="middle" font-size="9.5" fill="#fff">$1.77</text><rect x="461.50000000000006" y="242.9" width="113.66666666666667" height="22.9" fill="#B07AA1"/><text x="518.3333333333334" y="257.4" text-anchor="middle" font-size="9.5" fill="#fff">$2.05</text><rect x="461.50000000000006" y="238.9" width="113.66666666666667" height="4.1" fill="#59A14F"/><text x="518.3333333333334" y="230.9" text-anchor="middle" font-size="15" font-weight="700" fill="#222">$17.11</text><text x="518.3333333333334" y="452" text-anchor="middle" font-size="12" font-weight="600" fill="#333">classic-graph-bash</text><text x="518.3333333333334" y="468" text-anchor="middle" font-size="9.5" fill="#888">24 sessions</text></svg>
