<svg xmlns="http://www.w3.org/2000/svg" width="760" height="500" viewBox="0 0 760 500" font-family="system-ui,Segoe UI,Helvetica,Arial,sans-serif">
<rect width="760" height="500" fill="#ffffff"/>
<text x="315" y="26" text-anchor="middle" font-size="16" font-weight="600" fill="#111">Where the context $ per run goes — input + cached by source</text>
<text x="315" y="44" text-anchor="middle" font-size="11" fill="#666">the replayed-context bulk attributed to its source, over classic's 26 wins</text><line x1="60" y1="430.0" x2="610" y2="430.0" stroke="#eee"/><text x="52" y="434.0" text-anchor="end" font-size="10" fill="#999">$0</text><line x1="60" y1="363.2" x2="610" y2="363.2" stroke="#eee"/><text x="52" y="367.2" text-anchor="end" font-size="10" fill="#999">$2</text><line x1="60" y1="296.4" x2="610" y2="296.4" stroke="#eee"/><text x="52" y="300.4" text-anchor="end" font-size="10" fill="#999">$5</text><line x1="60" y1="229.6" x2="610" y2="229.6" stroke="#eee"/><text x="52" y="233.6" text-anchor="end" font-size="10" fill="#999">$7</text><line x1="60" y1="162.8" x2="610" y2="162.8" stroke="#eee"/><text x="52" y="166.8" text-anchor="end" font-size="10" fill="#999">$10</text><line x1="60" y1="96.0" x2="610" y2="96.0" stroke="#eee"/><text x="52" y="100.0" text-anchor="end" font-size="10" fill="#999">$12</text><rect x="626" y="96" width="12" height="12" fill="#BAB0AC"/><text x="643" y="107" font-size="11" fill="#333">system+prompt</text><rect x="626" y="116" width="12" height="12" fill="#F28E2B"/><text x="643" y="127" font-size="11" fill="#333">bash:read</text><rect x="626" y="136" width="12" height="12" fill="#9D5C0E"/><text x="643" y="147" font-size="11" fill="#333">bash:build/test</text><rect x="626" y="156" width="12" height="12" fill="#FBC79A"/><text x="643" y="167" font-size="11" fill="#333">bash:other</text><rect x="626" y="176" width="12" height="12" fill="#4E79A7"/><text x="643" y="187" font-size="11" fill="#333">explore/graph</text><rect x="626" y="196" width="12" height="12" fill="#E15759"/><text x="643" y="207" font-size="11" fill="#333">edit</text><rect x="626" y="216" width="12" height="12" fill="#B07AA1"/><text x="643" y="227" font-size="11" fill="#333">thinking</text><rect x="626" y="236" width="12" height="12" fill="#59A14F"/><text x="643" y="247" font-size="11" fill="#333">output</text><rect x="94.83333333333334" y="387.9" width="113.66666666666667" height="42.1" fill="#BAB0AC"/><text x="151.66666666666669" y="412.0" text-anchor="middle" font-size="9.5" fill="#fff">$1.54</text><rect x="94.83333333333334" y="205.2" width="113.66666666666667" height="182.8" fill="#F28E2B"/><text x="151.66666666666669" y="299.6" text-anchor="middle" font-size="9.5" fill="#fff">$6.68</text><rect x="94.83333333333334" y="197.0" width="113.66666666666667" height="8.2" fill="#9D5C0E"/><rect x="94.83333333333334" y="189.2" width="113.66666666666667" height="7.8" fill="#FBC79A"/><rect x="94.83333333333334" y="184.8" width="113.66666666666667" height="4.4" fill="#E15759"/><rect x="94.83333333333334" y="177.8" width="113.66666666666667" height="7.1" fill="#B07AA1"/><text x="151.66666666666669" y="169.8" text-anchor="middle" font-size="15" font-weight="700" fill="#222">$9.21</text><text x="151.66666666666669" y="452" text-anchor="middle" font-size="12" font-weight="600" fill="#333">classic</text><text x="151.66666666666669" y="468" text-anchor="middle" font-size="9.5" fill="#888">26 sessions</text><rect x="278.1666666666667" y="377.3" width="113.66666666666667" height="52.7" fill="#BAB0AC"/><text x="335" y="406.7" text-anchor="middle" font-size="9.5" fill="#fff">$1.92</text><rect x="278.1666666666667" y="220.5" width="113.66666666666667" height="156.9" fill="#F28E2B"/><text x="335" y="301.9" text-anchor="middle" font-size="9.5" fill="#fff">$5.73</text><rect x="278.1666666666667" y="210.0" width="113.66666666666667" height="10.5" fill="#9D5C0E"/><rect x="278.1666666666667" y="208.4" width="113.66666666666667" height="1.6" fill="#FBC79A"/><rect x="278.1666666666667" y="147.9" width="113.66666666666667" height="60.5" fill="#4E79A7"/><text x="335" y="181.1" text-anchor="middle" font-size="9.5" fill="#fff">$2.21</text><rect x="278.1666666666667" y="144.2" width="113.66666666666667" height="3.7" fill="#E15759"/><rect x="278.1666666666667" y="133.8" width="113.66666666666667" height="10.4" fill="#B07AA1"/><text x="335" y="125.8" text-anchor="middle" font-size="15" font-weight="700" fill="#222">$10.82</text><text x="335" y="452" text-anchor="middle" font-size="12" font-weight="600" fill="#333">classic-graphify</text><text x="335" y="468" text-anchor="middle" font-size="9.5" fill="#888">26 sessions</text><rect x="461.50000000000006" y="374.0" width="113.66666666666667" height="56.0" fill="#BAB0AC"/><text x="518.3333333333334" y="405.0" text-anchor="middle" font-size="9.5" fill="#fff">$2.05</text><rect x="461.50000000000006" y="369.3" width="113.66666666666667" height="4.7" fill="#F28E2B"/><rect x="461.50000000000006" y="357.8" width="113.66666666666667" height="11.5" fill="#9D5C0E"/><rect x="461.50000000000006" y="353.5" width="113.66666666666667" height="4.3" fill="#FBC79A"/><rect x="461.50000000000006" y="250.3" width="113.66666666666667" height="103.2" fill="#4E79A7"/><text x="518.3333333333334" y="304.9" text-anchor="middle" font-size="9.5" fill="#fff">$3.77</text><rect x="461.50000000000006" y="246.7" width="113.66666666666667" height="3.6" fill="#E15759"/><rect x="461.50000000000006" y="241.5" width="113.66666666666667" height="5.2" fill="#B07AA1"/><text x="518.3333333333334" y="233.5" text-anchor="middle" font-size="15" font-weight="700" fill="#222">$6.89</text><text x="518.3333333333334" y="452" text-anchor="middle" font-size="12" font-weight="600" fill="#333">classic-graph-bash</text><text x="518.3333333333334" y="468" text-anchor="middle" font-size="9.5" fill="#888">26 sessions</text></svg>
