<svg xmlns="http://www.w3.org/2000/svg" width="900" height="432" viewBox="0 0 900 432" font-family="system-ui,Segoe UI,Helvetica,Arial,sans-serif">
<rect width="900" height="432" fill="#ffffff"/>
<text x="459" y="26" text-anchor="middle" font-size="16" font-weight="600" fill="#111">Per-benchmark spend by source — classic</text>
<text x="459" y="44" text-anchor="middle" font-size="11" fill="#666">$ per run by source, over the 26 benchmarks classic resolves (sorted by cost)</text><line x1="168.0" y1="64" x2="168.0" y2="416" stroke="#eee"/><text x="168.0" y="60" text-anchor="middle" font-size="10" fill="#999">$0.0</text><line x1="459.0" y1="64" x2="459.0" y2="416" stroke="#eee"/><text x="459.0" y="60" text-anchor="middle" font-size="10" fill="#999">$0.6</text><line x1="750.0" y1="64" x2="750.0" y2="416" stroke="#eee"/><text x="750.0" y="60" text-anchor="middle" font-size="10" fill="#999">$1.1</text><rect x="766" y="70" width="11" height="11" fill="#BAB0AC"/><text x="781" y="80" font-size="10.5" fill="#333">system+prompt</text><rect x="766" y="88" width="11" height="11" fill="#F28E2B"/><text x="781" y="98" font-size="10.5" fill="#333">bash:read</text><rect x="766" y="106" width="11" height="11" fill="#9D5C0E"/><text x="781" y="116" font-size="10.5" fill="#333">bash:build/test</text><rect x="766" y="124" width="11" height="11" fill="#FBC79A"/><text x="781" y="134" font-size="10.5" fill="#333">bash:other</text><rect x="766" y="142" width="11" height="11" fill="#4E79A7"/><text x="781" y="152" font-size="10.5" fill="#333">explore/graph</text><rect x="766" y="160" width="11" height="11" fill="#E15759"/><text x="781" y="170" font-size="10.5" fill="#333">edit</text><rect x="766" y="178" width="11" height="11" fill="#B07AA1"/><text x="781" y="188" font-size="10.5" fill="#333">thinking</text><rect x="766" y="196" width="11" height="11" fill="#59A14F"/><text x="781" y="206" font-size="10.5" fill="#333">output</text><text x="162" y="78" text-anchor="end" font-size="9" fill="#444">dayjs-2532</text><rect x="168.0" y="70" width="31.1" height="9" fill="#BAB0AC"/><rect x="199.1" y="70" width="377.9" height="9" fill="#F28E2B"/><rect x="577.0" y="70" width="44.3" height="9" fill="#9D5C0E"/><rect x="621.3" y="70" width="29.7" height="9" fill="#FBC79A"/><rect x="651.0" y="70" width="29.1" height="9" fill="#E15759"/><rect x="680.1" y="70" width="44.3" height="9" fill="#B07AA1"/><rect x="724.3" y="70" width="2.2" height="9" fill="#59A14F"/><text x="730.5" y="78" font-size="8.5" fill="#666">$1.06</text><text x="162" y="91" text-anchor="end" font-size="9" fill="#444">zstd-3438</text><rect x="168.0" y="83" width="39.4" height="9" fill="#BAB0AC"/><rect x="207.4" y="83" width="440.9" height="9" fill="#F28E2B"/><rect x="648.3" y="83" width="11.0" height="9" fill="#9D5C0E"/><rect x="659.3" y="83" width="1.0" height="9" fill="#FBC79A"/><rect x="660.4" y="83" width="28.5" height="9" fill="#E15759"/><rect x="688.9" y="83" width="18.6" height="9" fill="#B07AA1"/><rect x="707.4" y="83" width="6.6" height="9" fill="#59A14F"/><text x="718.1" y="91" font-size="8.5" fill="#666">$1.03</text><text x="162" y="104" text-anchor="end" font-size="9" fill="#444">svelte-15115</text><rect x="168.0" y="96" width="42.0" height="9" fill="#BAB0AC"/><rect x="210.0" y="96" width="387.9" height="9" fill="#F28E2B"/><rect x="597.9" y="96" width="6.3" height="9" fill="#FBC79A"/><rect x="604.2" y="96" width="24.5" height="9" fill="#E15759"/><rect x="628.8" y="96" width="21.2" height="9" fill="#B07AA1"/><rect x="649.9" y="96" width="6.3" height="9" fill="#59A14F"/><text x="660.2" y="104" font-size="8.5" fill="#666">$0.92</text><text x="162" y="117" text-anchor="end" font-size="9" fill="#444">simdjson-2178</text><rect x="168.0" y="109" width="32.1" height="9" fill="#BAB0AC"/><rect x="200.1" y="109" width="228.6" height="9" fill="#F28E2B"/><rect x="428.7" y="109" width="1.6" height="9" fill="#9D5C0E"/><rect x="430.3" y="109" width="102.2" height="9" fill="#FBC79A"/><rect x="532.5" y="109" width="23.6" height="9" fill="#E15759"/><rect x="556.1" y="109" width="42.1" height="9" fill="#B07AA1"/><rect x="598.2" y="109" width="5.3" height="9" fill="#59A14F"/><text x="607.5" y="117" font-size="8.5" fill="#666">$0.82</text><text x="162" y="130" text-anchor="end" font-size="9" fill="#444">grpc-go-3351</text><rect x="168.0" y="122" width="17.7" height="9" fill="#BAB0AC"/><rect x="185.7" y="122" width="260.0" height="9" fill="#F28E2B"/><rect x="445.6" y="122" width="22.7" height="9" fill="#FBC79A"/><rect x="468.3" y="122" width="66.4" height="9" fill="#E15759"/><rect x="534.6" y="122" width="27.2" height="9" fill="#B07AA1"/><rect x="561.8" y="122" width="4.9" height="9" fill="#59A14F"/><text x="570.7" y="130" font-size="8.5" fill="#666">$0.75</text><text x="162" y="143" text-anchor="end" font-size="9" fill="#444">dayjs-2399</text><rect x="168.0" y="135" width="46.4" height="9" fill="#BAB0AC"/><rect x="214.4" y="135" width="175.8" height="9" fill="#F28E2B"/><rect x="390.1" y="135" width="26.1" height="9" fill="#9D5C0E"/><rect x="416.2" y="135" width="72.5" height="9" fill="#FBC79A"/><rect x="488.8" y="135" width="12.5" height="9" fill="#E15759"/><rect x="501.2" y="135" width="61.1" height="9" fill="#B07AA1"/><rect x="562.3" y="135" width="2.3" height="9" fill="#59A14F"/><text x="568.7" y="143" font-size="8.5" fill="#666">$0.75</text><text x="162" y="156" text-anchor="end" font-size="9" fill="#444">core-11694</text><rect x="168.0" y="148" width="33.5" height="9" fill="#BAB0AC"/><rect x="201.5" y="148" width="190.0" height="9" fill="#F28E2B"/><rect x="391.5" y="148" width="4.2" height="9" fill="#9D5C0E"/><rect x="395.7" y="148" width="12.7" height="9" fill="#FBC79A"/><rect x="408.4" y="148" width="15.8" height="9" fill="#E15759"/><rect x="424.2" y="148" width="90.7" height="9" fill="#B07AA1"/><rect x="514.9" y="148" width="7.4" height="9" fill="#59A14F"/><text x="526.3" y="156" font-size="8.5" fill="#666">$0.67</text><text x="162" y="169" text-anchor="end" font-size="9" fill="#444">logstash-17021</text><rect x="168.0" y="161" width="65.9" height="9" fill="#BAB0AC"/><rect x="233.9" y="161" width="135.2" height="9" fill="#F28E2B"/><rect x="369.2" y="161" width="39.5" height="9" fill="#9D5C0E"/><rect x="408.7" y="161" width="1.9" height="9" fill="#FBC79A"/><rect x="410.5" y="161" width="9.7" height="9" fill="#E15759"/><rect x="420.2" y="161" width="80.2" height="9" fill="#B07AA1"/><rect x="500.4" y="161" width="6.7" height="9" fill="#59A14F"/><text x="511.1" y="169" font-size="8.5" fill="#666">$0.64</text><text x="162" y="182" text-anchor="end" font-size="9" fill="#444">grpc-go-3258</text><rect x="168.0" y="174" width="36.4" height="9" fill="#BAB0AC"/><rect x="204.4" y="174" width="189.3" height="9" fill="#F28E2B"/><rect x="393.6" y="174" width="3.9" height="9" fill="#9D5C0E"/><rect x="397.5" y="174" width="23.9" height="9" fill="#E15759"/><rect x="421.4" y="174" width="78.7" height="9" fill="#B07AA1"/><rect x="500.1" y="174" width="1.9" height="9" fill="#59A14F"/><text x="506.0" y="182" font-size="8.5" fill="#666">$0.63</text><text x="162" y="195" text-anchor="end" font-size="9" fill="#444">ponyc-4593</text><rect x="168.0" y="187" width="28.5" height="9" fill="#BAB0AC"/><rect x="196.5" y="187" width="191.4" height="9" fill="#F28E2B"/><rect x="387.9" y="187" width="23.1" height="9" fill="#E15759"/><rect x="411.1" y="187" width="26.8" height="9" fill="#B07AA1"/><rect x="437.9" y="187" width="7.3" height="9" fill="#59A14F"/><text x="449.2" y="195" font-size="8.5" fill="#666">$0.52</text><text x="162" y="208" text-anchor="end" font-size="9" fill="#444">core-11761</text><rect x="168.0" y="200" width="59.5" height="9" fill="#BAB0AC"/><rect x="227.5" y="200" width="123.9" height="9" fill="#F28E2B"/><rect x="351.3" y="200" width="7.1" height="9" fill="#9D5C0E"/><rect x="358.4" y="200" width="21.4" height="9" fill="#FBC79A"/><rect x="379.7" y="200" width="4.3" height="9" fill="#E15759"/><rect x="384.1" y="200" width="38.8" height="9" fill="#B07AA1"/><rect x="422.9" y="200" width="8.0" height="9" fill="#59A14F"/><text x="434.9" y="208" font-size="8.5" fill="#666">$0.50</text><text x="162" y="221" text-anchor="end" font-size="9" fill="#444">github-readme-stats-2844</text><rect x="168.0" y="213" width="23.4" height="9" fill="#BAB0AC"/><rect x="191.4" y="213" width="162.2" height="9" fill="#F28E2B"/><rect x="353.6" y="213" width="1.9" height="9" fill="#9D5C0E"/><rect x="355.6" y="213" width="0.6" height="9" fill="#FBC79A"/><rect x="356.2" y="213" width="13.5" height="9" fill="#E15759"/><rect x="369.7" y="213" width="36.2" height="9" fill="#B07AA1"/><rect x="405.9" y="213" width="2.0" height="9" fill="#59A14F"/><text x="411.9" y="221" font-size="8.5" fill="#666">$0.45</text><text x="162" y="234" text-anchor="end" font-size="9" fill="#444">jq-3238</text><rect x="168.0" y="226" width="39.9" height="9" fill="#BAB0AC"/><rect x="207.9" y="226" width="95.8" height="9" fill="#F28E2B"/><rect x="303.7" y="226" width="25.1" height="9" fill="#9D5C0E"/><rect x="328.8" y="226" width="29.3" height="9" fill="#E15759"/><rect x="358.1" y="226" width="36.7" height="9" fill="#B07AA1"/><rect x="394.8" y="226" width="10.3" height="9" fill="#59A14F"/><text x="409.1" y="234" font-size="8.5" fill="#666">$0.45</text><text x="162" y="247" text-anchor="end" font-size="9" fill="#444">tracing-2897</text><rect x="168.0" y="239" width="33.5" height="9" fill="#BAB0AC"/><rect x="201.5" y="239" width="84.2" height="9" fill="#F28E2B"/><rect x="285.7" y="239" width="68.7" height="9" fill="#9D5C0E"/><rect x="354.4" y="239" width="30.9" height="9" fill="#E15759"/><rect x="385.3" y="239" width="14.0" height="9" fill="#B07AA1"/><rect x="399.4" y="239" width="4.4" height="9" fill="#59A14F"/><text x="407.7" y="247" font-size="8.5" fill="#666">$0.45</text><text x="162" y="260" text-anchor="end" font-size="9" fill="#444">clap-5873</text><rect x="168.0" y="252" width="83.8" height="9" fill="#BAB0AC"/><rect x="251.8" y="252" width="102.3" height="9" fill="#F28E2B"/><rect x="354.0" y="252" width="8.2" height="9" fill="#9D5C0E"/><rect x="362.3" y="252" width="21.2" height="9" fill="#E15759"/><rect x="383.5" y="252" width="10.1" height="9" fill="#B07AA1"/><rect x="393.6" y="252" width="2.0" height="9" fill="#59A14F"/><text x="399.6" y="260" font-size="8.5" fill="#666">$0.43</text><text x="162" y="273" text-anchor="end" font-size="9" fill="#444">fd-1394</text><rect x="168.0" y="265" width="32.8" height="9" fill="#BAB0AC"/><rect x="200.8" y="265" width="109.8" height="9" fill="#F28E2B"/><rect x="310.6" y="265" width="24.9" height="9" fill="#9D5C0E"/><rect x="335.5" y="265" width="17.1" height="9" fill="#FBC79A"/><rect x="352.6" y="265" width="8.1" height="9" fill="#E15759"/><rect x="360.7" y="265" width="12.5" height="9" fill="#B07AA1"/><rect x="373.1" y="265" width="2.8" height="9" fill="#59A14F"/><text x="379.9" y="273" font-size="8.5" fill="#666">$0.39</text><text x="162" y="286" text-anchor="end" font-size="9" fill="#444">core-11680</text><rect x="168.0" y="278" width="56.3" height="9" fill="#BAB0AC"/><rect x="224.3" y="278" width="99.5" height="9" fill="#F28E2B"/><rect x="323.8" y="278" width="1.7" height="9" fill="#9D5C0E"/><rect x="325.5" y="278" width="0.8" height="9" fill="#FBC79A"/><rect x="326.3" y="278" width="5.3" height="9" fill="#E15759"/><rect x="331.6" y="278" width="24.5" height="9" fill="#B07AA1"/><rect x="356.1" y="278" width="9.5" height="9" fill="#59A14F"/><text x="369.7" y="286" font-size="8.5" fill="#666">$0.37</text><text x="162" y="299" text-anchor="end" font-size="9" fill="#444">darkreader-7241</text><rect x="168.0" y="291" width="17.3" height="9" fill="#BAB0AC"/><rect x="185.3" y="291" width="122.1" height="9" fill="#F28E2B"/><rect x="307.4" y="291" width="0.4" height="9" fill="#9D5C0E"/><rect x="307.6" y="291" width="5.3" height="9" fill="#FBC79A"/><rect x="312.9" y="291" width="8.9" height="9" fill="#E15759"/><rect x="321.9" y="291" width="25.9" height="9" fill="#B07AA1"/><rect x="347.8" y="291" width="2.2" height="9" fill="#59A14F"/><text x="354.0" y="299" font-size="8.5" fill="#666">$0.34</text><text x="162" y="312" text-anchor="end" font-size="9" fill="#444">bat-3189</text><rect x="168.0" y="304" width="17.9" height="9" fill="#BAB0AC"/><rect x="185.9" y="304" width="125.1" height="9" fill="#F28E2B"/><rect x="311.0" y="304" width="10.4" height="9" fill="#9D5C0E"/><rect x="321.4" y="304" width="3.8" height="9" fill="#E15759"/><rect x="325.2" y="304" width="8.8" height="9" fill="#B07AA1"/><rect x="334.0" y="304" width="4.3" height="9" fill="#59A14F"/><text x="342.3" y="312" font-size="8.5" fill="#666">$0.32</text><text x="162" y="325" text-anchor="end" font-size="9" fill="#444">jq-2919</text><rect x="168.0" y="317" width="28.2" height="9" fill="#BAB0AC"/><rect x="196.2" y="317" width="73.1" height="9" fill="#F28E2B"/><rect x="269.4" y="317" width="13.0" height="9" fill="#9D5C0E"/><rect x="282.3" y="317" width="2.7" height="9" fill="#E15759"/><rect x="285.0" y="317" width="30.9" height="9" fill="#B07AA1"/><rect x="315.9" y="317" width="1.4" height="9" fill="#59A14F"/><text x="321.3" y="325" font-size="8.5" fill="#666">$0.28</text><text x="162" y="338" text-anchor="end" font-size="9" fill="#444">zstd-3942</text><rect x="168.0" y="330" width="18.4" height="9" fill="#BAB0AC"/><rect x="186.4" y="330" width="85.3" height="9" fill="#F28E2B"/><rect x="271.7" y="330" width="1.2" height="9" fill="#9D5C0E"/><rect x="273.0" y="330" width="7.7" height="9" fill="#FBC79A"/><rect x="280.7" y="330" width="3.4" height="9" fill="#E15759"/><rect x="284.1" y="330" width="9.6" height="9" fill="#B07AA1"/><rect x="293.7" y="330" width="3.9" height="9" fill="#59A14F"/><text x="301.6" y="338" font-size="8.5" fill="#666">$0.24</text><text x="162" y="351" text-anchor="end" font-size="9" fill="#444">core-11813</text><rect x="168.0" y="343" width="36.4" height="9" fill="#BAB0AC"/><rect x="204.4" y="343" width="65.8" height="9" fill="#F28E2B"/><rect x="270.3" y="343" width="3.6" height="9" fill="#9D5C0E"/><rect x="273.8" y="343" width="5.8" height="9" fill="#E15759"/><rect x="279.6" y="343" width="5.6" height="9" fill="#B07AA1"/><rect x="285.2" y="343" width="5.8" height="9" fill="#59A14F"/><text x="295.0" y="351" font-size="8.5" fill="#666">$0.23</text><text x="162" y="364" text-anchor="end" font-size="9" fill="#444">bytes-732</text><rect x="168.0" y="356" width="27.7" height="9" fill="#BAB0AC"/><rect x="195.7" y="356" width="64.1" height="9" fill="#F28E2B"/><rect x="259.9" y="356" width="0.5" height="9" fill="#9D5C0E"/><rect x="260.4" y="356" width="11.8" height="9" fill="#E15759"/><rect x="272.1" y="356" width="12.4" height="9" fill="#B07AA1"/><rect x="284.6" y="356" width="3.0" height="9" fill="#59A14F"/><text x="291.5" y="364" font-size="8.5" fill="#666">$0.23</text><text x="162" y="377" text-anchor="end" font-size="9" fill="#444">go-zero-2787</text><rect x="168.0" y="369" width="24.0" height="9" fill="#BAB0AC"/><rect x="192.0" y="369" width="58.6" height="9" fill="#F28E2B"/><rect x="250.5" y="369" width="0.4" height="9" fill="#9D5C0E"/><rect x="251.0" y="369" width="16.6" height="9" fill="#E15759"/><rect x="267.5" y="369" width="13.4" height="9" fill="#B07AA1"/><rect x="280.9" y="369" width="4.4" height="9" fill="#59A14F"/><text x="289.3" y="377" font-size="8.5" fill="#666">$0.22</text><text x="162" y="390" text-anchor="end" font-size="9" fill="#444">express-5555</text><rect x="168.0" y="382" width="16.0" height="9" fill="#BAB0AC"/><rect x="184.0" y="382" width="38.0" height="9" fill="#F28E2B"/><rect x="222.0" y="382" width="0.4" height="9" fill="#9D5C0E"/><rect x="222.3" y="382" width="1.7" height="9" fill="#FBC79A"/><rect x="224.1" y="382" width="9.0" height="9" fill="#E15759"/><rect x="233.0" y="382" width="11.0" height="9" fill="#B07AA1"/><rect x="244.0" y="382" width="4.0" height="9" fill="#59A14F"/><text x="251.9" y="390" font-size="8.5" fill="#666">$0.15</text><text x="162" y="403" text-anchor="end" font-size="9" fill="#444">rayon-986</text><rect x="168.0" y="395" width="13.6" height="9" fill="#BAB0AC"/><rect x="181.6" y="395" width="28.8" height="9" fill="#F28E2B"/><rect x="210.4" y="395" width="2.5" height="9" fill="#9D5C0E"/><rect x="212.8" y="395" width="15.5" height="9" fill="#E15759"/><rect x="228.4" y="395" width="3.4" height="9" fill="#B07AA1"/><rect x="231.8" y="395" width="1.4" height="9" fill="#59A14F"/><text x="237.2" y="403" font-size="8.5" fill="#666">$0.12</text></svg>
