<svg xmlns="http://www.w3.org/2000/svg" width="900" height="406" viewBox="0 0 900 406" font-family="system-ui,Segoe UI,Helvetica,Arial,sans-serif">
<rect width="900" height="406" fill="#ffffff"/>
<text x="459" y="26" text-anchor="middle" font-size="16" font-weight="600" fill="#111">Per-benchmark spend by source — classic-graph-bash</text>
<text x="459" y="44" text-anchor="middle" font-size="11" fill="#666">$ per run by source, over the 24 benchmarks classic resolves (sorted by cost)</text><line x1="168.0" y1="64" x2="168.0" y2="390" stroke="#eee"/><text x="168.0" y="60" text-anchor="middle" font-size="10" fill="#999">$0.0</text><line x1="459.0" y1="64" x2="459.0" y2="390" stroke="#eee"/><text x="459.0" y="60" text-anchor="middle" font-size="10" fill="#999">$0.5</text><line x1="750.0" y1="64" x2="750.0" y2="390" stroke="#eee"/><text x="750.0" y="60" text-anchor="middle" font-size="10" fill="#999">$1.0</text><rect x="766" y="70" width="11" height="11" fill="#BAB0AC"/><text x="781" y="80" font-size="10.5" fill="#333">system+prompt</text><rect x="766" y="88" width="11" height="11" fill="#F28E2B"/><text x="781" y="98" font-size="10.5" fill="#333">bash:read</text><rect x="766" y="106" width="11" height="11" fill="#9D5C0E"/><text x="781" y="116" font-size="10.5" fill="#333">bash:build/test</text><rect x="766" y="124" width="11" height="11" fill="#FBC79A"/><text x="781" y="134" font-size="10.5" fill="#333">bash:other</text><rect x="766" y="142" width="11" height="11" fill="#4E79A7"/><text x="781" y="152" font-size="10.5" fill="#333">explore/graph</text><rect x="766" y="160" width="11" height="11" fill="#E15759"/><text x="781" y="170" font-size="10.5" fill="#333">edit</text><rect x="766" y="178" width="11" height="11" fill="#B07AA1"/><text x="781" y="188" font-size="10.5" fill="#333">thinking</text><rect x="766" y="196" width="11" height="11" fill="#59A14F"/><text x="781" y="206" font-size="10.5" fill="#333">output</text><text x="162" y="78" text-anchor="end" font-size="9" fill="#444">simdjson-2178</text><rect x="168.0" y="70" width="43.7" height="9" fill="#BAB0AC"/><rect x="211.7" y="70" width="29.7" height="9" fill="#F28E2B"/><rect x="241.4" y="70" width="2.8" height="9" fill="#FBC79A"/><rect x="244.3" y="70" width="344.5" height="9" fill="#4E79A7"/><rect x="588.8" y="70" width="133.9" height="9" fill="#E15759"/><rect x="722.6" y="70" width="15.3" height="9" fill="#B07AA1"/><rect x="738.0" y="70" width="3.7" height="9" fill="#59A14F"/><text x="745.7" y="78" font-size="8.5" fill="#666">$0.99</text><text x="162" y="91" text-anchor="end" font-size="9" fill="#444">jq-3238</text><rect x="168.0" y="83" width="64.0" height="9" fill="#BAB0AC"/><rect x="232.0" y="83" width="13.2" height="9" fill="#9D5C0E"/><rect x="245.2" y="83" width="0.7" height="9" fill="#FBC79A"/><rect x="245.9" y="83" width="253.8" height="9" fill="#4E79A7"/><rect x="499.7" y="83" width="24.6" height="9" fill="#E15759"/><rect x="524.3" y="83" width="36.2" height="9" fill="#B07AA1"/><rect x="560.5" y="83" width="6.6" height="9" fill="#59A14F"/><text x="571.2" y="91" font-size="8.5" fill="#666">$0.69</text><text x="162" y="104" text-anchor="end" font-size="9" fill="#444">dayjs-2399</text><rect x="168.0" y="96" width="65.8" height="9" fill="#BAB0AC"/><rect x="233.8" y="96" width="2.0" height="9" fill="#F28E2B"/><rect x="235.8" y="96" width="49.3" height="9" fill="#9D5C0E"/><rect x="285.1" y="96" width="37.2" height="9" fill="#FBC79A"/><rect x="322.3" y="96" width="133.5" height="9" fill="#4E79A7"/><rect x="455.8" y="96" width="9.6" height="9" fill="#E15759"/><rect x="465.4" y="96" width="52.0" height="9" fill="#B07AA1"/><rect x="517.4" y="96" width="8.8" height="9" fill="#59A14F"/><text x="530.3" y="104" font-size="8.5" fill="#666">$0.62</text><text x="162" y="117" text-anchor="end" font-size="9" fill="#444">logstash-17021</text><rect x="168.0" y="109" width="91.7" height="9" fill="#BAB0AC"/><rect x="259.7" y="109" width="7.6" height="9" fill="#F28E2B"/><rect x="267.3" y="109" width="24.4" height="9" fill="#9D5C0E"/><rect x="291.6" y="109" width="15.7" height="9" fill="#FBC79A"/><rect x="307.4" y="109" width="90.4" height="9" fill="#4E79A7"/><rect x="397.7" y="109" width="13.9" height="9" fill="#E15759"/><rect x="411.6" y="109" width="104.2" height="9" fill="#B07AA1"/><rect x="515.8" y="109" width="9.6" height="9" fill="#59A14F"/><text x="529.3" y="117" font-size="8.5" fill="#666">$0.61</text><text x="162" y="130" text-anchor="end" font-size="9" fill="#444">grpc-go-3258</text><rect x="168.0" y="122" width="67.0" height="9" fill="#BAB0AC"/><rect x="235.0" y="122" width="0.4" height="9" fill="#9D5C0E"/><rect x="235.2" y="122" width="0.4" height="9" fill="#FBC79A"/><rect x="235.5" y="122" width="158.8" height="9" fill="#4E79A7"/><rect x="394.3" y="122" width="36.3" height="9" fill="#E15759"/><rect x="430.6" y="122" width="56.2" height="9" fill="#B07AA1"/><rect x="486.8" y="122" width="11.5" height="9" fill="#59A14F"/><text x="502.3" y="130" font-size="8.5" fill="#666">$0.57</text><text x="162" y="143" text-anchor="end" font-size="9" fill="#444">zstd-3438</text><rect x="168.0" y="135" width="61.6" height="9" fill="#BAB0AC"/><rect x="229.6" y="135" width="10.6" height="9" fill="#F28E2B"/><rect x="240.2" y="135" width="1.4" height="9" fill="#9D5C0E"/><rect x="241.6" y="135" width="172.0" height="9" fill="#4E79A7"/><rect x="413.6" y="135" width="19.6" height="9" fill="#E15759"/><rect x="433.1" y="135" width="15.1" height="9" fill="#B07AA1"/><rect x="448.3" y="135" width="3.8" height="9" fill="#59A14F"/><text x="456.1" y="143" font-size="8.5" fill="#666">$0.49</text><text x="162" y="156" text-anchor="end" font-size="9" fill="#444">dayjs-2532</text><rect x="168.0" y="148" width="59.3" height="9" fill="#BAB0AC"/><rect x="227.3" y="148" width="1.0" height="9" fill="#9D5C0E"/><rect x="228.3" y="148" width="16.7" height="9" fill="#FBC79A"/><rect x="245.0" y="148" width="119.2" height="9" fill="#4E79A7"/><rect x="364.2" y="148" width="19.9" height="9" fill="#E15759"/><rect x="384.0" y="148" width="47.2" height="9" fill="#B07AA1"/><rect x="431.2" y="148" width="2.3" height="9" fill="#59A14F"/><text x="437.6" y="156" font-size="8.5" fill="#666">$0.46</text><text x="162" y="169" text-anchor="end" font-size="9" fill="#444">grpc-go-3351</text><rect x="168.0" y="161" width="41.4" height="9" fill="#BAB0AC"/><rect x="209.4" y="161" width="1.9" height="9" fill="#F28E2B"/><rect x="211.3" y="161" width="0.5" height="9" fill="#9D5C0E"/><rect x="211.8" y="161" width="0.7" height="9" fill="#FBC79A"/><rect x="212.5" y="161" width="128.7" height="9" fill="#4E79A7"/><rect x="341.2" y="161" width="16.5" height="9" fill="#E15759"/><rect x="357.8" y="161" width="39.6" height="9" fill="#B07AA1"/><rect x="397.4" y="161" width="4.5" height="9" fill="#59A14F"/><text x="405.8" y="169" font-size="8.5" fill="#666">$0.40</text><text x="162" y="182" text-anchor="end" font-size="9" fill="#444">clap-5873</text><rect x="168.0" y="174" width="90.8" height="9" fill="#BAB0AC"/><rect x="258.8" y="174" width="0.5" height="9" fill="#F28E2B"/><rect x="259.3" y="174" width="12.7" height="9" fill="#9D5C0E"/><rect x="272.0" y="174" width="107.2" height="9" fill="#4E79A7"/><rect x="379.2" y="174" width="12.7" height="9" fill="#E15759"/><rect x="392.0" y="174" width="8.4" height="9" fill="#B07AA1"/><text x="404.4" y="182" font-size="8.5" fill="#666">$0.40</text><text x="162" y="195" text-anchor="end" font-size="9" fill="#444">tracing-2897</text><rect x="168.0" y="187" width="37.8" height="9" fill="#BAB0AC"/><rect x="205.8" y="187" width="2.1" height="9" fill="#F28E2B"/><rect x="207.9" y="187" width="44.0" height="9" fill="#9D5C0E"/><rect x="251.9" y="187" width="24.1" height="9" fill="#FBC79A"/><rect x="276.0" y="187" width="49.1" height="9" fill="#4E79A7"/><rect x="325.2" y="187" width="34.1" height="9" fill="#E15759"/><rect x="359.2" y="187" width="14.2" height="9" fill="#B07AA1"/><rect x="373.4" y="187" width="2.5" height="9" fill="#59A14F"/><text x="379.9" y="195" font-size="8.5" fill="#666">$0.36</text><text x="162" y="208" text-anchor="end" font-size="9" fill="#444">jq-2919</text><rect x="168.0" y="200" width="49.7" height="9" fill="#BAB0AC"/><rect x="217.7" y="200" width="2.2" height="9" fill="#F28E2B"/><rect x="219.9" y="200" width="17.4" height="9" fill="#9D5C0E"/><rect x="237.3" y="200" width="4.0" height="9" fill="#FBC79A"/><rect x="241.3" y="200" width="86.9" height="9" fill="#4E79A7"/><rect x="328.1" y="200" width="15.6" height="9" fill="#E15759"/><rect x="343.8" y="200" width="24.8" height="9" fill="#B07AA1"/><rect x="368.6" y="200" width="1.9" height="9" fill="#59A14F"/><text x="374.4" y="208" font-size="8.5" fill="#666">$0.35</text><text x="162" y="221" text-anchor="end" font-size="9" fill="#444">core-11761</text><rect x="168.0" y="213" width="60.2" height="9" fill="#BAB0AC"/><rect x="228.2" y="213" width="1.8" height="9" fill="#F28E2B"/><rect x="229.9" y="213" width="0.5" height="9" fill="#9D5C0E"/><rect x="230.4" y="213" width="54.5" height="9" fill="#4E79A7"/><rect x="284.9" y="213" width="5.8" height="9" fill="#E15759"/><rect x="290.7" y="213" width="38.0" height="9" fill="#B07AA1"/><rect x="328.7" y="213" width="11.1" height="9" fill="#59A14F"/><text x="343.8" y="221" font-size="8.5" fill="#666">$0.30</text><text x="162" y="234" text-anchor="end" font-size="9" fill="#444">zstd-3942</text><rect x="168.0" y="226" width="26.5" height="9" fill="#BAB0AC"/><rect x="194.5" y="226" width="0.4" height="9" fill="#9D5C0E"/><rect x="194.6" y="226" width="18.0" height="9" fill="#FBC79A"/><rect x="212.6" y="226" width="100.8" height="9" fill="#4E79A7"/><rect x="313.4" y="226" width="3.0" height="9" fill="#E15759"/><rect x="316.4" y="226" width="17.2" height="9" fill="#B07AA1"/><rect x="333.6" y="226" width="1.8" height="9" fill="#59A14F"/><text x="339.4" y="234" font-size="8.5" fill="#666">$0.29</text><text x="162" y="247" text-anchor="end" font-size="9" fill="#444">darkreader-7241</text><rect x="168.0" y="239" width="89.7" height="9" fill="#BAB0AC"/><rect x="257.7" y="239" width="73.8" height="9" fill="#4E79A7"/><rect x="331.6" y="239" width="0.6" height="9" fill="#B07AA1"/><text x="336.2" y="247" font-size="8.5" fill="#666">$0.28</text><text x="162" y="260" text-anchor="end" font-size="9" fill="#444">core-11694</text><rect x="168.0" y="252" width="32.0" height="9" fill="#BAB0AC"/><rect x="200.0" y="252" width="0.4" height="9" fill="#F28E2B"/><rect x="200.2" y="252" width="0.7" height="9" fill="#9D5C0E"/><rect x="200.9" y="252" width="103.2" height="9" fill="#4E79A7"/><rect x="304.0" y="252" width="8.1" height="9" fill="#E15759"/><rect x="312.1" y="252" width="10.1" height="9" fill="#B07AA1"/><rect x="322.2" y="252" width="3.2" height="9" fill="#59A14F"/><text x="329.4" y="260" font-size="8.5" fill="#666">$0.27</text><text x="162" y="273" text-anchor="end" font-size="9" fill="#444">github-readme-stats-2844</text><rect x="168.0" y="265" width="41.6" height="9" fill="#BAB0AC"/><rect x="209.6" y="265" width="2.9" height="9" fill="#F28E2B"/><rect x="212.5" y="265" width="0.8" height="9" fill="#9D5C0E"/><rect x="213.3" y="265" width="0.7" height="9" fill="#FBC79A"/><rect x="214.1" y="265" width="59.4" height="9" fill="#4E79A7"/><rect x="273.4" y="265" width="13.6" height="9" fill="#E15759"/><rect x="287.0" y="265" width="27.2" height="9" fill="#B07AA1"/><rect x="314.2" y="265" width="10.0" height="9" fill="#59A14F"/><text x="328.2" y="273" font-size="8.5" fill="#666">$0.27</text><text x="162" y="286" text-anchor="end" font-size="9" fill="#444">core-11680</text><rect x="168.0" y="278" width="120.8" height="9" fill="#BAB0AC"/><rect x="288.8" y="278" width="9.2" height="9" fill="#4E79A7"/><rect x="298.0" y="278" width="10.3" height="9" fill="#B07AA1"/><text x="312.3" y="286" font-size="8.5" fill="#666">$0.24</text><text x="162" y="299" text-anchor="end" font-size="9" fill="#444">bytes-732</text><rect x="168.0" y="291" width="38.4" height="9" fill="#BAB0AC"/><rect x="206.4" y="291" width="20.4" height="9" fill="#9D5C0E"/><rect x="226.8" y="291" width="26.7" height="9" fill="#4E79A7"/><rect x="253.5" y="291" width="21.3" height="9" fill="#E15759"/><rect x="274.8" y="291" width="20.3" height="9" fill="#B07AA1"/><rect x="295.1" y="291" width="2.2" height="9" fill="#59A14F"/><text x="301.3" y="299" font-size="8.5" fill="#666">$0.22</text><text x="162" y="312" text-anchor="end" font-size="9" fill="#444">bat-3189</text><rect x="168.0" y="304" width="47.1" height="9" fill="#BAB0AC"/><rect x="215.1" y="304" width="10.7" height="9" fill="#9D5C0E"/><rect x="225.8" y="304" width="7.0" height="9" fill="#FBC79A"/><rect x="232.8" y="304" width="47.0" height="9" fill="#4E79A7"/><rect x="279.8" y="304" width="5.5" height="9" fill="#E15759"/><rect x="285.4" y="304" width="4.5" height="9" fill="#B07AA1"/><rect x="289.9" y="304" width="3.2" height="9" fill="#59A14F"/><text x="297.1" y="312" font-size="8.5" fill="#666">$0.21</text><text x="162" y="325" text-anchor="end" font-size="9" fill="#444">rayon-986</text><rect x="168.0" y="317" width="26.0" height="9" fill="#BAB0AC"/><rect x="194.0" y="317" width="4.6" height="9" fill="#9D5C0E"/><rect x="198.7" y="317" width="19.6" height="9" fill="#4E79A7"/><rect x="218.3" y="317" width="19.5" height="9" fill="#E15759"/><rect x="237.8" y="317" width="5.4" height="9" fill="#B07AA1"/><rect x="243.2" y="317" width="1.7" height="9" fill="#59A14F"/><text x="248.9" y="325" font-size="8.5" fill="#666">$0.13</text><text x="162" y="338" text-anchor="end" font-size="9" fill="#444">fd-1394</text><rect x="168.0" y="330" width="22.4" height="9" fill="#BAB0AC"/><rect x="190.4" y="330" width="15.6" height="9" fill="#9D5C0E"/><rect x="206.0" y="330" width="16.0" height="9" fill="#4E79A7"/><rect x="222.0" y="330" width="8.4" height="9" fill="#E15759"/><rect x="230.5" y="330" width="10.0" height="9" fill="#B07AA1"/><rect x="240.5" y="330" width="0.6" height="9" fill="#59A14F"/><text x="245.1" y="338" font-size="8.5" fill="#666">$0.13</text><text x="162" y="351" text-anchor="end" font-size="9" fill="#444">go-zero-2787</text><rect x="168.0" y="343" width="18.7" height="9" fill="#BAB0AC"/><rect x="186.7" y="343" width="1.8" height="9" fill="#9D5C0E"/><rect x="188.5" y="343" width="34.8" height="9" fill="#4E79A7"/><rect x="223.3" y="343" width="8.9" height="9" fill="#E15759"/><rect x="232.2" y="343" width="5.4" height="9" fill="#B07AA1"/><rect x="237.6" y="343" width="1.7" height="9" fill="#59A14F"/><text x="243.3" y="351" font-size="8.5" fill="#666">$0.12</text><text x="162" y="364" text-anchor="end" font-size="9" fill="#444">core-11813</text><rect x="168.0" y="356" width="25.1" height="9" fill="#BAB0AC"/><rect x="193.1" y="356" width="2.2" height="9" fill="#F28E2B"/><rect x="195.3" y="356" width="1.3" height="9" fill="#9D5C0E"/><rect x="196.6" y="356" width="14.8" height="9" fill="#4E79A7"/><rect x="211.4" y="356" width="2.4" height="9" fill="#E15759"/><rect x="213.8" y="356" width="6.3" height="9" fill="#B07AA1"/><rect x="220.1" y="356" width="2.0" height="9" fill="#59A14F"/><text x="226.1" y="364" font-size="8.5" fill="#666">$0.09</text><text x="162" y="377" text-anchor="end" font-size="9" fill="#444">express-5555</text><rect x="168.0" y="369" width="13.7" height="9" fill="#BAB0AC"/><rect x="181.7" y="369" width="0.4" height="9" fill="#9D5C0E"/><rect x="182.0" y="369" width="5.1" height="9" fill="#4E79A7"/><rect x="187.1" y="369" width="4.5" height="9" fill="#E15759"/><rect x="191.6" y="369" width="19.0" height="9" fill="#B07AA1"/><rect x="210.6" y="369" width="4.1" height="9" fill="#59A14F"/><text x="218.6" y="377" font-size="8.5" fill="#666">$0.08</text></svg>
