<svg xmlns="http://www.w3.org/2000/svg" width="760" height="500" viewBox="0 0 760 500" font-family="system-ui,Segoe UI,Helvetica,Arial,sans-serif">
<rect width="760" height="500" fill="#ffffff"/>
<text x="315" y="26" text-anchor="middle" font-size="16" font-weight="600" fill="#111">Where the $ goes — full spend by source</text>
<text x="315" y="44" text-anchor="middle" font-size="11" fill="#666">input+cached+output attributed to what produced it, summed over classic's 22 wins</text><line x1="60" y1="430.0" x2="610" y2="430.0" stroke="#eee"/><text x="52" y="434.0" text-anchor="end" font-size="10" fill="#999">$0</text><line x1="60" y1="363.2" x2="610" y2="363.2" stroke="#eee"/><text x="52" y="367.2" text-anchor="end" font-size="10" fill="#999">$3</text><line x1="60" y1="296.4" x2="610" y2="296.4" stroke="#eee"/><text x="52" y="300.4" text-anchor="end" font-size="10" fill="#999">$5</text><line x1="60" y1="229.6" x2="610" y2="229.6" stroke="#eee"/><text x="52" y="233.6" text-anchor="end" font-size="10" fill="#999">$8</text><line x1="60" y1="162.8" x2="610" y2="162.8" stroke="#eee"/><text x="52" y="166.8" text-anchor="end" font-size="10" fill="#999">$11</text><line x1="60" y1="96.0" x2="610" y2="96.0" stroke="#eee"/><text x="52" y="100.0" text-anchor="end" font-size="10" fill="#999">$13</text><rect x="626" y="96" width="12" height="12" fill="#BAB0AC"/><text x="643" y="107" font-size="11" fill="#333">system+prompt</text><rect x="626" y="116" width="12" height="12" fill="#F28E2B"/><text x="643" y="127" font-size="11" fill="#333">bash:read</text><rect x="626" y="136" width="12" height="12" fill="#9D5C0E"/><text x="643" y="147" font-size="11" fill="#333">bash:build/test</text><rect x="626" y="156" width="12" height="12" fill="#FBC79A"/><text x="643" y="167" font-size="11" fill="#333">bash:other</text><rect x="626" y="176" width="12" height="12" fill="#4E79A7"/><text x="643" y="187" font-size="11" fill="#333">explore/graph</text><rect x="626" y="196" width="12" height="12" fill="#E15759"/><text x="643" y="207" font-size="11" fill="#333">edit</text><rect x="626" y="216" width="12" height="12" fill="#B07AA1"/><text x="643" y="227" font-size="11" fill="#333">thinking</text><rect x="626" y="236" width="12" height="12" fill="#59A14F"/><text x="643" y="247" font-size="11" fill="#333">output</text><rect x="94.83333333333334" y="396.1" width="113.66666666666667" height="33.9" fill="#BAB0AC"/><text x="151.66666666666669" y="416.1" text-anchor="middle" font-size="9.5" fill="#fff">$1.35</text><rect x="94.83333333333334" y="264.8" width="113.66666666666667" height="131.3" fill="#F28E2B"/><text x="151.66666666666669" y="333.5" text-anchor="middle" font-size="9.5" fill="#fff">$5.23</text><rect x="94.83333333333334" y="255.6" width="113.66666666666667" height="9.3" fill="#9D5C0E"/><rect x="94.83333333333334" y="252.5" width="113.66666666666667" height="3.0" fill="#FBC79A"/><rect x="94.83333333333334" y="236.6" width="113.66666666666667" height="15.9" fill="#E15759"/><text x="151.66666666666669" y="247.6" text-anchor="middle" font-size="9.5" fill="#fff">$0.63</text><rect x="94.83333333333334" y="207.2" width="113.66666666666667" height="29.5" fill="#B07AA1"/><text x="151.66666666666669" y="224.9" text-anchor="middle" font-size="9.5" fill="#fff">$1.17</text><rect x="94.83333333333334" y="203.0" width="113.66666666666667" height="4.2" fill="#59A14F"/><text x="151.66666666666669" y="195.0" text-anchor="middle" font-size="15" font-weight="700" fill="#222">$9.04</text><text x="151.66666666666669" y="452" text-anchor="middle" font-size="12" font-weight="600" fill="#333">classic</text><text x="151.66666666666669" y="468" text-anchor="middle" font-size="9.5" fill="#888">22 sessions</text><rect x="278.1666666666667" y="386.7" width="113.66666666666667" height="43.3" fill="#BAB0AC"/><text x="335" y="411.4" text-anchor="middle" font-size="9.5" fill="#fff">$1.72</text><rect x="278.1666666666667" y="263.2" width="113.66666666666667" height="123.5" fill="#F28E2B"/><text x="335" y="328.0" text-anchor="middle" font-size="9.5" fill="#fff">$4.92</text><rect x="278.1666666666667" y="249.2" width="113.66666666666667" height="14.0" fill="#9D5C0E"/><text x="335" y="259.2" text-anchor="middle" font-size="9.5" fill="#fff">$0.56</text><rect x="278.1666666666667" y="244.6" width="113.66666666666667" height="4.7" fill="#FBC79A"/><rect x="278.1666666666667" y="195.3" width="113.66666666666667" height="49.2" fill="#4E79A7"/><text x="335" y="222.9" text-anchor="middle" font-size="9.5" fill="#fff">$1.96</text><rect x="278.1666666666667" y="175.2" width="113.66666666666667" height="20.1" fill="#E15759"/><text x="335" y="188.3" text-anchor="middle" font-size="9.5" fill="#fff">$0.80</text><rect x="278.1666666666667" y="137.1" width="113.66666666666667" height="38.1" fill="#B07AA1"/><text x="335" y="159.2" text-anchor="middle" font-size="9.5" fill="#fff">$1.52</text><rect x="278.1666666666667" y="131.8" width="113.66666666666667" height="5.3" fill="#59A14F"/><text x="335" y="123.8" text-anchor="middle" font-size="15" font-weight="700" fill="#222">$11.87</text><text x="335" y="452" text-anchor="middle" font-size="12" font-weight="600" fill="#333">classic-graphify</text><text x="335" y="468" text-anchor="middle" font-size="9.5" fill="#888">22 sessions</text><rect x="461.50000000000006" y="388.8" width="113.66666666666667" height="41.2" fill="#BAB0AC"/><text x="518.3333333333334" y="412.4" text-anchor="middle" font-size="9.5" fill="#fff">$1.64</text><rect x="461.50000000000006" y="387.7" width="113.66666666666667" height="1.1" fill="#F28E2B"/><rect x="461.50000000000006" y="377.4" width="113.66666666666667" height="10.3" fill="#9D5C0E"/><rect x="461.50000000000006" y="372.1" width="113.66666666666667" height="5.3" fill="#FBC79A"/><rect x="461.50000000000006" y="299.7" width="113.66666666666667" height="72.4" fill="#4E79A7"/><text x="518.3333333333334" y="338.9" text-anchor="middle" font-size="9.5" fill="#fff">$2.88</text><rect x="461.50000000000006" y="285.7" width="113.66666666666667" height="14.0" fill="#E15759"/><text x="518.3333333333334" y="295.7" text-anchor="middle" font-size="9.5" fill="#fff">$0.56</text><rect x="461.50000000000006" y="264.0" width="113.66666666666667" height="21.8" fill="#B07AA1"/><text x="518.3333333333334" y="277.9" text-anchor="middle" font-size="9.5" fill="#fff">$0.87</text><rect x="461.50000000000006" y="259.9" width="113.66666666666667" height="4.0" fill="#59A14F"/><text x="518.3333333333334" y="251.9" text-anchor="middle" font-size="15" font-weight="700" fill="#222">$6.77</text><text x="518.3333333333334" y="452" text-anchor="middle" font-size="12" font-weight="600" fill="#333">classic-graph-bash</text><text x="518.3333333333334" y="468" text-anchor="middle" font-size="9.5" fill="#888">22 sessions</text></svg>
