<svg xmlns="http://www.w3.org/2000/svg" width="900" height="406" viewBox="0 0 900 406" font-family="system-ui,Segoe UI,Helvetica,Arial,sans-serif">
<rect width="900" height="406" fill="#ffffff"/>
<text x="459" y="26" text-anchor="middle" font-size="16" font-weight="600" fill="#111">Per-benchmark spend by source — classic</text>
<text x="459" y="44" text-anchor="middle" font-size="11" fill="#666">$ per run by source, over the 24 benchmarks classic resolves (sorted by cost)</text><line x1="168.0" y1="64" x2="168.0" y2="390" stroke="#eee"/><text x="168.0" y="60" text-anchor="middle" font-size="10" fill="#999">$0.0</text><line x1="459.0" y1="64" x2="459.0" y2="390" stroke="#eee"/><text x="459.0" y="60" text-anchor="middle" font-size="10" fill="#999">$0.6</text><line x1="750.0" y1="64" x2="750.0" y2="390" stroke="#eee"/><text x="750.0" y="60" text-anchor="middle" font-size="10" fill="#999">$1.2</text><rect x="766" y="70" width="11" height="11" fill="#BAB0AC"/><text x="781" y="80" font-size="10.5" fill="#333">system+prompt</text><rect x="766" y="88" width="11" height="11" fill="#F28E2B"/><text x="781" y="98" font-size="10.5" fill="#333">bash:read</text><rect x="766" y="106" width="11" height="11" fill="#9D5C0E"/><text x="781" y="116" font-size="10.5" fill="#333">bash:build/test</text><rect x="766" y="124" width="11" height="11" fill="#FBC79A"/><text x="781" y="134" font-size="10.5" fill="#333">bash:other</text><rect x="766" y="142" width="11" height="11" fill="#4E79A7"/><text x="781" y="152" font-size="10.5" fill="#333">explore/graph</text><rect x="766" y="160" width="11" height="11" fill="#E15759"/><text x="781" y="170" font-size="10.5" fill="#333">edit</text><rect x="766" y="178" width="11" height="11" fill="#B07AA1"/><text x="781" y="188" font-size="10.5" fill="#333">thinking</text><rect x="766" y="196" width="11" height="11" fill="#59A14F"/><text x="781" y="206" font-size="10.5" fill="#333">output</text><text x="162" y="78" text-anchor="end" font-size="9" fill="#444">zstd-3438</text><rect x="168.0" y="70" width="27.4" height="9" fill="#BAB0AC"/><rect x="195.4" y="70" width="444.3" height="9" fill="#F28E2B"/><rect x="639.8" y="70" width="6.4" height="9" fill="#9D5C0E"/><rect x="646.1" y="70" width="66.3" height="9" fill="#E15759"/><rect x="712.4" y="70" width="14.3" height="9" fill="#B07AA1"/><rect x="726.7" y="70" width="1.9" height="9" fill="#59A14F"/><text x="732.6" y="78" font-size="8.5" fill="#666">$1.16</text><text x="162" y="91" text-anchor="end" font-size="9" fill="#444">dayjs-2399</text><rect x="168.0" y="83" width="56.7" height="9" fill="#BAB0AC"/><rect x="224.7" y="83" width="211.7" height="9" fill="#F28E2B"/><rect x="436.4" y="83" width="26.6" height="9" fill="#9D5C0E"/><rect x="463.1" y="83" width="7.9" height="9" fill="#FBC79A"/><rect x="470.9" y="83" width="7.8" height="9" fill="#E15759"/><rect x="478.7" y="83" width="67.0" height="9" fill="#B07AA1"/><rect x="545.7" y="83" width="4.1" height="9" fill="#59A14F"/><text x="553.8" y="91" font-size="8.5" fill="#666">$0.79</text><text x="162" y="104" text-anchor="end" font-size="9" fill="#444">simdjson-2178</text><rect x="168.0" y="96" width="33.2" height="9" fill="#BAB0AC"/><rect x="201.2" y="96" width="264.4" height="9" fill="#F28E2B"/><rect x="465.7" y="96" width="4.8" height="9" fill="#FBC79A"/><rect x="470.5" y="96" width="22.0" height="9" fill="#E15759"/><rect x="492.5" y="96" width="31.5" height="9" fill="#B07AA1"/><rect x="524.0" y="96" width="10.8" height="9" fill="#59A14F"/><text x="538.8" y="104" font-size="8.5" fill="#666">$0.76</text><text x="162" y="117" text-anchor="end" font-size="9" fill="#444">logstash-17021</text><rect x="168.0" y="109" width="56.1" height="9" fill="#BAB0AC"/><rect x="224.1" y="109" width="161.1" height="9" fill="#F28E2B"/><rect x="385.2" y="109" width="65.5" height="9" fill="#9D5C0E"/><rect x="450.7" y="109" width="3.2" height="9" fill="#FBC79A"/><rect x="453.8" y="109" width="2.8" height="9" fill="#E15759"/><rect x="456.6" y="109" width="48.6" height="9" fill="#B07AA1"/><rect x="505.3" y="109" width="2.2" height="9" fill="#59A14F"/><text x="511.5" y="117" font-size="8.5" fill="#666">$0.70</text><text x="162" y="130" text-anchor="end" font-size="9" fill="#444">dayjs-2532</text><rect x="168.0" y="122" width="34.4" height="9" fill="#BAB0AC"/><rect x="202.4" y="122" width="205.1" height="9" fill="#F28E2B"/><rect x="407.5" y="122" width="18.9" height="9" fill="#9D5C0E"/><rect x="426.4" y="122" width="10.9" height="9" fill="#FBC79A"/><rect x="437.3" y="122" width="4.5" height="9" fill="#E15759"/><rect x="441.8" y="122" width="58.1" height="9" fill="#B07AA1"/><rect x="499.9" y="122" width="6.4" height="9" fill="#59A14F"/><text x="510.4" y="130" font-size="8.5" fill="#666">$0.70</text><text x="162" y="143" text-anchor="end" font-size="9" fill="#444">core-11694</text><rect x="168.0" y="135" width="47.1" height="9" fill="#BAB0AC"/><rect x="215.1" y="135" width="216.5" height="9" fill="#F28E2B"/><rect x="431.6" y="135" width="11.0" height="9" fill="#FBC79A"/><rect x="442.6" y="135" width="1.6" height="9" fill="#E15759"/><rect x="444.2" y="135" width="39.8" height="9" fill="#B07AA1"/><rect x="484.0" y="135" width="12.9" height="9" fill="#59A14F"/><text x="500.9" y="143" font-size="8.5" fill="#666">$0.68</text><text x="162" y="156" text-anchor="end" font-size="9" fill="#444">grpc-go-3258</text><rect x="168.0" y="148" width="28.9" height="9" fill="#BAB0AC"/><rect x="196.9" y="148" width="164.3" height="9" fill="#F28E2B"/><rect x="361.2" y="148" width="0.4" height="9" fill="#FBC79A"/><rect x="361.5" y="148" width="23.5" height="9" fill="#E15759"/><rect x="385.0" y="148" width="36.5" height="9" fill="#B07AA1"/><rect x="421.5" y="148" width="13.1" height="9" fill="#59A14F"/><text x="438.6" y="156" font-size="8.5" fill="#666">$0.55</text><text x="162" y="169" text-anchor="end" font-size="9" fill="#444">jq-3238</text><rect x="168.0" y="161" width="31.9" height="9" fill="#BAB0AC"/><rect x="199.9" y="161" width="121.3" height="9" fill="#F28E2B"/><rect x="321.3" y="161" width="17.9" height="9" fill="#9D5C0E"/><rect x="339.2" y="161" width="7.1" height="9" fill="#FBC79A"/><rect x="346.3" y="161" width="41.1" height="9" fill="#E15759"/><rect x="387.5" y="161" width="24.1" height="9" fill="#B07AA1"/><rect x="411.6" y="161" width="5.6" height="9" fill="#59A14F"/><text x="421.2" y="169" font-size="8.5" fill="#666">$0.51</text><text x="162" y="182" text-anchor="end" font-size="9" fill="#444">tracing-2897</text><rect x="168.0" y="174" width="33.7" height="9" fill="#BAB0AC"/><rect x="201.7" y="174" width="84.9" height="9" fill="#F28E2B"/><rect x="286.6" y="174" width="69.2" height="9" fill="#9D5C0E"/><rect x="355.9" y="174" width="31.2" height="9" fill="#E15759"/><rect x="387.0" y="174" width="14.1" height="9" fill="#B07AA1"/><rect x="401.2" y="174" width="4.4" height="9" fill="#59A14F"/><text x="409.6" y="182" font-size="8.5" fill="#666">$0.49</text><text x="162" y="195" text-anchor="end" font-size="9" fill="#444">core-11761</text><rect x="168.0" y="187" width="60.3" height="9" fill="#BAB0AC"/><rect x="228.3" y="187" width="97.6" height="9" fill="#F28E2B"/><rect x="325.9" y="187" width="2.4" height="9" fill="#9D5C0E"/><rect x="328.3" y="187" width="14.3" height="9" fill="#FBC79A"/><rect x="342.6" y="187" width="8.3" height="9" fill="#E15759"/><rect x="350.8" y="187" width="52.0" height="9" fill="#B07AA1"/><rect x="402.8" y="187" width="1.1" height="9" fill="#59A14F"/><text x="407.9" y="195" font-size="8.5" fill="#666">$0.49</text><text x="162" y="208" text-anchor="end" font-size="9" fill="#444">grpc-go-3351</text><rect x="168.0" y="200" width="16.6" height="9" fill="#BAB0AC"/><rect x="184.6" y="200" width="145.7" height="9" fill="#F28E2B"/><rect x="330.3" y="200" width="0.6" height="9" fill="#9D5C0E"/><rect x="330.9" y="200" width="0.4" height="9" fill="#FBC79A"/><rect x="331.2" y="200" width="12.9" height="9" fill="#E15759"/><rect x="344.1" y="200" width="41.1" height="9" fill="#B07AA1"/><rect x="385.2" y="200" width="1.3" height="9" fill="#59A14F"/><text x="390.5" y="208" font-size="8.5" fill="#666">$0.45</text><text x="162" y="221" text-anchor="end" font-size="9" fill="#444">clap-5873</text><rect x="168.0" y="213" width="77.2" height="9" fill="#BAB0AC"/><rect x="245.2" y="213" width="94.3" height="9" fill="#F28E2B"/><rect x="339.5" y="213" width="7.6" height="9" fill="#9D5C0E"/><rect x="347.0" y="213" width="19.6" height="9" fill="#E15759"/><rect x="366.6" y="213" width="9.3" height="9" fill="#B07AA1"/><rect x="375.9" y="213" width="1.9" height="9" fill="#59A14F"/><text x="381.8" y="221" font-size="8.5" fill="#666">$0.43</text><text x="162" y="234" text-anchor="end" font-size="9" fill="#444">core-11680</text><rect x="168.0" y="226" width="85.0" height="9" fill="#BAB0AC"/><rect x="253.0" y="226" width="68.4" height="9" fill="#F28E2B"/><rect x="321.5" y="226" width="2.3" height="9" fill="#9D5C0E"/><rect x="323.7" y="226" width="8.5" height="9" fill="#E15759"/><rect x="332.3" y="226" width="33.7" height="9" fill="#B07AA1"/><text x="369.9" y="234" font-size="8.5" fill="#666">$0.41</text><text x="162" y="247" text-anchor="end" font-size="9" fill="#444">fd-1394</text><rect x="168.0" y="239" width="30.2" height="9" fill="#BAB0AC"/><rect x="198.2" y="239" width="101.0" height="9" fill="#F28E2B"/><rect x="299.2" y="239" width="23.0" height="9" fill="#9D5C0E"/><rect x="322.2" y="239" width="15.7" height="9" fill="#FBC79A"/><rect x="337.9" y="239" width="7.4" height="9" fill="#E15759"/><rect x="345.4" y="239" width="11.5" height="9" fill="#B07AA1"/><rect x="356.9" y="239" width="2.5" height="9" fill="#59A14F"/><text x="363.4" y="247" font-size="8.5" fill="#666">$0.39</text><text x="162" y="260" text-anchor="end" font-size="9" fill="#444">github-readme-stats-2844</text><rect x="168.0" y="252" width="23.4" height="9" fill="#BAB0AC"/><rect x="191.4" y="252" width="110.4" height="9" fill="#F28E2B"/><rect x="301.8" y="252" width="1.2" height="9" fill="#9D5C0E"/><rect x="302.9" y="252" width="13.7" height="9" fill="#E15759"/><rect x="316.6" y="252" width="31.3" height="9" fill="#B07AA1"/><rect x="347.9" y="252" width="1.7" height="9" fill="#59A14F"/><text x="353.5" y="260" font-size="8.5" fill="#666">$0.37</text><text x="162" y="273" text-anchor="end" font-size="9" fill="#444">jq-2919</text><rect x="168.0" y="265" width="23.0" height="9" fill="#BAB0AC"/><rect x="191.0" y="265" width="59.6" height="9" fill="#F28E2B"/><rect x="250.6" y="265" width="4.0" height="9" fill="#9D5C0E"/><rect x="254.6" y="265" width="8.8" height="9" fill="#E15759"/><rect x="263.4" y="265" width="29.8" height="9" fill="#B07AA1"/><rect x="293.2" y="265" width="3.6" height="9" fill="#59A14F"/><text x="300.8" y="273" font-size="8.5" fill="#666">$0.27</text><text x="162" y="286" text-anchor="end" font-size="9" fill="#444">zstd-3942</text><rect x="168.0" y="278" width="17.8" height="9" fill="#BAB0AC"/><rect x="185.8" y="278" width="92.1" height="9" fill="#F28E2B"/><rect x="277.9" y="278" width="0.6" height="9" fill="#9D5C0E"/><rect x="278.5" y="278" width="4.9" height="9" fill="#FBC79A"/><rect x="283.4" y="278" width="2.4" height="9" fill="#E15759"/><rect x="285.8" y="278" width="6.0" height="9" fill="#B07AA1"/><rect x="291.8" y="278" width="2.0" height="9" fill="#59A14F"/><text x="297.8" y="286" font-size="8.5" fill="#666">$0.26</text><text x="162" y="299" text-anchor="end" font-size="9" fill="#444">bytes-732</text><rect x="168.0" y="291" width="32.0" height="9" fill="#BAB0AC"/><rect x="200.0" y="291" width="53.5" height="9" fill="#F28E2B"/><rect x="253.5" y="291" width="10.6" height="9" fill="#9D5C0E"/><rect x="264.1" y="291" width="15.2" height="9" fill="#E15759"/><rect x="279.3" y="291" width="11.7" height="9" fill="#B07AA1"/><rect x="291.1" y="291" width="2.3" height="9" fill="#59A14F"/><text x="297.3" y="299" font-size="8.5" fill="#666">$0.26</text><text x="162" y="312" text-anchor="end" font-size="9" fill="#444">core-11813</text><rect x="168.0" y="304" width="17.1" height="9" fill="#BAB0AC"/><rect x="185.1" y="304" width="90.7" height="9" fill="#F28E2B"/><rect x="275.8" y="304" width="0.5" height="9" fill="#9D5C0E"/><rect x="276.4" y="304" width="3.2" height="9" fill="#E15759"/><rect x="279.6" y="304" width="11.9" height="9" fill="#B07AA1"/><rect x="291.5" y="304" width="1.4" height="9" fill="#59A14F"/><text x="296.9" y="312" font-size="8.5" fill="#666">$0.26</text><text x="162" y="325" text-anchor="end" font-size="9" fill="#444">bat-3189</text><rect x="168.0" y="317" width="13.1" height="9" fill="#BAB0AC"/><rect x="181.1" y="317" width="91.7" height="9" fill="#F28E2B"/><rect x="272.8" y="317" width="7.6" height="9" fill="#9D5C0E"/><rect x="280.5" y="317" width="2.8" height="9" fill="#E15759"/><rect x="283.2" y="317" width="6.5" height="9" fill="#B07AA1"/><rect x="289.7" y="317" width="3.2" height="9" fill="#59A14F"/><text x="296.8" y="325" font-size="8.5" fill="#666">$0.26</text><text x="162" y="338" text-anchor="end" font-size="9" fill="#444">go-zero-2787</text><rect x="168.0" y="330" width="24.3" height="9" fill="#BAB0AC"/><rect x="192.3" y="330" width="60.9" height="9" fill="#F28E2B"/><rect x="253.2" y="330" width="0.7" height="9" fill="#9D5C0E"/><rect x="254.0" y="330" width="6.1" height="9" fill="#E15759"/><rect x="260.1" y="330" width="19.0" height="9" fill="#B07AA1"/><rect x="279.1" y="330" width="2.1" height="9" fill="#59A14F"/><text x="285.2" y="338" font-size="8.5" fill="#666">$0.23</text><text x="162" y="351" text-anchor="end" font-size="9" fill="#444">darkreader-7241</text><rect x="168.0" y="343" width="9.9" height="9" fill="#BAB0AC"/><rect x="177.9" y="343" width="70.1" height="9" fill="#F28E2B"/><rect x="248.0" y="343" width="0.4" height="9" fill="#9D5C0E"/><rect x="248.1" y="343" width="3.1" height="9" fill="#FBC79A"/><rect x="251.2" y="343" width="5.1" height="9" fill="#E15759"/><rect x="256.3" y="343" width="14.9" height="9" fill="#B07AA1"/><rect x="271.2" y="343" width="1.3" height="9" fill="#59A14F"/><text x="276.4" y="351" font-size="8.5" fill="#666">$0.22</text><text x="162" y="364" text-anchor="end" font-size="9" fill="#444">express-5555</text><rect x="168.0" y="356" width="18.8" height="9" fill="#BAB0AC"/><rect x="186.8" y="356" width="32.8" height="9" fill="#F28E2B"/><rect x="219.6" y="356" width="0.4" height="9" fill="#9D5C0E"/><rect x="219.8" y="356" width="3.4" height="9" fill="#FBC79A"/><rect x="223.3" y="356" width="7.1" height="9" fill="#E15759"/><rect x="230.3" y="356" width="11.7" height="9" fill="#B07AA1"/><rect x="242.1" y="356" width="3.0" height="9" fill="#59A14F"/><text x="249.0" y="364" font-size="8.5" fill="#666">$0.16</text><text x="162" y="377" text-anchor="end" font-size="9" fill="#444">rayon-986</text><rect x="168.0" y="369" width="11.0" height="9" fill="#BAB0AC"/><rect x="179.0" y="369" width="20.6" height="9" fill="#F28E2B"/><rect x="199.6" y="369" width="5.4" height="9" fill="#9D5C0E"/><rect x="205.0" y="369" width="9.3" height="9" fill="#E15759"/><rect x="214.2" y="369" width="16.5" height="9" fill="#B07AA1"/><rect x="230.7" y="369" width="1.5" height="9" fill="#59A14F"/><text x="236.2" y="377" font-size="8.5" fill="#666">$0.13</text></svg>
