<svg xmlns="http://www.w3.org/2000/svg" width="760" height="500" viewBox="0 0 760 500" font-family="system-ui,Segoe UI,Helvetica,Arial,sans-serif">
<rect width="760" height="500" fill="#ffffff"/>
<text x="315" y="26" text-anchor="middle" font-size="16" font-weight="600" fill="#111">Where the context $ per run goes — input + cached by source</text>
<text x="315" y="44" text-anchor="middle" font-size="11" fill="#666">the replayed-context bulk attributed to its source, over classic's 24 wins</text><line x1="60" y1="430.0" x2="610" y2="430.0" stroke="#eee"/><text x="52" y="434.0" text-anchor="end" font-size="10" fill="#999">$0</text><line x1="60" y1="363.2" x2="610" y2="363.2" stroke="#eee"/><text x="52" y="367.2" text-anchor="end" font-size="10" fill="#999">$2</text><line x1="60" y1="296.4" x2="610" y2="296.4" stroke="#eee"/><text x="52" y="300.4" text-anchor="end" font-size="10" fill="#999">$4</text><line x1="60" y1="229.6" x2="610" y2="229.6" stroke="#eee"/><text x="52" y="233.6" text-anchor="end" font-size="10" fill="#999">$7</text><line x1="60" y1="162.8" x2="610" y2="162.8" stroke="#eee"/><text x="52" y="166.8" text-anchor="end" font-size="10" fill="#999">$9</text><line x1="60" y1="96.0" x2="610" y2="96.0" stroke="#eee"/><text x="52" y="100.0" text-anchor="end" font-size="10" fill="#999">$11</text><rect x="626" y="96" width="12" height="12" fill="#BAB0AC"/><text x="643" y="107" font-size="11" fill="#333">system+prompt</text><rect x="626" y="116" width="12" height="12" fill="#F28E2B"/><text x="643" y="127" font-size="11" fill="#333">bash:read</text><rect x="626" y="136" width="12" height="12" fill="#9D5C0E"/><text x="643" y="147" font-size="11" fill="#333">bash:build/test</text><rect x="626" y="156" width="12" height="12" fill="#FBC79A"/><text x="643" y="167" font-size="11" fill="#333">bash:other</text><rect x="626" y="176" width="12" height="12" fill="#4E79A7"/><text x="643" y="187" font-size="11" fill="#333">explore/graph</text><rect x="626" y="196" width="12" height="12" fill="#E15759"/><text x="643" y="207" font-size="11" fill="#333">edit</text><rect x="626" y="216" width="12" height="12" fill="#B07AA1"/><text x="643" y="227" font-size="11" fill="#333">thinking</text><rect x="626" y="236" width="12" height="12" fill="#59A14F"/><text x="643" y="247" font-size="11" fill="#333">output</text><rect x="94.83333333333334" y="382.5" width="113.66666666666667" height="47.5" fill="#BAB0AC"/><text x="151.66666666666669" y="409.2" text-anchor="middle" font-size="9.5" fill="#fff">$1.57</text><rect x="94.83333333333334" y="218.5" width="113.66666666666667" height="164.0" fill="#F28E2B"/><text x="151.66666666666669" y="303.5" text-anchor="middle" font-size="9.5" fill="#fff">$5.40</text><rect x="94.83333333333334" y="209.9" width="113.66666666666667" height="8.6" fill="#9D5C0E"/><rect x="94.83333333333334" y="208.7" width="113.66666666666667" height="1.2" fill="#FBC79A"/><rect x="94.83333333333334" y="205.5" width="113.66666666666667" height="3.2" fill="#E15759"/><rect x="94.83333333333334" y="197.7" width="113.66666666666667" height="7.8" fill="#B07AA1"/><text x="151.66666666666669" y="189.7" text-anchor="middle" font-size="15" font-weight="700" fill="#222">$7.65</text><text x="151.66666666666669" y="452" text-anchor="middle" font-size="12" font-weight="600" fill="#333">classic</text><text x="151.66666666666669" y="468" text-anchor="middle" font-size="9.5" fill="#888">24 sessions</text><rect x="278.1666666666667" y="376.0" width="113.66666666666667" height="54.0" fill="#BAB0AC"/><text x="335" y="406.0" text-anchor="middle" font-size="9.5" fill="#fff">$1.78</text><rect x="278.1666666666667" y="219.7" width="113.66666666666667" height="156.4" fill="#F28E2B"/><text x="335" y="300.9" text-anchor="middle" font-size="9.5" fill="#fff">$5.15</text><rect x="278.1666666666667" y="208.1" width="113.66666666666667" height="11.5" fill="#9D5C0E"/><rect x="278.1666666666667" y="206.7" width="113.66666666666667" height="1.5" fill="#FBC79A"/><rect x="278.1666666666667" y="147.6" width="113.66666666666667" height="59.1" fill="#4E79A7"/><text x="335" y="180.1" text-anchor="middle" font-size="9.5" fill="#fff">$1.95</text><rect x="278.1666666666667" y="144.5" width="113.66666666666667" height="3.1" fill="#E15759"/><rect x="278.1666666666667" y="134.1" width="113.66666666666667" height="10.3" fill="#B07AA1"/><text x="335" y="126.1" text-anchor="middle" font-size="15" font-weight="700" fill="#222">$9.74</text><text x="335" y="452" text-anchor="middle" font-size="12" font-weight="600" fill="#333">classic-graphify</text><text x="335" y="468" text-anchor="middle" font-size="9.5" fill="#888">24 sessions</text><rect x="461.50000000000006" y="374.4" width="113.66666666666667" height="55.6" fill="#BAB0AC"/><text x="518.3333333333334" y="405.2" text-anchor="middle" font-size="9.5" fill="#fff">$1.83</text><rect x="461.50000000000006" y="373.5" width="113.66666666666667" height="1.0" fill="#F28E2B"/><rect x="461.50000000000006" y="363.2" width="113.66666666666667" height="10.3" fill="#9D5C0E"/><rect x="461.50000000000006" y="360.1" width="113.66666666666667" height="3.1" fill="#FBC79A"/><rect x="461.50000000000006" y="262.3" width="113.66666666666667" height="97.8" fill="#4E79A7"/><text x="518.3333333333334" y="314.2" text-anchor="middle" font-size="9.5" fill="#fff">$3.22</text><rect x="461.50000000000006" y="258.7" width="113.66666666666667" height="3.6" fill="#E15759"/><rect x="461.50000000000006" y="252.3" width="113.66666666666667" height="6.4" fill="#B07AA1"/><text x="518.3333333333334" y="244.3" text-anchor="middle" font-size="15" font-weight="700" fill="#222">$5.85</text><text x="518.3333333333334" y="452" text-anchor="middle" font-size="12" font-weight="600" fill="#333">classic-graph-bash</text><text x="518.3333333333334" y="468" text-anchor="middle" font-size="9.5" fill="#888">24 sessions</text></svg>
