<svg xmlns="http://www.w3.org/2000/svg" width="760" height="500" viewBox="0 0 760 500" font-family="system-ui,Segoe UI,Helvetica,Arial,sans-serif">
<rect width="760" height="500" fill="#ffffff"/>
<text x="315" y="26" text-anchor="middle" font-size="16" font-weight="600" fill="#111">Where the $ goes (per run) — full spend by source</text>
<text x="315" y="44" text-anchor="middle" font-size="11" fill="#666">input+cached+output attributed to what produced it, summed over classic's 26 wins</text><line x1="60" y1="430.0" x2="610" y2="430.0" stroke="#eee"/><text x="52" y="434.0" text-anchor="end" font-size="10" fill="#999">$0</text><line x1="60" y1="363.2" x2="610" y2="363.2" stroke="#eee"/><text x="52" y="367.2" text-anchor="end" font-size="10" fill="#999">$3</text><line x1="60" y1="296.4" x2="610" y2="296.4" stroke="#eee"/><text x="52" y="300.4" text-anchor="end" font-size="10" fill="#999">$7</text><line x1="60" y1="229.6" x2="610" y2="229.6" stroke="#eee"/><text x="52" y="233.6" text-anchor="end" font-size="10" fill="#999">$10</text><line x1="60" y1="162.8" x2="610" y2="162.8" stroke="#eee"/><text x="52" y="166.8" text-anchor="end" font-size="10" fill="#999">$13</text><line x1="60" y1="96.0" x2="610" y2="96.0" stroke="#eee"/><text x="52" y="100.0" text-anchor="end" font-size="10" fill="#999">$17</text><rect x="626" y="96" width="12" height="12" fill="#BAB0AC"/><text x="643" y="107" font-size="11" fill="#333">system+prompt</text><rect x="626" y="116" width="12" height="12" fill="#F28E2B"/><text x="643" y="127" font-size="11" fill="#333">bash:read</text><rect x="626" y="136" width="12" height="12" fill="#9D5C0E"/><text x="643" y="147" font-size="11" fill="#333">bash:build/test</text><rect x="626" y="156" width="12" height="12" fill="#FBC79A"/><text x="643" y="167" font-size="11" fill="#333">bash:other</text><rect x="626" y="176" width="12" height="12" fill="#4E79A7"/><text x="643" y="187" font-size="11" fill="#333">explore/graph</text><rect x="626" y="196" width="12" height="12" fill="#E15759"/><text x="643" y="207" font-size="11" fill="#333">edit</text><rect x="626" y="216" width="12" height="12" fill="#B07AA1"/><text x="643" y="227" font-size="11" fill="#333">thinking</text><rect x="626" y="236" width="12" height="12" fill="#59A14F"/><text x="643" y="247" font-size="11" fill="#333">output</text><rect x="94.83333333333334" y="398.7" width="113.66666666666667" height="31.3" fill="#BAB0AC"/><text x="151.66666666666669" y="417.3" text-anchor="middle" font-size="9.5" fill="#fff">$1.57</text><rect x="94.83333333333334" y="244.5" width="113.66666666666667" height="154.2" fill="#F28E2B"/><text x="151.66666666666669" y="324.6" text-anchor="middle" font-size="9.5" fill="#fff">$7.71</text><rect x="94.83333333333334" y="233.8" width="113.66666666666667" height="10.6" fill="#9D5C0E"/><rect x="94.83333333333334" y="221.4" width="113.66666666666667" height="12.4" fill="#FBC79A"/><text x="151.66666666666669" y="230.6" text-anchor="middle" font-size="9.5" fill="#fff">$0.62</text><rect x="94.83333333333334" y="203.9" width="113.66666666666667" height="17.5" fill="#E15759"/><text x="151.66666666666669" y="215.7" text-anchor="middle" font-size="9.5" fill="#fff">$0.88</text><rect x="94.83333333333334" y="174.3" width="113.66666666666667" height="29.6" fill="#B07AA1"/><text x="151.66666666666669" y="192.1" text-anchor="middle" font-size="9.5" fill="#fff">$1.48</text><rect x="94.83333333333334" y="170.2" width="113.66666666666667" height="4.1" fill="#59A14F"/><text x="151.66666666666669" y="162.2" text-anchor="middle" font-size="15" font-weight="700" fill="#222">$12.99</text><text x="151.66666666666669" y="452" text-anchor="middle" font-size="12" font-weight="600" fill="#333">classic</text><text x="151.66666666666669" y="468" text-anchor="middle" font-size="9.5" fill="#888">26 sessions</text><rect x="278.1666666666667" y="391.6" width="113.66666666666667" height="38.4" fill="#BAB0AC"/><text x="335" y="413.8" text-anchor="middle" font-size="9.5" fill="#fff">$1.92</text><rect x="278.1666666666667" y="257.1" width="113.66666666666667" height="134.5" fill="#F28E2B"/><text x="335" y="327.3" text-anchor="middle" font-size="9.5" fill="#fff">$6.72</text><rect x="278.1666666666667" y="243.6" width="113.66666666666667" height="13.5" fill="#9D5C0E"/><text x="335" y="253.3" text-anchor="middle" font-size="9.5" fill="#fff">$0.68</text><rect x="278.1666666666667" y="239.5" width="113.66666666666667" height="4.0" fill="#FBC79A"/><rect x="278.1666666666667" y="192.1" width="113.66666666666667" height="47.5" fill="#4E79A7"/><text x="335" y="218.8" text-anchor="middle" font-size="9.5" fill="#fff">$2.37</text><rect x="278.1666666666667" y="173.3" width="113.66666666666667" height="18.8" fill="#E15759"/><text x="335" y="185.7" text-anchor="middle" font-size="9.5" fill="#fff">$0.94</text><rect x="278.1666666666667" y="136.6" width="113.66666666666667" height="36.7" fill="#B07AA1"/><text x="335" y="157.9" text-anchor="middle" font-size="9.5" fill="#fff">$1.83</text><rect x="278.1666666666667" y="132.0" width="113.66666666666667" height="4.6" fill="#59A14F"/><text x="335" y="124.0" text-anchor="middle" font-size="15" font-weight="700" fill="#222">$14.90</text><text x="335" y="452" text-anchor="middle" font-size="12" font-weight="600" fill="#333">classic-graphify</text><text x="335" y="468" text-anchor="middle" font-size="9.5" fill="#888">26 sessions</text><rect x="461.50000000000006" y="388.1" width="113.66666666666667" height="41.9" fill="#BAB0AC"/><text x="518.3333333333334" y="412.0" text-anchor="middle" font-size="9.5" fill="#fff">$2.10</text><rect x="461.50000000000006" y="381.3" width="113.66666666666667" height="6.7" fill="#F28E2B"/><rect x="461.50000000000006" y="370.6" width="113.66666666666667" height="10.7" fill="#9D5C0E"/><rect x="461.50000000000006" y="363.1" width="113.66666666666667" height="7.5" fill="#FBC79A"/><rect x="461.50000000000006" y="269.7" width="113.66666666666667" height="93.4" fill="#4E79A7"/><text x="518.3333333333334" y="319.4" text-anchor="middle" font-size="9.5" fill="#fff">$4.67</text><rect x="461.50000000000006" y="253.3" width="113.66666666666667" height="16.3" fill="#E15759"/><text x="518.3333333333334" y="264.5" text-anchor="middle" font-size="9.5" fill="#fff">$0.82</text><rect x="461.50000000000006" y="233.9" width="113.66666666666667" height="19.4" fill="#B07AA1"/><text x="518.3333333333334" y="246.6" text-anchor="middle" font-size="9.5" fill="#fff">$0.97</text><rect x="461.50000000000006" y="229.7" width="113.66666666666667" height="4.2" fill="#59A14F"/><text x="518.3333333333334" y="221.7" text-anchor="middle" font-size="15" font-weight="700" fill="#222">$10.02</text><text x="518.3333333333334" y="452" text-anchor="middle" font-size="12" font-weight="600" fill="#333">classic-graph-bash</text><text x="518.3333333333334" y="468" text-anchor="middle" font-size="9.5" fill="#888">26 sessions</text></svg>
