<svg xmlns="http://www.w3.org/2000/svg" width="820" height="728" viewBox="0 0 820 728" font-family="system-ui,Segoe UI,Helvetica,Arial,sans-serif">
<rect width="820" height="728" fill="#ffffff"/>
<text x="410" y="24" text-anchor="middle" font-size="16" font-weight="600" fill="#111">Cost on classic's wins only — does each arm solve them cheaper?</text>
<text x="410" y="42" text-anchor="middle" font-size="11" fill="#666">the 22 benchmarks classic resolved; only passing arms drawn (missing bar = that arm failed this one)</text><rect x="150" y="53" width="12" height="12" fill="#4C78A8"/><text x="167" y="63" font-size="11" fill="#333">classic (mean $0.411)</text><rect x="310.20000000000005" y="53" width="12" height="12" fill="#E45756"/><text x="327.20000000000005" y="63" font-size="11" fill="#333">classic-graphify (mean $0.540)</text><rect x="526.2" y="53" width="12" height="12" fill="#54A24B"/><text x="543.2" y="63" font-size="11" fill="#333">classic-graph-bash (mean $0.308)</text><line x1="150.0" y1="90" x2="150.0" y2="714" stroke="#eee" stroke-width="1"/><text x="150.0" y="86" text-anchor="middle" font-size="10" fill="#999">$0.0</text><line x1="367.3" y1="90" x2="367.3" y2="714" stroke="#eee" stroke-width="1"/><text x="367.3" y="86" text-anchor="middle" font-size="10" fill="#999">$0.6</text><line x1="584.7" y1="90" x2="584.7" y2="714" stroke="#eee" stroke-width="1"/><text x="584.7" y="86" text-anchor="middle" font-size="10" fill="#999">$1.1</text><line x1="802.0" y1="90" x2="802.0" y2="714" stroke="#eee" stroke-width="1"/><text x="802.0" y="86" text-anchor="middle" font-size="10" fill="#999">$1.7</text><line x1="268.1" y1="92" x2="268.1" y2="714" stroke="#54A24B" stroke-width="1.3" stroke-dasharray="4 3" opacity="0.85"/><text x="268.1" y="72" text-anchor="middle" font-size="10.5" font-weight="700" fill="#54A24B" stroke="#fff" stroke-width="2.6" paint-order="stroke">22 ok</text><line x1="307.6" y1="92" x2="307.6" y2="714" stroke="#4C78A8" stroke-width="1.3" stroke-dasharray="4 3" opacity="0.85"/><text x="307.6" y="59" text-anchor="middle" font-size="10.5" font-weight="700" fill="#4C78A8" stroke="#fff" stroke-width="2.6" paint-order="stroke">22 ok</text><line x1="357.0" y1="92" x2="357.0" y2="714" stroke="#E45756" stroke-width="1.3" stroke-dasharray="4 3" opacity="0.85"/><text x="357.0" y="46" text-anchor="middle" font-size="10.5" font-weight="700" fill="#E45756" stroke="#fff" stroke-width="2.6" paint-order="stroke">22 ok</text><text x="144" y="112.0" text-anchor="end" font-size="9.5" fill="#444">dayjs-2399</text><rect x="150" y="96.0" width="399.0" height="6" fill="#4C78A8"/><circle cx="549.0" cy="99.0" r="2.5" fill="#4C78A8" stroke="#222" stroke-width="0.7"/><rect x="150" y="103.0" width="474.7" height="6" fill="#E45756"/><circle cx="624.7" cy="106.0" r="2.5" fill="#E45756" stroke="#222" stroke-width="0.7"/><rect x="150" y="110.0" width="157.4" height="6" fill="#54A24B"/><circle cx="307.4" cy="113.0" r="2.5" fill="#54A24B" stroke="#222" stroke-width="0.7"/><text x="144" y="140.0" text-anchor="end" font-size="9.5" fill="#444">zstd-3438</text><rect x="150" y="124.0" width="344.4" height="6" fill="#4C78A8"/><circle cx="494.4" cy="127.0" r="2.5" fill="#4C78A8" stroke="#222" stroke-width="0.7"/><rect x="150" y="131.0" width="649.0" height="6" fill="#E45756"/><circle cx="799.0" cy="134.0" r="2.5" fill="#E45756" stroke="#222" stroke-width="0.7"/><rect x="150" y="138.0" width="240.3" height="6" fill="#54A24B"/><circle cx="390.3" cy="141.0" r="2.5" fill="#54A24B" stroke="#222" stroke-width="0.7"/><text x="144" y="168.0" text-anchor="end" font-size="9.5" fill="#444">core-11694</text><rect x="150" y="152.0" width="342.5" height="6" fill="#4C78A8"/><circle cx="492.5" cy="155.0" r="2.5" fill="#4C78A8" stroke="#222" stroke-width="0.7"/><rect x="150" y="159.0" width="250.9" height="6" fill="#E45756"/><circle cx="400.9" cy="162.0" r="2.5" fill="#E45756" stroke="#222" stroke-width="0.7"/><rect x="150" y="166.0" width="55.7" height="6" fill="#54A24B"/><circle cx="205.7" cy="169.0" r="2.5" fill="#54A24B" stroke="#222" stroke-width="0.7"/><text x="144" y="196.0" text-anchor="end" font-size="9.5" fill="#444">grpc-go-3351</text><rect x="150" y="180.0" width="187.8" height="6" fill="#4C78A8"/><circle cx="337.8" cy="183.0" r="2.5" fill="#4C78A8" stroke="#222" stroke-width="0.7"/><rect x="150" y="187.0" width="180.6" height="6" fill="#E45756"/><circle cx="330.6" cy="190.0" r="2.5" fill="#E45756" stroke="#222" stroke-width="0.7"/><rect x="150" y="194.0" width="148.2" height="6" fill="#54A24B"/><circle cx="298.2" cy="197.0" r="2.5" fill="#54A24B" stroke="#222" stroke-width="0.7"/><text x="144" y="224.0" text-anchor="end" font-size="9.5" fill="#444">grpc-go-3258</text><rect x="150" y="208.0" width="184.2" height="6" fill="#4C78A8"/><circle cx="334.2" cy="211.0" r="2.5" fill="#4C78A8" stroke="#222" stroke-width="0.7"/><rect x="150" y="215.0" width="291.3" height="6" fill="#E45756"/><circle cx="441.3" cy="218.0" r="2.5" fill="#E45756" stroke="#222" stroke-width="0.7"/><rect x="150" y="222.0" width="160.8" height="6" fill="#54A24B"/><circle cx="310.8" cy="225.0" r="2.5" fill="#54A24B" stroke="#222" stroke-width="0.7"/><text x="144" y="252.0" text-anchor="end" font-size="9.5" fill="#444">fd-1394</text><rect x="150" y="236.0" width="179.8" height="6" fill="#4C78A8"/><circle cx="329.8" cy="239.0" r="2.5" fill="#4C78A8" stroke="#222" stroke-width="0.7"/><rect x="150" y="243.0" width="173.1" height="6" fill="#E45756"/><circle cx="323.1" cy="246.0" r="2.5" fill="#E45756" stroke="#222" stroke-width="0.7"/><rect x="150" y="250.0" width="32.4" height="6" fill="#54A24B"/><circle cx="182.4" cy="253.0" r="2.5" fill="#54A24B" stroke="#222" stroke-width="0.7"/><text x="144" y="280.0" text-anchor="end" font-size="9.5" fill="#444">clap-5873</text><rect x="150" y="264.0" width="177.0" height="6" fill="#4C78A8"/><circle cx="327.0" cy="267.0" r="2.5" fill="#4C78A8" stroke="#222" stroke-width="0.7"/><rect x="150" y="271.0" width="209.6" height="6" fill="#E45756"/><circle cx="359.6" cy="274.0" r="2.5" fill="#E45756" stroke="#222" stroke-width="0.7"/><rect x="150" y="278.0" width="172.7" height="6" fill="#54A24B"/><circle cx="322.7" cy="281.0" r="2.5" fill="#54A24B" stroke="#222" stroke-width="0.7"/><text x="144" y="308.0" text-anchor="end" font-size="9.5" fill="#444">core-11761</text><rect x="150" y="292.0" width="172.7" height="6" fill="#4C78A8"/><circle cx="322.7" cy="295.0" r="2.5" fill="#4C78A8" stroke="#222" stroke-width="0.7"/><rect x="150" y="299.0" width="191.7" height="6" fill="#E45756"/><circle cx="341.7" cy="302.0" r="2.5" fill="#E45756" stroke="#222" stroke-width="0.7"/><rect x="150" y="306.0" width="140.8" height="6" fill="#54A24B"/><circle cx="290.8" cy="309.0" r="2.5" fill="#54A24B" stroke="#222" stroke-width="0.7"/><text x="144" y="336.0" text-anchor="end" font-size="9.5" fill="#444">jq-3238</text><rect x="150" y="320.0" width="170.4" height="6" fill="#4C78A8"/><circle cx="320.4" cy="323.0" r="2.5" fill="#4C78A8" stroke="#222" stroke-width="0.7"/><rect x="150" y="327.0" width="191.0" height="6" fill="#E45756"/><circle cx="341.0" cy="330.0" r="2.5" fill="#E45756" stroke="#222" stroke-width="0.7"/><rect x="150" y="334.0" width="336.4" height="6" fill="#54A24B"/><circle cx="486.4" cy="337.0" r="2.5" fill="#54A24B" stroke="#222" stroke-width="0.7"/><text x="144" y="364.0" text-anchor="end" font-size="9.5" fill="#444">tracing-2897</text><rect x="150" y="348.0" width="166.2" height="6" fill="#4C78A8"/><circle cx="316.2" cy="351.0" r="2.5" fill="#4C78A8" stroke="#222" stroke-width="0.7"/><rect x="150" y="355.0" width="211.4" height="6" fill="#E45756"/><circle cx="361.4" cy="358.0" r="2.5" fill="#E45756" stroke="#222" stroke-width="0.7"/><rect x="150" y="362.0" width="102.7" height="6" fill="#54A24B"/><circle cx="252.7" cy="365.0" r="2.5" fill="#54A24B" stroke="#222" stroke-width="0.7"/><text x="144" y="392.0" text-anchor="end" font-size="9.5" fill="#444">dayjs-2532</text><rect x="150" y="376.0" width="152.2" height="6" fill="#4C78A8"/><circle cx="302.2" cy="379.0" r="2.5" fill="#4C78A8" stroke="#222" stroke-width="0.7"/><rect x="150" y="383.0" width="312.7" height="6" fill="#E45756"/><circle cx="462.7" cy="386.0" r="2.5" fill="#E45756" stroke="#222" stroke-width="0.7"/><rect x="150" y="390.0" width="156.5" height="6" fill="#54A24B"/><circle cx="306.5" cy="393.0" r="2.5" fill="#54A24B" stroke="#222" stroke-width="0.7"/><text x="144" y="420.0" text-anchor="end" font-size="9.5" fill="#444">bytes-732</text><rect x="150" y="404.0" width="136.0" height="6" fill="#4C78A8"/><circle cx="286.0" cy="407.0" r="2.5" fill="#4C78A8" stroke="#222" stroke-width="0.7"/><rect x="150" y="411.0" width="145.3" height="6" fill="#E45756"/><circle cx="295.3" cy="414.0" r="2.5" fill="#E45756" stroke="#222" stroke-width="0.7"/><rect x="150" y="418.0" width="111.0" height="6" fill="#54A24B"/><circle cx="261.0" cy="421.0" r="2.5" fill="#54A24B" stroke="#222" stroke-width="0.7"/><text x="144" y="448.0" text-anchor="end" font-size="9.5" fill="#444">github-readme-stats-2844</text><rect x="150" y="432.0" width="121.3" height="6" fill="#4C78A8"/><circle cx="271.3" cy="435.0" r="2.5" fill="#4C78A8" stroke="#222" stroke-width="0.7"/><rect x="150" y="439.0" width="183.6" height="6" fill="#E45756"/><circle cx="333.6" cy="442.0" r="2.5" fill="#E45756" stroke="#222" stroke-width="0.7"/><rect x="150" y="446.0" width="105.7" height="6" fill="#54A24B"/><circle cx="255.7" cy="449.0" r="2.5" fill="#54A24B" stroke="#222" stroke-width="0.7"/><text x="144" y="476.0" text-anchor="end" font-size="9.5" fill="#444">core-11680</text><rect x="150" y="460.0" width="121.0" height="6" fill="#4C78A8"/><circle cx="271.0" cy="463.0" r="2.5" fill="#4C78A8" stroke="#222" stroke-width="0.7"/><rect x="150" y="467.0" width="144.9" height="6" fill="#E45756"/><circle cx="294.9" cy="470.0" r="2.5" fill="#E45756" stroke="#222" stroke-width="0.7"/><rect x="150" y="474.0" width="125.8" height="6" fill="#54A24B"/><circle cx="275.8" cy="477.0" r="2.5" fill="#54A24B" stroke="#222" stroke-width="0.7"/><text x="144" y="504.0" text-anchor="end" font-size="9.5" fill="#444">jq-2919</text><rect x="150" y="488.0" width="119.8" height="6" fill="#4C78A8"/><circle cx="269.8" cy="491.0" r="2.5" fill="#4C78A8" stroke="#222" stroke-width="0.7"/><rect x="150" y="495.0" width="215.9" height="6" fill="#E45756"/><circle cx="365.9" cy="498.0" r="2.5" fill="#E45756" stroke="#222" stroke-width="0.7"/><rect x="150" y="502.0" width="127.9" height="6" fill="#54A24B"/><circle cx="277.9" cy="505.0" r="2.5" fill="#54A24B" stroke="#222" stroke-width="0.7"/><text x="144" y="532.0" text-anchor="end" font-size="9.5" fill="#444">core-11813</text><rect x="150" y="516.0" width="85.1" height="6" fill="#4C78A8"/><circle cx="235.1" cy="519.0" r="2.5" fill="#4C78A8" stroke="#222" stroke-width="0.7"/><rect x="150" y="523.0" width="98.8" height="6" fill="#E45756"/><circle cx="248.8" cy="526.0" r="2.5" fill="#E45756" stroke="#222" stroke-width="0.7"/><rect x="150" y="530.0" width="42.5" height="6" fill="#54A24B"/><circle cx="192.5" cy="533.0" r="2.5" fill="#54A24B" stroke="#222" stroke-width="0.7"/><text x="144" y="560.0" text-anchor="end" font-size="9.5" fill="#444">zstd-3942</text><rect x="150" y="544.0" width="83.9" height="6" fill="#4C78A8"/><circle cx="233.9" cy="547.0" r="2.5" fill="#4C78A8" stroke="#222" stroke-width="0.7"/><rect x="150" y="551.0" width="91.5" height="6" fill="#E45756"/><circle cx="241.5" cy="554.0" r="2.5" fill="#E45756" stroke="#222" stroke-width="0.7"/><rect x="150" y="558.0" width="74.3" height="6" fill="#54A24B"/><circle cx="224.3" cy="561.0" r="2.5" fill="#54A24B" stroke="#222" stroke-width="0.7"/><text x="144" y="588.0" text-anchor="end" font-size="9.5" fill="#444">bat-3189</text><rect x="150" y="572.0" width="81.3" height="6" fill="#4C78A8"/><circle cx="231.3" cy="575.0" r="2.5" fill="#4C78A8" stroke="#222" stroke-width="0.7"/><rect x="150" y="579.0" width="84.3" height="6" fill="#E45756"/><circle cx="234.3" cy="582.0" r="2.5" fill="#E45756" stroke="#222" stroke-width="0.7"/><rect x="150" y="586.0" width="31.9" height="6" fill="#54A24B"/><circle cx="181.9" cy="589.0" r="2.5" fill="#54A24B" stroke="#222" stroke-width="0.7"/><text x="144" y="616.0" text-anchor="end" font-size="9.5" fill="#444">go-zero-2787</text><rect x="150" y="600.0" width="80.9" height="6" fill="#4C78A8"/><circle cx="230.9" cy="603.0" r="2.5" fill="#4C78A8" stroke="#222" stroke-width="0.7"/><rect x="150" y="607.0" width="91.1" height="6" fill="#E45756"/><circle cx="241.1" cy="610.0" r="2.5" fill="#E45756" stroke="#222" stroke-width="0.7"/><rect x="150" y="614.0" width="17.7" height="6" fill="#54A24B"/><circle cx="167.7" cy="617.0" r="2.5" fill="#54A24B" stroke="#222" stroke-width="0.7"/><text x="144" y="644.0" text-anchor="end" font-size="9.5" fill="#444">darkreader-7241</text><rect x="150" y="628.0" width="70.9" height="6" fill="#4C78A8"/><circle cx="220.9" cy="631.0" r="2.5" fill="#4C78A8" stroke="#222" stroke-width="0.7"/><rect x="150" y="635.0" width="187.0" height="6" fill="#E45756"/><circle cx="337.0" cy="638.0" r="2.5" fill="#E45756" stroke="#222" stroke-width="0.7"/><rect x="150" y="642.0" width="155.9" height="6" fill="#54A24B"/><circle cx="305.9" cy="645.0" r="2.5" fill="#54A24B" stroke="#222" stroke-width="0.7"/><text x="144" y="672.0" text-anchor="end" font-size="9.5" fill="#444">rayon-986</text><rect x="150" y="656.0" width="46.9" height="6" fill="#4C78A8"/><circle cx="196.9" cy="659.0" r="2.5" fill="#4C78A8" stroke="#222" stroke-width="0.7"/><rect x="150" y="663.0" width="73.6" height="6" fill="#E45756"/><circle cx="223.6" cy="666.0" r="2.5" fill="#E45756" stroke="#222" stroke-width="0.7"/><rect x="150" y="670.0" width="61.7" height="6" fill="#54A24B"/><circle cx="211.7" cy="673.0" r="2.5" fill="#54A24B" stroke="#222" stroke-width="0.7"/><text x="144" y="700.0" text-anchor="end" font-size="9.5" fill="#444">express-5555</text><rect x="150" y="684.0" width="44.1" height="6" fill="#4C78A8"/><circle cx="194.1" cy="687.0" r="2.5" fill="#4C78A8" stroke="#222" stroke-width="0.7"/><rect x="150" y="691.0" width="102.3" height="6" fill="#E45756"/><circle cx="252.3" cy="694.0" r="2.5" fill="#E45756" stroke="#222" stroke-width="0.7"/><rect x="150" y="698.0" width="39.0" height="6" fill="#54A24B"/><circle cx="189.0" cy="701.0" r="2.5" fill="#54A24B" stroke="#222" stroke-width="0.7"/></svg>
