<svg xmlns="http://www.w3.org/2000/svg" width="800" height="470" viewBox="0 0 800 470" font-family="system-ui,Segoe UI,Helvetica,Arial,sans-serif">
<rect width="800" height="470" fill="#ffffff"/>
<text x="400" y="26" text-anchor="middle" font-size="16" font-weight="600" fill="#111">$ per run on the benchmarks classic resolves</text>
<text x="400" y="44" text-anchor="middle" font-size="11" fill="#666">average lead-model $ per run (per seed) over the 24 benchmarks classic solves</text><line x1="60" y1="386.0" x2="780" y2="386.0" stroke="#eee"/><text x="52" y="390.0" text-anchor="end" font-size="10" fill="#999">$0</text><line x1="60" y1="327.2" x2="780" y2="327.2" stroke="#eee"/><text x="52" y="331.2" text-anchor="end" font-size="10" fill="#999">$4</text><line x1="60" y1="268.4" x2="780" y2="268.4" stroke="#eee"/><text x="52" y="272.4" text-anchor="end" font-size="10" fill="#999">$9</text><line x1="60" y1="209.6" x2="780" y2="209.6" stroke="#eee"/><text x="52" y="213.6" text-anchor="end" font-size="10" fill="#999">$13</text><line x1="60" y1="150.8" x2="780" y2="150.8" stroke="#eee"/><text x="52" y="154.8" text-anchor="end" font-size="10" fill="#999">$17</text><line x1="60" y1="92.0" x2="780" y2="92.0" stroke="#eee"/><text x="52" y="96.0" text-anchor="end" font-size="10" fill="#999">$22</text><rect x="94" y="236.8" width="112" height="149.2" fill="#4C78A8"/><text x="150" y="214.8" text-anchor="middle" font-size="17" font-weight="700" fill="#4C78A8">$10.91</text><text x="150" y="228.8" text-anchor="middle" font-size="10" fill="#666">baseline</text><text x="150" y="410" text-anchor="middle" font-size="12" font-weight="600" fill="#4C78A8">classic</text><text x="150" y="426" text-anchor="middle" font-size="10" fill="#888">solved 24/24</text><rect x="274" y="203.7" width="112" height="182.3" fill="#E45756"/><text x="330" y="181.7" text-anchor="middle" font-size="17" font-weight="700" fill="#E45756">$13.33</text><text x="330" y="195.7" text-anchor="middle" font-size="10" fill="#666">22% vs classic</text><text x="330" y="410" text-anchor="middle" font-size="12" font-weight="600" fill="#E45756">classic-graphify</text><text x="330" y="426" text-anchor="middle" font-size="10" fill="#888">solved 24/24</text><rect x="454" y="269.0" width="112" height="117.0" fill="#54A24B"/><text x="510" y="247.0" text-anchor="middle" font-size="17" font-weight="700" fill="#54A24B">$8.55</text><text x="510" y="261.0" text-anchor="middle" font-size="10" fill="#666">-22% vs classic</text><text x="510" y="410" text-anchor="middle" font-size="12" font-weight="600" fill="#54A24B">classic-graph-bash</text><text x="510" y="426" text-anchor="middle" font-size="10" fill="#888">solved 23/24</text><rect x="634" y="131.3" width="112" height="254.7" fill="#B07AA1"/><text x="690" y="109.3" text-anchor="middle" font-size="17" font-weight="700" fill="#B07AA1">$18.63</text><text x="690" y="123.3" text-anchor="middle" font-size="10" fill="#666">71% vs classic</text><text x="690" y="410" text-anchor="middle" font-size="12" font-weight="600" fill="#B07AA1">codex (ref)</text><text x="690" y="426" text-anchor="middle" font-size="10" fill="#888">solved 20/24</text></svg>
