<svg xmlns="http://www.w3.org/2000/svg" width="640" height="460" viewBox="0 0 640 460" font-family="system-ui,Segoe UI,Helvetica,Arial,sans-serif">
<rect width="640" height="460" fill="#ffffff"/>
<text x="320" y="26" text-anchor="middle" font-size="16" font-weight="600" fill="#111">Total $ spent on the benchmarks classic resolves</text>
<text x="320" y="44" text-anchor="middle" font-size="11" fill="#666">sum of lead-model cost over the 22 benchmarks classic solves (all three arms solve all 22)</text><line x1="60" y1="384.0" x2="620" y2="384.0" stroke="#eee"/><text x="52" y="388.0" text-anchor="end" font-size="10" fill="#999">$0</text><line x1="60" y1="325.6" x2="620" y2="325.6" stroke="#eee"/><text x="52" y="329.6" text-anchor="end" font-size="10" fill="#999">$3</text><line x1="60" y1="267.2" x2="620" y2="267.2" stroke="#eee"/><text x="52" y="271.2" text-anchor="end" font-size="10" fill="#999">$5</text><line x1="60" y1="208.8" x2="620" y2="208.8" stroke="#eee"/><text x="52" y="212.8" text-anchor="end" font-size="10" fill="#999">$8</text><line x1="60" y1="150.4" x2="620" y2="150.4" stroke="#eee"/><text x="52" y="154.4" text-anchor="end" font-size="10" fill="#999">$11</text><line x1="60" y1="92.0" x2="620" y2="92.0" stroke="#eee"/><text x="52" y="96.0" text-anchor="end" font-size="10" fill="#999">$14</text><rect x="101.33333333333331" y="191.3" width="104" height="192.7" fill="#4C78A8"/><text x="153.33333333333331" y="169.3" text-anchor="middle" font-size="18" font-weight="700" fill="#4C78A8">$9.04</text><text x="153.33333333333331" y="183.3" text-anchor="middle" font-size="10.5" fill="#666">baseline</text><text x="153.33333333333331" y="408" text-anchor="middle" font-size="12.5" font-weight="600" fill="#4C78A8">classic</text><rect x="288" y="130.9" width="104" height="253.1" fill="#E45756"/><text x="340" y="108.9" text-anchor="middle" font-size="18" font-weight="700" fill="#E45756">$11.87</text><text x="340" y="122.9" text-anchor="middle" font-size="10.5" fill="#666">31% vs classic</text><text x="340" y="408" text-anchor="middle" font-size="12.5" font-weight="600" fill="#E45756">classic-graphify</text><rect x="474.66666666666663" y="239.7" width="104" height="144.3" fill="#54A24B"/><text x="526.6666666666666" y="217.7" text-anchor="middle" font-size="18" font-weight="700" fill="#54A24B">$6.77</text><text x="526.6666666666666" y="231.7" text-anchor="middle" font-size="10.5" fill="#666">-25% vs classic</text><text x="526.6666666666666" y="408" text-anchor="middle" font-size="12.5" font-weight="600" fill="#54A24B">classic-graph-bash</text></svg>
