<svg xmlns="http://www.w3.org/2000/svg" width="860" height="840" viewBox="0 0 860 840" font-family="system-ui,Segoe UI,Helvetica,Arial,sans-serif">
<rect width="860" height="840" fill="#ffffff"/>
<text x="430" y="24" text-anchor="middle" font-size="16" font-weight="600" fill="#111">Per-benchmark $ per run on classic's wins</text>
<text x="430" y="42" text-anchor="middle" font-size="11" fill="#666">the 24 benchmarks classic resolved; bar = median over seeds, dot = each seed run (only arms that solved it)</text><rect x="150" y="53" width="12" height="12" fill="#4C78A8"/><text x="167" y="63" font-size="11" fill="#333">classic (total $10.91)</text><rect x="310.2" y="53" width="12" height="12" fill="#E45756"/><text x="327.2" y="63" font-size="11" fill="#333">classic-graphify (total $13.33)</text><rect x="525.3" y="53" width="12" height="12" fill="#54A24B"/><text x="542.3" y="63" font-size="11" fill="#333">classic-graph-bash (total $8.55)</text><rect x="746.5" y="53" width="12" height="12" fill="#B07AA1"/><text x="763.5" y="63" font-size="11" fill="#333">codex (total $18.63)</text><line x1="150.0" y1="74" x2="150.0" y2="826" stroke="#eee"/><text x="150.0" y="70" text-anchor="middle" font-size="10" fill="#999">$0.0</text><line x1="288.4" y1="74" x2="288.4" y2="826" stroke="#eee"/><text x="288.4" y="70" text-anchor="middle" font-size="10" fill="#999">$0.5</text><line x1="426.8" y1="74" x2="426.8" y2="826" stroke="#eee"/><text x="426.8" y="70" text-anchor="middle" font-size="10" fill="#999">$1.1</text><line x1="565.2" y1="74" x2="565.2" y2="826" stroke="#eee"/><text x="565.2" y="70" text-anchor="middle" font-size="10" fill="#999">$1.6</text><line x1="703.6" y1="74" x2="703.6" y2="826" stroke="#eee"/><text x="703.6" y="70" text-anchor="middle" font-size="10" fill="#999">$2.2</text><line x1="842.0" y1="74" x2="842.0" y2="826" stroke="#eee"/><text x="842.0" y="70" text-anchor="middle" font-size="10" fill="#999">$2.7</text><text x="144" y="97.5" text-anchor="end" font-size="9" fill="#444">zstd-3438</text><rect x="150" y="80.0" width="296.3" height="5" fill="#4C78A8"/><circle cx="380.1" cy="82.5" r="2.3" fill="#4C78A8" stroke="#222" stroke-width="0.6"/><circle cx="512.4" cy="82.5" r="2.3" fill="#4C78A8" stroke="#222" stroke-width="0.6"/><rect x="150" y="86.0" width="319.6" height="5" fill="#E45756"/><circle cx="583.7" cy="88.5" r="2.3" fill="#E45756" stroke="#222" stroke-width="0.6"/><circle cx="355.4" cy="88.5" r="2.3" fill="#E45756" stroke="#222" stroke-width="0.6"/><rect x="150" y="92.0" width="125.1" height="5" fill="#54A24B"/><circle cx="310.6" cy="94.5" r="2.3" fill="#54A24B" stroke="#222" stroke-width="0.6"/><circle cx="239.7" cy="94.5" r="2.3" fill="#54A24B" stroke="#222" stroke-width="0.6"/><rect x="150" y="98.0" width="434.9" height="5" fill="#B07AA1"/><circle cx="584.9" cy="100.5" r="2.3" fill="#B07AA1" stroke="#222" stroke-width="0.6"/><text x="144" y="128.5" text-anchor="end" font-size="9" fill="#444">dayjs-2399</text><rect x="150" y="111.0" width="201.8" height="5" fill="#4C78A8"/><circle cx="416.6" cy="113.5" r="2.3" fill="#4C78A8" stroke="#222" stroke-width="0.6"/><circle cx="286.9" cy="113.5" r="2.3" fill="#4C78A8" stroke="#222" stroke-width="0.6"/><rect x="150" y="117.0" width="275.2" height="5" fill="#E45756"/><circle cx="467.2" cy="119.5" r="2.3" fill="#E45756" stroke="#222" stroke-width="0.6"/><circle cx="383.2" cy="119.5" r="2.3" fill="#E45756" stroke="#222" stroke-width="0.6"/><rect x="150" y="123.0" width="157.8" height="5" fill="#54A24B"/><circle cx="255.2" cy="125.5" r="2.3" fill="#54A24B" stroke="#222" stroke-width="0.6"/><circle cx="360.3" cy="125.5" r="2.3" fill="#54A24B" stroke="#222" stroke-width="0.6"/><rect x="150" y="129.0" width="280.2" height="5" fill="#B07AA1"/><circle cx="430.2" cy="131.5" r="2.3" fill="#B07AA1" stroke="#222" stroke-width="0.6"/><text x="144" y="159.5" text-anchor="end" font-size="9" fill="#444">simdjson-2178</text><rect x="150" y="142.0" width="193.8" height="5" fill="#4C78A8"/><circle cx="335.4" cy="144.5" r="2.3" fill="#4C78A8" stroke="#222" stroke-width="0.6"/><circle cx="352.3" cy="144.5" r="2.3" fill="#4C78A8" stroke="#222" stroke-width="0.6"/><rect x="150" y="148.0" width="356.4" height="5" fill="#E45756"/><circle cx="425.5" cy="150.5" r="2.3" fill="#E45756" stroke="#222" stroke-width="0.6"/><circle cx="587.2" cy="150.5" r="2.3" fill="#E45756" stroke="#222" stroke-width="0.6"/><rect x="150" y="154.0" width="252.6" height="5" fill="#54A24B"/><circle cx="299.4" cy="156.5" r="2.3" fill="#54A24B" stroke="#222" stroke-width="0.6"/><circle cx="505.9" cy="156.5" r="2.3" fill="#54A24B" stroke="#222" stroke-width="0.6"/><text x="144" y="190.5" text-anchor="end" font-size="9" fill="#444">logstash-17021</text><rect x="150" y="173.0" width="179.4" height="5" fill="#4C78A8"/><circle cx="280.2" cy="175.5" r="2.3" fill="#4C78A8" stroke="#222" stroke-width="0.6"/><circle cx="378.5" cy="175.5" r="2.3" fill="#4C78A8" stroke="#222" stroke-width="0.6"/><rect x="150" y="179.0" width="213.9" height="5" fill="#E45756"/><circle cx="346.9" cy="181.5" r="2.3" fill="#E45756" stroke="#222" stroke-width="0.6"/><circle cx="380.9" cy="181.5" r="2.3" fill="#E45756" stroke="#222" stroke-width="0.6"/><text x="144" y="221.5" text-anchor="end" font-size="9" fill="#444">dayjs-2532</text><rect x="150" y="204.0" width="178.8" height="5" fill="#4C78A8"/><circle cx="251.7" cy="206.5" r="2.3" fill="#4C78A8" stroke="#222" stroke-width="0.6"/><circle cx="405.9" cy="206.5" r="2.3" fill="#4C78A8" stroke="#222" stroke-width="0.6"/><rect x="150" y="210.0" width="179.2" height="5" fill="#E45756"/><circle cx="359.0" cy="212.5" r="2.3" fill="#E45756" stroke="#222" stroke-width="0.6"/><circle cx="299.4" cy="212.5" r="2.3" fill="#E45756" stroke="#222" stroke-width="0.6"/><rect x="150" y="216.0" width="116.9" height="5" fill="#54A24B"/><circle cx="254.6" cy="218.5" r="2.3" fill="#54A24B" stroke="#222" stroke-width="0.6"/><circle cx="279.3" cy="218.5" r="2.3" fill="#54A24B" stroke="#222" stroke-width="0.6"/><rect x="150" y="222.0" width="261.3" height="5" fill="#B07AA1"/><circle cx="411.3" cy="224.5" r="2.3" fill="#B07AA1" stroke="#222" stroke-width="0.6"/><text x="144" y="252.5" text-anchor="end" font-size="9" fill="#444">core-11694</text><rect x="150" y="235.0" width="173.8" height="5" fill="#4C78A8"/><circle cx="378.8" cy="237.5" r="2.3" fill="#4C78A8" stroke="#222" stroke-width="0.6"/><circle cx="268.7" cy="237.5" r="2.3" fill="#4C78A8" stroke="#222" stroke-width="0.6"/><rect x="150" y="241.0" width="212.8" height="5" fill="#E45756"/><circle cx="317.6" cy="243.5" r="2.3" fill="#E45756" stroke="#222" stroke-width="0.6"/><circle cx="407.9" cy="243.5" r="2.3" fill="#E45756" stroke="#222" stroke-width="0.6"/><rect x="150" y="247.0" width="69.3" height="5" fill="#54A24B"/><circle cx="187.2" cy="249.5" r="2.3" fill="#54A24B" stroke="#222" stroke-width="0.6"/><circle cx="251.4" cy="249.5" r="2.3" fill="#54A24B" stroke="#222" stroke-width="0.6"/><rect x="150" y="253.0" width="274.9" height="5" fill="#B07AA1"/><circle cx="424.9" cy="255.5" r="2.3" fill="#B07AA1" stroke="#222" stroke-width="0.6"/><text x="144" y="283.5" text-anchor="end" font-size="9" fill="#444">grpc-go-3258</text><rect x="150" y="266.0" width="140.9" height="5" fill="#4C78A8"/><circle cx="273.1" cy="268.5" r="2.3" fill="#4C78A8" stroke="#222" stroke-width="0.6"/><circle cx="308.7" cy="268.5" r="2.3" fill="#4C78A8" stroke="#222" stroke-width="0.6"/><rect x="150" y="272.0" width="205.3" height="5" fill="#E45756"/><circle cx="344.6" cy="274.5" r="2.3" fill="#E45756" stroke="#222" stroke-width="0.6"/><circle cx="365.9" cy="274.5" r="2.3" fill="#E45756" stroke="#222" stroke-width="0.6"/><rect x="150" y="278.0" width="145.5" height="5" fill="#54A24B"/><circle cx="257.5" cy="280.5" r="2.3" fill="#54A24B" stroke="#222" stroke-width="0.6"/><circle cx="333.5" cy="280.5" r="2.3" fill="#54A24B" stroke="#222" stroke-width="0.6"/><rect x="150" y="284.0" width="217.2" height="5" fill="#B07AA1"/><circle cx="367.2" cy="286.5" r="2.3" fill="#B07AA1" stroke="#222" stroke-width="0.6"/><text x="144" y="314.5" text-anchor="end" font-size="9" fill="#444">jq-3238</text><rect x="150" y="297.0" width="131.7" height="5" fill="#4C78A8"/><circle cx="263.9" cy="299.5" r="2.3" fill="#4C78A8" stroke="#222" stroke-width="0.6"/><circle cx="299.5" cy="299.5" r="2.3" fill="#4C78A8" stroke="#222" stroke-width="0.6"/><rect x="150" y="303.0" width="143.2" height="5" fill="#E45756"/><circle cx="277.7" cy="305.5" r="2.3" fill="#E45756" stroke="#222" stroke-width="0.6"/><circle cx="308.6" cy="305.5" r="2.3" fill="#E45756" stroke="#222" stroke-width="0.6"/><rect x="150" y="309.0" width="175.8" height="5" fill="#54A24B"/><circle cx="374.8" cy="311.5" r="2.3" fill="#54A24B" stroke="#222" stroke-width="0.6"/><circle cx="276.8" cy="311.5" r="2.3" fill="#54A24B" stroke="#222" stroke-width="0.6"/><text x="144" y="345.5" text-anchor="end" font-size="9" fill="#444">tracing-2897</text><rect x="150" y="328.0" width="125.5" height="5" fill="#4C78A8"/><circle cx="261.1" cy="330.5" r="2.3" fill="#4C78A8" stroke="#222" stroke-width="0.6"/><circle cx="290.0" cy="330.5" r="2.3" fill="#4C78A8" stroke="#222" stroke-width="0.6"/><rect x="150" y="334.0" width="153.6" height="5" fill="#E45756"/><circle cx="291.3" cy="336.5" r="2.3" fill="#E45756" stroke="#222" stroke-width="0.6"/><circle cx="316.0" cy="336.5" r="2.3" fill="#E45756" stroke="#222" stroke-width="0.6"/><rect x="150" y="340.0" width="91.5" height="5" fill="#54A24B"/><circle cx="218.7" cy="342.5" r="2.3" fill="#54A24B" stroke="#222" stroke-width="0.6"/><circle cx="264.4" cy="342.5" r="2.3" fill="#54A24B" stroke="#222" stroke-width="0.6"/><rect x="150" y="346.0" width="207.4" height="5" fill="#B07AA1"/><circle cx="357.4" cy="348.5" r="2.3" fill="#B07AA1" stroke="#222" stroke-width="0.6"/><text x="144" y="376.5" text-anchor="end" font-size="9" fill="#444">core-11761</text><rect x="150" y="359.0" width="124.6" height="5" fill="#4C78A8"/><circle cx="265.4" cy="361.5" r="2.3" fill="#4C78A8" stroke="#222" stroke-width="0.6"/><circle cx="283.9" cy="361.5" r="2.3" fill="#4C78A8" stroke="#222" stroke-width="0.6"/><rect x="150" y="365.0" width="136.8" height="5" fill="#E45756"/><circle cx="278.1" cy="367.5" r="2.3" fill="#E45756" stroke="#222" stroke-width="0.6"/><circle cx="295.6" cy="367.5" r="2.3" fill="#E45756" stroke="#222" stroke-width="0.6"/><rect x="150" y="371.0" width="75.7" height="5" fill="#54A24B"/><circle cx="244.1" cy="373.5" r="2.3" fill="#54A24B" stroke="#222" stroke-width="0.6"/><circle cx="207.2" cy="373.5" r="2.3" fill="#54A24B" stroke="#222" stroke-width="0.6"/><rect x="150" y="377.0" width="166.0" height="5" fill="#B07AA1"/><circle cx="316.0" cy="379.5" r="2.3" fill="#B07AA1" stroke="#222" stroke-width="0.6"/><text x="144" y="407.5" text-anchor="end" font-size="9" fill="#444">grpc-go-3351</text><rect x="150" y="390.0" width="115.4" height="5" fill="#4C78A8"/><circle cx="275.5" cy="392.5" r="2.3" fill="#4C78A8" stroke="#222" stroke-width="0.6"/><circle cx="255.4" cy="392.5" r="2.3" fill="#4C78A8" stroke="#222" stroke-width="0.6"/><rect x="150" y="396.0" width="112.9" height="5" fill="#E45756"/><circle cx="270.7" cy="398.5" r="2.3" fill="#E45756" stroke="#222" stroke-width="0.6"/><circle cx="255.2" cy="398.5" r="2.3" fill="#E45756" stroke="#222" stroke-width="0.6"/><rect x="150" y="402.0" width="103.0" height="5" fill="#54A24B"/><circle cx="249.1" cy="404.5" r="2.3" fill="#54A24B" stroke="#222" stroke-width="0.6"/><circle cx="256.9" cy="404.5" r="2.3" fill="#54A24B" stroke="#222" stroke-width="0.6"/><rect x="150" y="408.0" width="123.9" height="5" fill="#B07AA1"/><circle cx="273.9" cy="410.5" r="2.3" fill="#B07AA1" stroke="#222" stroke-width="0.6"/><text x="144" y="438.5" text-anchor="end" font-size="9" fill="#444">clap-5873</text><rect x="150" y="421.0" width="110.9" height="5" fill="#4C78A8"/><circle cx="268.3" cy="423.5" r="2.3" fill="#4C78A8" stroke="#222" stroke-width="0.6"/><circle cx="253.4" cy="423.5" r="2.3" fill="#4C78A8" stroke="#222" stroke-width="0.6"/><rect x="150" y="427.0" width="144.0" height="5" fill="#E45756"/><circle cx="290.0" cy="429.5" r="2.3" fill="#E45756" stroke="#222" stroke-width="0.6"/><circle cx="298.0" cy="429.5" r="2.3" fill="#E45756" stroke="#222" stroke-width="0.6"/><rect x="150" y="433.0" width="102.3" height="5" fill="#54A24B"/><circle cx="265.4" cy="435.5" r="2.3" fill="#54A24B" stroke="#222" stroke-width="0.6"/><circle cx="239.3" cy="435.5" r="2.3" fill="#54A24B" stroke="#222" stroke-width="0.6"/><rect x="150" y="439.0" width="192.0" height="5" fill="#B07AA1"/><circle cx="342.0" cy="441.5" r="2.3" fill="#B07AA1" stroke="#222" stroke-width="0.6"/><text x="144" y="469.5" text-anchor="end" font-size="9" fill="#444">core-11680</text><rect x="150" y="452.0" width="104.6" height="5" fill="#4C78A8"/><circle cx="230.8" cy="454.5" r="2.3" fill="#4C78A8" stroke="#222" stroke-width="0.6"/><circle cx="278.3" cy="454.5" r="2.3" fill="#4C78A8" stroke="#222" stroke-width="0.6"/><rect x="150" y="458.0" width="101.6" height="5" fill="#E45756"/><circle cx="246.8" cy="460.5" r="2.3" fill="#E45756" stroke="#222" stroke-width="0.6"/><circle cx="256.5" cy="460.5" r="2.3" fill="#E45756" stroke="#222" stroke-width="0.6"/><rect x="150" y="464.0" width="61.8" height="5" fill="#54A24B"/><circle cx="234.0" cy="466.5" r="2.3" fill="#54A24B" stroke="#222" stroke-width="0.6"/><circle cx="189.5" cy="466.5" r="2.3" fill="#54A24B" stroke="#222" stroke-width="0.6"/><rect x="150" y="470.0" width="153.8" height="5" fill="#B07AA1"/><circle cx="303.8" cy="472.5" r="2.3" fill="#B07AA1" stroke="#222" stroke-width="0.6"/><text x="144" y="500.5" text-anchor="end" font-size="9" fill="#444">fd-1394</text><rect x="150" y="483.0" width="101.1" height="5" fill="#4C78A8"/><circle cx="270.1" cy="485.5" r="2.3" fill="#4C78A8" stroke="#222" stroke-width="0.6"/><circle cx="232.2" cy="485.5" r="2.3" fill="#4C78A8" stroke="#222" stroke-width="0.6"/><rect x="150" y="489.0" width="96.4" height="5" fill="#E45756"/><circle cx="265.7" cy="491.5" r="2.3" fill="#E45756" stroke="#222" stroke-width="0.6"/><circle cx="227.1" cy="491.5" r="2.3" fill="#E45756" stroke="#222" stroke-width="0.6"/><rect x="150" y="495.0" width="32.2" height="5" fill="#54A24B"/><circle cx="171.6" cy="497.5" r="2.3" fill="#54A24B" stroke="#222" stroke-width="0.6"/><circle cx="192.8" cy="497.5" r="2.3" fill="#54A24B" stroke="#222" stroke-width="0.6"/><rect x="150" y="501.0" width="66.2" height="5" fill="#B07AA1"/><circle cx="216.2" cy="503.5" r="2.3" fill="#B07AA1" stroke="#222" stroke-width="0.6"/><text x="144" y="531.5" text-anchor="end" font-size="9" fill="#444">github-readme-stats-2844</text><rect x="150" y="514.0" width="95.9" height="5" fill="#4C78A8"/><circle cx="231.0" cy="516.5" r="2.3" fill="#4C78A8" stroke="#222" stroke-width="0.6"/><circle cx="260.8" cy="516.5" r="2.3" fill="#4C78A8" stroke="#222" stroke-width="0.6"/><rect x="150" y="520.0" width="108.3" height="5" fill="#E45756"/><circle cx="272.7" cy="522.5" r="2.3" fill="#E45756" stroke="#222" stroke-width="0.6"/><circle cx="244.0" cy="522.5" r="2.3" fill="#E45756" stroke="#222" stroke-width="0.6"/><rect x="150" y="526.0" width="68.8" height="5" fill="#54A24B"/><circle cx="220.6" cy="528.5" r="2.3" fill="#54A24B" stroke="#222" stroke-width="0.6"/><circle cx="217.0" cy="528.5" r="2.3" fill="#54A24B" stroke="#222" stroke-width="0.6"/><text x="144" y="562.5" text-anchor="end" font-size="9" fill="#444">jq-2919</text><rect x="150" y="545.0" width="68.1" height="5" fill="#4C78A8"/><circle cx="230.1" cy="547.5" r="2.3" fill="#4C78A8" stroke="#222" stroke-width="0.6"/><circle cx="206.1" cy="547.5" r="2.3" fill="#4C78A8" stroke="#222" stroke-width="0.6"/><rect x="150" y="551.0" width="120.7" height="5" fill="#E45756"/><circle cx="294.3" cy="553.5" r="2.3" fill="#E45756" stroke="#222" stroke-width="0.6"/><circle cx="247.1" cy="553.5" r="2.3" fill="#E45756" stroke="#222" stroke-width="0.6"/><rect x="150" y="557.0" width="89.1" height="5" fill="#54A24B"/><circle cx="235.4" cy="559.5" r="2.3" fill="#54A24B" stroke="#222" stroke-width="0.6"/><circle cx="242.8" cy="559.5" r="2.3" fill="#54A24B" stroke="#222" stroke-width="0.6"/><rect x="150" y="563.0" width="207.1" height="5" fill="#B07AA1"/><circle cx="357.1" cy="565.5" r="2.3" fill="#B07AA1" stroke="#222" stroke-width="0.6"/><text x="144" y="593.5" text-anchor="end" font-size="9" fill="#444">zstd-3942</text><rect x="150" y="576.0" width="66.5" height="5" fill="#4C78A8"/><circle cx="206.1" cy="578.5" r="2.3" fill="#4C78A8" stroke="#222" stroke-width="0.6"/><circle cx="226.9" cy="578.5" r="2.3" fill="#4C78A8" stroke="#222" stroke-width="0.6"/><rect x="150" y="582.0" width="81.1" height="5" fill="#E45756"/><circle cx="211.2" cy="584.5" r="2.3" fill="#E45756" stroke="#222" stroke-width="0.6"/><circle cx="251.1" cy="584.5" r="2.3" fill="#E45756" stroke="#222" stroke-width="0.6"/><rect x="150" y="588.0" width="73.7" height="5" fill="#54A24B"/><circle cx="199.6" cy="590.5" r="2.3" fill="#54A24B" stroke="#222" stroke-width="0.6"/><circle cx="247.8" cy="590.5" r="2.3" fill="#54A24B" stroke="#222" stroke-width="0.6"/><rect x="150" y="594.0" width="134.1" height="5" fill="#B07AA1"/><circle cx="284.1" cy="596.5" r="2.3" fill="#B07AA1" stroke="#222" stroke-width="0.6"/><text x="144" y="624.5" text-anchor="end" font-size="9" fill="#444">bytes-732</text><rect x="150" y="607.0" width="66.2" height="5" fill="#4C78A8"/><circle cx="240.9" cy="609.5" r="2.3" fill="#4C78A8" stroke="#222" stroke-width="0.6"/><circle cx="191.6" cy="609.5" r="2.3" fill="#4C78A8" stroke="#222" stroke-width="0.6"/><rect x="150" y="613.0" width="82.7" height="5" fill="#E45756"/><circle cx="247.1" cy="615.5" r="2.3" fill="#E45756" stroke="#222" stroke-width="0.6"/><circle cx="218.3" cy="615.5" r="2.3" fill="#E45756" stroke="#222" stroke-width="0.6"/><rect x="150" y="619.0" width="56.9" height="5" fill="#54A24B"/><circle cx="224.2" cy="621.5" r="2.3" fill="#54A24B" stroke="#222" stroke-width="0.6"/><circle cx="189.7" cy="621.5" r="2.3" fill="#54A24B" stroke="#222" stroke-width="0.6"/><rect x="150" y="625.0" width="77.9" height="5" fill="#B07AA1"/><circle cx="227.9" cy="627.5" r="2.3" fill="#B07AA1" stroke="#222" stroke-width="0.6"/><text x="144" y="655.5" text-anchor="end" font-size="9" fill="#444">core-11813</text><rect x="150" y="638.0" width="66.0" height="5" fill="#4C78A8"/><circle cx="206.9" cy="640.5" r="2.3" fill="#4C78A8" stroke="#222" stroke-width="0.6"/><circle cx="225.2" cy="640.5" r="2.3" fill="#4C78A8" stroke="#222" stroke-width="0.6"/><rect x="150" y="644.0" width="55.5" height="5" fill="#E45756"/><circle cx="216.0" cy="646.5" r="2.3" fill="#E45756" stroke="#222" stroke-width="0.6"/><circle cx="194.9" cy="646.5" r="2.3" fill="#E45756" stroke="#222" stroke-width="0.6"/><rect x="150" y="650.0" width="23.8" height="5" fill="#54A24B"/><circle cx="178.4" cy="652.5" r="2.3" fill="#54A24B" stroke="#222" stroke-width="0.6"/><circle cx="169.2" cy="652.5" r="2.3" fill="#54A24B" stroke="#222" stroke-width="0.6"/><rect x="150" y="656.0" width="62.3" height="5" fill="#B07AA1"/><circle cx="212.3" cy="658.5" r="2.3" fill="#B07AA1" stroke="#222" stroke-width="0.6"/><text x="144" y="686.5" text-anchor="end" font-size="9" fill="#444">bat-3189</text><rect x="150" y="669.0" width="66.0" height="5" fill="#4C78A8"/><circle cx="204.3" cy="671.5" r="2.3" fill="#4C78A8" stroke="#222" stroke-width="0.6"/><circle cx="227.6" cy="671.5" r="2.3" fill="#4C78A8" stroke="#222" stroke-width="0.6"/><rect x="150" y="675.0" width="50.4" height="5" fill="#E45756"/><circle cx="206.4" cy="677.5" r="2.3" fill="#E45756" stroke="#222" stroke-width="0.6"/><circle cx="194.5" cy="677.5" r="2.3" fill="#E45756" stroke="#222" stroke-width="0.6"/><rect x="150" y="681.0" width="55.1" height="5" fill="#54A24B"/><circle cx="171.3" cy="683.5" r="2.3" fill="#54A24B" stroke="#222" stroke-width="0.6"/><circle cx="238.8" cy="683.5" r="2.3" fill="#54A24B" stroke="#222" stroke-width="0.6"/><rect x="150" y="687.0" width="128.8" height="5" fill="#B07AA1"/><circle cx="278.8" cy="689.5" r="2.3" fill="#B07AA1" stroke="#222" stroke-width="0.6"/><text x="144" y="717.5" text-anchor="end" font-size="9" fill="#444">go-zero-2787</text><rect x="150" y="700.0" width="59.8" height="5" fill="#4C78A8"/><circle cx="204.1" cy="702.5" r="2.3" fill="#4C78A8" stroke="#222" stroke-width="0.6"/><circle cx="215.5" cy="702.5" r="2.3" fill="#4C78A8" stroke="#222" stroke-width="0.6"/><rect x="150" y="706.0" width="56.6" height="5" fill="#E45756"/><circle cx="210.9" cy="708.5" r="2.3" fill="#E45756" stroke="#222" stroke-width="0.6"/><circle cx="202.2" cy="708.5" r="2.3" fill="#E45756" stroke="#222" stroke-width="0.6"/><rect x="150" y="712.0" width="31.4" height="5" fill="#54A24B"/><circle cx="161.8" cy="714.5" r="2.3" fill="#54A24B" stroke="#222" stroke-width="0.6"/><circle cx="201.0" cy="714.5" r="2.3" fill="#54A24B" stroke="#222" stroke-width="0.6"/><rect x="150" y="718.0" width="75.2" height="5" fill="#B07AA1"/><circle cx="225.2" cy="720.5" r="2.3" fill="#B07AA1" stroke="#222" stroke-width="0.6"/><text x="144" y="748.5" text-anchor="end" font-size="9" fill="#444">darkreader-7241</text><rect x="150" y="731.0" width="55.2" height="5" fill="#4C78A8"/><circle cx="197.4" cy="733.5" r="2.3" fill="#4C78A8" stroke="#222" stroke-width="0.6"/><circle cx="213.0" cy="733.5" r="2.3" fill="#4C78A8" stroke="#222" stroke-width="0.6"/><rect x="150" y="737.0" width="102.2" height="5" fill="#E45756"/><circle cx="275.0" cy="739.5" r="2.3" fill="#E45756" stroke="#222" stroke-width="0.6"/><circle cx="229.5" cy="739.5" r="2.3" fill="#E45756" stroke="#222" stroke-width="0.6"/><rect x="150" y="743.0" width="72.3" height="5" fill="#54A24B"/><circle cx="254.2" cy="745.5" r="2.3" fill="#54A24B" stroke="#222" stroke-width="0.6"/><circle cx="190.4" cy="745.5" r="2.3" fill="#54A24B" stroke="#222" stroke-width="0.6"/><rect x="150" y="749.0" width="112.7" height="5" fill="#B07AA1"/><circle cx="262.7" cy="751.5" r="2.3" fill="#B07AA1" stroke="#222" stroke-width="0.6"/><text x="144" y="779.5" text-anchor="end" font-size="9" fill="#444">express-5555</text><rect x="150" y="762.0" width="40.7" height="5" fill="#4C78A8"/><circle cx="179.4" cy="764.5" r="2.3" fill="#4C78A8" stroke="#222" stroke-width="0.6"/><circle cx="202.0" cy="764.5" r="2.3" fill="#4C78A8" stroke="#222" stroke-width="0.6"/><rect x="150" y="768.0" width="56.5" height="5" fill="#E45756"/><circle cx="218.4" cy="770.5" r="2.3" fill="#E45756" stroke="#222" stroke-width="0.6"/><circle cx="194.6" cy="770.5" r="2.3" fill="#E45756" stroke="#222" stroke-width="0.6"/><rect x="150" y="774.0" width="20.5" height="5" fill="#54A24B"/><circle cx="176.0" cy="776.5" r="2.3" fill="#54A24B" stroke="#222" stroke-width="0.6"/><circle cx="165.0" cy="776.5" r="2.3" fill="#54A24B" stroke="#222" stroke-width="0.6"/><rect x="150" y="780.0" width="71.4" height="5" fill="#B07AA1"/><circle cx="221.4" cy="782.5" r="2.3" fill="#B07AA1" stroke="#222" stroke-width="0.6"/><text x="144" y="810.5" text-anchor="end" font-size="9" fill="#444">rayon-986</text><rect x="150" y="793.0" width="33.9" height="5" fill="#4C78A8"/><circle cx="181.3" cy="795.5" r="2.3" fill="#4C78A8" stroke="#222" stroke-width="0.6"/><circle cx="186.6" cy="795.5" r="2.3" fill="#4C78A8" stroke="#222" stroke-width="0.6"/><rect x="150" y="799.0" width="51.1" height="5" fill="#E45756"/><circle cx="199.2" cy="801.5" r="2.3" fill="#E45756" stroke="#222" stroke-width="0.6"/><circle cx="203.0" cy="801.5" r="2.3" fill="#E45756" stroke="#222" stroke-width="0.6"/><rect x="150" y="805.0" width="33.9" height="5" fill="#54A24B"/><circle cx="191.2" cy="807.5" r="2.3" fill="#54A24B" stroke="#222" stroke-width="0.6"/><circle cx="176.6" cy="807.5" r="2.3" fill="#54A24B" stroke="#222" stroke-width="0.6"/><rect x="150" y="811.0" width="75.3" height="5" fill="#B07AA1"/><circle cx="225.3" cy="813.5" r="2.3" fill="#B07AA1" stroke="#222" stroke-width="0.6"/></svg>
