<svg xmlns="http://www.w3.org/2000/svg" width="820" height="724" viewBox="0 0 820 724" font-family="system-ui,Segoe UI,Helvetica,Arial,sans-serif">
<rect width="820" height="724" fill="#ffffff"/>
<text x="410" y="26" text-anchor="middle" font-size="16" font-weight="600" fill="#111">Cost per benchmark (USD) — classic vs classic-graphify vs classic-graph-bash</text>
<text x="410" y="44" text-anchor="middle" font-size="11.5" fill="#666">22 successful instances (resolved by ≥1 arm); solid = that arm passed, hollow = failed/not graded; dashed = arm mean over its passes</text><rect x="150" y="55" width="12" height="12" fill="#4C78A8"/><text x="167" y="65" font-size="11" fill="#333">classic (mean $0.459, n=21)</text><rect x="347.4" y="55" width="12" height="12" fill="#E45756"/><text x="364.4" y="65" font-size="11" fill="#333">classic-graphify (mean $0.491, n=22)</text><rect x="600.6" y="55" width="12" height="12" fill="#54A24B"/><text x="617.6" y="65" font-size="11" fill="#333">classic-graph-bash (mean $0.333, n=22)</text><line x1="150.0" y1="86" x2="150.0" y2="710" stroke="#eee" stroke-width="1"/><text x="150.0" y="82" text-anchor="middle" font-size="10" fill="#999">$0.0</text><line x1="367.3" y1="86" x2="367.3" y2="710" stroke="#eee" stroke-width="1"/><text x="367.3" y="82" text-anchor="middle" font-size="10" fill="#999">$0.5</text><line x1="584.7" y1="86" x2="584.7" y2="710" stroke="#eee" stroke-width="1"/><text x="584.7" y="82" text-anchor="middle" font-size="10" fill="#999">$1.0</text><line x1="802.0" y1="86" x2="802.0" y2="710" stroke="#eee" stroke-width="1"/><text x="802.0" y="82" text-anchor="middle" font-size="10" fill="#999">$1.5</text><line x1="349.4" y1="88" x2="349.4" y2="710" stroke="#4C78A8" stroke-width="1.3" stroke-dasharray="4 3" opacity="0.8"/><line x1="363.5" y1="88" x2="363.5" y2="710" stroke="#E45756" stroke-width="1.3" stroke-dasharray="4 3" opacity="0.8"/><line x1="294.6" y1="88" x2="294.6" y2="710" stroke="#54A24B" stroke-width="1.3" stroke-dasharray="4 3" opacity="0.8"/><text x="144" y="108.0" text-anchor="end" font-size="9.5" fill="#444">zstd-3438</text><rect x="150" y="92.0" width="614.6" height="6" fill="#4C78A8"/><rect x="150" y="99.0" width="348.4" height="6" fill="#E45756"/><rect x="150" y="106.0" width="152.0" height="6" fill="#54A24B"/><text x="144" y="136.0" text-anchor="end" font-size="9.5" fill="#444">dayjs-2532</text><rect x="150" y="120.0" width="434.0" height="6" fill="#4C78A8"/><rect x="150" y="127.0" width="253.5" height="6" fill="#E45756"/><rect x="150" y="134.0" width="219.3" height="6" fill="#54A24B"/><text x="144" y="164.0" text-anchor="end" font-size="9.5" fill="#444">ponyc-4593</text><rect x="150" y="148.0" width="289.6" height="6" fill="#4C78A8" fill-opacity="0.12" stroke="#4C78A8" stroke-width="0.8"/><rect x="150" y="155.0" width="340.9" height="6" fill="#E45756"/><rect x="150" y="162.0" width="176.6" height="6" fill="#54A24B"/><text x="144" y="192.0" text-anchor="end" font-size="9.5" fill="#444">grpc-go-3258</text><rect x="150" y="176.0" width="269.1" height="6" fill="#4C78A8"/><rect x="150" y="183.0" width="366.2" height="6" fill="#E45756"/><rect x="150" y="190.0" width="311.1" height="6" fill="#54A24B"/><text x="144" y="220.0" text-anchor="end" font-size="9.5" fill="#444">jq-3238</text><rect x="150" y="204.0" width="253.6" height="6" fill="#4C78A8"/><rect x="150" y="211.0" width="269.1" height="6" fill="#E45756"/><rect x="150" y="218.0" width="215.0" height="6" fill="#54A24B"/><text x="144" y="248.0" text-anchor="end" font-size="9.5" fill="#444">tracing-2897</text><rect x="150" y="232.0" width="237.5" height="6" fill="#4C78A8"/><rect x="150" y="239.0" width="281.4" height="6" fill="#E45756"/><rect x="150" y="246.0" width="194.0" height="6" fill="#54A24B"/><text x="144" y="276.0" text-anchor="end" font-size="9.5" fill="#444">dayjs-2399</text><rect x="150" y="260.0" width="232.2" height="6" fill="#4C78A8"/><rect x="150" y="267.0" width="395.5" height="6" fill="#E45756"/><rect x="150" y="274.0" width="356.7" height="6" fill="#54A24B"/><text x="144" y="304.0" text-anchor="end" font-size="9.5" fill="#444">core-11761</text><rect x="150" y="288.0" width="227.0" height="6" fill="#4C78A8"/><rect x="150" y="295.0" width="246.9" height="6" fill="#E45756"/><rect x="150" y="302.0" width="97.1" height="6" fill="#54A24B"/><text x="144" y="332.0" text-anchor="end" font-size="9.5" fill="#444">core-11680</text><rect x="150" y="316.0" width="217.6" height="6" fill="#4C78A8"/><rect x="150" y="323.0" width="180.6" height="6" fill="#E45756"/><rect x="150" y="330.0" width="67.0" height="6" fill="#54A24B"/><text x="144" y="360.0" text-anchor="end" font-size="9.5" fill="#444">core-11694</text><rect x="150" y="344.0" width="201.3" height="6" fill="#4C78A8"/><rect x="150" y="351.0" width="437.4" height="6" fill="#E45756"/><rect x="150" y="358.0" width="172.0" height="6" fill="#54A24B"/><text x="144" y="388.0" text-anchor="end" font-size="9.5" fill="#444">github-readme-stats-2844</text><rect x="150" y="372.0" width="187.9" height="6" fill="#4C78A8"/><rect x="150" y="379.0" width="159.5" height="6" fill="#E45756"/><rect x="150" y="386.0" width="113.6" height="6" fill="#54A24B"/><text x="144" y="416.0" text-anchor="end" font-size="9.5" fill="#444">clap-5873</text><rect x="150" y="400.0" width="175.4" height="6" fill="#4C78A8"/><rect x="150" y="407.0" width="251.0" height="6" fill="#E45756"/><rect x="150" y="414.0" width="151.4" height="6" fill="#54A24B"/><text x="144" y="444.0" text-anchor="end" font-size="9.5" fill="#444">bytes-732</text><rect x="150" y="428.0" width="154.2" height="6" fill="#4C78A8"/><rect x="150" y="435.0" width="164.7" height="6" fill="#E45756"/><rect x="150" y="442.0" width="125.8" height="6" fill="#54A24B"/><text x="144" y="472.0" text-anchor="end" font-size="9.5" fill="#444">fd-1394</text><rect x="150" y="456.0" width="139.4" height="6" fill="#4C78A8"/><rect x="150" y="463.0" width="130.7" height="6" fill="#E45756"/><rect x="150" y="470.0" width="72.5" height="6" fill="#54A24B"/><text x="144" y="500.0" text-anchor="end" font-size="9.5" fill="#444">bat-3189</text><rect x="150" y="484.0" width="131.7" height="6" fill="#4C78A8"/><rect x="150" y="491.0" width="75.5" height="6" fill="#E45756"/><rect x="150" y="498.0" width="150.7" height="6" fill="#54A24B"/><text x="144" y="528.0" text-anchor="end" font-size="9.5" fill="#444">zstd-3942</text><rect x="150" y="512.0" width="130.4" height="6" fill="#4C78A8"/><rect x="150" y="519.0" width="171.4" height="6" fill="#E45756"/><rect x="150" y="526.0" width="165.8" height="6" fill="#54A24B"/><text x="144" y="556.0" text-anchor="end" font-size="9.5" fill="#444">core-11813</text><rect x="150" y="540.0" width="127.5" height="6" fill="#4C78A8"/><rect x="150" y="547.0" width="76.2" height="6" fill="#E45756"/><rect x="150" y="554.0" width="32.6" height="6" fill="#54A24B"/><text x="144" y="584.0" text-anchor="end" font-size="9.5" fill="#444">go-zero-2787</text><rect x="150" y="568.0" width="111.1" height="6" fill="#4C78A8"/><rect x="150" y="575.0" width="88.6" height="6" fill="#E45756"/><rect x="150" y="582.0" width="86.5" height="6" fill="#54A24B"/><text x="144" y="612.0" text-anchor="end" font-size="9.5" fill="#444">darkreader-7241</text><rect x="150" y="596.0" width="106.8" height="6" fill="#4C78A8"/><rect x="150" y="603.0" width="134.7" height="6" fill="#E45756"/><rect x="150" y="610.0" width="68.6" height="6" fill="#54A24B"/><text x="144" y="640.0" text-anchor="end" font-size="9.5" fill="#444">jq-2919</text><rect x="150" y="624.0" width="95.1" height="6" fill="#4C78A8"/><rect x="150" y="631.0" width="164.7" height="6" fill="#E45756"/><rect x="150" y="638.0" width="157.4" height="6" fill="#54A24B"/><text x="144" y="668.0" text-anchor="end" font-size="9.5" fill="#444">express-5555</text><rect x="150" y="652.0" width="88.2" height="6" fill="#4C78A8"/><rect x="150" y="659.0" width="75.7" height="6" fill="#E45756"/><rect x="150" y="666.0" width="25.5" height="6" fill="#54A24B"/><text x="144" y="696.0" text-anchor="end" font-size="9.5" fill="#444">rayon-986</text><rect x="150" y="680.0" width="53.1" height="6" fill="#4C78A8"/><rect x="150" y="687.0" width="83.5" height="6" fill="#E45756"/><rect x="150" y="694.0" width="69.9" height="6" fill="#54A24B"/></svg>
