<svg xmlns="http://www.w3.org/2000/svg" width="760" height="440" viewBox="0 0 760 440" font-family="system-ui,Segoe UI,Helvetica,Arial,sans-serif">
<rect width="760" height="440" fill="#ffffff"/>
<text x="380" y="26" text-anchor="middle" font-size="16" font-weight="600" fill="#111">Cost per run (USD)</text>
<text x="380" y="44" text-anchor="middle" font-size="11.5" fill="#666">49 instances — all three arms ran each; one dot per run, bar = mean (includes passing &amp; failing runs)</text><line x1="64" y1="376.0" x2="736" y2="376.0" stroke="#eee" stroke-width="1"/><text x="56" y="380.0" text-anchor="end" font-size="10.5" fill="#888">$0.0</text><line x1="64" y1="314.8" x2="736" y2="314.8" stroke="#eee" stroke-width="1"/><text x="56" y="318.8" text-anchor="end" font-size="10.5" fill="#888">$0.5</text><line x1="64" y1="253.6" x2="736" y2="253.6" stroke="#eee" stroke-width="1"/><text x="56" y="257.6" text-anchor="end" font-size="10.5" fill="#888">$1.0</text><line x1="64" y1="192.4" x2="736" y2="192.4" stroke="#eee" stroke-width="1"/><text x="56" y="196.4" text-anchor="end" font-size="10.5" fill="#888">$1.5</text><line x1="64" y1="131.2" x2="736" y2="131.2" stroke="#eee" stroke-width="1"/><text x="56" y="135.2" text-anchor="end" font-size="10.5" fill="#888">$2.0</text><line x1="64" y1="70.0" x2="736" y2="70.0" stroke="#eee" stroke-width="1"/><text x="56" y="74.0" text-anchor="end" font-size="10.5" fill="#888">$2.5</text><circle cx="182.1" cy="334.8" r="3" fill="#4C78A8" fill-opacity="0.5" stroke="#4C78A8" stroke-width="0.6"/><circle cx="198.8" cy="282.7" r="3" fill="#4C78A8" fill-opacity="0.5" stroke="#4C78A8" stroke-width="0.6"/><circle cx="147.4" cy="346.3" r="3" fill="#4C78A8" fill-opacity="0.5" stroke="#4C78A8" stroke-width="0.6"/><circle cx="164.1" cy="318.4" r="3" fill="#4C78A8" fill-opacity="0.5" stroke="#4C78A8" stroke-width="0.6"/><circle cx="180.8" cy="323.1" r="3" fill="#4C78A8" fill-opacity="0.5" stroke="#4C78A8" stroke-width="0.6"/><circle cx="197.4" cy="133.3" r="3" fill="#4C78A8" fill-opacity="0.5" stroke="#4C78A8" stroke-width="0.6"/><circle cx="146.1" cy="270.3" r="3" fill="#4C78A8" fill-opacity="0.5" stroke="#4C78A8" stroke-width="0.6"/><circle cx="162.7" cy="320.5" r="3" fill="#4C78A8" fill-opacity="0.5" stroke="#4C78A8" stroke-width="0.6"/><circle cx="179.4" cy="326.6" r="3" fill="#4C78A8" fill-opacity="0.5" stroke="#4C78A8" stroke-width="0.6"/><circle cx="196.1" cy="336.2" r="3" fill="#4C78A8" fill-opacity="0.5" stroke="#4C78A8" stroke-width="0.6"/><circle cx="144.7" cy="346.2" r="3" fill="#4C78A8" fill-opacity="0.5" stroke="#4C78A8" stroke-width="0.6"/><circle cx="161.4" cy="345.9" r="3" fill="#4C78A8" fill-opacity="0.5" stroke="#4C78A8" stroke-width="0.6"/><circle cx="178.0" cy="313.8" r="3" fill="#4C78A8" fill-opacity="0.5" stroke="#4C78A8" stroke-width="0.6"/><circle cx="194.7" cy="351.2" r="3" fill="#4C78A8" fill-opacity="0.5" stroke="#4C78A8" stroke-width="0.6"/><circle cx="143.4" cy="361.4" r="3" fill="#4C78A8" fill-opacity="0.5" stroke="#4C78A8" stroke-width="0.6"/><circle cx="160.0" cy="155.6" r="3" fill="#4C78A8" fill-opacity="0.5" stroke="#4C78A8" stroke-width="0.6"/><circle cx="176.7" cy="250.5" r="3" fill="#4C78A8" fill-opacity="0.5" stroke="#4C78A8" stroke-width="0.6"/><circle cx="193.3" cy="332.1" r="3" fill="#4C78A8" fill-opacity="0.5" stroke="#4C78A8" stroke-width="0.6"/><circle cx="142.0" cy="210.8" r="3" fill="#4C78A8" fill-opacity="0.5" stroke="#4C78A8" stroke-width="0.6"/><circle cx="158.7" cy="306.5" r="3" fill="#4C78A8" fill-opacity="0.5" stroke="#4C78A8" stroke-width="0.6"/><circle cx="175.3" cy="310.1" r="3" fill="#4C78A8" fill-opacity="0.5" stroke="#4C78A8" stroke-width="0.6"/><circle cx="192.0" cy="316.1" r="3" fill="#4C78A8" fill-opacity="0.5" stroke="#4C78A8" stroke-width="0.6"/><circle cx="208.6" cy="205.0" r="3" fill="#4C78A8" fill-opacity="0.5" stroke="#4C78A8" stroke-width="0.6"/><circle cx="157.3" cy="310.6" r="3" fill="#4C78A8" fill-opacity="0.5" stroke="#4C78A8" stroke-width="0.6"/><circle cx="174.0" cy="346.1" r="3" fill="#4C78A8" fill-opacity="0.5" stroke="#4C78A8" stroke-width="0.6"/><circle cx="190.6" cy="253.8" r="3" fill="#4C78A8" fill-opacity="0.5" stroke="#4C78A8" stroke-width="0.6"/><circle cx="207.3" cy="288.0" r="3" fill="#4C78A8" fill-opacity="0.5" stroke="#4C78A8" stroke-width="0.6"/><circle cx="155.9" cy="349.2" r="3" fill="#4C78A8" fill-opacity="0.5" stroke="#4C78A8" stroke-width="0.6"/><circle cx="172.6" cy="304.6" r="3" fill="#4C78A8" fill-opacity="0.5" stroke="#4C78A8" stroke-width="0.6"/><circle cx="189.3" cy="342.7" r="3" fill="#4C78A8" fill-opacity="0.5" stroke="#4C78A8" stroke-width="0.6"/><circle cx="205.9" cy="101.9" r="3" fill="#4C78A8" fill-opacity="0.5" stroke="#4C78A8" stroke-width="0.6"/><circle cx="154.6" cy="294.5" r="3" fill="#4C78A8" fill-opacity="0.5" stroke="#4C78A8" stroke-width="0.6"/><circle cx="171.2" cy="307.6" r="3" fill="#4C78A8" fill-opacity="0.5" stroke="#4C78A8" stroke-width="0.6"/><circle cx="187.9" cy="361.0" r="3" fill="#4C78A8" fill-opacity="0.5" stroke="#4C78A8" stroke-width="0.6"/><circle cx="204.6" cy="260.0" r="3" fill="#4C78A8" fill-opacity="0.5" stroke="#4C78A8" stroke-width="0.6"/><circle cx="153.2" cy="338.9" r="3" fill="#4C78A8" fill-opacity="0.5" stroke="#4C78A8" stroke-width="0.6"/><circle cx="169.9" cy="336.8" r="3" fill="#4C78A8" fill-opacity="0.5" stroke="#4C78A8" stroke-width="0.6"/><circle cx="186.5" cy="287.5" r="3" fill="#4C78A8" fill-opacity="0.5" stroke="#4C78A8" stroke-width="0.6"/><circle cx="203.2" cy="220.2" r="3" fill="#4C78A8" fill-opacity="0.5" stroke="#4C78A8" stroke-width="0.6"/><circle cx="151.9" cy="332.6" r="3" fill="#4C78A8" fill-opacity="0.5" stroke="#4C78A8" stroke-width="0.6"/><circle cx="168.5" cy="162.6" r="3" fill="#4C78A8" fill-opacity="0.5" stroke="#4C78A8" stroke-width="0.6"/><circle cx="185.2" cy="309.1" r="3" fill="#4C78A8" fill-opacity="0.5" stroke="#4C78A8" stroke-width="0.6"/><circle cx="201.8" cy="307.1" r="3" fill="#4C78A8" fill-opacity="0.5" stroke="#4C78A8" stroke-width="0.6"/><circle cx="150.5" cy="314.7" r="3" fill="#4C78A8" fill-opacity="0.5" stroke="#4C78A8" stroke-width="0.6"/><circle cx="167.2" cy="319.3" r="3" fill="#4C78A8" fill-opacity="0.5" stroke="#4C78A8" stroke-width="0.6"/><circle cx="183.8" cy="312.1" r="3" fill="#4C78A8" fill-opacity="0.5" stroke="#4C78A8" stroke-width="0.6"/><circle cx="200.5" cy="340.1" r="3" fill="#4C78A8" fill-opacity="0.5" stroke="#4C78A8" stroke-width="0.6"/><circle cx="149.1" cy="201.0" r="3" fill="#4C78A8" fill-opacity="0.5" stroke="#4C78A8" stroke-width="0.6"/><circle cx="165.8" cy="300.5" r="3" fill="#4C78A8" fill-opacity="0.5" stroke="#4C78A8" stroke-width="0.6"/><line x1="130" y1="293.9" x2="222" y2="293.9" stroke="#4C78A8" stroke-width="3"/><text x="176" y="285.9" text-anchor="middle" font-size="12.5" font-weight="700" fill="#4C78A8">$0.671</text><circle cx="406.1" cy="344.5" r="3" fill="#E45756" fill-opacity="0.5" stroke="#E45756" stroke-width="0.6"/><circle cx="422.8" cy="251.7" r="3" fill="#E45756" fill-opacity="0.5" stroke="#E45756" stroke-width="0.6"/><circle cx="371.4" cy="315.0" r="3" fill="#E45756" fill-opacity="0.5" stroke="#E45756" stroke-width="0.6"/><circle cx="388.1" cy="291.5" r="3" fill="#E45756" fill-opacity="0.5" stroke="#E45756" stroke-width="0.6"/><circle cx="404.8" cy="331.1" r="3" fill="#E45756" fill-opacity="0.5" stroke="#E45756" stroke-width="0.6"/><circle cx="421.4" cy="82.8" r="3" fill="#E45756" fill-opacity="0.5" stroke="#E45756" stroke-width="0.6"/><circle cx="370.1" cy="277.4" r="3" fill="#E45756" fill-opacity="0.5" stroke="#E45756" stroke-width="0.6"/><circle cx="386.7" cy="271.8" r="3" fill="#E45756" fill-opacity="0.5" stroke="#E45756" stroke-width="0.6"/><circle cx="403.4" cy="305.3" r="3" fill="#E45756" fill-opacity="0.5" stroke="#E45756" stroke-width="0.6"/><circle cx="420.1" cy="310.8" r="3" fill="#E45756" fill-opacity="0.5" stroke="#E45756" stroke-width="0.6"/><circle cx="368.7" cy="329.8" r="3" fill="#E45756" fill-opacity="0.5" stroke="#E45756" stroke-width="0.6"/><circle cx="385.4" cy="338.1" r="3" fill="#E45756" fill-opacity="0.5" stroke="#E45756" stroke-width="0.6"/><circle cx="402.0" cy="281.9" r="3" fill="#E45756" fill-opacity="0.5" stroke="#E45756" stroke-width="0.6"/><circle cx="418.7" cy="354.7" r="3" fill="#E45756" fill-opacity="0.5" stroke="#E45756" stroke-width="0.6"/><circle cx="367.4" cy="355.0" r="3" fill="#E45756" fill-opacity="0.5" stroke="#E45756" stroke-width="0.6"/><circle cx="384.0" cy="216.5" r="3" fill="#E45756" fill-opacity="0.5" stroke="#E45756" stroke-width="0.6"/><circle cx="400.7" cy="242.7" r="3" fill="#E45756" fill-opacity="0.5" stroke="#E45756" stroke-width="0.6"/><circle cx="417.3" cy="332.6" r="3" fill="#E45756" fill-opacity="0.5" stroke="#E45756" stroke-width="0.6"/><circle cx="366.0" cy="204.4" r="3" fill="#E45756" fill-opacity="0.5" stroke="#E45756" stroke-width="0.6"/><circle cx="382.7" cy="309.3" r="3" fill="#E45756" fill-opacity="0.5" stroke="#E45756" stroke-width="0.6"/><circle cx="399.3" cy="329.6" r="3" fill="#E45756" fill-opacity="0.5" stroke="#E45756" stroke-width="0.6"/><circle cx="416.0" cy="318.4" r="3" fill="#E45756" fill-opacity="0.5" stroke="#E45756" stroke-width="0.6"/><circle cx="432.6" cy="216.0" r="3" fill="#E45756" fill-opacity="0.5" stroke="#E45756" stroke-width="0.6"/><circle cx="381.3" cy="264.6" r="3" fill="#E45756" fill-opacity="0.5" stroke="#E45756" stroke-width="0.6"/><circle cx="398.0" cy="337.2" r="3" fill="#E45756" fill-opacity="0.5" stroke="#E45756" stroke-width="0.6"/><circle cx="414.6" cy="304.6" r="3" fill="#E45756" fill-opacity="0.5" stroke="#E45756" stroke-width="0.6"/><circle cx="431.3" cy="277.7" r="3" fill="#E45756" fill-opacity="0.5" stroke="#E45756" stroke-width="0.6"/><circle cx="379.9" cy="329.6" r="3" fill="#E45756" fill-opacity="0.5" stroke="#E45756" stroke-width="0.6"/><circle cx="396.6" cy="300.2" r="3" fill="#E45756" fill-opacity="0.5" stroke="#E45756" stroke-width="0.6"/><circle cx="413.3" cy="333.9" r="3" fill="#E45756" fill-opacity="0.5" stroke="#E45756" stroke-width="0.6"/><circle cx="429.9" cy="268.5" r="3" fill="#E45756" fill-opacity="0.5" stroke="#E45756" stroke-width="0.6"/><circle cx="378.6" cy="280.0" r="3" fill="#E45756" fill-opacity="0.5" stroke="#E45756" stroke-width="0.6"/><circle cx="395.2" cy="304.0" r="3" fill="#E45756" fill-opacity="0.5" stroke="#E45756" stroke-width="0.6"/><circle cx="411.9" cy="352.5" r="3" fill="#E45756" fill-opacity="0.5" stroke="#E45756" stroke-width="0.6"/><circle cx="428.6" cy="286.7" r="3" fill="#E45756" fill-opacity="0.5" stroke="#E45756" stroke-width="0.6"/><circle cx="377.2" cy="354.8" r="3" fill="#E45756" fill-opacity="0.5" stroke="#E45756" stroke-width="0.6"/><circle cx="393.9" cy="339.2" r="3" fill="#E45756" fill-opacity="0.5" stroke="#E45756" stroke-width="0.6"/><circle cx="410.5" cy="244.4" r="3" fill="#E45756" fill-opacity="0.5" stroke="#E45756" stroke-width="0.6"/><circle cx="427.2" cy="252.7" r="3" fill="#E45756" fill-opacity="0.5" stroke="#E45756" stroke-width="0.6"/><circle cx="375.9" cy="329.6" r="3" fill="#E45756" fill-opacity="0.5" stroke="#E45756" stroke-width="0.6"/><circle cx="392.5" cy="164.7" r="3" fill="#E45756" fill-opacity="0.5" stroke="#E45756" stroke-width="0.6"/><circle cx="409.2" cy="296.7" r="3" fill="#E45756" fill-opacity="0.5" stroke="#E45756" stroke-width="0.6"/><circle cx="425.8" cy="309.7" r="3" fill="#E45756" fill-opacity="0.5" stroke="#E45756" stroke-width="0.6"/><circle cx="374.5" cy="325.2" r="3" fill="#E45756" fill-opacity="0.5" stroke="#E45756" stroke-width="0.6"/><circle cx="391.2" cy="252.8" r="3" fill="#E45756" fill-opacity="0.5" stroke="#E45756" stroke-width="0.6"/><circle cx="407.8" cy="306.5" r="3" fill="#E45756" fill-opacity="0.5" stroke="#E45756" stroke-width="0.6"/><circle cx="424.5" cy="354.5" r="3" fill="#E45756" fill-opacity="0.5" stroke="#E45756" stroke-width="0.6"/><circle cx="373.1" cy="249.3" r="3" fill="#E45756" fill-opacity="0.5" stroke="#E45756" stroke-width="0.6"/><circle cx="389.8" cy="260.4" r="3" fill="#E45756" fill-opacity="0.5" stroke="#E45756" stroke-width="0.6"/><line x1="354" y1="291.7" x2="446" y2="291.7" stroke="#E45756" stroke-width="3"/><text x="400" y="283.7" text-anchor="middle" font-size="12.5" font-weight="700" fill="#E45756">$0.689</text><circle cx="630.1" cy="359.2" r="3" fill="#54A24B" fill-opacity="0.5" stroke="#54A24B" stroke-width="0.6"/><circle cx="646.8" cy="272.3" r="3" fill="#54A24B" fill-opacity="0.5" stroke="#54A24B" stroke-width="0.6"/><circle cx="595.4" cy="359.7" r="3" fill="#54A24B" fill-opacity="0.5" stroke="#54A24B" stroke-width="0.6"/><circle cx="612.1" cy="335.9" r="3" fill="#54A24B" fill-opacity="0.5" stroke="#54A24B" stroke-width="0.6"/><circle cx="628.8" cy="344.0" r="3" fill="#54A24B" fill-opacity="0.5" stroke="#54A24B" stroke-width="0.6"/><circle cx="645.4" cy="220.5" r="3" fill="#54A24B" fill-opacity="0.5" stroke="#54A24B" stroke-width="0.6"/><circle cx="594.1" cy="344.1" r="3" fill="#54A24B" fill-opacity="0.5" stroke="#54A24B" stroke-width="0.6"/><circle cx="610.7" cy="331.2" r="3" fill="#54A24B" fill-opacity="0.5" stroke="#54A24B" stroke-width="0.6"/><circle cx="627.4" cy="333.4" r="3" fill="#54A24B" fill-opacity="0.5" stroke="#54A24B" stroke-width="0.6"/><circle cx="644.1" cy="360.0" r="3" fill="#54A24B" fill-opacity="0.5" stroke="#54A24B" stroke-width="0.6"/><circle cx="592.7" cy="366.4" r="3" fill="#54A24B" fill-opacity="0.5" stroke="#54A24B" stroke-width="0.6"/><circle cx="609.4" cy="356.7" r="3" fill="#54A24B" fill-opacity="0.5" stroke="#54A24B" stroke-width="0.6"/><circle cx="626.0" cy="278.2" r="3" fill="#54A24B" fill-opacity="0.5" stroke="#54A24B" stroke-width="0.6"/><circle cx="642.7" cy="368.8" r="3" fill="#54A24B" fill-opacity="0.5" stroke="#54A24B" stroke-width="0.6"/><circle cx="591.4" cy="361.1" r="3" fill="#54A24B" fill-opacity="0.5" stroke="#54A24B" stroke-width="0.6"/><circle cx="608.0" cy="312.4" r="3" fill="#54A24B" fill-opacity="0.5" stroke="#54A24B" stroke-width="0.6"/><circle cx="624.7" cy="255.8" r="3" fill="#54A24B" fill-opacity="0.5" stroke="#54A24B" stroke-width="0.6"/><circle cx="641.3" cy="298.9" r="3" fill="#54A24B" fill-opacity="0.5" stroke="#54A24B" stroke-width="0.6"/><circle cx="590.0" cy="286.9" r="3" fill="#54A24B" fill-opacity="0.5" stroke="#54A24B" stroke-width="0.6"/><circle cx="606.7" cy="346.8" r="3" fill="#54A24B" fill-opacity="0.5" stroke="#54A24B" stroke-width="0.6"/><circle cx="623.3" cy="317.6" r="3" fill="#54A24B" fill-opacity="0.5" stroke="#54A24B" stroke-width="0.6"/><circle cx="640.0" cy="328.7" r="3" fill="#54A24B" fill-opacity="0.5" stroke="#54A24B" stroke-width="0.6"/><circle cx="656.6" cy="254.0" r="3" fill="#54A24B" fill-opacity="0.5" stroke="#54A24B" stroke-width="0.6"/><circle cx="605.3" cy="275.6" r="3" fill="#54A24B" fill-opacity="0.5" stroke="#54A24B" stroke-width="0.6"/><circle cx="622.0" cy="364.0" r="3" fill="#54A24B" fill-opacity="0.5" stroke="#54A24B" stroke-width="0.6"/><circle cx="638.6" cy="314.2" r="3" fill="#54A24B" fill-opacity="0.5" stroke="#54A24B" stroke-width="0.6"/><circle cx="655.3" cy="329.5" r="3" fill="#54A24B" fill-opacity="0.5" stroke="#54A24B" stroke-width="0.6"/><circle cx="603.9" cy="331.7" r="3" fill="#54A24B" fill-opacity="0.5" stroke="#54A24B" stroke-width="0.6"/><circle cx="620.6" cy="315.4" r="3" fill="#54A24B" fill-opacity="0.5" stroke="#54A24B" stroke-width="0.6"/><circle cx="637.3" cy="366.9" r="3" fill="#54A24B" fill-opacity="0.5" stroke="#54A24B" stroke-width="0.6"/><circle cx="653.9" cy="274.1" r="3" fill="#54A24B" fill-opacity="0.5" stroke="#54A24B" stroke-width="0.6"/><circle cx="602.6" cy="326.3" r="3" fill="#54A24B" fill-opacity="0.5" stroke="#54A24B" stroke-width="0.6"/><circle cx="619.2" cy="339.5" r="3" fill="#54A24B" fill-opacity="0.5" stroke="#54A24B" stroke-width="0.6"/><circle cx="635.9" cy="356.3" r="3" fill="#54A24B" fill-opacity="0.5" stroke="#54A24B" stroke-width="0.6"/><circle cx="652.6" cy="253.3" r="3" fill="#54A24B" fill-opacity="0.5" stroke="#54A24B" stroke-width="0.6"/><circle cx="601.2" cy="333.6" r="3" fill="#54A24B" fill-opacity="0.5" stroke="#54A24B" stroke-width="0.6"/><circle cx="617.9" cy="355.6" r="3" fill="#54A24B" fill-opacity="0.5" stroke="#54A24B" stroke-width="0.6"/><circle cx="634.5" cy="304.7" r="3" fill="#54A24B" fill-opacity="0.5" stroke="#54A24B" stroke-width="0.6"/><circle cx="651.2" cy="308.0" r="3" fill="#54A24B" fill-opacity="0.5" stroke="#54A24B" stroke-width="0.6"/><circle cx="599.9" cy="340.6" r="3" fill="#54A24B" fill-opacity="0.5" stroke="#54A24B" stroke-width="0.6"/><circle cx="616.5" cy="234.2" r="3" fill="#54A24B" fill-opacity="0.5" stroke="#54A24B" stroke-width="0.6"/><circle cx="633.2" cy="321.4" r="3" fill="#54A24B" fill-opacity="0.5" stroke="#54A24B" stroke-width="0.6"/><circle cx="649.8" cy="342.7" r="3" fill="#54A24B" fill-opacity="0.5" stroke="#54A24B" stroke-width="0.6"/><circle cx="598.5" cy="357.1" r="3" fill="#54A24B" fill-opacity="0.5" stroke="#54A24B" stroke-width="0.6"/><circle cx="615.2" cy="327.6" r="3" fill="#54A24B" fill-opacity="0.5" stroke="#54A24B" stroke-width="0.6"/><circle cx="631.8" cy="348.7" r="3" fill="#54A24B" fill-opacity="0.5" stroke="#54A24B" stroke-width="0.6"/><circle cx="648.5" cy="366.8" r="3" fill="#54A24B" fill-opacity="0.5" stroke="#54A24B" stroke-width="0.6"/><circle cx="597.1" cy="281.1" r="3" fill="#54A24B" fill-opacity="0.5" stroke="#54A24B" stroke-width="0.6"/><circle cx="613.8" cy="320.0" r="3" fill="#54A24B" fill-opacity="0.5" stroke="#54A24B" stroke-width="0.6"/><line x1="578" y1="322.1" x2="670" y2="322.1" stroke="#54A24B" stroke-width="3"/><text x="624" y="314.1" text-anchor="middle" font-size="12.5" font-weight="700" fill="#54A24B">$0.441</text><text x="176.0" y="396" text-anchor="middle" font-size="12" font-weight="600" fill="#4C78A8">classic</text><text x="400.0" y="396" text-anchor="middle" font-size="12" font-weight="600" fill="#E45756">classic-graphify</text><text x="624.0" y="396" text-anchor="middle" font-size="12" font-weight="600" fill="#54A24B">classic-graph-bash</text></svg>
