<svg xmlns="http://www.w3.org/2000/svg" width="860" height="646" viewBox="0 0 860 646" font-family="system-ui,Segoe UI,Helvetica,Arial,sans-serif">
<rect width="860" height="646" fill="#ffffff"/>
<text x="430" y="24" text-anchor="middle" font-size="16" font-weight="600" fill="#111">Per-benchmark cost on classic's wins</text>
<text x="430" y="42" text-anchor="middle" font-size="11" fill="#666">the 22 benchmarks classic resolved; bar = total $ for that benchmark, dot = each seed (only arms that solved it)</text><rect x="150" y="53" width="12" height="12" fill="#4C78A8"/><text x="167" y="63" font-size="11" fill="#333">classic (total $9.04)</text><rect x="304.1" y="53" width="12" height="12" fill="#E45756"/><text x="321.1" y="63" font-size="11" fill="#333">classic-graphify (total $11.87)</text><rect x="519.2" y="53" width="12" height="12" fill="#54A24B"/><text x="536.2" y="63" font-size="11" fill="#333">classic-graph-bash (total $6.77)</text><line x1="150.0" y1="74" x2="150.0" y2="632" stroke="#eee"/><text x="150.0" y="70" text-anchor="middle" font-size="10" fill="#999">$0.0</text><line x1="380.7" y1="74" x2="380.7" y2="632" stroke="#eee"/><text x="380.7" y="70" text-anchor="middle" font-size="10" fill="#999">$0.6</text><line x1="611.3" y1="74" x2="611.3" y2="632" stroke="#eee"/><text x="611.3" y="70" text-anchor="middle" font-size="10" fill="#999">$1.1</text><line x1="842.0" y1="74" x2="842.0" y2="632" stroke="#eee"/><text x="842.0" y="70" text-anchor="middle" font-size="10" fill="#999">$1.7</text><text x="144" y="94.5" text-anchor="end" font-size="9" fill="#444">dayjs-2399</text><rect x="150" y="80.0" width="423.5" height="5" fill="#4C78A8"/><circle cx="573.5" cy="82.5" r="2.3" fill="#4C78A8" stroke="#222" stroke-width="0.6"/><rect x="150" y="86.0" width="503.8" height="5" fill="#E45756"/><circle cx="653.8" cy="88.5" r="2.3" fill="#E45756" stroke="#222" stroke-width="0.6"/><rect x="150" y="92.0" width="167.1" height="5" fill="#54A24B"/><circle cx="317.1" cy="94.5" r="2.3" fill="#54A24B" stroke="#222" stroke-width="0.6"/><text x="144" y="119.5" text-anchor="end" font-size="9" fill="#444">zstd-3438</text><rect x="150" y="105.0" width="365.5" height="5" fill="#4C78A8"/><circle cx="515.5" cy="107.5" r="2.3" fill="#4C78A8" stroke="#222" stroke-width="0.6"/><rect x="150" y="111.0" width="688.8" height="5" fill="#E45756"/><circle cx="838.8" cy="113.5" r="2.3" fill="#E45756" stroke="#222" stroke-width="0.6"/><rect x="150" y="117.0" width="255.1" height="5" fill="#54A24B"/><circle cx="405.1" cy="119.5" r="2.3" fill="#54A24B" stroke="#222" stroke-width="0.6"/><text x="144" y="144.5" text-anchor="end" font-size="9" fill="#444">core-11694</text><rect x="150" y="130.0" width="363.5" height="5" fill="#4C78A8"/><circle cx="513.5" cy="132.5" r="2.3" fill="#4C78A8" stroke="#222" stroke-width="0.6"/><rect x="150" y="136.0" width="266.3" height="5" fill="#E45756"/><circle cx="416.3" cy="138.5" r="2.3" fill="#E45756" stroke="#222" stroke-width="0.6"/><rect x="150" y="142.0" width="59.1" height="5" fill="#54A24B"/><circle cx="209.1" cy="144.5" r="2.3" fill="#54A24B" stroke="#222" stroke-width="0.6"/><text x="144" y="169.5" text-anchor="end" font-size="9" fill="#444">grpc-go-3351</text><rect x="150" y="155.0" width="199.3" height="5" fill="#4C78A8"/><circle cx="349.3" cy="157.5" r="2.3" fill="#4C78A8" stroke="#222" stroke-width="0.6"/><rect x="150" y="161.0" width="191.7" height="5" fill="#E45756"/><circle cx="341.7" cy="163.5" r="2.3" fill="#E45756" stroke="#222" stroke-width="0.6"/><rect x="150" y="167.0" width="157.3" height="5" fill="#54A24B"/><circle cx="307.3" cy="169.5" r="2.3" fill="#54A24B" stroke="#222" stroke-width="0.6"/><text x="144" y="194.5" text-anchor="end" font-size="9" fill="#444">grpc-go-3258</text><rect x="150" y="180.0" width="195.6" height="5" fill="#4C78A8"/><circle cx="345.6" cy="182.5" r="2.3" fill="#4C78A8" stroke="#222" stroke-width="0.6"/><rect x="150" y="186.0" width="309.1" height="5" fill="#E45756"/><circle cx="459.1" cy="188.5" r="2.3" fill="#E45756" stroke="#222" stroke-width="0.6"/><rect x="150" y="192.0" width="170.7" height="5" fill="#54A24B"/><circle cx="320.7" cy="194.5" r="2.3" fill="#54A24B" stroke="#222" stroke-width="0.6"/><text x="144" y="219.5" text-anchor="end" font-size="9" fill="#444">fd-1394</text><rect x="150" y="205.0" width="190.8" height="5" fill="#4C78A8"/><circle cx="340.8" cy="207.5" r="2.3" fill="#4C78A8" stroke="#222" stroke-width="0.6"/><rect x="150" y="211.0" width="183.7" height="5" fill="#E45756"/><circle cx="333.7" cy="213.5" r="2.3" fill="#E45756" stroke="#222" stroke-width="0.6"/><rect x="150" y="217.0" width="34.4" height="5" fill="#54A24B"/><circle cx="184.4" cy="219.5" r="2.3" fill="#54A24B" stroke="#222" stroke-width="0.6"/><text x="144" y="244.5" text-anchor="end" font-size="9" fill="#444">clap-5873</text><rect x="150" y="230.0" width="187.9" height="5" fill="#4C78A8"/><circle cx="337.9" cy="232.5" r="2.3" fill="#4C78A8" stroke="#222" stroke-width="0.6"/><rect x="150" y="236.0" width="222.4" height="5" fill="#E45756"/><circle cx="372.4" cy="238.5" r="2.3" fill="#E45756" stroke="#222" stroke-width="0.6"/><rect x="150" y="242.0" width="183.3" height="5" fill="#54A24B"/><circle cx="333.3" cy="244.5" r="2.3" fill="#54A24B" stroke="#222" stroke-width="0.6"/><text x="144" y="269.5" text-anchor="end" font-size="9" fill="#444">core-11761</text><rect x="150" y="255.0" width="183.3" height="5" fill="#4C78A8"/><circle cx="333.3" cy="257.5" r="2.3" fill="#4C78A8" stroke="#222" stroke-width="0.6"/><rect x="150" y="261.0" width="203.4" height="5" fill="#E45756"/><circle cx="353.4" cy="263.5" r="2.3" fill="#E45756" stroke="#222" stroke-width="0.6"/><rect x="150" y="267.0" width="149.4" height="5" fill="#54A24B"/><circle cx="299.4" cy="269.5" r="2.3" fill="#54A24B" stroke="#222" stroke-width="0.6"/><text x="144" y="294.5" text-anchor="end" font-size="9" fill="#444">jq-3238</text><rect x="150" y="280.0" width="180.9" height="5" fill="#4C78A8"/><circle cx="330.9" cy="282.5" r="2.3" fill="#4C78A8" stroke="#222" stroke-width="0.6"/><rect x="150" y="286.0" width="202.8" height="5" fill="#E45756"/><circle cx="352.8" cy="288.5" r="2.3" fill="#E45756" stroke="#222" stroke-width="0.6"/><rect x="150" y="292.0" width="357.0" height="5" fill="#54A24B"/><circle cx="507.0" cy="294.5" r="2.3" fill="#54A24B" stroke="#222" stroke-width="0.6"/><text x="144" y="319.5" text-anchor="end" font-size="9" fill="#444">tracing-2897</text><rect x="150" y="305.0" width="176.4" height="5" fill="#4C78A8"/><circle cx="326.4" cy="307.5" r="2.3" fill="#4C78A8" stroke="#222" stroke-width="0.6"/><rect x="150" y="311.0" width="224.4" height="5" fill="#E45756"/><circle cx="374.4" cy="313.5" r="2.3" fill="#E45756" stroke="#222" stroke-width="0.6"/><rect x="150" y="317.0" width="109.1" height="5" fill="#54A24B"/><circle cx="259.1" cy="319.5" r="2.3" fill="#54A24B" stroke="#222" stroke-width="0.6"/><text x="144" y="344.5" text-anchor="end" font-size="9" fill="#444">dayjs-2532</text><rect x="150" y="330.0" width="161.6" height="5" fill="#4C78A8"/><circle cx="311.6" cy="332.5" r="2.3" fill="#4C78A8" stroke="#222" stroke-width="0.6"/><rect x="150" y="336.0" width="331.9" height="5" fill="#E45756"/><circle cx="481.9" cy="338.5" r="2.3" fill="#E45756" stroke="#222" stroke-width="0.6"/><rect x="150" y="342.0" width="166.1" height="5" fill="#54A24B"/><circle cx="316.1" cy="344.5" r="2.3" fill="#54A24B" stroke="#222" stroke-width="0.6"/><text x="144" y="369.5" text-anchor="end" font-size="9" fill="#444">bytes-732</text><rect x="150" y="355.0" width="144.4" height="5" fill="#4C78A8"/><circle cx="294.4" cy="357.5" r="2.3" fill="#4C78A8" stroke="#222" stroke-width="0.6"/><rect x="150" y="361.0" width="154.2" height="5" fill="#E45756"/><circle cx="304.2" cy="363.5" r="2.3" fill="#E45756" stroke="#222" stroke-width="0.6"/><rect x="150" y="367.0" width="117.8" height="5" fill="#54A24B"/><circle cx="267.8" cy="369.5" r="2.3" fill="#54A24B" stroke="#222" stroke-width="0.6"/><text x="144" y="394.5" text-anchor="end" font-size="9" fill="#444">github-readme-stats-2844</text><rect x="150" y="380.0" width="128.7" height="5" fill="#4C78A8"/><circle cx="278.7" cy="382.5" r="2.3" fill="#4C78A8" stroke="#222" stroke-width="0.6"/><rect x="150" y="386.0" width="194.8" height="5" fill="#E45756"/><circle cx="344.8" cy="388.5" r="2.3" fill="#E45756" stroke="#222" stroke-width="0.6"/><rect x="150" y="392.0" width="112.2" height="5" fill="#54A24B"/><circle cx="262.2" cy="394.5" r="2.3" fill="#54A24B" stroke="#222" stroke-width="0.6"/><text x="144" y="419.5" text-anchor="end" font-size="9" fill="#444">core-11680</text><rect x="150" y="405.0" width="128.4" height="5" fill="#4C78A8"/><circle cx="278.4" cy="407.5" r="2.3" fill="#4C78A8" stroke="#222" stroke-width="0.6"/><rect x="150" y="411.0" width="153.7" height="5" fill="#E45756"/><circle cx="303.7" cy="413.5" r="2.3" fill="#E45756" stroke="#222" stroke-width="0.6"/><rect x="150" y="417.0" width="133.5" height="5" fill="#54A24B"/><circle cx="283.5" cy="419.5" r="2.3" fill="#54A24B" stroke="#222" stroke-width="0.6"/><text x="144" y="444.5" text-anchor="end" font-size="9" fill="#444">jq-2919</text><rect x="150" y="430.0" width="127.2" height="5" fill="#4C78A8"/><circle cx="277.2" cy="432.5" r="2.3" fill="#4C78A8" stroke="#222" stroke-width="0.6"/><rect x="150" y="436.0" width="229.2" height="5" fill="#E45756"/><circle cx="379.2" cy="438.5" r="2.3" fill="#E45756" stroke="#222" stroke-width="0.6"/><rect x="150" y="442.0" width="135.7" height="5" fill="#54A24B"/><circle cx="285.7" cy="444.5" r="2.3" fill="#54A24B" stroke="#222" stroke-width="0.6"/><text x="144" y="469.5" text-anchor="end" font-size="9" fill="#444">core-11813</text><rect x="150" y="455.0" width="90.3" height="5" fill="#4C78A8"/><circle cx="240.3" cy="457.5" r="2.3" fill="#4C78A8" stroke="#222" stroke-width="0.6"/><rect x="150" y="461.0" width="104.9" height="5" fill="#E45756"/><circle cx="254.9" cy="463.5" r="2.3" fill="#E45756" stroke="#222" stroke-width="0.6"/><rect x="150" y="467.0" width="45.1" height="5" fill="#54A24B"/><circle cx="195.1" cy="469.5" r="2.3" fill="#54A24B" stroke="#222" stroke-width="0.6"/><text x="144" y="494.5" text-anchor="end" font-size="9" fill="#444">zstd-3942</text><rect x="150" y="480.0" width="89.0" height="5" fill="#4C78A8"/><circle cx="239.0" cy="482.5" r="2.3" fill="#4C78A8" stroke="#222" stroke-width="0.6"/><rect x="150" y="486.0" width="97.1" height="5" fill="#E45756"/><circle cx="247.1" cy="488.5" r="2.3" fill="#E45756" stroke="#222" stroke-width="0.6"/><rect x="150" y="492.0" width="78.8" height="5" fill="#54A24B"/><circle cx="228.8" cy="494.5" r="2.3" fill="#54A24B" stroke="#222" stroke-width="0.6"/><text x="144" y="519.5" text-anchor="end" font-size="9" fill="#444">bat-3189</text><rect x="150" y="505.0" width="86.3" height="5" fill="#4C78A8"/><circle cx="236.3" cy="507.5" r="2.3" fill="#4C78A8" stroke="#222" stroke-width="0.6"/><rect x="150" y="511.0" width="89.5" height="5" fill="#E45756"/><circle cx="239.5" cy="513.5" r="2.3" fill="#E45756" stroke="#222" stroke-width="0.6"/><rect x="150" y="517.0" width="33.9" height="5" fill="#54A24B"/><circle cx="183.9" cy="519.5" r="2.3" fill="#54A24B" stroke="#222" stroke-width="0.6"/><text x="144" y="544.5" text-anchor="end" font-size="9" fill="#444">go-zero-2787</text><rect x="150" y="530.0" width="85.9" height="5" fill="#4C78A8"/><circle cx="235.9" cy="532.5" r="2.3" fill="#4C78A8" stroke="#222" stroke-width="0.6"/><rect x="150" y="536.0" width="96.7" height="5" fill="#E45756"/><circle cx="246.7" cy="538.5" r="2.3" fill="#E45756" stroke="#222" stroke-width="0.6"/><rect x="150" y="542.0" width="18.8" height="5" fill="#54A24B"/><circle cx="168.8" cy="544.5" r="2.3" fill="#54A24B" stroke="#222" stroke-width="0.6"/><text x="144" y="569.5" text-anchor="end" font-size="9" fill="#444">darkreader-7241</text><rect x="150" y="555.0" width="75.3" height="5" fill="#4C78A8"/><circle cx="225.3" cy="557.5" r="2.3" fill="#4C78A8" stroke="#222" stroke-width="0.6"/><rect x="150" y="561.0" width="198.5" height="5" fill="#E45756"/><circle cx="348.5" cy="563.5" r="2.3" fill="#E45756" stroke="#222" stroke-width="0.6"/><rect x="150" y="567.0" width="165.4" height="5" fill="#54A24B"/><circle cx="315.4" cy="569.5" r="2.3" fill="#54A24B" stroke="#222" stroke-width="0.6"/><text x="144" y="594.5" text-anchor="end" font-size="9" fill="#444">rayon-986</text><rect x="150" y="580.0" width="49.7" height="5" fill="#4C78A8"/><circle cx="199.7" cy="582.5" r="2.3" fill="#4C78A8" stroke="#222" stroke-width="0.6"/><rect x="150" y="586.0" width="78.2" height="5" fill="#E45756"/><circle cx="228.2" cy="588.5" r="2.3" fill="#E45756" stroke="#222" stroke-width="0.6"/><rect x="150" y="592.0" width="65.5" height="5" fill="#54A24B"/><circle cx="215.5" cy="594.5" r="2.3" fill="#54A24B" stroke="#222" stroke-width="0.6"/><text x="144" y="619.5" text-anchor="end" font-size="9" fill="#444">express-5555</text><rect x="150" y="605.0" width="46.8" height="5" fill="#4C78A8"/><circle cx="196.8" cy="607.5" r="2.3" fill="#4C78A8" stroke="#222" stroke-width="0.6"/><rect x="150" y="611.0" width="108.6" height="5" fill="#E45756"/><circle cx="258.6" cy="613.5" r="2.3" fill="#E45756" stroke="#222" stroke-width="0.6"/><rect x="150" y="617.0" width="41.4" height="5" fill="#54A24B"/><circle cx="191.4" cy="619.5" r="2.3" fill="#54A24B" stroke="#222" stroke-width="0.6"/></svg>
