<svg xmlns="http://www.w3.org/2000/svg" width="820" height="710" viewBox="0 0 820 710" font-family="system-ui,Segoe UI,Helvetica,Arial,sans-serif">
<rect width="820" height="710" fill="#ffffff"/>
<text x="410" y="24" text-anchor="middle" font-size="16" font-weight="600" fill="#111">Per-benchmark cost on classic's wins</text>
<text x="410" y="42" text-anchor="middle" font-size="11" fill="#666">the 22 benchmarks classic resolved; bar = total $ for that benchmark, dot = each seed</text><rect x="150" y="53" width="12" height="12" fill="#4C78A8"/><text x="167" y="63" font-size="11" fill="#333">classic (total $9.04)</text><rect x="310.20000000000005" y="53" width="12" height="12" fill="#E45756"/><text x="327.20000000000005" y="63" font-size="11" fill="#333">classic-graphify (total $11.87)</text><rect x="532.4000000000001" y="53" width="12" height="12" fill="#54A24B"/><text x="549.4000000000001" y="63" font-size="11" fill="#333">classic-graph-bash (total $6.77)</text><line x1="150.0" y1="72" x2="150.0" y2="696" stroke="#eee"/><text x="150.0" y="68" text-anchor="middle" font-size="10" fill="#999">$0.0</text><line x1="367.3" y1="72" x2="367.3" y2="696" stroke="#eee"/><text x="367.3" y="68" text-anchor="middle" font-size="10" fill="#999">$0.6</text><line x1="584.7" y1="72" x2="584.7" y2="696" stroke="#eee"/><text x="584.7" y="68" text-anchor="middle" font-size="10" fill="#999">$1.1</text><line x1="802.0" y1="72" x2="802.0" y2="696" stroke="#eee"/><text x="802.0" y="68" text-anchor="middle" font-size="10" fill="#999">$1.7</text><text x="144" y="94.0" text-anchor="end" font-size="9.5" fill="#444">dayjs-2399</text><rect x="150" y="78.0" width="399.0" height="6" fill="#4C78A8"/><circle cx="549.0" cy="81.0" r="2.5" fill="#4C78A8" stroke="#222" stroke-width="0.7"/><rect x="150" y="85.0" width="474.7" height="6" fill="#E45756"/><circle cx="624.7" cy="88.0" r="2.5" fill="#E45756" stroke="#222" stroke-width="0.7"/><rect x="150" y="92.0" width="157.4" height="6" fill="#54A24B"/><circle cx="307.4" cy="95.0" r="2.5" fill="#54A24B" stroke="#222" stroke-width="0.7"/><text x="144" y="122.0" text-anchor="end" font-size="9.5" fill="#444">zstd-3438</text><rect x="150" y="106.0" width="344.4" height="6" fill="#4C78A8"/><circle cx="494.4" cy="109.0" r="2.5" fill="#4C78A8" stroke="#222" stroke-width="0.7"/><rect x="150" y="113.0" width="649.0" height="6" fill="#E45756"/><circle cx="799.0" cy="116.0" r="2.5" fill="#E45756" stroke="#222" stroke-width="0.7"/><rect x="150" y="120.0" width="240.3" height="6" fill="#54A24B"/><circle cx="390.3" cy="123.0" r="2.5" fill="#54A24B" stroke="#222" stroke-width="0.7"/><text x="144" y="150.0" text-anchor="end" font-size="9.5" fill="#444">core-11694</text><rect x="150" y="134.0" width="342.5" height="6" fill="#4C78A8"/><circle cx="492.5" cy="137.0" r="2.5" fill="#4C78A8" stroke="#222" stroke-width="0.7"/><rect x="150" y="141.0" width="250.9" height="6" fill="#E45756"/><circle cx="400.9" cy="144.0" r="2.5" fill="#E45756" stroke="#222" stroke-width="0.7"/><rect x="150" y="148.0" width="55.7" height="6" fill="#54A24B"/><circle cx="205.7" cy="151.0" r="2.5" fill="#54A24B" stroke="#222" stroke-width="0.7"/><text x="144" y="178.0" text-anchor="end" font-size="9.5" fill="#444">grpc-go-3351</text><rect x="150" y="162.0" width="187.8" height="6" fill="#4C78A8"/><circle cx="337.8" cy="165.0" r="2.5" fill="#4C78A8" stroke="#222" stroke-width="0.7"/><rect x="150" y="169.0" width="180.6" height="6" fill="#E45756"/><circle cx="330.6" cy="172.0" r="2.5" fill="#E45756" stroke="#222" stroke-width="0.7"/><rect x="150" y="176.0" width="148.2" height="6" fill="#54A24B"/><circle cx="298.2" cy="179.0" r="2.5" fill="#54A24B" stroke="#222" stroke-width="0.7"/><text x="144" y="206.0" text-anchor="end" font-size="9.5" fill="#444">grpc-go-3258</text><rect x="150" y="190.0" width="184.2" height="6" fill="#4C78A8"/><circle cx="334.2" cy="193.0" r="2.5" fill="#4C78A8" stroke="#222" stroke-width="0.7"/><rect x="150" y="197.0" width="291.3" height="6" fill="#E45756"/><circle cx="441.3" cy="200.0" r="2.5" fill="#E45756" stroke="#222" stroke-width="0.7"/><rect x="150" y="204.0" width="160.8" height="6" fill="#54A24B"/><circle cx="310.8" cy="207.0" r="2.5" fill="#54A24B" stroke="#222" stroke-width="0.7"/><text x="144" y="234.0" text-anchor="end" font-size="9.5" fill="#444">fd-1394</text><rect x="150" y="218.0" width="179.8" height="6" fill="#4C78A8"/><circle cx="329.8" cy="221.0" r="2.5" fill="#4C78A8" stroke="#222" stroke-width="0.7"/><rect x="150" y="225.0" width="173.1" height="6" fill="#E45756"/><circle cx="323.1" cy="228.0" r="2.5" fill="#E45756" stroke="#222" stroke-width="0.7"/><rect x="150" y="232.0" width="32.4" height="6" fill="#54A24B"/><circle cx="182.4" cy="235.0" r="2.5" fill="#54A24B" stroke="#222" stroke-width="0.7"/><text x="144" y="262.0" text-anchor="end" font-size="9.5" fill="#444">clap-5873</text><rect x="150" y="246.0" width="177.0" height="6" fill="#4C78A8"/><circle cx="327.0" cy="249.0" r="2.5" fill="#4C78A8" stroke="#222" stroke-width="0.7"/><rect x="150" y="253.0" width="209.6" height="6" fill="#E45756"/><circle cx="359.6" cy="256.0" r="2.5" fill="#E45756" stroke="#222" stroke-width="0.7"/><rect x="150" y="260.0" width="172.7" height="6" fill="#54A24B"/><circle cx="322.7" cy="263.0" r="2.5" fill="#54A24B" stroke="#222" stroke-width="0.7"/><text x="144" y="290.0" text-anchor="end" font-size="9.5" fill="#444">core-11761</text><rect x="150" y="274.0" width="172.7" height="6" fill="#4C78A8"/><circle cx="322.7" cy="277.0" r="2.5" fill="#4C78A8" stroke="#222" stroke-width="0.7"/><rect x="150" y="281.0" width="191.7" height="6" fill="#E45756"/><circle cx="341.7" cy="284.0" r="2.5" fill="#E45756" stroke="#222" stroke-width="0.7"/><rect x="150" y="288.0" width="140.8" height="6" fill="#54A24B"/><circle cx="290.8" cy="291.0" r="2.5" fill="#54A24B" stroke="#222" stroke-width="0.7"/><text x="144" y="318.0" text-anchor="end" font-size="9.5" fill="#444">jq-3238</text><rect x="150" y="302.0" width="170.4" height="6" fill="#4C78A8"/><circle cx="320.4" cy="305.0" r="2.5" fill="#4C78A8" stroke="#222" stroke-width="0.7"/><rect x="150" y="309.0" width="191.0" height="6" fill="#E45756"/><circle cx="341.0" cy="312.0" r="2.5" fill="#E45756" stroke="#222" stroke-width="0.7"/><rect x="150" y="316.0" width="336.4" height="6" fill="#54A24B"/><circle cx="486.4" cy="319.0" r="2.5" fill="#54A24B" stroke="#222" stroke-width="0.7"/><text x="144" y="346.0" text-anchor="end" font-size="9.5" fill="#444">tracing-2897</text><rect x="150" y="330.0" width="166.2" height="6" fill="#4C78A8"/><circle cx="316.2" cy="333.0" r="2.5" fill="#4C78A8" stroke="#222" stroke-width="0.7"/><rect x="150" y="337.0" width="211.4" height="6" fill="#E45756"/><circle cx="361.4" cy="340.0" r="2.5" fill="#E45756" stroke="#222" stroke-width="0.7"/><rect x="150" y="344.0" width="102.7" height="6" fill="#54A24B"/><circle cx="252.7" cy="347.0" r="2.5" fill="#54A24B" stroke="#222" stroke-width="0.7"/><text x="144" y="374.0" text-anchor="end" font-size="9.5" fill="#444">dayjs-2532</text><rect x="150" y="358.0" width="152.2" height="6" fill="#4C78A8"/><circle cx="302.2" cy="361.0" r="2.5" fill="#4C78A8" stroke="#222" stroke-width="0.7"/><rect x="150" y="365.0" width="312.7" height="6" fill="#E45756"/><circle cx="462.7" cy="368.0" r="2.5" fill="#E45756" stroke="#222" stroke-width="0.7"/><rect x="150" y="372.0" width="156.5" height="6" fill="#54A24B"/><circle cx="306.5" cy="375.0" r="2.5" fill="#54A24B" stroke="#222" stroke-width="0.7"/><text x="144" y="402.0" text-anchor="end" font-size="9.5" fill="#444">bytes-732</text><rect x="150" y="386.0" width="136.0" height="6" fill="#4C78A8"/><circle cx="286.0" cy="389.0" r="2.5" fill="#4C78A8" stroke="#222" stroke-width="0.7"/><rect x="150" y="393.0" width="145.3" height="6" fill="#E45756"/><circle cx="295.3" cy="396.0" r="2.5" fill="#E45756" stroke="#222" stroke-width="0.7"/><rect x="150" y="400.0" width="111.0" height="6" fill="#54A24B"/><circle cx="261.0" cy="403.0" r="2.5" fill="#54A24B" stroke="#222" stroke-width="0.7"/><text x="144" y="430.0" text-anchor="end" font-size="9.5" fill="#444">github-readme-stats-2844</text><rect x="150" y="414.0" width="121.3" height="6" fill="#4C78A8"/><circle cx="271.3" cy="417.0" r="2.5" fill="#4C78A8" stroke="#222" stroke-width="0.7"/><rect x="150" y="421.0" width="183.6" height="6" fill="#E45756"/><circle cx="333.6" cy="424.0" r="2.5" fill="#E45756" stroke="#222" stroke-width="0.7"/><rect x="150" y="428.0" width="105.7" height="6" fill="#54A24B"/><circle cx="255.7" cy="431.0" r="2.5" fill="#54A24B" stroke="#222" stroke-width="0.7"/><text x="144" y="458.0" text-anchor="end" font-size="9.5" fill="#444">core-11680</text><rect x="150" y="442.0" width="121.0" height="6" fill="#4C78A8"/><circle cx="271.0" cy="445.0" r="2.5" fill="#4C78A8" stroke="#222" stroke-width="0.7"/><rect x="150" y="449.0" width="144.9" height="6" fill="#E45756"/><circle cx="294.9" cy="452.0" r="2.5" fill="#E45756" stroke="#222" stroke-width="0.7"/><rect x="150" y="456.0" width="125.8" height="6" fill="#54A24B"/><circle cx="275.8" cy="459.0" r="2.5" fill="#54A24B" stroke="#222" stroke-width="0.7"/><text x="144" y="486.0" text-anchor="end" font-size="9.5" fill="#444">jq-2919</text><rect x="150" y="470.0" width="119.8" height="6" fill="#4C78A8"/><circle cx="269.8" cy="473.0" r="2.5" fill="#4C78A8" stroke="#222" stroke-width="0.7"/><rect x="150" y="477.0" width="215.9" height="6" fill="#E45756"/><circle cx="365.9" cy="480.0" r="2.5" fill="#E45756" stroke="#222" stroke-width="0.7"/><rect x="150" y="484.0" width="127.9" height="6" fill="#54A24B"/><circle cx="277.9" cy="487.0" r="2.5" fill="#54A24B" stroke="#222" stroke-width="0.7"/><text x="144" y="514.0" text-anchor="end" font-size="9.5" fill="#444">core-11813</text><rect x="150" y="498.0" width="85.1" height="6" fill="#4C78A8"/><circle cx="235.1" cy="501.0" r="2.5" fill="#4C78A8" stroke="#222" stroke-width="0.7"/><rect x="150" y="505.0" width="98.8" height="6" fill="#E45756"/><circle cx="248.8" cy="508.0" r="2.5" fill="#E45756" stroke="#222" stroke-width="0.7"/><rect x="150" y="512.0" width="42.5" height="6" fill="#54A24B"/><circle cx="192.5" cy="515.0" r="2.5" fill="#54A24B" stroke="#222" stroke-width="0.7"/><text x="144" y="542.0" text-anchor="end" font-size="9.5" fill="#444">zstd-3942</text><rect x="150" y="526.0" width="83.9" height="6" fill="#4C78A8"/><circle cx="233.9" cy="529.0" r="2.5" fill="#4C78A8" stroke="#222" stroke-width="0.7"/><rect x="150" y="533.0" width="91.5" height="6" fill="#E45756"/><circle cx="241.5" cy="536.0" r="2.5" fill="#E45756" stroke="#222" stroke-width="0.7"/><rect x="150" y="540.0" width="74.3" height="6" fill="#54A24B"/><circle cx="224.3" cy="543.0" r="2.5" fill="#54A24B" stroke="#222" stroke-width="0.7"/><text x="144" y="570.0" text-anchor="end" font-size="9.5" fill="#444">bat-3189</text><rect x="150" y="554.0" width="81.3" height="6" fill="#4C78A8"/><circle cx="231.3" cy="557.0" r="2.5" fill="#4C78A8" stroke="#222" stroke-width="0.7"/><rect x="150" y="561.0" width="84.3" height="6" fill="#E45756"/><circle cx="234.3" cy="564.0" r="2.5" fill="#E45756" stroke="#222" stroke-width="0.7"/><rect x="150" y="568.0" width="31.9" height="6" fill="#54A24B"/><circle cx="181.9" cy="571.0" r="2.5" fill="#54A24B" stroke="#222" stroke-width="0.7"/><text x="144" y="598.0" text-anchor="end" font-size="9.5" fill="#444">go-zero-2787</text><rect x="150" y="582.0" width="80.9" height="6" fill="#4C78A8"/><circle cx="230.9" cy="585.0" r="2.5" fill="#4C78A8" stroke="#222" stroke-width="0.7"/><rect x="150" y="589.0" width="91.1" height="6" fill="#E45756"/><circle cx="241.1" cy="592.0" r="2.5" fill="#E45756" stroke="#222" stroke-width="0.7"/><rect x="150" y="596.0" width="17.7" height="6" fill="#54A24B"/><circle cx="167.7" cy="599.0" r="2.5" fill="#54A24B" stroke="#222" stroke-width="0.7"/><text x="144" y="626.0" text-anchor="end" font-size="9.5" fill="#444">darkreader-7241</text><rect x="150" y="610.0" width="70.9" height="6" fill="#4C78A8"/><circle cx="220.9" cy="613.0" r="2.5" fill="#4C78A8" stroke="#222" stroke-width="0.7"/><rect x="150" y="617.0" width="187.0" height="6" fill="#E45756"/><circle cx="337.0" cy="620.0" r="2.5" fill="#E45756" stroke="#222" stroke-width="0.7"/><rect x="150" y="624.0" width="155.9" height="6" fill="#54A24B"/><circle cx="305.9" cy="627.0" r="2.5" fill="#54A24B" stroke="#222" stroke-width="0.7"/><text x="144" y="654.0" text-anchor="end" font-size="9.5" fill="#444">rayon-986</text><rect x="150" y="638.0" width="46.9" height="6" fill="#4C78A8"/><circle cx="196.9" cy="641.0" r="2.5" fill="#4C78A8" stroke="#222" stroke-width="0.7"/><rect x="150" y="645.0" width="73.6" height="6" fill="#E45756"/><circle cx="223.6" cy="648.0" r="2.5" fill="#E45756" stroke="#222" stroke-width="0.7"/><rect x="150" y="652.0" width="61.7" height="6" fill="#54A24B"/><circle cx="211.7" cy="655.0" r="2.5" fill="#54A24B" stroke="#222" stroke-width="0.7"/><text x="144" y="682.0" text-anchor="end" font-size="9.5" fill="#444">express-5555</text><rect x="150" y="666.0" width="44.1" height="6" fill="#4C78A8"/><circle cx="194.1" cy="669.0" r="2.5" fill="#4C78A8" stroke="#222" stroke-width="0.7"/><rect x="150" y="673.0" width="102.3" height="6" fill="#E45756"/><circle cx="252.3" cy="676.0" r="2.5" fill="#E45756" stroke="#222" stroke-width="0.7"/><rect x="150" y="680.0" width="39.0" height="6" fill="#54A24B"/><circle cx="189.0" cy="683.0" r="2.5" fill="#54A24B" stroke="#222" stroke-width="0.7"/></svg>
