<svg xmlns="http://www.w3.org/2000/svg" width="860" height="778" viewBox="0 0 860 778" font-family="system-ui,Segoe UI,Helvetica,Arial,sans-serif">
<rect width="860" height="778" fill="#ffffff"/>
<text x="430" y="24" text-anchor="middle" font-size="16" font-weight="600" fill="#111">Per-benchmark cost on classic's wins</text>
<text x="430" y="42" text-anchor="middle" font-size="11" fill="#666">the 22 benchmarks classic resolved; bar = total $ for that benchmark, dot = each seed (only arms that solved it)</text><rect x="150" y="53" width="12" height="12" fill="#4C78A8"/><text x="167" y="63" font-size="11" fill="#333">classic (total $9.04)</text><rect x="304.1" y="53" width="12" height="12" fill="#E45756"/><text x="321.1" y="63" font-size="11" fill="#333">classic-graphify (total $11.87)</text><rect x="519.2" y="53" width="12" height="12" fill="#54A24B"/><text x="536.2" y="63" font-size="11" fill="#333">classic-graph-bash (total $6.77)</text><rect x="740.4000000000001" y="53" width="12" height="12" fill="#B07AA1"/><text x="757.4000000000001" y="63" font-size="11" fill="#333">codex (total $14.59)</text><line x1="150.0" y1="74" x2="150.0" y2="764" stroke="#eee"/><text x="150.0" y="70" text-anchor="middle" font-size="10" fill="#999">$0.0</text><line x1="380.7" y1="74" x2="380.7" y2="764" stroke="#eee"/><text x="380.7" y="70" text-anchor="middle" font-size="10" fill="#999">$0.6</text><line x1="611.3" y1="74" x2="611.3" y2="764" stroke="#eee"/><text x="611.3" y="70" text-anchor="middle" font-size="10" fill="#999">$1.1</text><line x1="842.0" y1="74" x2="842.0" y2="764" stroke="#eee"/><text x="842.0" y="70" text-anchor="middle" font-size="10" fill="#999">$1.7</text><text x="144" y="97.5" text-anchor="end" font-size="9" fill="#444">dayjs-2399</text><rect x="150" y="80.0" width="423.5" height="5" fill="#4C78A8"/><circle cx="573.5" cy="82.5" r="2.3" fill="#4C78A8" stroke="#222" stroke-width="0.6"/><rect x="150" y="86.0" width="503.8" height="5" fill="#E45756"/><circle cx="653.8" cy="88.5" r="2.3" fill="#E45756" stroke="#222" stroke-width="0.6"/><rect x="150" y="92.0" width="167.1" height="5" fill="#54A24B"/><circle cx="317.1" cy="94.5" r="2.3" fill="#54A24B" stroke="#222" stroke-width="0.6"/><rect x="150" y="98.0" width="445.0" height="5" fill="#B07AA1"/><circle cx="595.0" cy="100.5" r="2.3" fill="#B07AA1" stroke="#222" stroke-width="0.6"/><text x="144" y="128.5" text-anchor="end" font-size="9" fill="#444">zstd-3438</text><rect x="150" y="111.0" width="365.5" height="5" fill="#4C78A8"/><circle cx="515.5" cy="113.5" r="2.3" fill="#4C78A8" stroke="#222" stroke-width="0.6"/><rect x="150" y="117.0" width="688.8" height="5" fill="#E45756"/><circle cx="838.8" cy="119.5" r="2.3" fill="#E45756" stroke="#222" stroke-width="0.6"/><rect x="150" y="123.0" width="255.1" height="5" fill="#54A24B"/><circle cx="405.1" cy="125.5" r="2.3" fill="#54A24B" stroke="#222" stroke-width="0.6"/><rect x="150" y="129.0" width="690.7" height="5" fill="#B07AA1"/><circle cx="840.7" cy="131.5" r="2.3" fill="#B07AA1" stroke="#222" stroke-width="0.6"/><text x="144" y="159.5" text-anchor="end" font-size="9" fill="#444">core-11694</text><rect x="150" y="142.0" width="363.5" height="5" fill="#4C78A8"/><circle cx="513.5" cy="144.5" r="2.3" fill="#4C78A8" stroke="#222" stroke-width="0.6"/><rect x="150" y="148.0" width="266.3" height="5" fill="#E45756"/><circle cx="416.3" cy="150.5" r="2.3" fill="#E45756" stroke="#222" stroke-width="0.6"/><rect x="150" y="154.0" width="59.1" height="5" fill="#54A24B"/><circle cx="209.1" cy="156.5" r="2.3" fill="#54A24B" stroke="#222" stroke-width="0.6"/><rect x="150" y="160.0" width="436.6" height="5" fill="#B07AA1"/><circle cx="586.6" cy="162.5" r="2.3" fill="#B07AA1" stroke="#222" stroke-width="0.6"/><text x="144" y="190.5" text-anchor="end" font-size="9" fill="#444">grpc-go-3351</text><rect x="150" y="173.0" width="199.3" height="5" fill="#4C78A8"/><circle cx="349.3" cy="175.5" r="2.3" fill="#4C78A8" stroke="#222" stroke-width="0.6"/><rect x="150" y="179.0" width="191.7" height="5" fill="#E45756"/><circle cx="341.7" cy="181.5" r="2.3" fill="#E45756" stroke="#222" stroke-width="0.6"/><rect x="150" y="185.0" width="157.3" height="5" fill="#54A24B"/><circle cx="307.3" cy="187.5" r="2.3" fill="#54A24B" stroke="#222" stroke-width="0.6"/><rect x="150" y="191.0" width="196.9" height="5" fill="#B07AA1"/><circle cx="346.9" cy="193.5" r="2.3" fill="#B07AA1" stroke="#222" stroke-width="0.6"/><text x="144" y="221.5" text-anchor="end" font-size="9" fill="#444">grpc-go-3258</text><rect x="150" y="204.0" width="195.6" height="5" fill="#4C78A8"/><circle cx="345.6" cy="206.5" r="2.3" fill="#4C78A8" stroke="#222" stroke-width="0.6"/><rect x="150" y="210.0" width="309.1" height="5" fill="#E45756"/><circle cx="459.1" cy="212.5" r="2.3" fill="#E45756" stroke="#222" stroke-width="0.6"/><rect x="150" y="216.0" width="170.7" height="5" fill="#54A24B"/><circle cx="320.7" cy="218.5" r="2.3" fill="#54A24B" stroke="#222" stroke-width="0.6"/><rect x="150" y="222.0" width="344.9" height="5" fill="#B07AA1"/><circle cx="494.9" cy="224.5" r="2.3" fill="#B07AA1" stroke="#222" stroke-width="0.6"/><text x="144" y="252.5" text-anchor="end" font-size="9" fill="#444">fd-1394</text><rect x="150" y="235.0" width="190.8" height="5" fill="#4C78A8"/><circle cx="340.8" cy="237.5" r="2.3" fill="#4C78A8" stroke="#222" stroke-width="0.6"/><rect x="150" y="241.0" width="183.7" height="5" fill="#E45756"/><circle cx="333.7" cy="243.5" r="2.3" fill="#E45756" stroke="#222" stroke-width="0.6"/><rect x="150" y="247.0" width="34.4" height="5" fill="#54A24B"/><circle cx="184.4" cy="249.5" r="2.3" fill="#54A24B" stroke="#222" stroke-width="0.6"/><rect x="150" y="253.0" width="105.1" height="5" fill="#B07AA1"/><circle cx="255.1" cy="255.5" r="2.3" fill="#B07AA1" stroke="#222" stroke-width="0.6"/><text x="144" y="283.5" text-anchor="end" font-size="9" fill="#444">clap-5873</text><rect x="150" y="266.0" width="187.9" height="5" fill="#4C78A8"/><circle cx="337.9" cy="268.5" r="2.3" fill="#4C78A8" stroke="#222" stroke-width="0.6"/><rect x="150" y="272.0" width="222.4" height="5" fill="#E45756"/><circle cx="372.4" cy="274.5" r="2.3" fill="#E45756" stroke="#222" stroke-width="0.6"/><rect x="150" y="278.0" width="183.3" height="5" fill="#54A24B"/><circle cx="333.3" cy="280.5" r="2.3" fill="#54A24B" stroke="#222" stroke-width="0.6"/><rect x="150" y="284.0" width="304.9" height="5" fill="#B07AA1"/><circle cx="454.9" cy="286.5" r="2.3" fill="#B07AA1" stroke="#222" stroke-width="0.6"/><text x="144" y="314.5" text-anchor="end" font-size="9" fill="#444">core-11761</text><rect x="150" y="297.0" width="183.3" height="5" fill="#4C78A8"/><circle cx="333.3" cy="299.5" r="2.3" fill="#4C78A8" stroke="#222" stroke-width="0.6"/><rect x="150" y="303.0" width="203.4" height="5" fill="#E45756"/><circle cx="353.4" cy="305.5" r="2.3" fill="#E45756" stroke="#222" stroke-width="0.6"/><rect x="150" y="309.0" width="149.4" height="5" fill="#54A24B"/><circle cx="299.4" cy="311.5" r="2.3" fill="#54A24B" stroke="#222" stroke-width="0.6"/><rect x="150" y="315.0" width="263.7" height="5" fill="#B07AA1"/><circle cx="413.7" cy="317.5" r="2.3" fill="#B07AA1" stroke="#222" stroke-width="0.6"/><text x="144" y="345.5" text-anchor="end" font-size="9" fill="#444">jq-3238</text><rect x="150" y="328.0" width="180.9" height="5" fill="#4C78A8"/><circle cx="330.9" cy="330.5" r="2.3" fill="#4C78A8" stroke="#222" stroke-width="0.6"/><rect x="150" y="334.0" width="202.8" height="5" fill="#E45756"/><circle cx="352.8" cy="336.5" r="2.3" fill="#E45756" stroke="#222" stroke-width="0.6"/><rect x="150" y="340.0" width="357.0" height="5" fill="#54A24B"/><circle cx="507.0" cy="342.5" r="2.3" fill="#54A24B" stroke="#222" stroke-width="0.6"/><text x="144" y="376.5" text-anchor="end" font-size="9" fill="#444">tracing-2897</text><rect x="150" y="359.0" width="176.4" height="5" fill="#4C78A8"/><circle cx="326.4" cy="361.5" r="2.3" fill="#4C78A8" stroke="#222" stroke-width="0.6"/><rect x="150" y="365.0" width="224.4" height="5" fill="#E45756"/><circle cx="374.4" cy="367.5" r="2.3" fill="#E45756" stroke="#222" stroke-width="0.6"/><rect x="150" y="371.0" width="109.1" height="5" fill="#54A24B"/><circle cx="259.1" cy="373.5" r="2.3" fill="#54A24B" stroke="#222" stroke-width="0.6"/><rect x="150" y="377.0" width="329.4" height="5" fill="#B07AA1"/><circle cx="479.4" cy="379.5" r="2.3" fill="#B07AA1" stroke="#222" stroke-width="0.6"/><text x="144" y="407.5" text-anchor="end" font-size="9" fill="#444">dayjs-2532</text><rect x="150" y="390.0" width="161.6" height="5" fill="#4C78A8"/><circle cx="311.6" cy="392.5" r="2.3" fill="#4C78A8" stroke="#222" stroke-width="0.6"/><rect x="150" y="396.0" width="331.9" height="5" fill="#E45756"/><circle cx="481.9" cy="398.5" r="2.3" fill="#E45756" stroke="#222" stroke-width="0.6"/><rect x="150" y="402.0" width="166.1" height="5" fill="#54A24B"/><circle cx="316.1" cy="404.5" r="2.3" fill="#54A24B" stroke="#222" stroke-width="0.6"/><rect x="150" y="408.0" width="415.1" height="5" fill="#B07AA1"/><circle cx="565.1" cy="410.5" r="2.3" fill="#B07AA1" stroke="#222" stroke-width="0.6"/><text x="144" y="438.5" text-anchor="end" font-size="9" fill="#444">bytes-732</text><rect x="150" y="421.0" width="144.4" height="5" fill="#4C78A8"/><circle cx="294.4" cy="423.5" r="2.3" fill="#4C78A8" stroke="#222" stroke-width="0.6"/><rect x="150" y="427.0" width="154.2" height="5" fill="#E45756"/><circle cx="304.2" cy="429.5" r="2.3" fill="#E45756" stroke="#222" stroke-width="0.6"/><rect x="150" y="433.0" width="117.8" height="5" fill="#54A24B"/><circle cx="267.8" cy="435.5" r="2.3" fill="#54A24B" stroke="#222" stroke-width="0.6"/><rect x="150" y="439.0" width="123.8" height="5" fill="#B07AA1"/><circle cx="273.8" cy="441.5" r="2.3" fill="#B07AA1" stroke="#222" stroke-width="0.6"/><text x="144" y="469.5" text-anchor="end" font-size="9" fill="#444">github-readme-stats-2844</text><rect x="150" y="452.0" width="128.7" height="5" fill="#4C78A8"/><circle cx="278.7" cy="454.5" r="2.3" fill="#4C78A8" stroke="#222" stroke-width="0.6"/><rect x="150" y="458.0" width="194.8" height="5" fill="#E45756"/><circle cx="344.8" cy="460.5" r="2.3" fill="#E45756" stroke="#222" stroke-width="0.6"/><rect x="150" y="464.0" width="112.2" height="5" fill="#54A24B"/><circle cx="262.2" cy="466.5" r="2.3" fill="#54A24B" stroke="#222" stroke-width="0.6"/><text x="144" y="500.5" text-anchor="end" font-size="9" fill="#444">core-11680</text><rect x="150" y="483.0" width="128.4" height="5" fill="#4C78A8"/><circle cx="278.4" cy="485.5" r="2.3" fill="#4C78A8" stroke="#222" stroke-width="0.6"/><rect x="150" y="489.0" width="153.7" height="5" fill="#E45756"/><circle cx="303.7" cy="491.5" r="2.3" fill="#E45756" stroke="#222" stroke-width="0.6"/><rect x="150" y="495.0" width="133.5" height="5" fill="#54A24B"/><circle cx="283.5" cy="497.5" r="2.3" fill="#54A24B" stroke="#222" stroke-width="0.6"/><rect x="150" y="501.0" width="244.2" height="5" fill="#B07AA1"/><circle cx="394.2" cy="503.5" r="2.3" fill="#B07AA1" stroke="#222" stroke-width="0.6"/><text x="144" y="531.5" text-anchor="end" font-size="9" fill="#444">jq-2919</text><rect x="150" y="514.0" width="127.2" height="5" fill="#4C78A8"/><circle cx="277.2" cy="516.5" r="2.3" fill="#4C78A8" stroke="#222" stroke-width="0.6"/><rect x="150" y="520.0" width="229.2" height="5" fill="#E45756"/><circle cx="379.2" cy="522.5" r="2.3" fill="#E45756" stroke="#222" stroke-width="0.6"/><rect x="150" y="526.0" width="135.7" height="5" fill="#54A24B"/><circle cx="285.7" cy="528.5" r="2.3" fill="#54A24B" stroke="#222" stroke-width="0.6"/><rect x="150" y="532.0" width="328.9" height="5" fill="#B07AA1"/><circle cx="478.9" cy="534.5" r="2.3" fill="#B07AA1" stroke="#222" stroke-width="0.6"/><text x="144" y="562.5" text-anchor="end" font-size="9" fill="#444">core-11813</text><rect x="150" y="545.0" width="90.3" height="5" fill="#4C78A8"/><circle cx="240.3" cy="547.5" r="2.3" fill="#4C78A8" stroke="#222" stroke-width="0.6"/><rect x="150" y="551.0" width="104.9" height="5" fill="#E45756"/><circle cx="254.9" cy="553.5" r="2.3" fill="#E45756" stroke="#222" stroke-width="0.6"/><rect x="150" y="557.0" width="45.1" height="5" fill="#54A24B"/><circle cx="195.1" cy="559.5" r="2.3" fill="#54A24B" stroke="#222" stroke-width="0.6"/><rect x="150" y="563.0" width="98.9" height="5" fill="#B07AA1"/><circle cx="248.9" cy="565.5" r="2.3" fill="#B07AA1" stroke="#222" stroke-width="0.6"/><text x="144" y="593.5" text-anchor="end" font-size="9" fill="#444">zstd-3942</text><rect x="150" y="576.0" width="89.0" height="5" fill="#4C78A8"/><circle cx="239.0" cy="578.5" r="2.3" fill="#4C78A8" stroke="#222" stroke-width="0.6"/><rect x="150" y="582.0" width="97.1" height="5" fill="#E45756"/><circle cx="247.1" cy="584.5" r="2.3" fill="#E45756" stroke="#222" stroke-width="0.6"/><rect x="150" y="588.0" width="78.8" height="5" fill="#54A24B"/><circle cx="228.8" cy="590.5" r="2.3" fill="#54A24B" stroke="#222" stroke-width="0.6"/><rect x="150" y="594.0" width="213.1" height="5" fill="#B07AA1"/><circle cx="363.1" cy="596.5" r="2.3" fill="#B07AA1" stroke="#222" stroke-width="0.6"/><text x="144" y="624.5" text-anchor="end" font-size="9" fill="#444">bat-3189</text><rect x="150" y="607.0" width="86.3" height="5" fill="#4C78A8"/><circle cx="236.3" cy="609.5" r="2.3" fill="#4C78A8" stroke="#222" stroke-width="0.6"/><rect x="150" y="613.0" width="89.5" height="5" fill="#E45756"/><circle cx="239.5" cy="615.5" r="2.3" fill="#E45756" stroke="#222" stroke-width="0.6"/><rect x="150" y="619.0" width="33.9" height="5" fill="#54A24B"/><circle cx="183.9" cy="621.5" r="2.3" fill="#54A24B" stroke="#222" stroke-width="0.6"/><rect x="150" y="625.0" width="204.5" height="5" fill="#B07AA1"/><circle cx="354.5" cy="627.5" r="2.3" fill="#B07AA1" stroke="#222" stroke-width="0.6"/><text x="144" y="655.5" text-anchor="end" font-size="9" fill="#444">go-zero-2787</text><rect x="150" y="638.0" width="85.9" height="5" fill="#4C78A8"/><circle cx="235.9" cy="640.5" r="2.3" fill="#4C78A8" stroke="#222" stroke-width="0.6"/><rect x="150" y="644.0" width="96.7" height="5" fill="#E45756"/><circle cx="246.7" cy="646.5" r="2.3" fill="#E45756" stroke="#222" stroke-width="0.6"/><rect x="150" y="650.0" width="18.8" height="5" fill="#54A24B"/><circle cx="168.8" cy="652.5" r="2.3" fill="#54A24B" stroke="#222" stroke-width="0.6"/><rect x="150" y="656.0" width="119.4" height="5" fill="#B07AA1"/><circle cx="269.4" cy="658.5" r="2.3" fill="#B07AA1" stroke="#222" stroke-width="0.6"/><text x="144" y="686.5" text-anchor="end" font-size="9" fill="#444">darkreader-7241</text><rect x="150" y="669.0" width="75.3" height="5" fill="#4C78A8"/><circle cx="225.3" cy="671.5" r="2.3" fill="#4C78A8" stroke="#222" stroke-width="0.6"/><rect x="150" y="675.0" width="198.5" height="5" fill="#E45756"/><circle cx="348.5" cy="677.5" r="2.3" fill="#E45756" stroke="#222" stroke-width="0.6"/><rect x="150" y="681.0" width="165.4" height="5" fill="#54A24B"/><circle cx="315.4" cy="683.5" r="2.3" fill="#54A24B" stroke="#222" stroke-width="0.6"/><rect x="150" y="687.0" width="179.0" height="5" fill="#B07AA1"/><circle cx="329.0" cy="689.5" r="2.3" fill="#B07AA1" stroke="#222" stroke-width="0.6"/><text x="144" y="717.5" text-anchor="end" font-size="9" fill="#444">rayon-986</text><rect x="150" y="700.0" width="49.7" height="5" fill="#4C78A8"/><circle cx="199.7" cy="702.5" r="2.3" fill="#4C78A8" stroke="#222" stroke-width="0.6"/><rect x="150" y="706.0" width="78.2" height="5" fill="#E45756"/><circle cx="228.2" cy="708.5" r="2.3" fill="#E45756" stroke="#222" stroke-width="0.6"/><rect x="150" y="712.0" width="65.5" height="5" fill="#54A24B"/><circle cx="215.5" cy="714.5" r="2.3" fill="#54A24B" stroke="#222" stroke-width="0.6"/><rect x="150" y="718.0" width="119.6" height="5" fill="#B07AA1"/><circle cx="269.6" cy="720.5" r="2.3" fill="#B07AA1" stroke="#222" stroke-width="0.6"/><text x="144" y="748.5" text-anchor="end" font-size="9" fill="#444">express-5555</text><rect x="150" y="731.0" width="46.8" height="5" fill="#4C78A8"/><circle cx="196.8" cy="733.5" r="2.3" fill="#4C78A8" stroke="#222" stroke-width="0.6"/><rect x="150" y="737.0" width="108.6" height="5" fill="#E45756"/><circle cx="258.6" cy="739.5" r="2.3" fill="#E45756" stroke="#222" stroke-width="0.6"/><rect x="150" y="743.0" width="41.4" height="5" fill="#54A24B"/><circle cx="191.4" cy="745.5" r="2.3" fill="#54A24B" stroke="#222" stroke-width="0.6"/><rect x="150" y="749.0" width="113.4" height="5" fill="#B07AA1"/><circle cx="263.4" cy="751.5" r="2.3" fill="#B07AA1" stroke="#222" stroke-width="0.6"/></svg>
