<svg xmlns="http://www.w3.org/2000/svg" width="860" height="696" viewBox="0 0 860 696" font-family="system-ui,Segoe UI,Helvetica,Arial,sans-serif">
<rect width="860" height="696" fill="#ffffff"/>
<text x="430" y="24" text-anchor="middle" font-size="16" font-weight="600" fill="#111">Per-benchmark cost on classic's wins</text>
<text x="430" y="42" text-anchor="middle" font-size="11" fill="#666">the 24 benchmarks classic resolved; bar = total $ for that benchmark, dot = each seed (only arms that solved it)</text><rect x="150" y="53" width="12" height="12" fill="#4C78A8"/><text x="167" y="63" font-size="11" fill="#333">classic (total $21.83)</text><rect x="310.2" y="53" width="12" height="12" fill="#E45756"/><text x="327.2" y="63" font-size="11" fill="#333">classic-graphify (total $26.66)</text><rect x="525.3" y="53" width="12" height="12" fill="#54A24B"/><text x="542.3" y="63" font-size="11" fill="#333">classic-graph-bash (total $17.11)</text><line x1="150.0" y1="74" x2="150.0" y2="682" stroke="#eee"/><text x="150.0" y="70" text-anchor="middle" font-size="10" fill="#999">$0.0</text><line x1="265.3" y1="74" x2="265.3" y2="682" stroke="#eee"/><text x="265.3" y="70" text-anchor="middle" font-size="10" fill="#999">$0.5</text><line x1="380.7" y1="74" x2="380.7" y2="682" stroke="#eee"/><text x="380.7" y="70" text-anchor="middle" font-size="10" fill="#999">$0.9</text><line x1="496.0" y1="74" x2="496.0" y2="682" stroke="#eee"/><text x="496.0" y="70" text-anchor="middle" font-size="10" fill="#999">$1.4</text><line x1="611.3" y1="74" x2="611.3" y2="682" stroke="#eee"/><text x="611.3" y="70" text-anchor="middle" font-size="10" fill="#999">$1.9</text><line x1="726.7" y1="74" x2="726.7" y2="682" stroke="#eee"/><text x="726.7" y="70" text-anchor="middle" font-size="10" fill="#999">$2.3</text><line x1="842.0" y1="74" x2="842.0" y2="682" stroke="#eee"/><text x="842.0" y="70" text-anchor="middle" font-size="10" fill="#999">$2.8</text><text x="144" y="94.5" text-anchor="end" font-size="9" fill="#444">zstd-3438</text><rect x="150" y="80.0" width="571.4" height="5" fill="#4C78A8"/><circle cx="371.9" cy="82.5" r="2.3" fill="#4C78A8" stroke="#222" stroke-width="0.6"/><circle cx="499.5" cy="82.5" r="2.3" fill="#4C78A8" stroke="#222" stroke-width="0.6"/><rect x="150" y="86.0" width="616.3" height="5" fill="#E45756"/><circle cx="568.2" cy="88.5" r="2.3" fill="#E45756" stroke="#222" stroke-width="0.6"/><circle cx="348.1" cy="88.5" r="2.3" fill="#E45756" stroke="#222" stroke-width="0.6"/><rect x="150" y="92.0" width="241.3" height="5" fill="#54A24B"/><circle cx="304.9" cy="94.5" r="2.3" fill="#54A24B" stroke="#222" stroke-width="0.6"/><circle cx="236.5" cy="94.5" r="2.3" fill="#54A24B" stroke="#222" stroke-width="0.6"/><text x="144" y="119.5" text-anchor="end" font-size="9" fill="#444">dayjs-2399</text><rect x="150" y="105.0" width="389.2" height="5" fill="#4C78A8"/><circle cx="407.1" cy="107.5" r="2.3" fill="#4C78A8" stroke="#222" stroke-width="0.6"/><circle cx="282.0" cy="107.5" r="2.3" fill="#4C78A8" stroke="#222" stroke-width="0.6"/><rect x="150" y="111.0" width="530.8" height="5" fill="#E45756"/><circle cx="455.9" cy="113.5" r="2.3" fill="#E45756" stroke="#222" stroke-width="0.6"/><circle cx="374.9" cy="113.5" r="2.3" fill="#E45756" stroke="#222" stroke-width="0.6"/><rect x="150" y="117.0" width="304.3" height="5" fill="#54A24B"/><circle cx="251.5" cy="119.5" r="2.3" fill="#54A24B" stroke="#222" stroke-width="0.6"/><circle cx="352.8" cy="119.5" r="2.3" fill="#54A24B" stroke="#222" stroke-width="0.6"/><text x="144" y="144.5" text-anchor="end" font-size="9" fill="#444">simdjson-2178</text><rect x="150" y="130.0" width="373.9" height="5" fill="#4C78A8"/><circle cx="328.7" cy="132.5" r="2.3" fill="#4C78A8" stroke="#222" stroke-width="0.6"/><circle cx="345.1" cy="132.5" r="2.3" fill="#4C78A8" stroke="#222" stroke-width="0.6"/><rect x="150" y="136.0" width="687.3" height="5" fill="#E45756"/><circle cx="415.6" cy="138.5" r="2.3" fill="#E45756" stroke="#222" stroke-width="0.6"/><circle cx="571.6" cy="138.5" r="2.3" fill="#E45756" stroke="#222" stroke-width="0.6"/><rect x="150" y="142.0" width="487.2" height="5" fill="#54A24B"/><circle cx="294.1" cy="144.5" r="2.3" fill="#54A24B" stroke="#222" stroke-width="0.6"/><circle cx="493.2" cy="144.5" r="2.3" fill="#54A24B" stroke="#222" stroke-width="0.6"/><text x="144" y="169.5" text-anchor="end" font-size="9" fill="#444">logstash-17021</text><rect x="150" y="155.0" width="346.0" height="5" fill="#4C78A8"/><circle cx="275.6" cy="157.5" r="2.3" fill="#4C78A8" stroke="#222" stroke-width="0.6"/><circle cx="370.4" cy="157.5" r="2.3" fill="#4C78A8" stroke="#222" stroke-width="0.6"/><rect x="150" y="161.0" width="412.5" height="5" fill="#E45756"/><circle cx="339.9" cy="163.5" r="2.3" fill="#E45756" stroke="#222" stroke-width="0.6"/><circle cx="372.6" cy="163.5" r="2.3" fill="#E45756" stroke="#222" stroke-width="0.6"/><text x="144" y="194.5" text-anchor="end" font-size="9" fill="#444">dayjs-2532</text><rect x="150" y="180.0" width="344.8" height="5" fill="#4C78A8"/><circle cx="248.1" cy="182.5" r="2.3" fill="#4C78A8" stroke="#222" stroke-width="0.6"/><circle cx="396.7" cy="182.5" r="2.3" fill="#4C78A8" stroke="#222" stroke-width="0.6"/><rect x="150" y="186.0" width="345.6" height="5" fill="#E45756"/><circle cx="351.5" cy="188.5" r="2.3" fill="#E45756" stroke="#222" stroke-width="0.6"/><circle cx="294.1" cy="188.5" r="2.3" fill="#E45756" stroke="#222" stroke-width="0.6"/><rect x="150" y="192.0" width="225.5" height="5" fill="#54A24B"/><circle cx="250.8" cy="194.5" r="2.3" fill="#54A24B" stroke="#222" stroke-width="0.6"/><circle cx="274.7" cy="194.5" r="2.3" fill="#54A24B" stroke="#222" stroke-width="0.6"/><text x="144" y="219.5" text-anchor="end" font-size="9" fill="#444">core-11694</text><rect x="150" y="205.0" width="335.2" height="5" fill="#4C78A8"/><circle cx="370.7" cy="207.5" r="2.3" fill="#4C78A8" stroke="#222" stroke-width="0.6"/><circle cx="264.5" cy="207.5" r="2.3" fill="#4C78A8" stroke="#222" stroke-width="0.6"/><rect x="150" y="211.0" width="410.4" height="5" fill="#E45756"/><circle cx="311.7" cy="213.5" r="2.3" fill="#E45756" stroke="#222" stroke-width="0.6"/><circle cx="398.7" cy="213.5" r="2.3" fill="#E45756" stroke="#222" stroke-width="0.6"/><rect x="150" y="217.0" width="133.7" height="5" fill="#54A24B"/><circle cx="185.9" cy="219.5" r="2.3" fill="#54A24B" stroke="#222" stroke-width="0.6"/><circle cx="247.8" cy="219.5" r="2.3" fill="#54A24B" stroke="#222" stroke-width="0.6"/><text x="144" y="244.5" text-anchor="end" font-size="9" fill="#444">grpc-go-3258</text><rect x="150" y="230.0" width="271.7" height="5" fill="#4C78A8"/><circle cx="268.7" cy="232.5" r="2.3" fill="#4C78A8" stroke="#222" stroke-width="0.6"/><circle cx="303.0" cy="232.5" r="2.3" fill="#4C78A8" stroke="#222" stroke-width="0.6"/><rect x="150" y="236.0" width="395.9" height="5" fill="#E45756"/><circle cx="337.7" cy="238.5" r="2.3" fill="#E45756" stroke="#222" stroke-width="0.6"/><circle cx="358.2" cy="238.5" r="2.3" fill="#E45756" stroke="#222" stroke-width="0.6"/><rect x="150" y="242.0" width="280.5" height="5" fill="#54A24B"/><circle cx="253.6" cy="244.5" r="2.3" fill="#54A24B" stroke="#222" stroke-width="0.6"/><circle cx="326.9" cy="244.5" r="2.3" fill="#54A24B" stroke="#222" stroke-width="0.6"/><text x="144" y="269.5" text-anchor="end" font-size="9" fill="#444">jq-3238</text><rect x="150" y="255.0" width="254.0" height="5" fill="#4C78A8"/><circle cx="259.8" cy="257.5" r="2.3" fill="#4C78A8" stroke="#222" stroke-width="0.6"/><circle cx="294.2" cy="257.5" r="2.3" fill="#4C78A8" stroke="#222" stroke-width="0.6"/><rect x="150" y="261.0" width="276.1" height="5" fill="#E45756"/><circle cx="273.1" cy="263.5" r="2.3" fill="#E45756" stroke="#222" stroke-width="0.6"/><circle cx="303.0" cy="263.5" r="2.3" fill="#E45756" stroke="#222" stroke-width="0.6"/><rect x="150" y="267.0" width="339.0" height="5" fill="#54A24B"/><circle cx="366.7" cy="269.5" r="2.3" fill="#54A24B" stroke="#222" stroke-width="0.6"/><circle cx="272.3" cy="269.5" r="2.3" fill="#54A24B" stroke="#222" stroke-width="0.6"/><text x="144" y="294.5" text-anchor="end" font-size="9" fill="#444">tracing-2897</text><rect x="150" y="280.0" width="242.1" height="5" fill="#4C78A8"/><circle cx="257.1" cy="282.5" r="2.3" fill="#4C78A8" stroke="#222" stroke-width="0.6"/><circle cx="285.0" cy="282.5" r="2.3" fill="#4C78A8" stroke="#222" stroke-width="0.6"/><rect x="150" y="286.0" width="296.3" height="5" fill="#E45756"/><circle cx="286.2" cy="288.5" r="2.3" fill="#E45756" stroke="#222" stroke-width="0.6"/><circle cx="310.0" cy="288.5" r="2.3" fill="#E45756" stroke="#222" stroke-width="0.6"/><rect x="150" y="292.0" width="176.5" height="5" fill="#54A24B"/><circle cx="216.2" cy="294.5" r="2.3" fill="#54A24B" stroke="#222" stroke-width="0.6"/><circle cx="260.3" cy="294.5" r="2.3" fill="#54A24B" stroke="#222" stroke-width="0.6"/><text x="144" y="319.5" text-anchor="end" font-size="9" fill="#444">core-11761</text><rect x="150" y="305.0" width="240.4" height="5" fill="#4C78A8"/><circle cx="261.3" cy="307.5" r="2.3" fill="#4C78A8" stroke="#222" stroke-width="0.6"/><circle cx="279.1" cy="307.5" r="2.3" fill="#4C78A8" stroke="#222" stroke-width="0.6"/><rect x="150" y="311.0" width="263.9" height="5" fill="#E45756"/><circle cx="273.5" cy="313.5" r="2.3" fill="#E45756" stroke="#222" stroke-width="0.6"/><circle cx="290.4" cy="313.5" r="2.3" fill="#E45756" stroke="#222" stroke-width="0.6"/><rect x="150" y="317.0" width="145.9" height="5" fill="#54A24B"/><circle cx="240.7" cy="319.5" r="2.3" fill="#54A24B" stroke="#222" stroke-width="0.6"/><circle cx="205.2" cy="319.5" r="2.3" fill="#54A24B" stroke="#222" stroke-width="0.6"/><text x="144" y="344.5" text-anchor="end" font-size="9" fill="#444">grpc-go-3351</text><rect x="150" y="330.0" width="222.7" height="5" fill="#4C78A8"/><circle cx="271.0" cy="332.5" r="2.3" fill="#4C78A8" stroke="#222" stroke-width="0.6"/><circle cx="251.6" cy="332.5" r="2.3" fill="#4C78A8" stroke="#222" stroke-width="0.6"/><rect x="150" y="336.0" width="217.8" height="5" fill="#E45756"/><circle cx="266.4" cy="338.5" r="2.3" fill="#E45756" stroke="#222" stroke-width="0.6"/><circle cx="251.4" cy="338.5" r="2.3" fill="#E45756" stroke="#222" stroke-width="0.6"/><rect x="150" y="342.0" width="198.6" height="5" fill="#54A24B"/><circle cx="245.5" cy="344.5" r="2.3" fill="#54A24B" stroke="#222" stroke-width="0.6"/><circle cx="253.1" cy="344.5" r="2.3" fill="#54A24B" stroke="#222" stroke-width="0.6"/><text x="144" y="369.5" text-anchor="end" font-size="9" fill="#444">clap-5873</text><rect x="150" y="355.0" width="213.8" height="5" fill="#4C78A8"/><circle cx="264.1" cy="357.5" r="2.3" fill="#4C78A8" stroke="#222" stroke-width="0.6"/><circle cx="249.7" cy="357.5" r="2.3" fill="#4C78A8" stroke="#222" stroke-width="0.6"/><rect x="150" y="361.0" width="277.8" height="5" fill="#E45756"/><circle cx="285.0" cy="363.5" r="2.3" fill="#E45756" stroke="#222" stroke-width="0.6"/><circle cx="292.7" cy="363.5" r="2.3" fill="#E45756" stroke="#222" stroke-width="0.6"/><rect x="150" y="367.0" width="197.4" height="5" fill="#54A24B"/><circle cx="261.3" cy="369.5" r="2.3" fill="#54A24B" stroke="#222" stroke-width="0.6"/><circle cx="236.1" cy="369.5" r="2.3" fill="#54A24B" stroke="#222" stroke-width="0.6"/><text x="144" y="394.5" text-anchor="end" font-size="9" fill="#444">core-11680</text><rect x="150" y="380.0" width="201.7" height="5" fill="#4C78A8"/><circle cx="227.9" cy="382.5" r="2.3" fill="#4C78A8" stroke="#222" stroke-width="0.6"/><circle cx="273.7" cy="382.5" r="2.3" fill="#4C78A8" stroke="#222" stroke-width="0.6"/><rect x="150" y="386.0" width="196.0" height="5" fill="#E45756"/><circle cx="243.3" cy="388.5" r="2.3" fill="#E45756" stroke="#222" stroke-width="0.6"/><circle cx="252.7" cy="388.5" r="2.3" fill="#E45756" stroke="#222" stroke-width="0.6"/><rect x="150" y="392.0" width="119.1" height="5" fill="#54A24B"/><circle cx="231.0" cy="394.5" r="2.3" fill="#54A24B" stroke="#222" stroke-width="0.6"/><circle cx="188.1" cy="394.5" r="2.3" fill="#54A24B" stroke="#222" stroke-width="0.6"/><text x="144" y="419.5" text-anchor="end" font-size="9" fill="#444">fd-1394</text><rect x="150" y="405.0" width="195.1" height="5" fill="#4C78A8"/><circle cx="265.8" cy="407.5" r="2.3" fill="#4C78A8" stroke="#222" stroke-width="0.6"/><circle cx="229.2" cy="407.5" r="2.3" fill="#4C78A8" stroke="#222" stroke-width="0.6"/><rect x="150" y="411.0" width="185.9" height="5" fill="#E45756"/><circle cx="261.5" cy="413.5" r="2.3" fill="#E45756" stroke="#222" stroke-width="0.6"/><circle cx="224.3" cy="413.5" r="2.3" fill="#E45756" stroke="#222" stroke-width="0.6"/><rect x="150" y="417.0" width="62.1" height="5" fill="#54A24B"/><circle cx="170.9" cy="419.5" r="2.3" fill="#54A24B" stroke="#222" stroke-width="0.6"/><circle cx="191.2" cy="419.5" r="2.3" fill="#54A24B" stroke="#222" stroke-width="0.6"/><text x="144" y="444.5" text-anchor="end" font-size="9" fill="#444">github-readme-stats-2844</text><rect x="150" y="430.0" width="185.0" height="5" fill="#4C78A8"/><circle cx="228.1" cy="432.5" r="2.3" fill="#4C78A8" stroke="#222" stroke-width="0.6"/><circle cx="256.9" cy="432.5" r="2.3" fill="#4C78A8" stroke="#222" stroke-width="0.6"/><rect x="150" y="436.0" width="209.0" height="5" fill="#E45756"/><circle cx="268.3" cy="438.5" r="2.3" fill="#E45756" stroke="#222" stroke-width="0.6"/><circle cx="240.7" cy="438.5" r="2.3" fill="#E45756" stroke="#222" stroke-width="0.6"/><rect x="150" y="442.0" width="132.7" height="5" fill="#54A24B"/><circle cx="218.1" cy="444.5" r="2.3" fill="#54A24B" stroke="#222" stroke-width="0.6"/><circle cx="214.6" cy="444.5" r="2.3" fill="#54A24B" stroke="#222" stroke-width="0.6"/><text x="144" y="469.5" text-anchor="end" font-size="9" fill="#444">jq-2919</text><rect x="150" y="455.0" width="131.3" height="5" fill="#4C78A8"/><circle cx="227.2" cy="457.5" r="2.3" fill="#4C78A8" stroke="#222" stroke-width="0.6"/><circle cx="204.1" cy="457.5" r="2.3" fill="#4C78A8" stroke="#222" stroke-width="0.6"/><rect x="150" y="461.0" width="232.8" height="5" fill="#E45756"/><circle cx="289.1" cy="463.5" r="2.3" fill="#E45756" stroke="#222" stroke-width="0.6"/><circle cx="243.7" cy="463.5" r="2.3" fill="#E45756" stroke="#222" stroke-width="0.6"/><rect x="150" y="467.0" width="171.9" height="5" fill="#54A24B"/><circle cx="232.4" cy="469.5" r="2.3" fill="#54A24B" stroke="#222" stroke-width="0.6"/><circle cx="239.5" cy="469.5" r="2.3" fill="#54A24B" stroke="#222" stroke-width="0.6"/><text x="144" y="494.5" text-anchor="end" font-size="9" fill="#444">zstd-3942</text><rect x="150" y="480.0" width="128.2" height="5" fill="#4C78A8"/><circle cx="204.1" cy="482.5" r="2.3" fill="#4C78A8" stroke="#222" stroke-width="0.6"/><circle cx="224.2" cy="482.5" r="2.3" fill="#4C78A8" stroke="#222" stroke-width="0.6"/><rect x="150" y="486.0" width="156.4" height="5" fill="#E45756"/><circle cx="209.0" cy="488.5" r="2.3" fill="#E45756" stroke="#222" stroke-width="0.6"/><circle cx="247.4" cy="488.5" r="2.3" fill="#E45756" stroke="#222" stroke-width="0.6"/><rect x="150" y="492.0" width="142.1" height="5" fill="#54A24B"/><circle cx="197.9" cy="494.5" r="2.3" fill="#54A24B" stroke="#222" stroke-width="0.6"/><circle cx="244.3" cy="494.5" r="2.3" fill="#54A24B" stroke="#222" stroke-width="0.6"/><text x="144" y="519.5" text-anchor="end" font-size="9" fill="#444">bytes-732</text><rect x="150" y="505.0" width="127.7" height="5" fill="#4C78A8"/><circle cx="237.7" cy="507.5" r="2.3" fill="#4C78A8" stroke="#222" stroke-width="0.6"/><circle cx="190.1" cy="507.5" r="2.3" fill="#4C78A8" stroke="#222" stroke-width="0.6"/><rect x="150" y="511.0" width="159.5" height="5" fill="#E45756"/><circle cx="243.6" cy="513.5" r="2.3" fill="#E45756" stroke="#222" stroke-width="0.6"/><circle cx="215.9" cy="513.5" r="2.3" fill="#E45756" stroke="#222" stroke-width="0.6"/><rect x="150" y="517.0" width="109.8" height="5" fill="#54A24B"/><circle cx="221.5" cy="519.5" r="2.3" fill="#54A24B" stroke="#222" stroke-width="0.6"/><circle cx="188.3" cy="519.5" r="2.3" fill="#54A24B" stroke="#222" stroke-width="0.6"/><text x="144" y="544.5" text-anchor="end" font-size="9" fill="#444">core-11813</text><rect x="150" y="530.0" width="127.3" height="5" fill="#4C78A8"/><circle cx="204.8" cy="532.5" r="2.3" fill="#4C78A8" stroke="#222" stroke-width="0.6"/><circle cx="222.5" cy="532.5" r="2.3" fill="#4C78A8" stroke="#222" stroke-width="0.6"/><rect x="150" y="536.0" width="107.0" height="5" fill="#E45756"/><circle cx="213.7" cy="538.5" r="2.3" fill="#E45756" stroke="#222" stroke-width="0.6"/><circle cx="193.3" cy="538.5" r="2.3" fill="#E45756" stroke="#222" stroke-width="0.6"/><rect x="150" y="542.0" width="45.9" height="5" fill="#54A24B"/><circle cx="177.4" cy="544.5" r="2.3" fill="#54A24B" stroke="#222" stroke-width="0.6"/><circle cx="168.5" cy="544.5" r="2.3" fill="#54A24B" stroke="#222" stroke-width="0.6"/><text x="144" y="569.5" text-anchor="end" font-size="9" fill="#444">bat-3189</text><rect x="150" y="555.0" width="127.2" height="5" fill="#4C78A8"/><circle cx="202.4" cy="557.5" r="2.3" fill="#4C78A8" stroke="#222" stroke-width="0.6"/><circle cx="224.9" cy="557.5" r="2.3" fill="#4C78A8" stroke="#222" stroke-width="0.6"/><rect x="150" y="561.0" width="97.3" height="5" fill="#E45756"/><circle cx="204.3" cy="563.5" r="2.3" fill="#E45756" stroke="#222" stroke-width="0.6"/><circle cx="192.9" cy="563.5" r="2.3" fill="#E45756" stroke="#222" stroke-width="0.6"/><rect x="150" y="567.0" width="106.2" height="5" fill="#54A24B"/><circle cx="170.6" cy="569.5" r="2.3" fill="#54A24B" stroke="#222" stroke-width="0.6"/><circle cx="235.7" cy="569.5" r="2.3" fill="#54A24B" stroke="#222" stroke-width="0.6"/><text x="144" y="594.5" text-anchor="end" font-size="9" fill="#444">go-zero-2787</text><rect x="150" y="580.0" width="115.3" height="5" fill="#4C78A8"/><circle cx="202.1" cy="582.5" r="2.3" fill="#4C78A8" stroke="#222" stroke-width="0.6"/><circle cx="213.2" cy="582.5" r="2.3" fill="#4C78A8" stroke="#222" stroke-width="0.6"/><rect x="150" y="586.0" width="109.1" height="5" fill="#E45756"/><circle cx="208.7" cy="588.5" r="2.3" fill="#E45756" stroke="#222" stroke-width="0.6"/><circle cx="200.4" cy="588.5" r="2.3" fill="#E45756" stroke="#222" stroke-width="0.6"/><rect x="150" y="592.0" width="60.6" height="5" fill="#54A24B"/><circle cx="161.4" cy="594.5" r="2.3" fill="#54A24B" stroke="#222" stroke-width="0.6"/><circle cx="199.2" cy="594.5" r="2.3" fill="#54A24B" stroke="#222" stroke-width="0.6"/><text x="144" y="619.5" text-anchor="end" font-size="9" fill="#444">darkreader-7241</text><rect x="150" y="605.0" width="106.4" height="5" fill="#4C78A8"/><circle cx="195.7" cy="607.5" r="2.3" fill="#4C78A8" stroke="#222" stroke-width="0.6"/><circle cx="210.7" cy="607.5" r="2.3" fill="#4C78A8" stroke="#222" stroke-width="0.6"/><rect x="150" y="611.0" width="197.1" height="5" fill="#E45756"/><circle cx="270.5" cy="613.5" r="2.3" fill="#E45756" stroke="#222" stroke-width="0.6"/><circle cx="226.6" cy="613.5" r="2.3" fill="#E45756" stroke="#222" stroke-width="0.6"/><rect x="150" y="617.0" width="139.4" height="5" fill="#54A24B"/><circle cx="250.4" cy="619.5" r="2.3" fill="#54A24B" stroke="#222" stroke-width="0.6"/><circle cx="189.0" cy="619.5" r="2.3" fill="#54A24B" stroke="#222" stroke-width="0.6"/><text x="144" y="644.5" text-anchor="end" font-size="9" fill="#444">express-5555</text><rect x="150" y="630.0" width="78.5" height="5" fill="#4C78A8"/><circle cx="178.4" cy="632.5" r="2.3" fill="#4C78A8" stroke="#222" stroke-width="0.6"/><circle cx="200.1" cy="632.5" r="2.3" fill="#4C78A8" stroke="#222" stroke-width="0.6"/><rect x="150" y="636.0" width="109.0" height="5" fill="#E45756"/><circle cx="215.9" cy="638.5" r="2.3" fill="#E45756" stroke="#222" stroke-width="0.6"/><circle cx="193.1" cy="638.5" r="2.3" fill="#E45756" stroke="#222" stroke-width="0.6"/><rect x="150" y="642.0" width="39.6" height="5" fill="#54A24B"/><circle cx="175.1" cy="644.5" r="2.3" fill="#54A24B" stroke="#222" stroke-width="0.6"/><circle cx="164.5" cy="644.5" r="2.3" fill="#54A24B" stroke="#222" stroke-width="0.6"/><text x="144" y="669.5" text-anchor="end" font-size="9" fill="#444">rayon-986</text><rect x="150" y="655.0" width="65.5" height="5" fill="#4C78A8"/><circle cx="180.2" cy="657.5" r="2.3" fill="#4C78A8" stroke="#222" stroke-width="0.6"/><circle cx="185.3" cy="657.5" r="2.3" fill="#4C78A8" stroke="#222" stroke-width="0.6"/><rect x="150" y="661.0" width="98.6" height="5" fill="#E45756"/><circle cx="197.5" cy="663.5" r="2.3" fill="#E45756" stroke="#222" stroke-width="0.6"/><circle cx="201.1" cy="663.5" r="2.3" fill="#E45756" stroke="#222" stroke-width="0.6"/><rect x="150" y="667.0" width="65.3" height="5" fill="#54A24B"/><circle cx="189.7" cy="669.5" r="2.3" fill="#54A24B" stroke="#222" stroke-width="0.6"/><circle cx="175.6" cy="669.5" r="2.3" fill="#54A24B" stroke="#222" stroke-width="0.6"/></svg>
