<svg xmlns="http://www.w3.org/2000/svg" width="860" height="854" viewBox="0 0 860 854" font-family="system-ui,Segoe UI,Helvetica,Arial,sans-serif">
<rect width="860" height="854" fill="#ffffff"/>
<text x="430" y="24" text-anchor="middle" font-size="16" font-weight="600" fill="#111">Per-benchmark $ per run on classic's wins</text>
<text x="430" y="42" text-anchor="middle" font-size="11" fill="#666">the 24 benchmarks classic resolved; bar = median over seeds, dot = each seed run (only arms that solved it)</text><rect x="150" y="47" width="12" height="12" fill="#4C78A8"/><text x="167" y="57" font-size="11" fill="#333">classic — avg $0.45/run · total $10.91</text><rect x="500" y="47" width="12" height="12" fill="#E45756"/><text x="517" y="57" font-size="11" fill="#333">classic-graphify — avg $0.56/run · total $13.33</text><rect x="150" y="64" width="12" height="12" fill="#54A24B"/><text x="167" y="74" font-size="11" fill="#333">classic-graph-bash — avg $0.36/run · total $8.55</text><rect x="500" y="64" width="12" height="12" fill="#B07AA1"/><text x="517" y="74" font-size="11" fill="#333">codex — avg $0.78/run · total $18.63</text><line x1="150.0" y1="88" x2="150.0" y2="840" stroke="#eee"/><text x="150.0" y="84" text-anchor="middle" font-size="10" fill="#999">$0.0</text><line x1="288.4" y1="88" x2="288.4" y2="840" stroke="#eee"/><text x="288.4" y="84" text-anchor="middle" font-size="10" fill="#999">$0.5</text><line x1="426.8" y1="88" x2="426.8" y2="840" stroke="#eee"/><text x="426.8" y="84" text-anchor="middle" font-size="10" fill="#999">$1.1</text><line x1="565.2" y1="88" x2="565.2" y2="840" stroke="#eee"/><text x="565.2" y="84" text-anchor="middle" font-size="10" fill="#999">$1.6</text><line x1="703.6" y1="88" x2="703.6" y2="840" stroke="#eee"/><text x="703.6" y="84" text-anchor="middle" font-size="10" fill="#999">$2.2</text><line x1="842.0" y1="88" x2="842.0" y2="840" stroke="#eee"/><text x="842.0" y="84" text-anchor="middle" font-size="10" fill="#999">$2.7</text><text x="144" y="111.5" text-anchor="end" font-size="9" fill="#444">zstd-3438</text><rect x="150" y="94.0" width="296.3" height="5" fill="#4C78A8"/><circle cx="380.1" cy="96.5" r="2.3" fill="#4C78A8" stroke="#222" stroke-width="0.6"/><circle cx="512.4" cy="96.5" r="2.3" fill="#4C78A8" stroke="#222" stroke-width="0.6"/><rect x="150" y="100.0" width="319.6" height="5" fill="#E45756"/><circle cx="583.7" cy="102.5" r="2.3" fill="#E45756" stroke="#222" stroke-width="0.6"/><circle cx="355.4" cy="102.5" r="2.3" fill="#E45756" stroke="#222" stroke-width="0.6"/><rect x="150" y="106.0" width="125.1" height="5" fill="#54A24B"/><circle cx="310.6" cy="108.5" r="2.3" fill="#54A24B" stroke="#222" stroke-width="0.6"/><circle cx="239.7" cy="108.5" r="2.3" fill="#54A24B" stroke="#222" stroke-width="0.6"/><rect x="150" y="112.0" width="434.9" height="5" fill="#B07AA1"/><circle cx="584.9" cy="114.5" r="2.3" fill="#B07AA1" stroke="#222" stroke-width="0.6"/><text x="144" y="142.5" text-anchor="end" font-size="9" fill="#444">dayjs-2399</text><rect x="150" y="125.0" width="201.8" height="5" fill="#4C78A8"/><circle cx="416.6" cy="127.5" r="2.3" fill="#4C78A8" stroke="#222" stroke-width="0.6"/><circle cx="286.9" cy="127.5" r="2.3" fill="#4C78A8" stroke="#222" stroke-width="0.6"/><rect x="150" y="131.0" width="275.2" height="5" fill="#E45756"/><circle cx="467.2" cy="133.5" r="2.3" fill="#E45756" stroke="#222" stroke-width="0.6"/><circle cx="383.2" cy="133.5" r="2.3" fill="#E45756" stroke="#222" stroke-width="0.6"/><rect x="150" y="137.0" width="157.8" height="5" fill="#54A24B"/><circle cx="255.2" cy="139.5" r="2.3" fill="#54A24B" stroke="#222" stroke-width="0.6"/><circle cx="360.3" cy="139.5" r="2.3" fill="#54A24B" stroke="#222" stroke-width="0.6"/><rect x="150" y="143.0" width="280.2" height="5" fill="#B07AA1"/><circle cx="430.2" cy="145.5" r="2.3" fill="#B07AA1" stroke="#222" stroke-width="0.6"/><text x="144" y="173.5" text-anchor="end" font-size="9" fill="#444">simdjson-2178</text><rect x="150" y="156.0" width="193.8" height="5" fill="#4C78A8"/><circle cx="335.4" cy="158.5" r="2.3" fill="#4C78A8" stroke="#222" stroke-width="0.6"/><circle cx="352.3" cy="158.5" r="2.3" fill="#4C78A8" stroke="#222" stroke-width="0.6"/><rect x="150" y="162.0" width="356.4" height="5" fill="#E45756"/><circle cx="425.5" cy="164.5" r="2.3" fill="#E45756" stroke="#222" stroke-width="0.6"/><circle cx="587.2" cy="164.5" r="2.3" fill="#E45756" stroke="#222" stroke-width="0.6"/><rect x="150" y="168.0" width="252.6" height="5" fill="#54A24B"/><circle cx="299.4" cy="170.5" r="2.3" fill="#54A24B" stroke="#222" stroke-width="0.6"/><circle cx="505.9" cy="170.5" r="2.3" fill="#54A24B" stroke="#222" stroke-width="0.6"/><text x="144" y="204.5" text-anchor="end" font-size="9" fill="#444">logstash-17021</text><rect x="150" y="187.0" width="179.4" height="5" fill="#4C78A8"/><circle cx="280.2" cy="189.5" r="2.3" fill="#4C78A8" stroke="#222" stroke-width="0.6"/><circle cx="378.5" cy="189.5" r="2.3" fill="#4C78A8" stroke="#222" stroke-width="0.6"/><rect x="150" y="193.0" width="213.9" height="5" fill="#E45756"/><circle cx="346.9" cy="195.5" r="2.3" fill="#E45756" stroke="#222" stroke-width="0.6"/><circle cx="380.9" cy="195.5" r="2.3" fill="#E45756" stroke="#222" stroke-width="0.6"/><text x="144" y="235.5" text-anchor="end" font-size="9" fill="#444">dayjs-2532</text><rect x="150" y="218.0" width="178.8" height="5" fill="#4C78A8"/><circle cx="251.7" cy="220.5" r="2.3" fill="#4C78A8" stroke="#222" stroke-width="0.6"/><circle cx="405.9" cy="220.5" r="2.3" fill="#4C78A8" stroke="#222" stroke-width="0.6"/><rect x="150" y="224.0" width="179.2" height="5" fill="#E45756"/><circle cx="359.0" cy="226.5" r="2.3" fill="#E45756" stroke="#222" stroke-width="0.6"/><circle cx="299.4" cy="226.5" r="2.3" fill="#E45756" stroke="#222" stroke-width="0.6"/><rect x="150" y="230.0" width="116.9" height="5" fill="#54A24B"/><circle cx="254.6" cy="232.5" r="2.3" fill="#54A24B" stroke="#222" stroke-width="0.6"/><circle cx="279.3" cy="232.5" r="2.3" fill="#54A24B" stroke="#222" stroke-width="0.6"/><rect x="150" y="236.0" width="261.3" height="5" fill="#B07AA1"/><circle cx="411.3" cy="238.5" r="2.3" fill="#B07AA1" stroke="#222" stroke-width="0.6"/><text x="144" y="266.5" text-anchor="end" font-size="9" fill="#444">core-11694</text><rect x="150" y="249.0" width="173.8" height="5" fill="#4C78A8"/><circle cx="378.8" cy="251.5" r="2.3" fill="#4C78A8" stroke="#222" stroke-width="0.6"/><circle cx="268.7" cy="251.5" r="2.3" fill="#4C78A8" stroke="#222" stroke-width="0.6"/><rect x="150" y="255.0" width="212.8" height="5" fill="#E45756"/><circle cx="317.6" cy="257.5" r="2.3" fill="#E45756" stroke="#222" stroke-width="0.6"/><circle cx="407.9" cy="257.5" r="2.3" fill="#E45756" stroke="#222" stroke-width="0.6"/><rect x="150" y="261.0" width="69.3" height="5" fill="#54A24B"/><circle cx="187.2" cy="263.5" r="2.3" fill="#54A24B" stroke="#222" stroke-width="0.6"/><circle cx="251.4" cy="263.5" r="2.3" fill="#54A24B" stroke="#222" stroke-width="0.6"/><rect x="150" y="267.0" width="274.9" height="5" fill="#B07AA1"/><circle cx="424.9" cy="269.5" r="2.3" fill="#B07AA1" stroke="#222" stroke-width="0.6"/><text x="144" y="297.5" text-anchor="end" font-size="9" fill="#444">grpc-go-3258</text><rect x="150" y="280.0" width="140.9" height="5" fill="#4C78A8"/><circle cx="273.1" cy="282.5" r="2.3" fill="#4C78A8" stroke="#222" stroke-width="0.6"/><circle cx="308.7" cy="282.5" r="2.3" fill="#4C78A8" stroke="#222" stroke-width="0.6"/><rect x="150" y="286.0" width="205.3" height="5" fill="#E45756"/><circle cx="344.6" cy="288.5" r="2.3" fill="#E45756" stroke="#222" stroke-width="0.6"/><circle cx="365.9" cy="288.5" r="2.3" fill="#E45756" stroke="#222" stroke-width="0.6"/><rect x="150" y="292.0" width="145.5" height="5" fill="#54A24B"/><circle cx="257.5" cy="294.5" r="2.3" fill="#54A24B" stroke="#222" stroke-width="0.6"/><circle cx="333.5" cy="294.5" r="2.3" fill="#54A24B" stroke="#222" stroke-width="0.6"/><rect x="150" y="298.0" width="217.2" height="5" fill="#B07AA1"/><circle cx="367.2" cy="300.5" r="2.3" fill="#B07AA1" stroke="#222" stroke-width="0.6"/><text x="144" y="328.5" text-anchor="end" font-size="9" fill="#444">jq-3238</text><rect x="150" y="311.0" width="131.7" height="5" fill="#4C78A8"/><circle cx="263.9" cy="313.5" r="2.3" fill="#4C78A8" stroke="#222" stroke-width="0.6"/><circle cx="299.5" cy="313.5" r="2.3" fill="#4C78A8" stroke="#222" stroke-width="0.6"/><rect x="150" y="317.0" width="143.2" height="5" fill="#E45756"/><circle cx="277.7" cy="319.5" r="2.3" fill="#E45756" stroke="#222" stroke-width="0.6"/><circle cx="308.6" cy="319.5" r="2.3" fill="#E45756" stroke="#222" stroke-width="0.6"/><rect x="150" y="323.0" width="175.8" height="5" fill="#54A24B"/><circle cx="374.8" cy="325.5" r="2.3" fill="#54A24B" stroke="#222" stroke-width="0.6"/><circle cx="276.8" cy="325.5" r="2.3" fill="#54A24B" stroke="#222" stroke-width="0.6"/><text x="144" y="359.5" text-anchor="end" font-size="9" fill="#444">tracing-2897</text><rect x="150" y="342.0" width="125.5" height="5" fill="#4C78A8"/><circle cx="261.1" cy="344.5" r="2.3" fill="#4C78A8" stroke="#222" stroke-width="0.6"/><circle cx="290.0" cy="344.5" r="2.3" fill="#4C78A8" stroke="#222" stroke-width="0.6"/><rect x="150" y="348.0" width="153.6" height="5" fill="#E45756"/><circle cx="291.3" cy="350.5" r="2.3" fill="#E45756" stroke="#222" stroke-width="0.6"/><circle cx="316.0" cy="350.5" r="2.3" fill="#E45756" stroke="#222" stroke-width="0.6"/><rect x="150" y="354.0" width="91.5" height="5" fill="#54A24B"/><circle cx="218.7" cy="356.5" r="2.3" fill="#54A24B" stroke="#222" stroke-width="0.6"/><circle cx="264.4" cy="356.5" r="2.3" fill="#54A24B" stroke="#222" stroke-width="0.6"/><rect x="150" y="360.0" width="207.4" height="5" fill="#B07AA1"/><circle cx="357.4" cy="362.5" r="2.3" fill="#B07AA1" stroke="#222" stroke-width="0.6"/><text x="144" y="390.5" text-anchor="end" font-size="9" fill="#444">core-11761</text><rect x="150" y="373.0" width="124.6" height="5" fill="#4C78A8"/><circle cx="265.4" cy="375.5" r="2.3" fill="#4C78A8" stroke="#222" stroke-width="0.6"/><circle cx="283.9" cy="375.5" r="2.3" fill="#4C78A8" stroke="#222" stroke-width="0.6"/><rect x="150" y="379.0" width="136.8" height="5" fill="#E45756"/><circle cx="278.1" cy="381.5" r="2.3" fill="#E45756" stroke="#222" stroke-width="0.6"/><circle cx="295.6" cy="381.5" r="2.3" fill="#E45756" stroke="#222" stroke-width="0.6"/><rect x="150" y="385.0" width="75.7" height="5" fill="#54A24B"/><circle cx="244.1" cy="387.5" r="2.3" fill="#54A24B" stroke="#222" stroke-width="0.6"/><circle cx="207.2" cy="387.5" r="2.3" fill="#54A24B" stroke="#222" stroke-width="0.6"/><rect x="150" y="391.0" width="166.0" height="5" fill="#B07AA1"/><circle cx="316.0" cy="393.5" r="2.3" fill="#B07AA1" stroke="#222" stroke-width="0.6"/><text x="144" y="421.5" text-anchor="end" font-size="9" fill="#444">grpc-go-3351</text><rect x="150" y="404.0" width="115.4" height="5" fill="#4C78A8"/><circle cx="275.5" cy="406.5" r="2.3" fill="#4C78A8" stroke="#222" stroke-width="0.6"/><circle cx="255.4" cy="406.5" r="2.3" fill="#4C78A8" stroke="#222" stroke-width="0.6"/><rect x="150" y="410.0" width="112.9" height="5" fill="#E45756"/><circle cx="270.7" cy="412.5" r="2.3" fill="#E45756" stroke="#222" stroke-width="0.6"/><circle cx="255.2" cy="412.5" r="2.3" fill="#E45756" stroke="#222" stroke-width="0.6"/><rect x="150" y="416.0" width="103.0" height="5" fill="#54A24B"/><circle cx="249.1" cy="418.5" r="2.3" fill="#54A24B" stroke="#222" stroke-width="0.6"/><circle cx="256.9" cy="418.5" r="2.3" fill="#54A24B" stroke="#222" stroke-width="0.6"/><rect x="150" y="422.0" width="123.9" height="5" fill="#B07AA1"/><circle cx="273.9" cy="424.5" r="2.3" fill="#B07AA1" stroke="#222" stroke-width="0.6"/><text x="144" y="452.5" text-anchor="end" font-size="9" fill="#444">clap-5873</text><rect x="150" y="435.0" width="110.9" height="5" fill="#4C78A8"/><circle cx="268.3" cy="437.5" r="2.3" fill="#4C78A8" stroke="#222" stroke-width="0.6"/><circle cx="253.4" cy="437.5" r="2.3" fill="#4C78A8" stroke="#222" stroke-width="0.6"/><rect x="150" y="441.0" width="144.0" height="5" fill="#E45756"/><circle cx="290.0" cy="443.5" r="2.3" fill="#E45756" stroke="#222" stroke-width="0.6"/><circle cx="298.0" cy="443.5" r="2.3" fill="#E45756" stroke="#222" stroke-width="0.6"/><rect x="150" y="447.0" width="102.3" height="5" fill="#54A24B"/><circle cx="265.4" cy="449.5" r="2.3" fill="#54A24B" stroke="#222" stroke-width="0.6"/><circle cx="239.3" cy="449.5" r="2.3" fill="#54A24B" stroke="#222" stroke-width="0.6"/><rect x="150" y="453.0" width="192.0" height="5" fill="#B07AA1"/><circle cx="342.0" cy="455.5" r="2.3" fill="#B07AA1" stroke="#222" stroke-width="0.6"/><text x="144" y="483.5" text-anchor="end" font-size="9" fill="#444">core-11680</text><rect x="150" y="466.0" width="104.6" height="5" fill="#4C78A8"/><circle cx="230.8" cy="468.5" r="2.3" fill="#4C78A8" stroke="#222" stroke-width="0.6"/><circle cx="278.3" cy="468.5" r="2.3" fill="#4C78A8" stroke="#222" stroke-width="0.6"/><rect x="150" y="472.0" width="101.6" height="5" fill="#E45756"/><circle cx="246.8" cy="474.5" r="2.3" fill="#E45756" stroke="#222" stroke-width="0.6"/><circle cx="256.5" cy="474.5" r="2.3" fill="#E45756" stroke="#222" stroke-width="0.6"/><rect x="150" y="478.0" width="61.8" height="5" fill="#54A24B"/><circle cx="234.0" cy="480.5" r="2.3" fill="#54A24B" stroke="#222" stroke-width="0.6"/><circle cx="189.5" cy="480.5" r="2.3" fill="#54A24B" stroke="#222" stroke-width="0.6"/><rect x="150" y="484.0" width="153.8" height="5" fill="#B07AA1"/><circle cx="303.8" cy="486.5" r="2.3" fill="#B07AA1" stroke="#222" stroke-width="0.6"/><text x="144" y="514.5" text-anchor="end" font-size="9" fill="#444">fd-1394</text><rect x="150" y="497.0" width="101.1" height="5" fill="#4C78A8"/><circle cx="270.1" cy="499.5" r="2.3" fill="#4C78A8" stroke="#222" stroke-width="0.6"/><circle cx="232.2" cy="499.5" r="2.3" fill="#4C78A8" stroke="#222" stroke-width="0.6"/><rect x="150" y="503.0" width="96.4" height="5" fill="#E45756"/><circle cx="265.7" cy="505.5" r="2.3" fill="#E45756" stroke="#222" stroke-width="0.6"/><circle cx="227.1" cy="505.5" r="2.3" fill="#E45756" stroke="#222" stroke-width="0.6"/><rect x="150" y="509.0" width="32.2" height="5" fill="#54A24B"/><circle cx="171.6" cy="511.5" r="2.3" fill="#54A24B" stroke="#222" stroke-width="0.6"/><circle cx="192.8" cy="511.5" r="2.3" fill="#54A24B" stroke="#222" stroke-width="0.6"/><rect x="150" y="515.0" width="66.2" height="5" fill="#B07AA1"/><circle cx="216.2" cy="517.5" r="2.3" fill="#B07AA1" stroke="#222" stroke-width="0.6"/><text x="144" y="545.5" text-anchor="end" font-size="9" fill="#444">github-readme-stats-2844</text><rect x="150" y="528.0" width="95.9" height="5" fill="#4C78A8"/><circle cx="231.0" cy="530.5" r="2.3" fill="#4C78A8" stroke="#222" stroke-width="0.6"/><circle cx="260.8" cy="530.5" r="2.3" fill="#4C78A8" stroke="#222" stroke-width="0.6"/><rect x="150" y="534.0" width="108.3" height="5" fill="#E45756"/><circle cx="272.7" cy="536.5" r="2.3" fill="#E45756" stroke="#222" stroke-width="0.6"/><circle cx="244.0" cy="536.5" r="2.3" fill="#E45756" stroke="#222" stroke-width="0.6"/><rect x="150" y="540.0" width="68.8" height="5" fill="#54A24B"/><circle cx="220.6" cy="542.5" r="2.3" fill="#54A24B" stroke="#222" stroke-width="0.6"/><circle cx="217.0" cy="542.5" r="2.3" fill="#54A24B" stroke="#222" stroke-width="0.6"/><text x="144" y="576.5" text-anchor="end" font-size="9" fill="#444">jq-2919</text><rect x="150" y="559.0" width="68.1" height="5" fill="#4C78A8"/><circle cx="230.1" cy="561.5" r="2.3" fill="#4C78A8" stroke="#222" stroke-width="0.6"/><circle cx="206.1" cy="561.5" r="2.3" fill="#4C78A8" stroke="#222" stroke-width="0.6"/><rect x="150" y="565.0" width="120.7" height="5" fill="#E45756"/><circle cx="294.3" cy="567.5" r="2.3" fill="#E45756" stroke="#222" stroke-width="0.6"/><circle cx="247.1" cy="567.5" r="2.3" fill="#E45756" stroke="#222" stroke-width="0.6"/><rect x="150" y="571.0" width="89.1" height="5" fill="#54A24B"/><circle cx="235.4" cy="573.5" r="2.3" fill="#54A24B" stroke="#222" stroke-width="0.6"/><circle cx="242.8" cy="573.5" r="2.3" fill="#54A24B" stroke="#222" stroke-width="0.6"/><rect x="150" y="577.0" width="207.1" height="5" fill="#B07AA1"/><circle cx="357.1" cy="579.5" r="2.3" fill="#B07AA1" stroke="#222" stroke-width="0.6"/><text x="144" y="607.5" text-anchor="end" font-size="9" fill="#444">zstd-3942</text><rect x="150" y="590.0" width="66.5" height="5" fill="#4C78A8"/><circle cx="206.1" cy="592.5" r="2.3" fill="#4C78A8" stroke="#222" stroke-width="0.6"/><circle cx="226.9" cy="592.5" r="2.3" fill="#4C78A8" stroke="#222" stroke-width="0.6"/><rect x="150" y="596.0" width="81.1" height="5" fill="#E45756"/><circle cx="211.2" cy="598.5" r="2.3" fill="#E45756" stroke="#222" stroke-width="0.6"/><circle cx="251.1" cy="598.5" r="2.3" fill="#E45756" stroke="#222" stroke-width="0.6"/><rect x="150" y="602.0" width="73.7" height="5" fill="#54A24B"/><circle cx="199.6" cy="604.5" r="2.3" fill="#54A24B" stroke="#222" stroke-width="0.6"/><circle cx="247.8" cy="604.5" r="2.3" fill="#54A24B" stroke="#222" stroke-width="0.6"/><rect x="150" y="608.0" width="134.1" height="5" fill="#B07AA1"/><circle cx="284.1" cy="610.5" r="2.3" fill="#B07AA1" stroke="#222" stroke-width="0.6"/><text x="144" y="638.5" text-anchor="end" font-size="9" fill="#444">bytes-732</text><rect x="150" y="621.0" width="66.2" height="5" fill="#4C78A8"/><circle cx="240.9" cy="623.5" r="2.3" fill="#4C78A8" stroke="#222" stroke-width="0.6"/><circle cx="191.6" cy="623.5" r="2.3" fill="#4C78A8" stroke="#222" stroke-width="0.6"/><rect x="150" y="627.0" width="82.7" height="5" fill="#E45756"/><circle cx="247.1" cy="629.5" r="2.3" fill="#E45756" stroke="#222" stroke-width="0.6"/><circle cx="218.3" cy="629.5" r="2.3" fill="#E45756" stroke="#222" stroke-width="0.6"/><rect x="150" y="633.0" width="56.9" height="5" fill="#54A24B"/><circle cx="224.2" cy="635.5" r="2.3" fill="#54A24B" stroke="#222" stroke-width="0.6"/><circle cx="189.7" cy="635.5" r="2.3" fill="#54A24B" stroke="#222" stroke-width="0.6"/><rect x="150" y="639.0" width="77.9" height="5" fill="#B07AA1"/><circle cx="227.9" cy="641.5" r="2.3" fill="#B07AA1" stroke="#222" stroke-width="0.6"/><text x="144" y="669.5" text-anchor="end" font-size="9" fill="#444">core-11813</text><rect x="150" y="652.0" width="66.0" height="5" fill="#4C78A8"/><circle cx="206.9" cy="654.5" r="2.3" fill="#4C78A8" stroke="#222" stroke-width="0.6"/><circle cx="225.2" cy="654.5" r="2.3" fill="#4C78A8" stroke="#222" stroke-width="0.6"/><rect x="150" y="658.0" width="55.5" height="5" fill="#E45756"/><circle cx="216.0" cy="660.5" r="2.3" fill="#E45756" stroke="#222" stroke-width="0.6"/><circle cx="194.9" cy="660.5" r="2.3" fill="#E45756" stroke="#222" stroke-width="0.6"/><rect x="150" y="664.0" width="23.8" height="5" fill="#54A24B"/><circle cx="178.4" cy="666.5" r="2.3" fill="#54A24B" stroke="#222" stroke-width="0.6"/><circle cx="169.2" cy="666.5" r="2.3" fill="#54A24B" stroke="#222" stroke-width="0.6"/><rect x="150" y="670.0" width="62.3" height="5" fill="#B07AA1"/><circle cx="212.3" cy="672.5" r="2.3" fill="#B07AA1" stroke="#222" stroke-width="0.6"/><text x="144" y="700.5" text-anchor="end" font-size="9" fill="#444">bat-3189</text><rect x="150" y="683.0" width="66.0" height="5" fill="#4C78A8"/><circle cx="204.3" cy="685.5" r="2.3" fill="#4C78A8" stroke="#222" stroke-width="0.6"/><circle cx="227.6" cy="685.5" r="2.3" fill="#4C78A8" stroke="#222" stroke-width="0.6"/><rect x="150" y="689.0" width="50.4" height="5" fill="#E45756"/><circle cx="206.4" cy="691.5" r="2.3" fill="#E45756" stroke="#222" stroke-width="0.6"/><circle cx="194.5" cy="691.5" r="2.3" fill="#E45756" stroke="#222" stroke-width="0.6"/><rect x="150" y="695.0" width="55.1" height="5" fill="#54A24B"/><circle cx="171.3" cy="697.5" r="2.3" fill="#54A24B" stroke="#222" stroke-width="0.6"/><circle cx="238.8" cy="697.5" r="2.3" fill="#54A24B" stroke="#222" stroke-width="0.6"/><rect x="150" y="701.0" width="128.8" height="5" fill="#B07AA1"/><circle cx="278.8" cy="703.5" r="2.3" fill="#B07AA1" stroke="#222" stroke-width="0.6"/><text x="144" y="731.5" text-anchor="end" font-size="9" fill="#444">go-zero-2787</text><rect x="150" y="714.0" width="59.8" height="5" fill="#4C78A8"/><circle cx="204.1" cy="716.5" r="2.3" fill="#4C78A8" stroke="#222" stroke-width="0.6"/><circle cx="215.5" cy="716.5" r="2.3" fill="#4C78A8" stroke="#222" stroke-width="0.6"/><rect x="150" y="720.0" width="56.6" height="5" fill="#E45756"/><circle cx="210.9" cy="722.5" r="2.3" fill="#E45756" stroke="#222" stroke-width="0.6"/><circle cx="202.2" cy="722.5" r="2.3" fill="#E45756" stroke="#222" stroke-width="0.6"/><rect x="150" y="726.0" width="31.4" height="5" fill="#54A24B"/><circle cx="161.8" cy="728.5" r="2.3" fill="#54A24B" stroke="#222" stroke-width="0.6"/><circle cx="201.0" cy="728.5" r="2.3" fill="#54A24B" stroke="#222" stroke-width="0.6"/><rect x="150" y="732.0" width="75.2" height="5" fill="#B07AA1"/><circle cx="225.2" cy="734.5" r="2.3" fill="#B07AA1" stroke="#222" stroke-width="0.6"/><text x="144" y="762.5" text-anchor="end" font-size="9" fill="#444">darkreader-7241</text><rect x="150" y="745.0" width="55.2" height="5" fill="#4C78A8"/><circle cx="197.4" cy="747.5" r="2.3" fill="#4C78A8" stroke="#222" stroke-width="0.6"/><circle cx="213.0" cy="747.5" r="2.3" fill="#4C78A8" stroke="#222" stroke-width="0.6"/><rect x="150" y="751.0" width="102.2" height="5" fill="#E45756"/><circle cx="275.0" cy="753.5" r="2.3" fill="#E45756" stroke="#222" stroke-width="0.6"/><circle cx="229.5" cy="753.5" r="2.3" fill="#E45756" stroke="#222" stroke-width="0.6"/><rect x="150" y="757.0" width="72.3" height="5" fill="#54A24B"/><circle cx="254.2" cy="759.5" r="2.3" fill="#54A24B" stroke="#222" stroke-width="0.6"/><circle cx="190.4" cy="759.5" r="2.3" fill="#54A24B" stroke="#222" stroke-width="0.6"/><rect x="150" y="763.0" width="112.7" height="5" fill="#B07AA1"/><circle cx="262.7" cy="765.5" r="2.3" fill="#B07AA1" stroke="#222" stroke-width="0.6"/><text x="144" y="793.5" text-anchor="end" font-size="9" fill="#444">express-5555</text><rect x="150" y="776.0" width="40.7" height="5" fill="#4C78A8"/><circle cx="179.4" cy="778.5" r="2.3" fill="#4C78A8" stroke="#222" stroke-width="0.6"/><circle cx="202.0" cy="778.5" r="2.3" fill="#4C78A8" stroke="#222" stroke-width="0.6"/><rect x="150" y="782.0" width="56.5" height="5" fill="#E45756"/><circle cx="218.4" cy="784.5" r="2.3" fill="#E45756" stroke="#222" stroke-width="0.6"/><circle cx="194.6" cy="784.5" r="2.3" fill="#E45756" stroke="#222" stroke-width="0.6"/><rect x="150" y="788.0" width="20.5" height="5" fill="#54A24B"/><circle cx="176.0" cy="790.5" r="2.3" fill="#54A24B" stroke="#222" stroke-width="0.6"/><circle cx="165.0" cy="790.5" r="2.3" fill="#54A24B" stroke="#222" stroke-width="0.6"/><rect x="150" y="794.0" width="71.4" height="5" fill="#B07AA1"/><circle cx="221.4" cy="796.5" r="2.3" fill="#B07AA1" stroke="#222" stroke-width="0.6"/><text x="144" y="824.5" text-anchor="end" font-size="9" fill="#444">rayon-986</text><rect x="150" y="807.0" width="33.9" height="5" fill="#4C78A8"/><circle cx="181.3" cy="809.5" r="2.3" fill="#4C78A8" stroke="#222" stroke-width="0.6"/><circle cx="186.6" cy="809.5" r="2.3" fill="#4C78A8" stroke="#222" stroke-width="0.6"/><rect x="150" y="813.0" width="51.1" height="5" fill="#E45756"/><circle cx="199.2" cy="815.5" r="2.3" fill="#E45756" stroke="#222" stroke-width="0.6"/><circle cx="203.0" cy="815.5" r="2.3" fill="#E45756" stroke="#222" stroke-width="0.6"/><rect x="150" y="819.0" width="33.9" height="5" fill="#54A24B"/><circle cx="191.2" cy="821.5" r="2.3" fill="#54A24B" stroke="#222" stroke-width="0.6"/><circle cx="176.6" cy="821.5" r="2.3" fill="#54A24B" stroke="#222" stroke-width="0.6"/><rect x="150" y="825.0" width="75.3" height="5" fill="#B07AA1"/><circle cx="225.3" cy="827.5" r="2.3" fill="#B07AA1" stroke="#222" stroke-width="0.6"/></svg>
