<svg xmlns="http://www.w3.org/2000/svg" width="800" height="470" viewBox="0 0 800 470" font-family="system-ui,Segoe UI,Helvetica,Arial,sans-serif">
<rect width="800" height="470" fill="#ffffff"/>
<text x="400" y="26" text-anchor="middle" font-size="16" font-weight="600" fill="#111">$ per run on the benchmarks classic resolves</text>
<text x="400" y="44" text-anchor="middle" font-size="11" fill="#666">average lead-model $ per run (per seed) over the 26 benchmarks classic solves</text><line x1="60" y1="386.0" x2="780" y2="386.0" stroke="#eee"/><text x="52" y="390.0" text-anchor="end" font-size="10" fill="#999">$0</text><line x1="60" y1="327.2" x2="780" y2="327.2" stroke="#eee"/><text x="52" y="331.2" text-anchor="end" font-size="10" fill="#999">$5</text><line x1="60" y1="268.4" x2="780" y2="268.4" stroke="#eee"/><text x="52" y="272.4" text-anchor="end" font-size="10" fill="#999">$10</text><line x1="60" y1="209.6" x2="780" y2="209.6" stroke="#eee"/><text x="52" y="213.6" text-anchor="end" font-size="10" fill="#999">$14</text><line x1="60" y1="150.8" x2="780" y2="150.8" stroke="#eee"/><text x="52" y="154.8" text-anchor="end" font-size="10" fill="#999">$19</text><line x1="60" y1="92.0" x2="780" y2="92.0" stroke="#eee"/><text x="52" y="96.0" text-anchor="end" font-size="10" fill="#999">$24</text><rect x="94" y="225.5" width="112" height="160.5" fill="#4C78A8"/><text x="150" y="203.5" text-anchor="middle" font-size="17" font-weight="700" fill="#4C78A8">$12.99</text><text x="150" y="217.5" text-anchor="middle" font-size="10" fill="#666">baseline</text><text x="150" y="410" text-anchor="middle" font-size="12" font-weight="600" fill="#4C78A8">classic</text><text x="150" y="426" text-anchor="middle" font-size="10" fill="#888">avg $0.50/run · solved 26/26</text><rect x="274" y="201.9" width="112" height="184.1" fill="#E45756"/><text x="330" y="179.9" text-anchor="middle" font-size="17" font-weight="700" fill="#E45756">$14.90</text><text x="330" y="193.9" text-anchor="middle" font-size="10" fill="#666">15% vs classic</text><text x="330" y="410" text-anchor="middle" font-size="12" font-weight="600" fill="#E45756">classic-graphify</text><text x="330" y="426" text-anchor="middle" font-size="10" fill="#888">avg $0.57/run · solved 25/26</text><rect x="454" y="262.3" width="112" height="123.7" fill="#54A24B"/><text x="510" y="240.3" text-anchor="middle" font-size="17" font-weight="700" fill="#54A24B">$10.02</text><text x="510" y="254.3" text-anchor="middle" font-size="10" fill="#666">-23% vs classic</text><text x="510" y="410" text-anchor="middle" font-size="12" font-weight="600" fill="#54A24B">classic-graph-bash</text><text x="510" y="426" text-anchor="middle" font-size="10" fill="#888">avg $0.39/run · solved 25/26</text><rect x="634" y="130.7" width="112" height="255.3" fill="#B07AA1"/><text x="690" y="108.7" text-anchor="middle" font-size="17" font-weight="700" fill="#B07AA1">$20.67</text><text x="690" y="122.7" text-anchor="middle" font-size="10" fill="#666">59% vs classic</text><text x="690" y="410" text-anchor="middle" font-size="12" font-weight="600" fill="#B07AA1">codex (ref)</text><text x="690" y="426" text-anchor="middle" font-size="10" fill="#888">avg $0.79/run · solved 21/26</text></svg>
