<svg xmlns="http://www.w3.org/2000/svg" width="650" height="470" viewBox="0 0 650 470" font-family="system-ui,Segoe UI,Helvetica,Arial,sans-serif">
<rect width="650" height="470" fill="#ffffff"/>
<text x="325" y="26" text-anchor="middle" font-size="16" font-weight="600" fill="#111">Total $ spent on the benchmarks classic resolves</text>
<text x="325" y="44" text-anchor="middle" font-size="11" fill="#666">sum of lead-model cost over the 24 benchmarks classic solves</text><line x1="60" y1="386.0" x2="630" y2="386.0" stroke="#eee"/><text x="52" y="390.0" text-anchor="end" font-size="10" fill="#999">$0</text><line x1="60" y1="327.2" x2="630" y2="327.2" stroke="#eee"/><text x="52" y="331.2" text-anchor="end" font-size="10" fill="#999">$6</text><line x1="60" y1="268.4" x2="630" y2="268.4" stroke="#eee"/><text x="52" y="272.4" text-anchor="end" font-size="10" fill="#999">$12</text><line x1="60" y1="209.6" x2="630" y2="209.6" stroke="#eee"/><text x="52" y="213.6" text-anchor="end" font-size="10" fill="#999">$18</text><line x1="60" y1="150.8" x2="630" y2="150.8" stroke="#eee"/><text x="52" y="154.8" text-anchor="end" font-size="10" fill="#999">$25</text><line x1="60" y1="92.0" x2="630" y2="92.0" stroke="#eee"/><text x="52" y="96.0" text-anchor="end" font-size="10" fill="#999">$31</text><rect x="99" y="177.0" width="112" height="209.0" fill="#4C78A8"/><text x="155" y="155.0" text-anchor="middle" font-size="17" font-weight="700" fill="#4C78A8">$21.83</text><text x="155" y="169.0" text-anchor="middle" font-size="10" fill="#666">baseline</text><text x="155" y="410" text-anchor="middle" font-size="12" font-weight="600" fill="#4C78A8">classic</text><text x="155" y="426" text-anchor="middle" font-size="10" fill="#888">solved 24/24</text><rect x="289" y="130.7" width="112" height="255.3" fill="#E45756"/><text x="345" y="108.7" text-anchor="middle" font-size="17" font-weight="700" fill="#E45756">$26.66</text><text x="345" y="122.7" text-anchor="middle" font-size="10" fill="#666">22% vs classic</text><text x="345" y="410" text-anchor="middle" font-size="12" font-weight="600" fill="#E45756">classic-graphify</text><text x="345" y="426" text-anchor="middle" font-size="10" fill="#888">solved 24/24</text><rect x="479" y="222.2" width="112" height="163.8" fill="#54A24B"/><text x="535" y="200.2" text-anchor="middle" font-size="17" font-weight="700" fill="#54A24B">$17.11</text><text x="535" y="214.2" text-anchor="middle" font-size="10" fill="#666">-22% vs classic</text><text x="535" y="410" text-anchor="middle" font-size="12" font-weight="600" fill="#54A24B">classic-graph-bash</text><text x="535" y="426" text-anchor="middle" font-size="10" fill="#888">solved 23/24</text></svg>
