<svg xmlns="http://www.w3.org/2000/svg" width="760" height="600" font-family="-apple-system,Segoe UI,Roboto,sans-serif" font-size="13"><rect width="760" height="600" fill="white"/>
<text x="60" y="24" font-size="16" font-weight="700">DF-021 — caveman primitive ladder (9 scoped instances)</text>
<text x="60" y="38" font-weight="700">pass@K (resolved in ≥1 seed, of 9)</text>
<line x1="84" y1="224" x2="736" y2="224" stroke="#eee"/><text x="76" y="228" text-anchor="end" fill="#888">0</text>
<line x1="84" y1="164" x2="736" y2="164" stroke="#eee"/><text x="76" y="168" text-anchor="end" fill="#888">3</text>
<line x1="84" y1="104" x2="736" y2="104" stroke="#eee"/><text x="76" y="108" text-anchor="end" fill="#888">6</text>
<line x1="84" y1="44" x2="736" y2="44" stroke="#eee"/><text x="76" y="48" text-anchor="end" fill="#888">9</text>
<rect x="84" y="64" width="84" height="160" fill="#4C78A8" stroke="#1b3a5b" stroke-width="2"/>
<text x="126" y="58" text-anchor="middle" font-weight="700">8/9</text>
<rect x="228" y="64" width="84" height="160" fill="#72B7B2"/>
<text x="270" y="58" text-anchor="middle" font-weight="700">8/9</text>
<rect x="372" y="44" width="84" height="180" fill="#54A24B"/>
<text x="414" y="38" text-anchor="middle" font-weight="700">9/9</text>
<rect x="516" y="64" width="84" height="160" fill="#F58518"/>
<text x="558" y="58" text-anchor="middle" font-weight="700">8/9</text>
<text x="60" y="322" font-weight="700">mean $/run  ·  dashed = classic L0 baseline</text>
<line x1="84" y1="508" x2="736" y2="508" stroke="#eee"/><text x="76" y="512" text-anchor="end" fill="#888">$0.0</text>
<line x1="84" y1="456.57142857142856" x2="736" y2="456.57142857142856" stroke="#eee"/><text x="76" y="460.57142857142856" text-anchor="end" fill="#888">$0.2</text>
<line x1="84" y1="405.14285714285717" x2="736" y2="405.14285714285717" stroke="#eee"/><text x="76" y="409.14285714285717" text-anchor="end" fill="#888">$0.4</text>
<line x1="84" y1="353.71428571428567" x2="736" y2="353.71428571428567" stroke="#eee"/><text x="76" y="357.71428571428567" text-anchor="end" fill="#888">$0.6</text>
<line x1="84" y1="355.97285714285715" x2="736" y2="355.97285714285715" stroke="#1b3a5b" stroke-width="1.5" stroke-dasharray="6 4"/>
<rect x="84" y="355.97285714285715" width="84" height="152.02714285714282" fill="#4C78A8" stroke="#1b3a5b" stroke-width="2"/>
<text x="126" y="337.97285714285715" text-anchor="middle" font-weight="700">$0.591</text>
<text x="126" y="351.97285714285715" text-anchor="middle" font-size="11" fill="#2e7d32">baseline</text>
<rect x="228" y="332.46476190476193" width="84" height="175.53523809523807" fill="#72B7B2"/>
<text x="270" y="314.46476190476193" text-anchor="middle" font-weight="700">$0.683</text>
<text x="270" y="328.46476190476193" text-anchor="middle" font-size="11" fill="#c0392b">+15%</text>
<rect x="372" y="348.1609523809524" width="84" height="159.8390476190476" fill="#54A24B"/>
<text x="414" y="330.1609523809524" text-anchor="middle" font-weight="700">$0.622</text>
<text x="414" y="344.1609523809524" text-anchor="middle" font-size="11" fill="#c0392b">+5%</text>
<rect x="516" y="334.3714285714286" width="84" height="173.62857142857138" fill="#F58518"/>
<text x="558" y="316.3714285714286" text-anchor="middle" font-weight="700">$0.675</text>
<text x="558" y="330.3714285714286" text-anchor="middle" font-size="11" fill="#c0392b">+14%</text>
<text x="126" y="572" text-anchor="middle" font-weight="700">L0</text>
<text x="126" y="587" text-anchor="middle" fill="#666" font-size="11">classic</text>
<text x="270" y="572" text-anchor="middle" font-weight="700">L1</text>
<text x="270" y="587" text-anchor="middle" fill="#666" font-size="11">trimmed</text>
<text x="414" y="572" text-anchor="middle" font-weight="700">L2</text>
<text x="414" y="587" text-anchor="middle" fill="#666" font-size="11">caveman</text>
<text x="558" y="572" text-anchor="middle" font-weight="700">L3</text>
<text x="558" y="587" text-anchor="middle" fill="#666" font-size="11">stone-tool</text>
</svg>