<svg xmlns="http://www.w3.org/2000/svg" width="650" height="470" viewBox="0 0 650 470" font-family="system-ui,Segoe UI,Helvetica,Arial,sans-serif">
<rect width="650" height="470" fill="#ffffff"/>
<text x="325" y="26" text-anchor="middle" font-size="16" font-weight="600" fill="#111">Total $ split by token type — input + cached + output</text>
<text x="325" y="44" text-anchor="middle" font-size="11" fill="#666">same total as the cost graph; shows how each arm's spend over the 22 benchmarks breaks down (output is $30/Mtok)</text><rect x="60" y="55" width="12" height="12" fill="#555"/><text x="77" y="65" font-size="10.5" fill="#444">input ×$5/Mtok</text><rect x="190" y="55" width="12" height="12" fill="#555" fill-opacity="0.35"/><text x="207" y="65" font-size="10.5" fill="#444">cached ×$0.5/Mtok</text><rect x="340" y="55" width="12" height="12" fill="#222"/><text x="357" y="65" font-size="10.5" fill="#444">output ×$30/Mtok</text><line x1="60" y1="386.0" x2="630" y2="386.0" stroke="#eee"/><text x="52" y="390.0" text-anchor="end" font-size="10" fill="#999">$0</text><line x1="60" y1="327.2" x2="630" y2="327.2" stroke="#eee"/><text x="52" y="331.2" text-anchor="end" font-size="10" fill="#999">$3</text><line x1="60" y1="268.4" x2="630" y2="268.4" stroke="#eee"/><text x="52" y="272.4" text-anchor="end" font-size="10" fill="#999">$5</text><line x1="60" y1="209.6" x2="630" y2="209.6" stroke="#eee"/><text x="52" y="213.6" text-anchor="end" font-size="10" fill="#999">$8</text><line x1="60" y1="150.8" x2="630" y2="150.8" stroke="#eee"/><text x="52" y="154.8" text-anchor="end" font-size="10" fill="#999">$11</text><line x1="60" y1="92.0" x2="630" y2="92.0" stroke="#eee"/><text x="52" y="96.0" text-anchor="end" font-size="10" fill="#999">$14</text><rect x="99" y="303.0" width="112" height="83.0" fill="#4C78A8"/><rect x="99" y="252.2" width="112" height="50.9" fill="#4C78A8" fill-opacity="0.35"/><rect x="99" y="192.0" width="112" height="60.2" fill="#222"/><text x="155" y="347.5" text-anchor="middle" font-size="10" fill="#fff">in $3.87</text><text x="155" y="280.6" text-anchor="middle" font-size="10" fill="#333">cache $2.37</text><text x="155" y="225.1" text-anchor="middle" font-size="10" fill="#fff">out $2.80</text><text x="155" y="170.0" text-anchor="middle" font-size="17" font-weight="700" fill="#4C78A8">$9.04</text><text x="155" y="184.0" text-anchor="middle" font-size="10" fill="#666">baseline</text><text x="155" y="410" text-anchor="middle" font-size="12" font-weight="600" fill="#4C78A8">classic</text><text x="155" y="426" text-anchor="middle" font-size="10" fill="#888">solved 22/22</text><rect x="289" y="275.6" width="112" height="110.4" fill="#E45756"/><rect x="289" y="199.2" width="112" height="76.4" fill="#E45756" fill-opacity="0.35"/><rect x="289" y="131.2" width="112" height="68.0" fill="#222"/><text x="345" y="333.8" text-anchor="middle" font-size="10" fill="#fff">in $5.15</text><text x="345" y="240.4" text-anchor="middle" font-size="10" fill="#333">cache $3.56</text><text x="345" y="168.2" text-anchor="middle" font-size="10" fill="#fff">out $3.17</text><text x="345" y="109.2" text-anchor="middle" font-size="17" font-weight="700" fill="#E45756">$11.87</text><text x="345" y="123.2" text-anchor="middle" font-size="10" fill="#666">31% vs classic</text><text x="345" y="410" text-anchor="middle" font-size="12" font-weight="600" fill="#E45756">classic-graphify</text><text x="345" y="426" text-anchor="middle" font-size="10" fill="#888">solved 22/22</text><rect x="479" y="320.4" width="112" height="65.6" fill="#54A24B"/><rect x="479" y="287.3" width="112" height="33.0" fill="#54A24B" fill-opacity="0.35"/><rect x="479" y="240.7" width="112" height="46.6" fill="#222"/><text x="535" y="356.2" text-anchor="middle" font-size="10" fill="#fff">in $3.06</text><text x="535" y="306.8" text-anchor="middle" font-size="10" fill="#333">cache $1.54</text><text x="535" y="267.0" text-anchor="middle" font-size="10" fill="#fff">out $2.17</text><text x="535" y="218.7" text-anchor="middle" font-size="17" font-weight="700" fill="#54A24B">$6.77</text><text x="535" y="232.7" text-anchor="middle" font-size="10" fill="#666">-25% vs classic</text><text x="535" y="410" text-anchor="middle" font-size="12" font-weight="600" fill="#54A24B">classic-graph-bash</text><text x="535" y="426" text-anchor="middle" font-size="10" fill="#888">solved 22/22</text></svg>
