<svg xmlns="http://www.w3.org/2000/svg" width="800" height="470" viewBox="0 0 800 470" font-family="system-ui,Segoe UI,Helvetica,Arial,sans-serif">
<rect width="800" height="470" fill="#ffffff"/>
<text x="400" y="26" text-anchor="middle" font-size="16" font-weight="600" fill="#111">Total $ split by token type — input + cached + output</text>
<text x="400" y="44" text-anchor="middle" font-size="11" fill="#666">same total as the cost graph; shows how each arm's spend over the 22 benchmarks breaks down (output is $30/Mtok)</text><rect x="60" y="55" width="12" height="12" fill="#555"/><text x="77" y="65" font-size="10.5" fill="#444">input ×$5/Mtok</text><rect x="190" y="55" width="12" height="12" fill="#555" fill-opacity="0.35"/><text x="207" y="65" font-size="10.5" fill="#444">cached ×$0.5/Mtok</text><rect x="340" y="55" width="12" height="12" fill="#222"/><text x="357" y="65" font-size="10.5" fill="#444">output ×$30/Mtok</text><line x1="60" y1="386.0" x2="780" y2="386.0" stroke="#eee"/><text x="52" y="390.0" text-anchor="end" font-size="10" fill="#999">$0</text><line x1="60" y1="327.2" x2="780" y2="327.2" stroke="#eee"/><text x="52" y="331.2" text-anchor="end" font-size="10" fill="#999">$3</text><line x1="60" y1="268.4" x2="780" y2="268.4" stroke="#eee"/><text x="52" y="272.4" text-anchor="end" font-size="10" fill="#999">$7</text><line x1="60" y1="209.6" x2="780" y2="209.6" stroke="#eee"/><text x="52" y="213.6" text-anchor="end" font-size="10" fill="#999">$10</text><line x1="60" y1="150.8" x2="780" y2="150.8" stroke="#eee"/><text x="52" y="154.8" text-anchor="end" font-size="10" fill="#999">$13</text><line x1="60" y1="92.0" x2="780" y2="92.0" stroke="#eee"/><text x="52" y="96.0" text-anchor="end" font-size="10" fill="#999">$17</text><rect x="94" y="318.3" width="112" height="67.7" fill="#4C78A8"/><rect x="94" y="276.9" width="112" height="41.5" fill="#4C78A8" fill-opacity="0.35"/><rect x="94" y="227.8" width="112" height="49.1" fill="#222"/><text x="150" y="355.2" text-anchor="middle" font-size="10" fill="#fff">in $3.87</text><text x="150" y="300.6" text-anchor="middle" font-size="10" fill="#333">cache $2.37</text><text x="150" y="255.3" text-anchor="middle" font-size="10" fill="#fff">out $2.80</text><text x="150" y="205.8" text-anchor="middle" font-size="17" font-weight="700" fill="#4C78A8">$9.04</text><text x="150" y="219.8" text-anchor="middle" font-size="10" fill="#666">baseline</text><text x="150" y="410" text-anchor="middle" font-size="12" font-weight="600" fill="#4C78A8">classic</text><text x="150" y="426" text-anchor="middle" font-size="10" fill="#888">solved 22/22</text><rect x="274" y="295.9" width="112" height="90.1" fill="#E45756"/><rect x="274" y="233.7" width="112" height="62.3" fill="#E45756" fill-opacity="0.35"/><rect x="274" y="178.2" width="112" height="55.5" fill="#222"/><text x="330" y="344.0" text-anchor="middle" font-size="10" fill="#fff">in $5.15</text><text x="330" y="267.8" text-anchor="middle" font-size="10" fill="#333">cache $3.56</text><text x="330" y="208.9" text-anchor="middle" font-size="10" fill="#fff">out $3.17</text><text x="330" y="156.2" text-anchor="middle" font-size="17" font-weight="700" fill="#E45756">$11.87</text><text x="330" y="170.2" text-anchor="middle" font-size="10" fill="#666">31% vs classic</text><text x="330" y="410" text-anchor="middle" font-size="12" font-weight="600" fill="#E45756">classic-graphify</text><text x="330" y="426" text-anchor="middle" font-size="10" fill="#888">solved 22/22</text><rect x="454" y="332.5" width="112" height="53.5" fill="#54A24B"/><rect x="454" y="305.5" width="112" height="26.9" fill="#54A24B" fill-opacity="0.35"/><rect x="454" y="267.5" width="112" height="38.0" fill="#222"/><text x="510" y="362.2" text-anchor="middle" font-size="10" fill="#fff">in $3.06</text><text x="510" y="322.0" text-anchor="middle" font-size="10" fill="#333">cache $1.54</text><text x="510" y="289.5" text-anchor="middle" font-size="10" fill="#fff">out $2.17</text><text x="510" y="245.5" text-anchor="middle" font-size="17" font-weight="700" fill="#54A24B">$6.77</text><text x="510" y="259.5" text-anchor="middle" font-size="10" fill="#666">-25% vs classic</text><text x="510" y="410" text-anchor="middle" font-size="12" font-weight="600" fill="#54A24B">classic-graph-bash</text><text x="510" y="426" text-anchor="middle" font-size="10" fill="#888">solved 22/22</text><rect x="634" y="311.6" width="112" height="74.4" fill="#B07AA1"/><rect x="634" y="216.7" width="112" height="95.0" fill="#B07AA1" fill-opacity="0.35"/><rect x="634" y="130.7" width="112" height="86.0" fill="#222"/><text x="690" y="351.8" text-anchor="middle" font-size="10" fill="#fff">in $4.25</text><text x="690" y="267.1" text-anchor="middle" font-size="10" fill="#333">cache $5.43</text><text x="690" y="176.7" text-anchor="middle" font-size="10" fill="#fff">out $4.91</text><text x="690" y="108.7" text-anchor="middle" font-size="17" font-weight="700" fill="#B07AA1">$14.59</text><text x="690" y="122.7" text-anchor="middle" font-size="10" fill="#666">61% vs classic</text><text x="690" y="410" text-anchor="middle" font-size="12" font-weight="600" fill="#B07AA1">codex (ref)</text><text x="690" y="426" text-anchor="middle" font-size="10" fill="#888">solved 20/22</text></svg>
