<svg xmlns="http://www.w3.org/2000/svg" width="800" height="470" viewBox="0 0 800 470" font-family="system-ui,Segoe UI,Helvetica,Arial,sans-serif">
<rect width="800" height="470" fill="#ffffff"/>
<text x="400" y="26" text-anchor="middle" font-size="16" font-weight="600" fill="#111">$ per run split by token type — input + cached + output</text>
<text x="400" y="44" text-anchor="middle" font-size="11" fill="#666">same total as the cost graph; per-run spend over the 24 benchmarks by token type (output is $30/Mtok)</text><rect x="60" y="55" width="12" height="12" fill="#555"/><text x="77" y="65" font-size="10.5" fill="#444">input ×$5/Mtok</text><rect x="190" y="55" width="12" height="12" fill="#555" fill-opacity="0.35"/><text x="207" y="65" font-size="10.5" fill="#444">cached ×$0.5/Mtok</text><rect x="340" y="55" width="12" height="12" fill="#222"/><text x="357" y="65" font-size="10.5" fill="#444">output ×$30/Mtok</text><line x1="60" y1="386.0" x2="780" y2="386.0" stroke="#eee"/><text x="52" y="390.0" text-anchor="end" font-size="10" fill="#999">$0</text><line x1="60" y1="327.2" x2="780" y2="327.2" stroke="#eee"/><text x="52" y="331.2" text-anchor="end" font-size="10" fill="#999">$4</text><line x1="60" y1="268.4" x2="780" y2="268.4" stroke="#eee"/><text x="52" y="272.4" text-anchor="end" font-size="10" fill="#999">$9</text><line x1="60" y1="209.6" x2="780" y2="209.6" stroke="#eee"/><text x="52" y="213.6" text-anchor="end" font-size="10" fill="#999">$13</text><line x1="60" y1="150.8" x2="780" y2="150.8" stroke="#eee"/><text x="52" y="154.8" text-anchor="end" font-size="10" fill="#999">$17</text><line x1="60" y1="92.0" x2="780" y2="92.0" stroke="#eee"/><text x="52" y="96.0" text-anchor="end" font-size="10" fill="#999">$22</text><rect x="94" y="322.5" width="112" height="63.5" fill="#4C78A8"/><rect x="94" y="281.4" width="112" height="41.1" fill="#4C78A8" fill-opacity="0.35"/><rect x="94" y="236.8" width="112" height="44.6" fill="#222"/><text x="150" y="357.2" text-anchor="middle" font-size="10" fill="#fff">in $4.64</text><text x="150" y="304.9" text-anchor="middle" font-size="10" fill="#333">cache $3.01</text><text x="150" y="262.1" text-anchor="middle" font-size="10" fill="#fff">out $3.26</text><text x="150" y="214.8" text-anchor="middle" font-size="17" font-weight="700" fill="#4C78A8">$10.91</text><text x="150" y="228.8" text-anchor="middle" font-size="10" fill="#666">baseline</text><text x="150" y="410" text-anchor="middle" font-size="12" font-weight="600" fill="#4C78A8">classic</text><text x="150" y="426" text-anchor="middle" font-size="10" fill="#888">avg $0.45/run · solved 24/24</text><rect x="274" y="308.7" width="112" height="77.3" fill="#E45756"/><rect x="274" y="252.8" width="112" height="55.9" fill="#E45756" fill-opacity="0.35"/><rect x="274" y="203.7" width="112" height="49.0" fill="#222"/><text x="330" y="350.3" text-anchor="middle" font-size="10" fill="#fff">in $5.66</text><text x="330" y="283.7" text-anchor="middle" font-size="10" fill="#333">cache $4.09</text><text x="330" y="231.3" text-anchor="middle" font-size="10" fill="#fff">out $3.58</text><text x="330" y="181.7" text-anchor="middle" font-size="17" font-weight="700" fill="#E45756">$13.33</text><text x="330" y="195.7" text-anchor="middle" font-size="10" fill="#666">22% vs classic</text><text x="330" y="410" text-anchor="middle" font-size="12" font-weight="600" fill="#E45756">classic-graphify</text><text x="330" y="426" text-anchor="middle" font-size="10" fill="#888">avg $0.56/run · solved 24/24</text><rect x="454" y="334.8" width="112" height="51.2" fill="#54A24B"/><rect x="454" y="306.0" width="112" height="28.9" fill="#54A24B" fill-opacity="0.35"/><rect x="454" y="269.0" width="112" height="37.0" fill="#222"/><text x="510" y="363.4" text-anchor="middle" font-size="10" fill="#fff">in $3.74</text><text x="510" y="323.4" text-anchor="middle" font-size="10" fill="#333">cache $2.11</text><text x="510" y="290.5" text-anchor="middle" font-size="10" fill="#fff">out $2.70</text><text x="510" y="247.0" text-anchor="middle" font-size="17" font-weight="700" fill="#54A24B">$8.55</text><text x="510" y="261.0" text-anchor="middle" font-size="10" fill="#666">-22% vs classic</text><text x="510" y="410" text-anchor="middle" font-size="12" font-weight="600" fill="#54A24B">classic-graph-bash</text><text x="510" y="426" text-anchor="middle" font-size="10" fill="#888">avg $0.36/run · solved 23/24</text><rect x="634" y="315.6" width="112" height="70.4" fill="#B07AA1"/><rect x="634" y="215.0" width="112" height="100.6" fill="#B07AA1" fill-opacity="0.35"/><rect x="634" y="131.3" width="112" height="83.7" fill="#222"/><text x="690" y="353.8" text-anchor="middle" font-size="10" fill="#fff">in $5.15</text><text x="690" y="268.3" text-anchor="middle" font-size="10" fill="#333">cache $7.36</text><text x="690" y="176.1" text-anchor="middle" font-size="10" fill="#fff">out $6.12</text><text x="690" y="109.3" text-anchor="middle" font-size="17" font-weight="700" fill="#B07AA1">$18.63</text><text x="690" y="123.3" text-anchor="middle" font-size="10" fill="#666">71% vs classic</text><text x="690" y="410" text-anchor="middle" font-size="12" font-weight="600" fill="#B07AA1">codex (ref)</text><text x="690" y="426" text-anchor="middle" font-size="10" fill="#888">avg $0.78/run · solved 20/24</text></svg>
