<svg xmlns="http://www.w3.org/2000/svg" width="650" height="470" viewBox="0 0 650 470" font-family="system-ui,Segoe UI,Helvetica,Arial,sans-serif">
<rect width="650" height="470" fill="#ffffff"/>
<text x="325" y="26" text-anchor="middle" font-size="16" font-weight="600" fill="#111">Total $ split by token type — input + cached + output</text>
<text x="325" y="44" text-anchor="middle" font-size="11" fill="#666">same total as the cost graph; shows how each arm's spend over the 24 benchmarks breaks down (output is $30/Mtok)</text><rect x="60" y="55" width="12" height="12" fill="#555"/><text x="77" y="65" font-size="10.5" fill="#444">input ×$5/Mtok</text><rect x="190" y="55" width="12" height="12" fill="#555" fill-opacity="0.35"/><text x="207" y="65" font-size="10.5" fill="#444">cached ×$0.5/Mtok</text><rect x="340" y="55" width="12" height="12" fill="#222"/><text x="357" y="65" font-size="10.5" fill="#444">output ×$30/Mtok</text><line x1="60" y1="386.0" x2="630" y2="386.0" stroke="#eee"/><text x="52" y="390.0" text-anchor="end" font-size="10" fill="#999">$0</text><line x1="60" y1="327.2" x2="630" y2="327.2" stroke="#eee"/><text x="52" y="331.2" text-anchor="end" font-size="10" fill="#999">$6</text><line x1="60" y1="268.4" x2="630" y2="268.4" stroke="#eee"/><text x="52" y="272.4" text-anchor="end" font-size="10" fill="#999">$12</text><line x1="60" y1="209.6" x2="630" y2="209.6" stroke="#eee"/><text x="52" y="213.6" text-anchor="end" font-size="10" fill="#999">$18</text><line x1="60" y1="150.8" x2="630" y2="150.8" stroke="#eee"/><text x="52" y="154.8" text-anchor="end" font-size="10" fill="#999">$25</text><line x1="60" y1="92.0" x2="630" y2="92.0" stroke="#eee"/><text x="52" y="96.0" text-anchor="end" font-size="10" fill="#999">$31</text><rect x="99" y="297.0" width="112" height="89.0" fill="#4C78A8"/><rect x="99" y="239.5" width="112" height="57.6" fill="#4C78A8" fill-opacity="0.35"/><rect x="99" y="177.0" width="112" height="62.5" fill="#222"/><text x="155" y="344.5" text-anchor="middle" font-size="10" fill="#fff">in $9.29</text><text x="155" y="271.3" text-anchor="middle" font-size="10" fill="#333">cache $6.01</text><text x="155" y="211.2" text-anchor="middle" font-size="10" fill="#fff">out $6.53</text><text x="155" y="155.0" text-anchor="middle" font-size="17" font-weight="700" fill="#4C78A8">$21.83</text><text x="155" y="169.0" text-anchor="middle" font-size="10" fill="#666">baseline</text><text x="155" y="410" text-anchor="middle" font-size="12" font-weight="600" fill="#4C78A8">classic</text><text x="155" y="426" text-anchor="middle" font-size="10" fill="#888">solved 24/24</text><rect x="289" y="277.7" width="112" height="108.3" fill="#E45756"/><rect x="289" y="199.4" width="112" height="78.3" fill="#E45756" fill-opacity="0.35"/><rect x="289" y="130.7" width="112" height="68.7" fill="#222"/><text x="345" y="334.8" text-anchor="middle" font-size="10" fill="#fff">in $11.31</text><text x="345" y="241.5" text-anchor="middle" font-size="10" fill="#333">cache $8.17</text><text x="345" y="168.0" text-anchor="middle" font-size="10" fill="#fff">out $7.17</text><text x="345" y="108.7" text-anchor="middle" font-size="17" font-weight="700" fill="#E45756">$26.66</text><text x="345" y="122.7" text-anchor="middle" font-size="10" fill="#666">22% vs classic</text><text x="345" y="410" text-anchor="middle" font-size="12" font-weight="600" fill="#E45756">classic-graphify</text><text x="345" y="426" text-anchor="middle" font-size="10" fill="#888">solved 24/24</text><rect x="479" y="314.3" width="112" height="71.7" fill="#54A24B"/><rect x="479" y="273.9" width="112" height="40.4" fill="#54A24B" fill-opacity="0.35"/><rect x="479" y="222.2" width="112" height="51.8" fill="#222"/><text x="535" y="353.2" text-anchor="middle" font-size="10" fill="#fff">in $7.48</text><text x="535" y="297.1" text-anchor="middle" font-size="10" fill="#333">cache $4.22</text><text x="535" y="251.0" text-anchor="middle" font-size="10" fill="#fff">out $5.40</text><text x="535" y="200.2" text-anchor="middle" font-size="17" font-weight="700" fill="#54A24B">$17.11</text><text x="535" y="214.2" text-anchor="middle" font-size="10" fill="#666">-22% vs classic</text><text x="535" y="410" text-anchor="middle" font-size="12" font-weight="600" fill="#54A24B">classic-graph-bash</text><text x="535" y="426" text-anchor="middle" font-size="10" fill="#888">solved 23/24</text></svg>
