<svg xmlns="http://www.w3.org/2000/svg" width="820" height="724" viewBox="0 0 820 724" font-family="system-ui,Segoe UI,Helvetica,Arial,sans-serif">
<rect width="820" height="724" fill="#ffffff"/>
<text x="410" y="26" text-anchor="middle" font-size="16" font-weight="600" fill="#111">Token cost per benchmark (USD): input + cached, scaled by price</text>
<text x="410" y="44" text-anchor="middle" font-size="11.5" fill="#666">22 successful instances; per arm solid bar = input ×$5/Mtok + faded = cached ×$0.5/Mtok; hollow = arm failed; dashed = arm mean over its passes</text><rect x="150" y="55" width="12" height="12" fill="#4C78A8"/><text x="167" y="65" font-size="11" fill="#333">classic (mean $0.331, n=21)</text><rect x="347.4" y="55" width="12" height="12" fill="#E45756"/><text x="364.4" y="65" font-size="11" fill="#333">classic-graphify (mean $0.351, n=22)</text><rect x="600.6" y="55" width="12" height="12" fill="#54A24B"/><text x="617.6" y="65" font-size="11" fill="#333">classic-graph-bash (mean $0.232, n=22)</text><line x1="150.0" y1="86" x2="150.0" y2="710" stroke="#eee" stroke-width="1"/><text x="150.0" y="82" text-anchor="middle" font-size="10" fill="#999">$0.0</text><line x1="476.0" y1="86" x2="476.0" y2="710" stroke="#eee" stroke-width="1"/><text x="476.0" y="82" text-anchor="middle" font-size="10" fill="#999">$0.6</text><line x1="802.0" y1="86" x2="802.0" y2="710" stroke="#eee" stroke-width="1"/><text x="802.0" y="82" text-anchor="middle" font-size="10" fill="#999">$1.2</text><line x1="330.0" y1="88" x2="330.0" y2="710" stroke="#4C78A8" stroke-width="1.3" stroke-dasharray="4 3" opacity="0.8"/><line x1="340.8" y1="88" x2="340.8" y2="710" stroke="#E45756" stroke-width="1.3" stroke-dasharray="4 3" opacity="0.8"/><line x1="276.0" y1="88" x2="276.0" y2="710" stroke="#54A24B" stroke-width="1.3" stroke-dasharray="4 3" opacity="0.8"/><text x="144" y="108.0" text-anchor="end" font-size="9.5" fill="#444">zstd-3438</text><rect x="150" y="92.0" width="228.7" height="6" fill="#4C78A8"/><rect x="378.7" y="92.0" width="371.5" height="6" fill="#4C78A8" fill-opacity="0.4"/><rect x="150" y="99.0" width="150.9" height="6" fill="#E45756"/><rect x="300.9" y="99.0" width="195.4" height="6" fill="#E45756" fill-opacity="0.4"/><rect x="150" y="106.0" width="88.1" height="6" fill="#54A24B"/><rect x="238.1" y="106.0" width="49.9" height="6" fill="#54A24B" fill-opacity="0.4"/><text x="144" y="136.0" text-anchor="end" font-size="9.5" fill="#444">dayjs-2532</text><rect x="150" y="120.0" width="209.3" height="6" fill="#4C78A8"/><rect x="359.3" y="120.0" width="186.7" height="6" fill="#4C78A8" fill-opacity="0.4"/><rect x="150" y="127.0" width="139.5" height="6" fill="#E45756"/><rect x="289.5" y="127.0" width="53.4" height="6" fill="#E45756" fill-opacity="0.4"/><rect x="150" y="134.0" width="107.4" height="6" fill="#54A24B"/><rect x="257.4" y="134.0" width="51.7" height="6" fill="#54A24B" fill-opacity="0.4"/><text x="144" y="164.0" text-anchor="end" font-size="9.5" fill="#444">ponyc-4593</text><rect x="150" y="148.0" width="253.6" height="6" fill="#4C78A8" fill-opacity="0.1" stroke="#4C78A8" stroke-width="0.8"/><rect x="150" y="155.0" width="177.3" height="6" fill="#E45756"/><rect x="327.3" y="155.0" width="124.1" height="6" fill="#E45756" fill-opacity="0.4"/><rect x="150" y="162.0" width="105.1" height="6" fill="#54A24B"/><rect x="255.1" y="162.0" width="36.3" height="6" fill="#54A24B" fill-opacity="0.4"/><text x="144" y="192.0" text-anchor="end" font-size="9.5" fill="#444">grpc-go-3258</text><rect x="150" y="176.0" width="106.3" height="6" fill="#4C78A8"/><rect x="256.3" y="176.0" width="114.6" height="6" fill="#4C78A8" fill-opacity="0.4"/><rect x="150" y="183.0" width="184.5" height="6" fill="#E45756"/><rect x="334.5" y="183.0" width="130.6" height="6" fill="#E45756" fill-opacity="0.4"/><rect x="150" y="190.0" width="198.2" height="6" fill="#54A24B"/><rect x="348.2" y="190.0" width="69.7" height="6" fill="#54A24B" fill-opacity="0.4"/><text x="144" y="220.0" text-anchor="end" font-size="9.5" fill="#444">jq-3238</text><rect x="150" y="204.0" width="118.4" height="6" fill="#4C78A8"/><rect x="268.4" y="204.0" width="99.3" height="6" fill="#4C78A8" fill-opacity="0.4"/><rect x="150" y="211.0" width="96.8" height="6" fill="#E45756"/><rect x="246.8" y="211.0" width="137.7" height="6" fill="#E45756" fill-opacity="0.4"/><rect x="150" y="218.0" width="102.5" height="6" fill="#54A24B"/><rect x="252.5" y="218.0" width="115.9" height="6" fill="#54A24B" fill-opacity="0.4"/><text x="144" y="248.0" text-anchor="end" font-size="9.5" fill="#444">tracing-2897</text><rect x="150" y="232.0" width="137.6" height="6" fill="#4C78A8"/><rect x="287.6" y="232.0" width="59.0" height="6" fill="#4C78A8" fill-opacity="0.4"/><rect x="150" y="239.0" width="176.5" height="6" fill="#E45756"/><rect x="326.5" y="239.0" width="103.3" height="6" fill="#E45756" fill-opacity="0.4"/><rect x="150" y="246.0" width="126.0" height="6" fill="#54A24B"/><rect x="276.0" y="246.0" width="47.0" height="6" fill="#54A24B" fill-opacity="0.4"/><text x="144" y="276.0" text-anchor="end" font-size="9.5" fill="#444">dayjs-2399</text><rect x="150" y="260.0" width="129.9" height="6" fill="#4C78A8"/><rect x="279.9" y="260.0" width="70.2" height="6" fill="#4C78A8" fill-opacity="0.4"/><rect x="150" y="267.0" width="128.0" height="6" fill="#E45756"/><rect x="278.0" y="267.0" width="210.2" height="6" fill="#E45756" fill-opacity="0.4"/><rect x="150" y="274.0" width="202.4" height="6" fill="#54A24B"/><rect x="352.4" y="274.0" width="104.2" height="6" fill="#54A24B" fill-opacity="0.4"/><text x="144" y="304.0" text-anchor="end" font-size="9.5" fill="#444">core-11761</text><rect x="150" y="288.0" width="139.7" height="6" fill="#4C78A8"/><rect x="289.7" y="288.0" width="51.2" height="6" fill="#4C78A8" fill-opacity="0.4"/><rect x="150" y="295.0" width="148.3" height="6" fill="#E45756"/><rect x="298.3" y="295.0" width="58.0" height="6" fill="#E45756" fill-opacity="0.4"/><rect x="150" y="302.0" width="58.0" height="6" fill="#54A24B"/><rect x="208.0" y="302.0" width="17.4" height="6" fill="#54A24B" fill-opacity="0.4"/><text x="144" y="332.0" text-anchor="end" font-size="9.5" fill="#444">core-11680</text><rect x="150" y="316.0" width="146.8" height="6" fill="#4C78A8"/><rect x="296.8" y="316.0" width="26.0" height="6" fill="#4C78A8" fill-opacity="0.4"/><rect x="150" y="323.0" width="84.1" height="6" fill="#E45756"/><rect x="234.1" y="323.0" width="43.7" height="6" fill="#E45756" fill-opacity="0.4"/><rect x="150" y="330.0" width="32.1" height="6" fill="#54A24B"/><rect x="182.1" y="330.0" width="15.0" height="6" fill="#54A24B" fill-opacity="0.4"/><text x="144" y="360.0" text-anchor="end" font-size="9.5" fill="#444">core-11694</text><rect x="150" y="344.0" width="123.4" height="6" fill="#4C78A8"/><rect x="273.4" y="344.0" width="53.1" height="6" fill="#4C78A8" fill-opacity="0.4"/><rect x="150" y="351.0" width="165.9" height="6" fill="#E45756"/><rect x="315.9" y="351.0" width="196.0" height="6" fill="#E45756" fill-opacity="0.4"/><rect x="150" y="358.0" width="76.4" height="6" fill="#54A24B"/><rect x="226.4" y="358.0" width="72.2" height="6" fill="#54A24B" fill-opacity="0.4"/><text x="144" y="388.0" text-anchor="end" font-size="9.5" fill="#444">github-readme-stats-2844</text><rect x="150" y="372.0" width="113.2" height="6" fill="#4C78A8"/><rect x="263.2" y="372.0" width="47.2" height="6" fill="#4C78A8" fill-opacity="0.4"/><rect x="150" y="379.0" width="90.5" height="6" fill="#E45756"/><rect x="240.5" y="379.0" width="48.4" height="6" fill="#E45756" fill-opacity="0.4"/><rect x="150" y="386.0" width="68.7" height="6" fill="#54A24B"/><rect x="218.7" y="386.0" width="22.4" height="6" fill="#54A24B" fill-opacity="0.4"/><text x="144" y="416.0" text-anchor="end" font-size="9.5" fill="#444">clap-5873</text><rect x="150" y="400.0" width="126.2" height="6" fill="#4C78A8"/><rect x="276.2" y="400.0" width="54.7" height="6" fill="#4C78A8" fill-opacity="0.4"/><rect x="150" y="407.0" width="168.8" height="6" fill="#E45756"/><rect x="318.8" y="407.0" width="82.2" height="6" fill="#E45756" fill-opacity="0.4"/><rect x="150" y="414.0" width="89.8" height="6" fill="#54A24B"/><rect x="239.8" y="414.0" width="56.2" height="6" fill="#54A24B" fill-opacity="0.4"/><text x="144" y="444.0" text-anchor="end" font-size="9.5" fill="#444">bytes-732</text><rect x="150" y="428.0" width="117.4" height="6" fill="#4C78A8"/><rect x="267.4" y="428.0" width="37.4" height="6" fill="#4C78A8" fill-opacity="0.4"/><rect x="150" y="435.0" width="105.7" height="6" fill="#E45756"/><rect x="255.7" y="435.0" width="47.7" height="6" fill="#E45756" fill-opacity="0.4"/><rect x="150" y="442.0" width="86.4" height="6" fill="#54A24B"/><rect x="236.4" y="442.0" width="27.1" height="6" fill="#54A24B" fill-opacity="0.4"/><text x="144" y="472.0" text-anchor="end" font-size="9.5" fill="#444">fd-1394</text><rect x="150" y="456.0" width="87.1" height="6" fill="#4C78A8"/><rect x="237.1" y="456.0" width="46.6" height="6" fill="#4C78A8" fill-opacity="0.4"/><rect x="150" y="463.0" width="90.7" height="6" fill="#E45756"/><rect x="240.7" y="463.0" width="30.2" height="6" fill="#E45756" fill-opacity="0.4"/><rect x="150" y="470.0" width="42.8" height="6" fill="#54A24B"/><rect x="192.8" y="470.0" width="18.2" height="6" fill="#54A24B" fill-opacity="0.4"/><text x="144" y="500.0" text-anchor="end" font-size="9.5" fill="#444">bat-3189</text><rect x="150" y="484.0" width="113.4" height="6" fill="#4C78A8"/><rect x="263.4" y="484.0" width="26.4" height="6" fill="#4C78A8" fill-opacity="0.4"/><rect x="150" y="491.0" width="66.2" height="6" fill="#E45756"/><rect x="216.2" y="491.0" width="10.8" height="6" fill="#E45756" fill-opacity="0.4"/><rect x="150" y="498.0" width="127.2" height="6" fill="#54A24B"/><rect x="277.2" y="498.0" width="19.6" height="6" fill="#54A24B" fill-opacity="0.4"/><text x="144" y="528.0" text-anchor="end" font-size="9.5" fill="#444">zstd-3942</text><rect x="150" y="512.0" width="106.8" height="6" fill="#4C78A8"/><rect x="256.8" y="512.0" width="32.4" height="6" fill="#4C78A8" fill-opacity="0.4"/><rect x="150" y="519.0" width="149.5" height="6" fill="#E45756"/><rect x="299.5" y="519.0" width="35.5" height="6" fill="#E45756" fill-opacity="0.4"/><rect x="150" y="526.0" width="99.7" height="6" fill="#54A24B"/><rect x="249.7" y="526.0" width="66.2" height="6" fill="#54A24B" fill-opacity="0.4"/><text x="144" y="556.0" text-anchor="end" font-size="9.5" fill="#444">core-11813</text><rect x="150" y="540.0" width="77.5" height="6" fill="#4C78A8"/><rect x="227.5" y="540.0" width="52.2" height="6" fill="#4C78A8" fill-opacity="0.4"/><rect x="150" y="547.0" width="59.3" height="6" fill="#E45756"/><rect x="209.3" y="547.0" width="15.9" height="6" fill="#E45756" fill-opacity="0.4"/><rect x="150" y="554.0" width="23.8" height="6" fill="#54A24B"/><rect x="173.8" y="554.0" width="6.1" height="6" fill="#54A24B" fill-opacity="0.4"/><text x="144" y="584.0" text-anchor="end" font-size="9.5" fill="#444">go-zero-2787</text><rect x="150" y="568.0" width="76.7" height="6" fill="#4C78A8"/><rect x="226.7" y="568.0" width="16.8" height="6" fill="#4C78A8" fill-opacity="0.4"/><rect x="150" y="575.0" width="69.3" height="6" fill="#E45756"/><rect x="219.3" y="575.0" width="10.0" height="6" fill="#E45756" fill-opacity="0.4"/><rect x="150" y="582.0" width="58.9" height="6" fill="#54A24B"/><rect x="208.9" y="582.0" width="18.9" height="6" fill="#54A24B" fill-opacity="0.4"/><text x="144" y="612.0" text-anchor="end" font-size="9.5" fill="#444">darkreader-7241</text><rect x="150" y="596.0" width="72.0" height="6" fill="#4C78A8"/><rect x="222.0" y="596.0" width="25.2" height="6" fill="#4C78A8" fill-opacity="0.4"/><rect x="150" y="603.0" width="105.8" height="6" fill="#E45756"/><rect x="255.8" y="603.0" width="15.6" height="6" fill="#E45756" fill-opacity="0.4"/><rect x="150" y="610.0" width="51.9" height="6" fill="#54A24B"/><rect x="201.9" y="610.0" width="7.0" height="6" fill="#54A24B" fill-opacity="0.4"/><text x="144" y="640.0" text-anchor="end" font-size="9.5" fill="#444">jq-2919</text><rect x="150" y="624.0" width="52.1" height="6" fill="#4C78A8"/><rect x="202.1" y="624.0" width="22.3" height="6" fill="#4C78A8" fill-opacity="0.4"/><rect x="150" y="631.0" width="77.5" height="6" fill="#E45756"/><rect x="227.5" y="631.0" width="70.5" height="6" fill="#E45756" fill-opacity="0.4"/><rect x="150" y="638.0" width="78.3" height="6" fill="#54A24B"/><rect x="228.3" y="638.0" width="57.3" height="6" fill="#54A24B" fill-opacity="0.4"/><text x="144" y="668.0" text-anchor="end" font-size="9.5" fill="#444">express-5555</text><rect x="150" y="652.0" width="55.2" height="6" fill="#4C78A8"/><rect x="205.2" y="652.0" width="11.4" height="6" fill="#4C78A8" fill-opacity="0.4"/><rect x="150" y="659.0" width="52.3" height="6" fill="#E45756"/><rect x="202.3" y="659.0" width="12.2" height="6" fill="#E45756" fill-opacity="0.4"/><rect x="150" y="666.0" width="9.9" height="6" fill="#54A24B"/><rect x="159.9" y="666.0" width="3.3" height="6" fill="#54A24B" fill-opacity="0.4"/><text x="144" y="696.0" text-anchor="end" font-size="9.5" fill="#444">rayon-986</text><rect x="150" y="680.0" width="29.1" height="6" fill="#4C78A8"/><rect x="179.1" y="680.0" width="9.0" height="6" fill="#4C78A8" fill-opacity="0.4"/><rect x="150" y="687.0" width="69.8" height="6" fill="#E45756"/><rect x="219.8" y="687.0" width="9.3" height="6" fill="#E45756" fill-opacity="0.4"/><rect x="150" y="694.0" width="48.3" height="6" fill="#54A24B"/><rect x="198.3" y="694.0" width="8.9" height="6" fill="#54A24B" fill-opacity="0.4"/></svg>
