<svg xmlns="http://www.w3.org/2000/svg" width="820" height="812" viewBox="0 0 820 812" font-family="system-ui,Segoe UI,Helvetica,Arial,sans-serif">
<rect width="820" height="812" fill="#ffffff"/>
<text x="410" y="24" text-anchor="middle" font-size="16" font-weight="600" fill="#111">Token cost per benchmark (USD): input + cached, scaled by price</text>
<text x="410" y="42" text-anchor="middle" font-size="11" fill="#666">25 successful instances; per arm solid = input ×$5/Mtok + faded = cached ×$0.5/Mtok; dot = each run total</text><rect x="150" y="53" width="12" height="12" fill="#4C78A8"/><text x="167" y="63" font-size="11" fill="#333">classic (mean $0.283)</text><rect x="310.20000000000005" y="53" width="12" height="12" fill="#E45756"/><text x="327.20000000000005" y="63" font-size="11" fill="#333">classic-graphify (mean $0.424)</text><rect x="526.2" y="53" width="12" height="12" fill="#54A24B"/><text x="543.2" y="63" font-size="11" fill="#333">classic-graph-bash (mean $0.217)</text><line x1="150.0" y1="90" x2="150.0" y2="798" stroke="#eee" stroke-width="1"/><text x="150.0" y="86" text-anchor="middle" font-size="10" fill="#999">$0.0</text><line x1="367.3" y1="90" x2="367.3" y2="798" stroke="#eee" stroke-width="1"/><text x="367.3" y="86" text-anchor="middle" font-size="10" fill="#999">$0.5</text><line x1="584.7" y1="90" x2="584.7" y2="798" stroke="#eee" stroke-width="1"/><text x="584.7" y="86" text-anchor="middle" font-size="10" fill="#999">$0.9</text><line x1="802.0" y1="90" x2="802.0" y2="798" stroke="#eee" stroke-width="1"/><text x="802.0" y="86" text-anchor="middle" font-size="10" fill="#999">$1.4</text><line x1="250.9" y1="92" x2="250.9" y2="798" stroke="#54A24B" stroke-width="1.3" stroke-dasharray="4 3" opacity="0.85"/><text x="250.9" y="72" text-anchor="middle" font-size="10.5" font-weight="700" fill="#54A24B" stroke="#fff" stroke-width="2.6" paint-order="stroke">24 ok</text><line x1="282.0" y1="92" x2="282.0" y2="798" stroke="#4C78A8" stroke-width="1.3" stroke-dasharray="4 3" opacity="0.85"/><text x="282.0" y="59" text-anchor="middle" font-size="10.5" font-weight="700" fill="#4C78A8" stroke="#fff" stroke-width="2.6" paint-order="stroke">22 ok</text><line x1="347.3" y1="92" x2="347.3" y2="798" stroke="#E45756" stroke-width="1.3" stroke-dasharray="4 3" opacity="0.85"/><text x="347.3" y="72" text-anchor="middle" font-size="10.5" font-weight="700" fill="#E45756" stroke="#fff" stroke-width="2.6" paint-order="stroke">25 ok</text><text x="144" y="112.0" text-anchor="end" font-size="9.5" fill="#444">dayjs-2399</text><rect x="150" y="96.0" width="216.3" height="6" fill="#4C78A8"/><rect x="366.3" y="96.0" width="139.1" height="6" fill="#4C78A8" fill-opacity="0.4"/><circle cx="505.4" cy="99.0" r="2.5" fill="#4C78A8" stroke="#222" stroke-width="0.7"/><rect x="150" y="103.0" width="189.8" height="6" fill="#E45756"/><rect x="339.8" y="103.0" width="213.6" height="6" fill="#E45756" fill-opacity="0.4"/><circle cx="553.5" cy="106.0" r="2.5" fill="#E45756" stroke="#222" stroke-width="0.7"/><rect x="150" y="110.0" width="59.6" height="6" fill="#54A24B"/><rect x="209.6" y="110.0" width="36.5" height="6" fill="#54A24B" fill-opacity="0.4"/><circle cx="246.1" cy="113.0" r="2.5" fill="#54A24B" stroke="#222" stroke-width="0.7"/><text x="144" y="140.0" text-anchor="end" font-size="9.5" fill="#444">zstd-3438</text><rect x="150" y="124.0" width="126.6" height="6" fill="#4C78A8"/><rect x="276.6" y="124.0" width="155.1" height="6" fill="#4C78A8" fill-opacity="0.4"/><circle cx="431.7" cy="127.0" r="2.5" fill="#4C78A8" stroke="#222" stroke-width="0.7"/><rect x="150" y="131.0" width="173.0" height="6" fill="#E45756"/><rect x="323.0" y="131.0" width="446.4" height="6" fill="#E45756" fill-opacity="0.4"/><circle cx="769.4" cy="134.0" r="2.5" fill="#E45756" stroke="#222" stroke-width="0.7"/><rect x="150" y="138.0" width="102.0" height="6" fill="#54A24B"/><rect x="252.0" y="138.0" width="104.6" height="6" fill="#54A24B" fill-opacity="0.4"/><circle cx="356.5" cy="141.0" r="2.5" fill="#54A24B" stroke="#222" stroke-width="0.7"/><text x="144" y="168.0" text-anchor="end" font-size="9.5" fill="#444">core-11694</text><rect x="150" y="152.0" width="151.3" height="6" fill="#4C78A8"/><rect x="301.3" y="152.0" width="141.3" height="6" fill="#4C78A8" fill-opacity="0.4"/><circle cx="442.6" cy="155.0" r="2.5" fill="#4C78A8" stroke="#222" stroke-width="0.7"/><rect x="150" y="159.0" width="90.1" height="6" fill="#E45756"/><rect x="240.1" y="159.0" width="102.9" height="6" fill="#E45756" fill-opacity="0.4"/><circle cx="343.0" cy="162.0" r="2.5" fill="#E45756" stroke="#222" stroke-width="0.7"/><rect x="150" y="166.0" width="36.4" height="6" fill="#54A24B"/><rect x="186.4" y="166.0" width="5.8" height="6" fill="#54A24B" fill-opacity="0.4"/><circle cx="192.3" cy="169.0" r="2.5" fill="#54A24B" stroke="#222" stroke-width="0.7"/><text x="144" y="196.0" text-anchor="end" font-size="9.5" fill="#444">simdjson-2178</text><rect x="150" y="187.0" width="178.7" height="6" fill="#E45756"/><rect x="328.7" y="187.0" width="193.3" height="6" fill="#E45756" fill-opacity="0.4"/><circle cx="521.9" cy="190.0" r="2.5" fill="#E45756" stroke="#222" stroke-width="0.7"/><rect x="150" y="194.0" width="98.9" height="6" fill="#54A24B"/><rect x="248.9" y="194.0" width="59.1" height="6" fill="#54A24B" fill-opacity="0.4"/><circle cx="308.0" cy="197.0" r="2.5" fill="#54A24B" stroke="#222" stroke-width="0.7"/><text x="144" y="224.0" text-anchor="end" font-size="9.5" fill="#444">ponyc-4593</text><rect x="150" y="215.0" width="152.0" height="6" fill="#E45756"/><rect x="302.0" y="215.0" width="106.3" height="6" fill="#E45756" fill-opacity="0.4"/><circle cx="408.3" cy="218.0" r="2.5" fill="#E45756" stroke="#222" stroke-width="0.7"/><rect x="150" y="222.0" width="90.0" height="6" fill="#54A24B"/><rect x="240.0" y="222.0" width="31.1" height="6" fill="#54A24B" fill-opacity="0.4"/><circle cx="271.2" cy="225.0" r="2.5" fill="#54A24B" stroke="#222" stroke-width="0.7"/><text x="144" y="252.0" text-anchor="end" font-size="9.5" fill="#444">logstash-17021</text><rect x="150" y="243.0" width="132.4" height="6" fill="#E45756"/><rect x="282.4" y="243.0" width="115.6" height="6" fill="#E45756" fill-opacity="0.4"/><circle cx="398.1" cy="246.0" r="2.5" fill="#E45756" stroke="#222" stroke-width="0.7"/><text x="144" y="280.0" text-anchor="end" font-size="9.5" fill="#444">grpc-go-3351</text><rect x="150" y="264.0" width="116.2" height="6" fill="#4C78A8"/><rect x="266.2" y="264.0" width="63.3" height="6" fill="#4C78A8" fill-opacity="0.4"/><circle cx="329.5" cy="267.0" r="2.5" fill="#4C78A8" stroke="#222" stroke-width="0.7"/><rect x="150" y="271.0" width="84.7" height="6" fill="#E45756"/><rect x="234.7" y="271.0" width="63.2" height="6" fill="#E45756" fill-opacity="0.4"/><circle cx="297.9" cy="274.0" r="2.5" fill="#E45756" stroke="#222" stroke-width="0.7"/><rect x="150" y="278.0" width="70.8" height="6" fill="#54A24B"/><rect x="220.8" y="278.0" width="48.3" height="6" fill="#54A24B" fill-opacity="0.4"/><circle cx="269.0" cy="281.0" r="2.5" fill="#54A24B" stroke="#222" stroke-width="0.7"/><text x="144" y="308.0" text-anchor="end" font-size="9.5" fill="#444">grpc-go-3258</text><rect x="150" y="292.0" width="73.8" height="6" fill="#4C78A8"/><rect x="223.8" y="292.0" width="79.6" height="6" fill="#4C78A8" fill-opacity="0.4"/><circle cx="303.4" cy="295.0" r="2.5" fill="#4C78A8" stroke="#222" stroke-width="0.7"/><rect x="150" y="299.0" width="159.9" height="6" fill="#E45756"/><rect x="309.9" y="299.0" width="95.7" height="6" fill="#E45756" fill-opacity="0.4"/><circle cx="405.7" cy="302.0" r="2.5" fill="#E45756" stroke="#222" stroke-width="0.7"/><rect x="150" y="306.0" width="57.3" height="6" fill="#54A24B"/><rect x="207.3" y="306.0" width="40.7" height="6" fill="#54A24B" fill-opacity="0.4"/><circle cx="248.0" cy="309.0" r="2.5" fill="#54A24B" stroke="#222" stroke-width="0.7"/><text x="144" y="336.0" text-anchor="end" font-size="9.5" fill="#444">fd-1394</text><rect x="150" y="320.0" width="97.2" height="6" fill="#4C78A8"/><rect x="247.2" y="320.0" width="60.1" height="6" fill="#4C78A8" fill-opacity="0.4"/><circle cx="307.3" cy="323.0" r="2.5" fill="#4C78A8" stroke="#222" stroke-width="0.7"/><rect x="150" y="327.0" width="107.5" height="6" fill="#E45756"/><rect x="257.5" y="327.0" width="53.9" height="6" fill="#E45756" fill-opacity="0.4"/><circle cx="311.4" cy="330.0" r="2.5" fill="#E45756" stroke="#222" stroke-width="0.7"/><rect x="150" y="334.0" width="17.3" height="6" fill="#54A24B"/><rect x="167.3" y="334.0" width="5.6" height="6" fill="#54A24B" fill-opacity="0.4"/><circle cx="172.9" cy="337.0" r="2.5" fill="#54A24B" stroke="#222" stroke-width="0.7"/><text x="144" y="364.0" text-anchor="end" font-size="9.5" fill="#444">clap-5873</text><rect x="150" y="348.0" width="153.1" height="6" fill="#4C78A8"/><rect x="303.1" y="348.0" width="32.8" height="6" fill="#4C78A8" fill-opacity="0.4"/><circle cx="335.9" cy="351.0" r="2.5" fill="#4C78A8" stroke="#222" stroke-width="0.7"/><rect x="150" y="355.0" width="121.9" height="6" fill="#E45756"/><rect x="271.9" y="355.0" width="80.2" height="6" fill="#E45756" fill-opacity="0.4"/><circle cx="352.1" cy="358.0" r="2.5" fill="#E45756" stroke="#222" stroke-width="0.7"/><rect x="150" y="362.0" width="119.2" height="6" fill="#54A24B"/><rect x="269.2" y="362.0" width="55.7" height="6" fill="#54A24B" fill-opacity="0.4"/><circle cx="324.8" cy="365.0" r="2.5" fill="#54A24B" stroke="#222" stroke-width="0.7"/><text x="144" y="392.0" text-anchor="end" font-size="9.5" fill="#444">core-11761</text><rect x="150" y="376.0" width="86.5" height="6" fill="#4C78A8"/><rect x="236.5" y="376.0" width="42.2" height="6" fill="#4C78A8" fill-opacity="0.4"/><circle cx="278.7" cy="379.0" r="2.5" fill="#4C78A8" stroke="#222" stroke-width="0.7"/><rect x="150" y="383.0" width="99.7" height="6" fill="#E45756"/><rect x="249.7" y="383.0" width="53.5" height="6" fill="#E45756" fill-opacity="0.4"/><circle cx="303.3" cy="386.0" r="2.5" fill="#E45756" stroke="#222" stroke-width="0.7"/><rect x="150" y="390.0" width="79.7" height="6" fill="#54A24B"/><rect x="229.7" y="390.0" width="27.7" height="6" fill="#54A24B" fill-opacity="0.4"/><circle cx="257.4" cy="393.0" r="2.5" fill="#54A24B" stroke="#222" stroke-width="0.7"/><text x="144" y="420.0" text-anchor="end" font-size="9.5" fill="#444">jq-3238</text><rect x="150" y="404.0" width="80.3" height="6" fill="#4C78A8"/><rect x="230.3" y="404.0" width="60.9" height="6" fill="#4C78A8" fill-opacity="0.4"/><circle cx="291.2" cy="407.0" r="2.5" fill="#4C78A8" stroke="#222" stroke-width="0.7"/><rect x="150" y="411.0" width="98.6" height="6" fill="#E45756"/><rect x="248.6" y="411.0" width="72.1" height="6" fill="#E45756" fill-opacity="0.4"/><circle cx="320.8" cy="414.0" r="2.5" fill="#E45756" stroke="#222" stroke-width="0.7"/><rect x="150" y="418.0" width="185.2" height="6" fill="#54A24B"/><rect x="335.2" y="418.0" width="177.3" height="6" fill="#54A24B" fill-opacity="0.4"/><circle cx="512.5" cy="421.0" r="2.5" fill="#54A24B" stroke="#222" stroke-width="0.7"/><text x="144" y="448.0" text-anchor="end" font-size="9.5" fill="#444">tracing-2897</text><rect x="150" y="432.0" width="83.0" height="6" fill="#4C78A8"/><rect x="233.0" y="432.0" width="56.2" height="6" fill="#4C78A8" fill-opacity="0.4"/><circle cx="289.2" cy="435.0" r="2.5" fill="#4C78A8" stroke="#222" stroke-width="0.7"/><rect x="150" y="439.0" width="126.7" height="6" fill="#E45756"/><rect x="276.7" y="439.0" width="66.6" height="6" fill="#E45756" fill-opacity="0.4"/><circle cx="343.4" cy="442.0" r="2.5" fill="#E45756" stroke="#222" stroke-width="0.7"/><rect x="150" y="446.0" width="68.0" height="6" fill="#54A24B"/><rect x="218.0" y="446.0" width="16.1" height="6" fill="#54A24B" fill-opacity="0.4"/><circle cx="234.1" cy="449.0" r="2.5" fill="#54A24B" stroke="#222" stroke-width="0.7"/><text x="144" y="476.0" text-anchor="end" font-size="9.5" fill="#444">dayjs-2532</text><rect x="150" y="460.0" width="61.9" height="6" fill="#4C78A8"/><rect x="211.9" y="460.0" width="35.2" height="6" fill="#4C78A8" fill-opacity="0.4"/><circle cx="247.1" cy="463.0" r="2.5" fill="#4C78A8" stroke="#222" stroke-width="0.7"/><rect x="150" y="467.0" width="199.7" height="6" fill="#E45756"/><rect x="349.7" y="467.0" width="81.1" height="6" fill="#E45756" fill-opacity="0.4"/><circle cx="430.8" cy="470.0" r="2.5" fill="#E45756" stroke="#222" stroke-width="0.7"/><rect x="150" y="474.0" width="75.5" height="6" fill="#54A24B"/><rect x="225.5" y="474.0" width="23.8" height="6" fill="#54A24B" fill-opacity="0.4"/><circle cx="249.4" cy="477.0" r="2.5" fill="#54A24B" stroke="#222" stroke-width="0.7"/><text x="144" y="504.0" text-anchor="end" font-size="9.5" fill="#444">bytes-732</text><rect x="150" y="488.0" width="100.6" height="6" fill="#4C78A8"/><rect x="250.6" y="488.0" width="32.1" height="6" fill="#4C78A8" fill-opacity="0.4"/><circle cx="282.7" cy="491.0" r="2.5" fill="#4C78A8" stroke="#222" stroke-width="0.7"/><rect x="150" y="495.0" width="90.6" height="6" fill="#E45756"/><rect x="240.6" y="495.0" width="40.9" height="6" fill="#E45756" fill-opacity="0.4"/><circle cx="281.5" cy="498.0" r="2.5" fill="#E45756" stroke="#222" stroke-width="0.7"/><rect x="150" y="502.0" width="74.1" height="6" fill="#54A24B"/><rect x="224.1" y="502.0" width="23.2" height="6" fill="#54A24B" fill-opacity="0.4"/><circle cx="247.3" cy="505.0" r="2.5" fill="#54A24B" stroke="#222" stroke-width="0.7"/><text x="144" y="532.0" text-anchor="end" font-size="9.5" fill="#444">github-readme-stats-2844</text><rect x="150" y="516.0" width="83.2" height="6" fill="#4C78A8"/><rect x="233.2" y="516.0" width="20.0" height="6" fill="#4C78A8" fill-opacity="0.4"/><circle cx="253.2" cy="519.0" r="2.5" fill="#4C78A8" stroke="#222" stroke-width="0.7"/><rect x="150" y="523.0" width="107.3" height="6" fill="#E45756"/><rect x="257.3" y="523.0" width="57.7" height="6" fill="#E45756" fill-opacity="0.4"/><circle cx="315.0" cy="526.0" r="2.5" fill="#E45756" stroke="#222" stroke-width="0.7"/><rect x="150" y="530.0" width="54.9" height="6" fill="#54A24B"/><rect x="204.9" y="530.0" width="28.1" height="6" fill="#54A24B" fill-opacity="0.4"/><circle cx="233.1" cy="533.0" r="2.5" fill="#54A24B" stroke="#222" stroke-width="0.7"/><text x="144" y="560.0" text-anchor="end" font-size="9.5" fill="#444">core-11680</text><rect x="150" y="544.0" width="42.4" height="6" fill="#4C78A8"/><rect x="192.4" y="544.0" width="23.1" height="6" fill="#4C78A8" fill-opacity="0.4"/><circle cx="215.5" cy="547.0" r="2.5" fill="#4C78A8" stroke="#222" stroke-width="0.7"/><rect x="150" y="551.0" width="80.9" height="6" fill="#E45756"/><rect x="230.9" y="551.0" width="28.0" height="6" fill="#E45756" fill-opacity="0.4"/><circle cx="258.9" cy="554.0" r="2.5" fill="#E45756" stroke="#222" stroke-width="0.7"/><rect x="150" y="558.0" width="86.2" height="6" fill="#54A24B"/><rect x="236.2" y="558.0" width="16.0" height="6" fill="#54A24B" fill-opacity="0.4"/><circle cx="252.2" cy="561.0" r="2.5" fill="#54A24B" stroke="#222" stroke-width="0.7"/><text x="144" y="588.0" text-anchor="end" font-size="9.5" fill="#444">jq-2919</text><rect x="150" y="572.0" width="51.1" height="6" fill="#4C78A8"/><rect x="201.1" y="572.0" width="39.9" height="6" fill="#4C78A8" fill-opacity="0.4"/><circle cx="241.1" cy="575.0" r="2.5" fill="#4C78A8" stroke="#222" stroke-width="0.7"/><rect x="150" y="579.0" width="126.6" height="6" fill="#E45756"/><rect x="276.6" y="579.0" width="76.7" height="6" fill="#E45756" fill-opacity="0.4"/><circle cx="353.3" cy="582.0" r="2.5" fill="#E45756" stroke="#222" stroke-width="0.7"/><rect x="150" y="586.0" width="86.9" height="6" fill="#54A24B"/><rect x="236.9" y="586.0" width="34.3" height="6" fill="#54A24B" fill-opacity="0.4"/><circle cx="271.2" cy="589.0" r="2.5" fill="#54A24B" stroke="#222" stroke-width="0.7"/><text x="144" y="616.0" text-anchor="end" font-size="9.5" fill="#444">core-11813</text><rect x="150" y="600.0" width="51.7" height="6" fill="#4C78A8"/><rect x="201.7" y="600.0" width="30.2" height="6" fill="#4C78A8" fill-opacity="0.4"/><circle cx="231.9" cy="603.0" r="2.5" fill="#4C78A8" stroke="#222" stroke-width="0.7"/><rect x="150" y="607.0" width="82.5" height="6" fill="#E45756"/><rect x="232.5" y="607.0" width="18.4" height="6" fill="#E45756" fill-opacity="0.4"/><circle cx="250.8" cy="610.0" r="2.5" fill="#E45756" stroke="#222" stroke-width="0.7"/><rect x="150" y="614.0" width="33.1" height="6" fill="#54A24B"/><rect x="183.1" y="614.0" width="5.6" height="6" fill="#54A24B" fill-opacity="0.4"/><circle cx="188.8" cy="617.0" r="2.5" fill="#54A24B" stroke="#222" stroke-width="0.7"/><text x="144" y="644.0" text-anchor="end" font-size="9.5" fill="#444">zstd-3942</text><rect x="150" y="628.0" width="47.7" height="6" fill="#4C78A8"/><rect x="197.7" y="628.0" width="20.4" height="6" fill="#4C78A8" fill-opacity="0.4"/><circle cx="218.1" cy="631.0" r="2.5" fill="#4C78A8" stroke="#222" stroke-width="0.7"/><rect x="150" y="635.0" width="61.3" height="6" fill="#E45756"/><rect x="211.3" y="635.0" width="25.6" height="6" fill="#E45756" fill-opacity="0.4"/><circle cx="236.9" cy="638.0" r="2.5" fill="#E45756" stroke="#222" stroke-width="0.7"/><rect x="150" y="642.0" width="45.1" height="6" fill="#54A24B"/><rect x="195.1" y="642.0" width="16.0" height="6" fill="#54A24B" fill-opacity="0.4"/><circle cx="211.0" cy="645.0" r="2.5" fill="#54A24B" stroke="#222" stroke-width="0.7"/><text x="144" y="672.0" text-anchor="end" font-size="9.5" fill="#444">bat-3189</text><rect x="150" y="656.0" width="59.3" height="6" fill="#4C78A8"/><rect x="209.3" y="656.0" width="23.2" height="6" fill="#4C78A8" fill-opacity="0.4"/><circle cx="232.5" cy="659.0" r="2.5" fill="#4C78A8" stroke="#222" stroke-width="0.7"/><rect x="150" y="663.0" width="74.5" height="6" fill="#E45756"/><rect x="224.5" y="663.0" width="12.4" height="6" fill="#E45756" fill-opacity="0.4"/><circle cx="236.9" cy="666.0" r="2.5" fill="#E45756" stroke="#222" stroke-width="0.7"/><rect x="150" y="670.0" width="19.4" height="6" fill="#54A24B"/><rect x="169.4" y="670.0" width="9.3" height="6" fill="#54A24B" fill-opacity="0.4"/><circle cx="178.7" cy="673.0" r="2.5" fill="#54A24B" stroke="#222" stroke-width="0.7"/><text x="144" y="700.0" text-anchor="end" font-size="9.5" fill="#444">go-zero-2787</text><rect x="150" y="684.0" width="35.1" height="6" fill="#4C78A8"/><rect x="185.1" y="684.0" width="20.3" height="6" fill="#4C78A8" fill-opacity="0.4"/><circle cx="205.3" cy="687.0" r="2.5" fill="#4C78A8" stroke="#222" stroke-width="0.7"/><rect x="150" y="691.0" width="77.4" height="6" fill="#E45756"/><rect x="227.4" y="691.0" width="16.1" height="6" fill="#E45756" fill-opacity="0.4"/><circle cx="243.5" cy="694.0" r="2.5" fill="#E45756" stroke="#222" stroke-width="0.7"/><rect x="150" y="698.0" width="8.4" height="6" fill="#54A24B"/><rect x="158.4" y="698.0" width="2.7" height="6" fill="#54A24B" fill-opacity="0.4"/><circle cx="161.2" cy="701.0" r="2.5" fill="#54A24B" stroke="#222" stroke-width="0.7"/><text x="144" y="728.0" text-anchor="end" font-size="9.5" fill="#444">darkreader-7241</text><rect x="150" y="712.0" width="33.4" height="6" fill="#4C78A8"/><rect x="183.4" y="712.0" width="12.5" height="6" fill="#4C78A8" fill-opacity="0.4"/><circle cx="195.9" cy="715.0" r="2.5" fill="#4C78A8" stroke="#222" stroke-width="0.7"/><rect x="150" y="719.0" width="99.5" height="6" fill="#E45756"/><rect x="249.5" y="719.0" width="32.4" height="6" fill="#E45756" fill-opacity="0.4"/><circle cx="281.9" cy="722.0" r="2.5" fill="#E45756" stroke="#222" stroke-width="0.7"/><rect x="150" y="726.0" width="87.2" height="6" fill="#54A24B"/><rect x="237.2" y="726.0" width="23.2" height="6" fill="#54A24B" fill-opacity="0.4"/><circle cx="260.5" cy="729.0" r="2.5" fill="#54A24B" stroke="#222" stroke-width="0.7"/><text x="144" y="756.0" text-anchor="end" font-size="9.5" fill="#444">rayon-986</text><rect x="150" y="740.0" width="24.9" height="6" fill="#4C78A8"/><rect x="174.9" y="740.0" width="7.7" height="6" fill="#4C78A8" fill-opacity="0.4"/><circle cx="182.7" cy="743.0" r="2.5" fill="#4C78A8" stroke="#222" stroke-width="0.7"/><rect x="150" y="747.0" width="59.8" height="6" fill="#E45756"/><rect x="209.8" y="747.0" width="8.0" height="6" fill="#E45756" fill-opacity="0.4"/><circle cx="217.8" cy="750.0" r="2.5" fill="#E45756" stroke="#222" stroke-width="0.7"/><rect x="150" y="754.0" width="41.4" height="6" fill="#54A24B"/><rect x="191.4" y="754.0" width="7.6" height="6" fill="#54A24B" fill-opacity="0.4"/><circle cx="199.0" cy="757.0" r="2.5" fill="#54A24B" stroke="#222" stroke-width="0.7"/><text x="144" y="784.0" text-anchor="end" font-size="9.5" fill="#444">express-5555</text><rect x="150" y="768.0" width="24.9" height="6" fill="#4C78A8"/><rect x="174.9" y="768.0" width="8.7" height="6" fill="#4C78A8" fill-opacity="0.4"/><circle cx="183.6" cy="771.0" r="2.5" fill="#4C78A8" stroke="#222" stroke-width="0.7"/><rect x="150" y="775.0" width="84.3" height="6" fill="#E45756"/><rect x="234.3" y="775.0" width="12.2" height="6" fill="#E45756" fill-opacity="0.4"/><circle cx="246.4" cy="778.0" r="2.5" fill="#E45756" stroke="#222" stroke-width="0.7"/><rect x="150" y="782.0" width="16.7" height="6" fill="#54A24B"/><rect x="166.7" y="782.0" width="8.8" height="6" fill="#54A24B" fill-opacity="0.4"/><circle cx="175.5" cy="785.0" r="2.5" fill="#54A24B" stroke="#222" stroke-width="0.7"/></svg>
