<svg xmlns="http://www.w3.org/2000/svg" width="760" height="440" viewBox="0 0 760 440" font-family="system-ui,Segoe UI,Helvetica,Arial,sans-serif">
<rect width="760" height="440" fill="#ffffff"/>
<text x="380" y="26" text-anchor="middle" font-size="16" font-weight="600" fill="#111">Token cost per run (USD): input + cached, scaled by price</text>
<text x="380" y="44" text-anchor="middle" font-size="11.5" fill="#666">49 instances — stacked bar = mean (input ×$5/Mtok, cached ×$0.5/Mtok); dots = per-run total</text><line x1="64" y1="376.0" x2="736" y2="376.0" stroke="#eee" stroke-width="1"/><text x="56" y="380.0" text-anchor="end" font-size="10.5" fill="#888">$0.0</text><line x1="64" y1="314.8" x2="736" y2="314.8" stroke="#eee" stroke-width="1"/><text x="56" y="318.8" text-anchor="end" font-size="10.5" fill="#888">$0.4</text><line x1="64" y1="253.6" x2="736" y2="253.6" stroke="#eee" stroke-width="1"/><text x="56" y="257.6" text-anchor="end" font-size="10.5" fill="#888">$0.8</text><line x1="64" y1="192.4" x2="736" y2="192.4" stroke="#eee" stroke-width="1"/><text x="56" y="196.4" text-anchor="end" font-size="10.5" fill="#888">$1.3</text><line x1="64" y1="131.2" x2="736" y2="131.2" stroke="#eee" stroke-width="1"/><text x="56" y="135.2" text-anchor="end" font-size="10.5" fill="#888">$1.7</text><line x1="64" y1="70.0" x2="736" y2="70.0" stroke="#eee" stroke-width="1"/><text x="56" y="74.0" text-anchor="end" font-size="10.5" fill="#888">$2.1</text><rect x="134" y="338.4" width="84" height="37.6" fill="#4878B0" fill-opacity="0.85"/><rect x="134" y="302.5" width="84" height="35.9" fill="#F2B705" fill-opacity="0.9"/><circle cx="236.3" cy="335.5" r="2.6" fill="#4C78A8" fill-opacity="0.55"/><circle cx="242.7" cy="284.0" r="2.6" fill="#4C78A8" fill-opacity="0.55"/><circle cx="244.9" cy="347.0" r="2.6" fill="#4C78A8" fill-opacity="0.55"/><circle cx="238.6" cy="335.1" r="2.6" fill="#4C78A8" fill-opacity="0.55"/><circle cx="235.8" cy="333.0" r="2.6" fill="#4C78A8" fill-opacity="0.55"/><circle cx="242.2" cy="163.0" r="2.6" fill="#4C78A8" fill-opacity="0.55"/><circle cx="245.4" cy="271.7" r="2.6" fill="#4C78A8" fill-opacity="0.55"/><circle cx="239.1" cy="329.8" r="2.6" fill="#4C78A8" fill-opacity="0.55"/><circle cx="235.3" cy="327.5" r="2.6" fill="#4C78A8" fill-opacity="0.55"/><circle cx="241.7" cy="338.5" r="2.6" fill="#4C78A8" fill-opacity="0.55"/><circle cx="246.0" cy="348.8" r="2.6" fill="#4C78A8" fill-opacity="0.55"/><circle cx="239.6" cy="349.9" r="2.6" fill="#4C78A8" fill-opacity="0.55"/><circle cx="234.8" cy="330.5" r="2.6" fill="#4C78A8" fill-opacity="0.55"/><circle cx="241.2" cy="358.1" r="2.6" fill="#4C78A8" fill-opacity="0.55"/><circle cx="246.5" cy="363.4" r="2.6" fill="#4C78A8" fill-opacity="0.55"/><circle cx="240.1" cy="178.0" r="2.6" fill="#4C78A8" fill-opacity="0.55"/><circle cx="234.3" cy="252.5" r="2.6" fill="#4C78A8" fill-opacity="0.55"/><circle cx="240.6" cy="343.3" r="2.6" fill="#4C78A8" fill-opacity="0.55"/><circle cx="247.0" cy="236.2" r="2.6" fill="#4C78A8" fill-opacity="0.55"/><circle cx="240.6" cy="309.2" r="2.6" fill="#4C78A8" fill-opacity="0.55"/><circle cx="234.3" cy="319.0" r="2.6" fill="#4C78A8" fill-opacity="0.55"/><circle cx="240.1" cy="319.8" r="2.6" fill="#4C78A8" fill-opacity="0.55"/><circle cx="246.5" cy="200.5" r="2.6" fill="#4C78A8" fill-opacity="0.55"/><circle cx="241.2" cy="322.3" r="2.6" fill="#4C78A8" fill-opacity="0.55"/><circle cx="234.8" cy="347.6" r="2.6" fill="#4C78A8" fill-opacity="0.55"/><circle cx="239.6" cy="269.8" r="2.6" fill="#4C78A8" fill-opacity="0.55"/><circle cx="246.0" cy="290.2" r="2.6" fill="#4C78A8" fill-opacity="0.55"/><circle cx="241.7" cy="356.1" r="2.6" fill="#4C78A8" fill-opacity="0.55"/><circle cx="235.3" cy="317.6" r="2.6" fill="#4C78A8" fill-opacity="0.55"/><circle cx="239.1" cy="343.5" r="2.6" fill="#4C78A8" fill-opacity="0.55"/><circle cx="245.4" cy="91.0" r="2.6" fill="#4C78A8" fill-opacity="0.55"/><circle cx="242.2" cy="308.0" r="2.6" fill="#4C78A8" fill-opacity="0.55"/><circle cx="235.8" cy="315.6" r="2.6" fill="#4C78A8" fill-opacity="0.55"/><circle cx="238.6" cy="365.8" r="2.6" fill="#4C78A8" fill-opacity="0.55"/><circle cx="244.9" cy="284.5" r="2.6" fill="#4C78A8" fill-opacity="0.55"/><circle cx="242.7" cy="338.5" r="2.6" fill="#4C78A8" fill-opacity="0.55"/><circle cx="236.3" cy="340.1" r="2.6" fill="#4C78A8" fill-opacity="0.55"/><circle cx="238.0" cy="305.9" r="2.6" fill="#4C78A8" fill-opacity="0.55"/><circle cx="244.4" cy="239.5" r="2.6" fill="#4C78A8" fill-opacity="0.55"/><circle cx="243.2" cy="334.5" r="2.6" fill="#4C78A8" fill-opacity="0.55"/><circle cx="236.9" cy="168.7" r="2.6" fill="#4C78A8" fill-opacity="0.55"/><circle cx="237.5" cy="323.3" r="2.6" fill="#4C78A8" fill-opacity="0.55"/><circle cx="243.9" cy="326.1" r="2.6" fill="#4C78A8" fill-opacity="0.55"/><circle cx="243.8" cy="329.7" r="2.6" fill="#4C78A8" fill-opacity="0.55"/><circle cx="237.4" cy="328.7" r="2.6" fill="#4C78A8" fill-opacity="0.55"/><circle cx="237.0" cy="324.8" r="2.6" fill="#4C78A8" fill-opacity="0.55"/><circle cx="243.4" cy="341.2" r="2.6" fill="#4C78A8" fill-opacity="0.55"/><circle cx="244.3" cy="209.8" r="2.6" fill="#4C78A8" fill-opacity="0.55"/><circle cx="237.9" cy="325.3" r="2.6" fill="#4C78A8" fill-opacity="0.55"/><text x="176" y="294.5" text-anchor="middle" font-size="12.5" font-weight="700" fill="#222">$0.504</text><text x="176" y="360.2" text-anchor="middle" font-size="10" fill="#fff">in $0.258</text><text x="176" y="323.4" text-anchor="middle" font-size="10" fill="#5a4500">cache $0.246</text><rect x="358" y="336.5" width="84" height="39.5" fill="#4878B0" fill-opacity="0.85"/><rect x="358" y="299.9" width="84" height="36.5" fill="#F2B705" fill-opacity="0.9"/><circle cx="460.3" cy="348.2" r="2.6" fill="#E45756" fill-opacity="0.55"/><circle cx="466.7" cy="247.6" r="2.6" fill="#E45756" fill-opacity="0.55"/><circle cx="468.9" cy="313.9" r="2.6" fill="#E45756" fill-opacity="0.55"/><circle cx="462.6" cy="302.5" r="2.6" fill="#E45756" fill-opacity="0.55"/><circle cx="459.8" cy="338.7" r="2.6" fill="#E45756" fill-opacity="0.55"/><circle cx="466.2" cy="86.7" r="2.6" fill="#E45756" fill-opacity="0.55"/><circle cx="469.4" cy="281.6" r="2.6" fill="#E45756" fill-opacity="0.55"/><circle cx="463.1" cy="273.7" r="2.6" fill="#E45756" fill-opacity="0.55"/><circle cx="459.3" cy="308.7" r="2.6" fill="#E45756" fill-opacity="0.55"/><circle cx="465.7" cy="311.7" r="2.6" fill="#E45756" fill-opacity="0.55"/><circle cx="470.0" cy="332.3" r="2.6" fill="#E45756" fill-opacity="0.55"/><circle cx="463.6" cy="343.4" r="2.6" fill="#E45756" fill-opacity="0.55"/><circle cx="458.8" cy="298.4" r="2.6" fill="#E45756" fill-opacity="0.55"/><circle cx="465.1" cy="358.7" r="2.6" fill="#E45756" fill-opacity="0.55"/><circle cx="470.5" cy="358.7" r="2.6" fill="#E45756" fill-opacity="0.55"/><circle cx="464.1" cy="229.1" r="2.6" fill="#E45756" fill-opacity="0.55"/><circle cx="458.3" cy="248.9" r="2.6" fill="#E45756" fill-opacity="0.55"/><circle cx="464.6" cy="342.9" r="2.6" fill="#E45756" fill-opacity="0.55"/><circle cx="471.0" cy="220.3" r="2.6" fill="#E45756" fill-opacity="0.55"/><circle cx="464.6" cy="311.8" r="2.6" fill="#E45756" fill-opacity="0.55"/><circle cx="458.3" cy="341.6" r="2.6" fill="#E45756" fill-opacity="0.55"/><circle cx="464.1" cy="329.7" r="2.6" fill="#E45756" fill-opacity="0.55"/><circle cx="470.5" cy="222.4" r="2.6" fill="#E45756" fill-opacity="0.55"/><circle cx="465.1" cy="285.3" r="2.6" fill="#E45756" fill-opacity="0.55"/><circle cx="458.8" cy="341.2" r="2.6" fill="#E45756" fill-opacity="0.55"/><circle cx="463.6" cy="324.3" r="2.6" fill="#E45756" fill-opacity="0.55"/><circle cx="470.0" cy="289.1" r="2.6" fill="#E45756" fill-opacity="0.55"/><circle cx="465.7" cy="336.3" r="2.6" fill="#E45756" fill-opacity="0.55"/><circle cx="459.3" cy="313.1" r="2.6" fill="#E45756" fill-opacity="0.55"/><circle cx="463.1" cy="337.3" r="2.6" fill="#E45756" fill-opacity="0.55"/><circle cx="469.4" cy="269.2" r="2.6" fill="#E45756" fill-opacity="0.55"/><circle cx="466.2" cy="295.2" r="2.6" fill="#E45756" fill-opacity="0.55"/><circle cx="459.8" cy="308.9" r="2.6" fill="#E45756" fill-opacity="0.55"/><circle cx="462.6" cy="354.8" r="2.6" fill="#E45756" fill-opacity="0.55"/><circle cx="468.9" cy="294.3" r="2.6" fill="#E45756" fill-opacity="0.55"/><circle cx="466.7" cy="355.3" r="2.6" fill="#E45756" fill-opacity="0.55"/><circle cx="460.3" cy="343.6" r="2.6" fill="#E45756" fill-opacity="0.55"/><circle cx="462.0" cy="259.6" r="2.6" fill="#E45756" fill-opacity="0.55"/><circle cx="468.4" cy="278.9" r="2.6" fill="#E45756" fill-opacity="0.55"/><circle cx="467.2" cy="334.9" r="2.6" fill="#E45756" fill-opacity="0.55"/><circle cx="460.9" cy="160.6" r="2.6" fill="#E45756" fill-opacity="0.55"/><circle cx="461.5" cy="300.9" r="2.6" fill="#E45756" fill-opacity="0.55"/><circle cx="467.9" cy="319.6" r="2.6" fill="#E45756" fill-opacity="0.55"/><circle cx="467.8" cy="341.7" r="2.6" fill="#E45756" fill-opacity="0.55"/><circle cx="461.4" cy="279.0" r="2.6" fill="#E45756" fill-opacity="0.55"/><circle cx="461.0" cy="320.7" r="2.6" fill="#E45756" fill-opacity="0.55"/><circle cx="467.4" cy="355.8" r="2.6" fill="#E45756" fill-opacity="0.55"/><circle cx="468.3" cy="262.3" r="2.6" fill="#E45756" fill-opacity="0.55"/><circle cx="461.9" cy="281.8" r="2.6" fill="#E45756" fill-opacity="0.55"/><text x="400" y="291.9" text-anchor="middle" font-size="12.5" font-weight="700" fill="#222">$0.522</text><text x="400" y="359.2" text-anchor="middle" font-size="10" fill="#fff">in $0.271</text><text x="400" y="321.2" text-anchor="middle" font-size="10" fill="#5a4500">cache $0.251</text><rect x="582" y="350.7" width="84" height="25.3" fill="#4878B0" fill-opacity="0.85"/><rect x="582" y="332.5" width="84" height="18.3" fill="#F2B705" fill-opacity="0.9"/><circle cx="684.3" cy="362.0" r="2.6" fill="#54A24B" fill-opacity="0.55"/><circle cx="690.7" cy="290.0" r="2.6" fill="#54A24B" fill-opacity="0.55"/><circle cx="692.9" cy="363.0" r="2.6" fill="#54A24B" fill-opacity="0.55"/><circle cx="686.5" cy="348.8" r="2.6" fill="#54A24B" fill-opacity="0.55"/><circle cx="683.8" cy="351.6" r="2.6" fill="#54A24B" fill-opacity="0.55"/><circle cx="690.2" cy="257.3" r="2.6" fill="#54A24B" fill-opacity="0.55"/><circle cx="693.4" cy="354.3" r="2.6" fill="#54A24B" fill-opacity="0.55"/><circle cx="687.1" cy="338.1" r="2.6" fill="#54A24B" fill-opacity="0.55"/><circle cx="683.3" cy="336.9" r="2.6" fill="#54A24B" fill-opacity="0.55"/><circle cx="689.7" cy="364.5" r="2.6" fill="#54A24B" fill-opacity="0.55"/><circle cx="694.0" cy="368.6" r="2.6" fill="#54A24B" fill-opacity="0.55"/><circle cx="687.6" cy="360.2" r="2.6" fill="#54A24B" fill-opacity="0.55"/><circle cx="682.8" cy="295.7" r="2.6" fill="#54A24B" fill-opacity="0.55"/><circle cx="689.1" cy="372.5" r="2.6" fill="#54A24B" fill-opacity="0.55"/><circle cx="694.5" cy="364.9" r="2.6" fill="#54A24B" fill-opacity="0.55"/><circle cx="688.1" cy="331.1" r="2.6" fill="#54A24B" fill-opacity="0.55"/><circle cx="682.3" cy="257.1" r="2.6" fill="#54A24B" fill-opacity="0.55"/><circle cx="688.6" cy="312.5" r="2.6" fill="#54A24B" fill-opacity="0.55"/><circle cx="695.0" cy="313.2" r="2.6" fill="#54A24B" fill-opacity="0.55"/><circle cx="688.6" cy="347.4" r="2.6" fill="#54A24B" fill-opacity="0.55"/><circle cx="682.3" cy="324.8" r="2.6" fill="#54A24B" fill-opacity="0.55"/><circle cx="688.1" cy="338.8" r="2.6" fill="#54A24B" fill-opacity="0.55"/><circle cx="694.5" cy="263.5" r="2.6" fill="#54A24B" fill-opacity="0.55"/><circle cx="689.1" cy="293.8" r="2.6" fill="#54A24B" fill-opacity="0.55"/><circle cx="682.8" cy="366.7" r="2.6" fill="#54A24B" fill-opacity="0.55"/><circle cx="687.6" cy="333.3" r="2.6" fill="#54A24B" fill-opacity="0.55"/><circle cx="694.0" cy="334.2" r="2.6" fill="#54A24B" fill-opacity="0.55"/><circle cx="689.7" cy="339.6" r="2.6" fill="#54A24B" fill-opacity="0.55"/><circle cx="683.3" cy="317.4" r="2.6" fill="#54A24B" fill-opacity="0.55"/><circle cx="687.1" cy="368.1" r="2.6" fill="#54A24B" fill-opacity="0.55"/><circle cx="693.4" cy="287.5" r="2.6" fill="#54A24B" fill-opacity="0.55"/><circle cx="690.2" cy="338.1" r="2.6" fill="#54A24B" fill-opacity="0.55"/><circle cx="683.8" cy="345.2" r="2.6" fill="#54A24B" fill-opacity="0.55"/><circle cx="686.5" cy="360.7" r="2.6" fill="#54A24B" fill-opacity="0.55"/><circle cx="692.9" cy="286.8" r="2.6" fill="#54A24B" fill-opacity="0.55"/><circle cx="690.7" cy="336.6" r="2.6" fill="#54A24B" fill-opacity="0.55"/><circle cx="684.3" cy="359.6" r="2.6" fill="#54A24B" fill-opacity="0.55"/><circle cx="686.0" cy="326.6" r="2.6" fill="#54A24B" fill-opacity="0.55"/><circle cx="692.4" cy="326.9" r="2.6" fill="#54A24B" fill-opacity="0.55"/><circle cx="691.2" cy="345.6" r="2.6" fill="#54A24B" fill-opacity="0.55"/><circle cx="684.9" cy="259.8" r="2.6" fill="#54A24B" fill-opacity="0.55"/><circle cx="685.5" cy="329.6" r="2.6" fill="#54A24B" fill-opacity="0.55"/><circle cx="691.9" cy="356.5" r="2.6" fill="#54A24B" fill-opacity="0.55"/><circle cx="691.8" cy="363.4" r="2.6" fill="#54A24B" fill-opacity="0.55"/><circle cx="685.4" cy="336.2" r="2.6" fill="#54A24B" fill-opacity="0.55"/><circle cx="685.0" cy="355.8" r="2.6" fill="#54A24B" fill-opacity="0.55"/><circle cx="691.4" cy="368.0" r="2.6" fill="#54A24B" fill-opacity="0.55"/><circle cx="692.3" cy="300.6" r="2.6" fill="#54A24B" fill-opacity="0.55"/><circle cx="685.9" cy="338.3" r="2.6" fill="#54A24B" fill-opacity="0.55"/><text x="624" y="324.5" text-anchor="middle" font-size="12.5" font-weight="700" fill="#222">$0.299</text><text x="624" y="366.4" text-anchor="middle" font-size="10" fill="#fff">in $0.173</text><text x="624" y="344.6" text-anchor="middle" font-size="10" fill="#5a4500">cache $0.125</text><rect x="64" y="49" width="11" height="11" fill="#4878B0" fill-opacity="0.85"/><text x="80" y="58" font-size="11" fill="#444">input tokens ×$5/Mtok</text><rect x="244" y="49" width="11" height="11" fill="#F2B705" fill-opacity="0.9"/><text x="260" y="58" font-size="11" fill="#444">cached tokens ×$0.5/Mtok</text><text x="176.0" y="396" text-anchor="middle" font-size="12" font-weight="600" fill="#4C78A8">classic</text><text x="400.0" y="396" text-anchor="middle" font-size="12" font-weight="600" fill="#E45756">classic-graphify</text><text x="624.0" y="396" text-anchor="middle" font-size="12" font-weight="600" fill="#54A24B">classic-graph-bash</text></svg>
