<svg xmlns="http://www.w3.org/2000/svg" width="640" height="460" viewBox="0 0 640 460" font-family="system-ui,Segoe UI,Helvetica,Arial,sans-serif">
<rect width="640" height="460" fill="#ffffff"/>
<text x="320" y="26" text-anchor="middle" font-size="16" font-weight="600" fill="#111">Total token cost (input + cached) on the benchmarks classic resolves</text>
<text x="320" y="44" text-anchor="middle" font-size="11" fill="#666">sum over the 22 benchmarks classic solves; tokens scaled by price into the $ they contribute</text><rect x="60" y="55" width="12" height="12" fill="#555"/><text x="77" y="65" font-size="11" fill="#444">solid = input ×$5/Mtok</text><rect x="235" y="55" width="12" height="12" fill="#555" fill-opacity="0.4"/><text x="252" y="65" font-size="11" fill="#444">faded = cached ×$0.5/Mtok</text><line x1="60" y1="384.0" x2="620" y2="384.0" stroke="#eee"/><text x="52" y="388.0" text-anchor="end" font-size="10" fill="#999">$0</text><line x1="60" y1="325.6" x2="620" y2="325.6" stroke="#eee"/><text x="52" y="329.6" text-anchor="end" font-size="10" fill="#999">$2</text><line x1="60" y1="267.2" x2="620" y2="267.2" stroke="#eee"/><text x="52" y="271.2" text-anchor="end" font-size="10" fill="#999">$4</text><line x1="60" y1="208.8" x2="620" y2="208.8" stroke="#eee"/><text x="52" y="212.8" text-anchor="end" font-size="10" fill="#999">$6</text><line x1="60" y1="150.4" x2="620" y2="150.4" stroke="#eee"/><text x="52" y="154.4" text-anchor="end" font-size="10" fill="#999">$8</text><line x1="60" y1="92.0" x2="620" y2="92.0" stroke="#eee"/><text x="52" y="96.0" text-anchor="end" font-size="10" fill="#999">$10</text><rect x="101.33333333333331" y="272.2" width="104" height="111.8" fill="#4C78A8"/><rect x="101.33333333333331" y="203.7" width="104" height="68.5" fill="#4C78A8" fill-opacity="0.4"/><text x="153.33333333333331" y="331.1" text-anchor="middle" font-size="10.5" fill="#fff">in $3.87</text><text x="153.33333333333331" y="241.0" text-anchor="middle" font-size="10.5" fill="#333">cache $2.37</text><text x="153.33333333333331" y="181.7" text-anchor="middle" font-size="18" font-weight="700" fill="#4C78A8">$6.24</text><text x="153.33333333333331" y="195.7" text-anchor="middle" font-size="10.5" fill="#666">baseline</text><text x="153.33333333333331" y="408" text-anchor="middle" font-size="12.5" font-weight="600" fill="#4C78A8">classic</text><rect x="288" y="235.2" width="104" height="148.8" fill="#E45756"/><rect x="288" y="132.3" width="104" height="102.9" fill="#E45756" fill-opacity="0.4"/><text x="340" y="312.6" text-anchor="middle" font-size="10.5" fill="#fff">in $5.15</text><text x="340" y="186.8" text-anchor="middle" font-size="10.5" fill="#333">cache $3.56</text><text x="340" y="110.3" text-anchor="middle" font-size="18" font-weight="700" fill="#E45756">$8.71</text><text x="340" y="124.3" text-anchor="middle" font-size="10.5" fill="#666">40% vs classic</text><text x="340" y="408" text-anchor="middle" font-size="12.5" font-weight="600" fill="#E45756">classic-graphify</text><rect x="474.66666666666663" y="295.6" width="104" height="88.4" fill="#54A24B"/><rect x="474.66666666666663" y="251.1" width="104" height="44.5" fill="#54A24B" fill-opacity="0.4"/><text x="526.6666666666666" y="342.8" text-anchor="middle" font-size="10.5" fill="#fff">in $3.06</text><text x="526.6666666666666" y="276.3" text-anchor="middle" font-size="10.5" fill="#333">cache $1.54</text><text x="526.6666666666666" y="229.1" text-anchor="middle" font-size="18" font-weight="700" fill="#54A24B">$4.60</text><text x="526.6666666666666" y="243.1" text-anchor="middle" font-size="10.5" fill="#666">-26% vs classic</text><text x="526.6666666666666" y="408" text-anchor="middle" font-size="12.5" font-weight="600" fill="#54A24B">classic-graph-bash</text></svg>
